<?xml version="1.0" encoding="UTF-8" standalone="no"?>
<!-- Generator: Adobe Illustrator 23.0.1, SVG Export Plug-In . SVG Version: 6.00 Build 0)  -->

<svg
   version="1.1"
   id="psmix_x5F_app_x5F_RGB.svg"
   x="0px"
   y="0px"
   viewBox="0 0 72.000002 72"
   xml:space="preserve"
   sodipodi:docname="adobe_photo_editor.svg"
   width="72"
   height="72"
   inkscape:version="1.2.1 (9c6d41e410, 2022-07-14)"
   xmlns:inkscape="http://www.inkscape.org/namespaces/inkscape"
   xmlns:sodipodi="http://sodipodi.sourceforge.net/DTD/sodipodi-0.dtd"
   xmlns="http://www.w3.org/2000/svg"
   xmlns:svg="http://www.w3.org/2000/svg"
   xmlns:ns="&amp;ns_sfw;"><defs
   id="defs19" /><sodipodi:namedview
   id="namedview17"
   pagecolor="#ffffff"
   bordercolor="#000000"
   borderopacity="0.25"
   inkscape:showpageshadow="2"
   inkscape:pageopacity="0.0"
   inkscape:pagecheckerboard="0"
   inkscape:deskcolor="#d1d1d1"
   showgrid="false"
   inkscape:zoom="4.774658"
   inkscape:cx="19.163676"
   inkscape:cy="60.109017"
   inkscape:window-width="1920"
   inkscape:window-height="1009"
   inkscape:window-x="-8"
   inkscape:window-y="-8"
   inkscape:window-maximized="1"
   inkscape:current-layer="g14" />
<style
   type="text/css"
   id="style2">
	.st0{fill-rule:evenodd;clip-rule:evenodd;fill:#001D26;}
	.st1{fill-rule:evenodd;clip-rule:evenodd;fill:#00C8FF;}
	.st2{fill:#CAF1FE;}
</style>
<metadata
   id="metadata4">
	<ns:sfw>
		<ns:slices />
		<ns:sliceSourceBounds
   bottomLeftOrigin="true"
   height="2778"
   width="2850.4"
   x="-1305.2"
   y="-1272" />
	</ns:sfw>
</metadata>
<g
   id="g14"><g
   id="g2310"
   transform="matrix(0.04069061,0,0,0.04069061,-21.945463,-20.523835)"
   style="stroke-width:24.5757"><path
     class="st1"
     d="m 1060.2,1709.5 c 0,4.7 2.4,7.1 7.1,7.1 h 95 c 4.7,0 7.1,-2.4 7.1,-7.1 v -254.1 c 16.6,0 24.9,1.2 49.9,1.2 144.8,0 263.6,-70 263.6,-231.5 0,-124.7 -77.2,-220.8 -254.1,-220.8 -62.9,0 -122.3,1.2 -162.6,3.6 -4.7,0 -5.9,3.6 -5.9,7.1 -0.1,0 -0.1,694.5 -0.1,694.5 z m 110.4,-603 c 11.9,-1.2 35.6,-2.4 61.7,-2.4 85.5,0 137.7,41.6 137.7,122.3 0,100.9 -71.2,127 -147.2,127 -24.9,0 -36.8,0 -52.2,-1.2 0,0 0,-245.7 0,-245.7 z m 686.1,198.2 c 5.9,2.4 9.5,-1.2 9.5,-5.9 v -87.9 c 0,-4.7 -1.2,-9.5 -5.9,-13.1 -21.4,-9.5 -62.9,-17.8 -117.5,-17.8 -111.6,0 -175.7,68.9 -175.7,150.8 0,73.6 38,117.5 128.2,161.5 64.1,33.2 79.5,53.4 79.5,77.2 0,28.5 -21.4,49.9 -71.2,49.9 -42.7,0 -93.8,-11.9 -134.2,-38 -4.7,-3.6 -7.1,-1.2 -7.1,4.7 v 93.8 c 0,4.7 1.2,8.3 4.7,10.7 27.3,15.4 80.7,27.3 136.5,27.3 105.7,0 184,-54.6 184,-156.7 0,-68.9 -32.1,-115.2 -131.8,-163.8 -67.7,-34.4 -79.5,-51 -79.5,-73.6 0,-21.4 16.6,-46.3 67.7,-46.3 39.2,-0.1 84.4,10.6 112.8,27.2 z"
     id="path10"
     style="fill:#000000;fill-opacity:1;stroke-width:24.5757" /><path
     class="st2"
     d="m 1424.6,2273.4 c -41.6,0 -81.9,-15.4 -114,-46.3 L 586.5,1503 c -62.9,-62.9 -62.9,-165 0,-226.8 L 1310.6,552 c 62.9,-62.9 165,-62.9 226.8,0 v 0 l 724.2,724.2 c 62.9,62.9 62.9,165 0,226.8 l -724.2,724.2 c -30.9,30.8 -71.2,46.2 -112.8,46.2 z m 0,-1733.2 c -32.1,0 -64.1,11.9 -89,36.8 l -724.2,724.2 c -48.7,48.7 -48.7,128.2 0,176.9 l 724.2,724.2 c 48.7,48.7 128.2,48.7 176.9,0 l 724.2,-724.2 c 48.7,-48.7 48.7,-128.2 0,-176.9 L 1512.5,577 c -23.8,-25 -55.8,-36.8 -87.9,-36.8 z"
     id="path12"
     style="fill:#000000;fill-opacity:0.75;stroke-width:24.5757" /></g>
	
	
	
	
</g>
</svg>
