<svg id="vector" xmlns="http://www.w3.org/2000/svg" width="72" height="72" viewBox="0 0 72 72"><path fill="#000" d="m33.093,0c2.268,0 4.131,1.119 5.241,3.147 0.87,1.587 1.293,3.693 1.293,6.435 0,4.32 -1.209,10.419 -3.267,17.13 1.995,3.807 4.452,7.734 7.314,11.463 0.297,0.384 0.591,0.759 0.894,1.125 13.694,-3.324 20.831,0.099 23.036,1.518 2.793,1.8 4.395,4.32 4.395,6.921m0,0c0,3.39 -1.815,5.949 -4.986,7.026C61.405,56.667 51.554,53.556 43.029,44.376 39.828,45.309 36.336,46.602 32.559,48.318 30.165,49.407 27.966,50.457 25.954,51.465 19.642,62.982 12.058,72 5.234,72 2.546,72 0.578,70.641 0.104,68.454 -1.027,63.237 6.881,56.127 22.546,48.138 26.056,41.568 29.25,34.128 31.545,27.165 26.947,17.94 24.481,8.619 26.929,3.657 28.089,1.299 30.282,0 33.093,0M4.52,67.437c0.084,0 0.312,0.063 0.714,0.063 3.645,0 8.315,-4.809 12.884,-11.817C6.896,62.238 4.445,66.375 4.496,67.44c0.006,-0.003 0.015,-0.003 0.024,-0.003zM67.498,47.739c0,-1.026 -0.87,-2.196 -2.328,-3.135 -3.153,-2.034 -8.912,-3.033 -17.048,-1.467 7.008,6.651 14.162,8.481 17.441,7.368 1.335,-0.453 1.935,-1.308 1.935,-2.766M34.437,32.484c-1.476,4.107 -3.21,8.313 -5.13,12.375 0.456,-0.21 0.918,-0.423 1.386,-0.636 3.309,-1.503 6.366,-2.685 9.191,-3.594 -1.917,-2.523 -3.762,-5.289 -5.448,-8.145zM33.093,4.5c-1.374,0 -1.836,0.552 -2.13,1.146 -1.215,2.466 -0.237,8.151 2.52,14.901C34.53,16.401 35.127,12.63 35.127,9.582 35.127,7.164 34.725,5.925 34.389,5.307 34.017,4.632 33.633,4.5 33.093,4.5" stroke-width="3" fill-rule="nonzero" stroke="#00000000" id="path_0"/></svg>