<svg id="vector" xmlns="http://www.w3.org/2000/svg" width="72" height="72" viewBox="0 0 7.6542 7.6557"><path fill="#000" d="m4.5227,5.1772l-0.4909,0.0801 0.0048,1.783c0.0014,0.3997 0.2352,0.5881 0.6265,0.5869 0.094,0 0.1823,-0.0181 0.1823,-0.0181L4.8445,7.3122C4.8392,7.3112 4.8031,7.3112 4.7756,7.3107 4.5692,7.304 4.5283,7.1905 4.5278,7.0596L4.525,6.0561 4.8411,6.0551 4.8401,5.7032 4.5243,5.7042 4.5227,5.1772ZM7.5595,7.3018C7.3601,7.2872 7.3181,7.1999 7.3179,7.0541l-0.0053,-1.8874 -0.4796,0.0832 0.0048,1.7746c0.001,0.4203 0.2299,0.5999 0.612,0.5988 0.082,0 0.1833,-0.0197 0.1833,-0.0197L7.6324,7.3024c0,0 -0.045,0.0014 -0.0728,-0.001m-4.8012,-1.252l0.0036,1.5675 0.4883,-0.0014 -0.004,-1.4757c0.064,-0.062 0.1992,-0.1171 0.3272,-0.1227 0.1191,-0.005 0.1965,0.0197 0.1965,0.0197L3.9043,5.7328C3.8515,5.7076 3.7264,5.6753 3.5813,5.6757 3.3709,5.6767 3.0482,5.7389 2.7583,6.0493m3.1455,1.2555c-0.1314,0 -0.2205,-0.0425 -0.2784,-0.1047C5.5389,7.107 5.5,6.9154 5.5097,6.7124l1.0329,-0.0029L6.5426,6.6619C6.5317,5.9855 6.3001,5.6788 5.7954,5.6802 5.2324,5.6818 5.0142,6.1997 5.0114,6.6871c-0.0025,0.3076 0.1142,0.617 0.3281,0.7933 0.1286,0.1072 0.3085,0.1659 0.5162,0.1654 0.1135,0 0.232,-0.0171 0.3396,-0.0508 0.2069,-0.0648 0.3596,-0.1761 0.3596,-0.1761L6.4187,7.1413C6.3947,7.1595 6.1886,7.3041 5.9039,7.3048M5.7962,6.0364c0.2131,-0.001 0.2449,0.2305 0.2451,0.3739l-0.5181,0.0014C5.5311,6.2272 5.6071,6.037 5.7962,6.0365M0.8511,5.6788c-0.229,0.001 -0.4344,0.0659 -0.6454,0.172l-0.0539,0.0273 0.1295,0.2871 0.0728,-0.0345c0.1489,-0.0676 0.3087,-0.1128 0.452,-0.1072 0.1734,0.0068 0.2448,0.0861 0.2453,0.2523l0.0002,0.0972 -0.284,0.001c-0.4564,0.0011 -0.7392,0.2441 -0.7464,0.6194 0.0011,0.3565 0.2995,0.6635 0.7132,0.6622 0.3335,-0.001 0.616,-0.1104 0.8063,-0.3016l-0.0026,-1.0181C1.5365,5.8401 1.1819,5.6779 0.851,5.6789m0.2025,1.581c-0.0471,0.0332 -0.1434,0.0621 -0.2486,0.0623 -0.1926,0.001 -0.28,-0.1468 -0.2773,-0.3189 0.0031,-0.1429 0.0916,-0.3049 0.3322,-0.3055l0.1921,-0.001 0.0016,0.5625zM1.9001,7.6177L2.379,7.6163 2.3737,5.7088 1.895,5.7882 1.9001,7.6176zM2.1372,4.9468c-0.1701,0 -0.3088,0.1375 -0.3081,0.3054 0.0002,0.1712 0.1349,0.3051 0.3056,0.3045 0.1706,0 0.3039,-0.1345 0.3032,-0.304 0.0026,-0.081 -0.0272,-0.1575 -0.0834,-0.2148 -0.057,-0.059 -0.1344,-0.0913 -0.2173,-0.091" stroke-width="0.0993428" fill-rule="nonzero" stroke="#00000000" id="path_0"/><path fill="#000" d="M5.6852,0.8662C5.6047,0.6113 5.4495,0.4018 5.2247,0.244 5.1984,0.2227 4.9174,-0.0015 4.3889,0 3.9053,0.0014 3.3757,0.1893 2.8145,0.5596l-0.0176,0.0118 -0.0027,0.0015 -0.0502,0.0317 -0.0432,0.0294c-0.1146,0.0781 -0.2243,0.1627 -0.3262,0.2528 -0.2368,0.2305 -0.5066,0.6152 -0.4886,0.9411 0.0075,0.1387 0.0654,0.2513 0.1724,0.3347 0.0962,0.0754 0.2166,0.1131 0.3566,0.1126 0.2883,-0.001 0.6035,-0.1583 0.819,-0.2914l0.0407,-0.0281c0.0376,-0.0246 0.0751,-0.0498 0.1125,-0.0754l0.0371,-0.0247c0.3061,-0.2065 0.6231,-0.4201 0.9801,-0.5454 0.0926,-0.0324 0.1736,-0.0481 0.2484,-0.0483 0.0369,0 0.0728,0.0036 0.1073,0.0119 0.1087,0.0247 0.1886,0.0862 0.2363,0.1833 0.0834,0.169 0.0644,0.4355 -0.0477,0.6798C4.7955,2.4698 4.5323,2.798 4.1656,3.113 3.9794,3.273 3.8065,3.3969 3.6527,3.4812l-0.0138,0.0074c-0.0714,0.0397 -0.1522,0.0841 -0.2373,0.1168l-0.0117,0.0044C3.3645,3.6193 3.343,3.628 3.3235,3.6345 3.0918,3.6973 3.0957,3.5892 3.1312,3.5034 3.1503,3.4564 3.2151,3.3753 3.2939,3.2929 3.3368,3.2493 3.3808,3.2081 3.4262,3.1654 3.475,3.1199 3.5251,3.0731 3.5754,3.0217L3.5865,3.0109C3.6489,2.9478 3.7346,2.8616 3.7292,2.7382 3.7216,2.5748 3.5551,2.4733 3.3992,2.4693h-0.0113c-0.1503,0 -0.2918,0.0887 -0.3845,0.1629 -0.0925,0.0746 -0.1916,0.1866 -0.2572,0.2918 -0.0947,0.1519 -0.2952,0.5388 -0.0986,0.8473 0.079,0.1234 0.2099,0.1858 0.3895,0.1853 0.1257,0 0.2739,-0.0313 0.4412,-0.0924C3.7286,3.7728 3.9264,3.6472 4.1178,3.5255L4.1693,3.4926C4.372,3.3643 4.5689,3.215 4.7726,3.0363 5.222,2.6407 5.4914,2.2539 5.6451,1.7809 5.7071,1.5893 5.7952,1.2159 5.6852,0.8662" stroke-width="0.0993428" fill-rule="nonzero" stroke="#00000000" fill-opacity="0.5" id="path_1"/></svg>