<svg id="vector" xmlns="http://www.w3.org/2000/svg" width="72" height="72" viewBox="0 0 64 64"><path fill="#000" d="m42.537,29.452c-0.431,0.288 -1.079,0.503 -1.869,0.503 -1.222,0 -2.374,-0.145 -3.522,-0.503 -0.288,-0.072 -0.503,-0.145 -0.648,-0.145 -0.216,0 -0.288,0.145 -0.288,0.431v0.719c0,0.216 0.072,0.358 0.145,0.503 0.072,0.072 0.216,0.216 0.431,0.288 1.15,0.503 2.445,0.719 3.883,0.719 1.51,0 2.66,-0.358 3.595,-1.079 0.936,-0.719 1.367,-1.655 1.367,-2.876 0,-0.864 -0.216,-1.51 -0.648,-2.084 -0.431,-0.503 -1.15,-1.007 -2.157,-1.367l-2.012,-0.791c-0.791,-0.288 -1.367,-0.574 -1.581,-0.864 -0.288,-0.288 -0.431,-0.574 -0.431,-1.079 0,-1.079 0.791,-1.655 2.445,-1.655 0.936,0 1.869,0.145 2.731,0.431 0.288,0.072 0.503,0.145 0.574,0.145 0.216,0 0.36,-0.145 0.36,-0.431v-0.717c0,-0.216 -0.072,-0.36 -0.145,-0.503 -0.072,-0.145 -0.216,-0.216 -0.431,-0.288 -1.079,-0.358 -2.157,-0.574 -3.236,-0.574 -1.367,0 -2.517,0.36 -3.379,1.007 -0.864,0.648 -1.293,1.581 -1.293,2.66 0,1.655 0.936,2.876 2.803,3.595l2.157,0.791c0.719,0.288 1.15,0.503 1.438,0.791 0.288,0.288 0.36,0.574 0.36,1.007 -0.002,0.574 -0.218,1.077 -0.649,1.365zM50.231,13.706c-0.288,-0.288 -0.719,-0.431 -1.222,-0.431 -0.503,0 -0.864,0.145 -1.15,0.431 -0.288,0.288 -0.431,0.648 -0.431,1.079 0,0.431 0.145,0.864 0.431,1.079 0.288,0.288 0.648,0.431 1.15,0.431 0.503,0 0.864,-0.145 1.15,-0.431 0.288,-0.288 0.431,-0.648 0.431,-1.079 0.002,-0.433 -0.072,-0.862 -0.36,-1.079zM49.8,18.596h-1.51c-0.358,0 -0.503,0.145 -0.503,0.503v11.936c0,0.358 0.145,0.503 0.503,0.503h1.51c0.358,0 0.503,-0.145 0.503,-0.503L50.302,19.099c0,-0.29 -0.143,-0.503 -0.503,-0.503zM56.558,21.471c0.648,-0.719 1.655,-1.079 3.093,-1.079 0.719,0 1.438,0.072 2.084,0.288 0.216,0.072 0.288,0.072 0.431,0.072 0.216,0 0.358,-0.145 0.358,-0.503v-0.719c0,-0.216 -0.072,-0.431 -0.145,-0.503 -0.072,-0.072 -0.216,-0.216 -0.36,-0.288 -0.936,-0.216 -1.869,-0.431 -2.731,-0.431 -2.012,0 -3.522,0.574 -4.674,1.798 -1.079,1.15 -1.655,2.876 -1.655,5.034 0,2.157 0.503,3.812 1.581,4.96 1.079,1.15 2.588,1.726 4.602,1.726 1.079,0 2.084,-0.145 2.876,-0.503 0.216,-0.072 0.36,-0.145 0.431,-0.288 0.072,-0.072 0.072,-0.288 0.072,-0.503v-0.719c0,-0.36 -0.145,-0.503 -0.36,-0.503 -0.072,0 -0.216,0 -0.358,0.072 -0.791,0.216 -1.581,0.36 -2.3,0.36 -1.367,0 -2.374,-0.36 -3.019,-1.079 -0.646,-0.719 -0.936,-1.871 -0.936,-3.379v-0.36c0.075,-1.585 0.361,-2.735 1.009,-3.454zM17.588,31.536h1.51c0.36,0 0.503,-0.145 0.503,-0.503v-8.988c0,-1.222 -0.288,-2.157 -0.936,-2.803 -0.648,-0.648 -1.51,-1.007 -2.731,-1.007 -1.655,0 -3.379,0.574 -5.034,1.798 -0.574,-1.222 -1.655,-1.798 -3.236,-1.798 -1.581,0 -3.164,0.574 -4.746,1.655L2.774,19.099c0,-0.216 -0.072,-0.288 -0.216,-0.358 -0.072,-0.072 -0.216,-0.072 -0.358,-0.072L1.049,18.67c-0.358,0 -0.503,0.145 -0.503,0.503v11.936c0,0.36 0.145,0.503 0.503,0.503L2.559,31.611c0.358,0 0.503,-0.145 0.503,-0.503v-9.708c1.222,-0.719 2.445,-1.15 3.738,-1.15 0.719,0 1.222,0.216 1.51,0.648 0.288,0.431 0.503,1.007 0.503,1.869v8.269c0,0.36 0.145,0.503 0.503,0.503h1.51c0.358,0 0.503,-0.145 0.503,-0.503L11.327,22.194 11.327,21.763 11.327,21.403c1.293,-0.791 2.517,-1.15 3.738,-1.15 0.719,0 1.222,0.216 1.51,0.648 0.288,0.431 0.503,1.007 0.503,1.869v8.269c0.007,0.354 0.152,0.497 0.51,0.497zM31.251,19.099v9.563c-1.222,0.791 -2.445,1.222 -3.667,1.222 -0.791,0 -1.367,-0.216 -1.726,-0.648 -0.36,-0.431 -0.503,-1.079 -0.503,-2.012v-8.124c0,-0.36 -0.145,-0.503 -0.503,-0.503L23.341,18.596c-0.358,0 -0.503,0.145 -0.503,0.503v8.915c0,1.222 0.288,2.229 0.936,2.876 0.648,0.648 1.581,1.007 2.803,1.007 1.655,0 3.309,-0.574 4.889,-1.726l0.145,0.864c0,0.216 0.072,0.288 0.216,0.358 0.072,0.072 0.216,0.072 0.431,0.072h1.079c0.358,0 0.503,-0.145 0.503,-0.503v-11.863c0,-0.36 -0.145,-0.503 -0.503,-0.503h-1.51c-0.433,0 -0.576,0.213 -0.576,0.503z" stroke-width="1.88241" id="path_0"/><path fill="#000" d="m59.793,47.922c3.738,-3.164 4.746,-9.708 3.955,-10.713 -0.36,-0.431 -2.084,-0.864 -4.241,-0.864 -2.3,0 -5.034,0.503 -7.117,1.941 -0.648,0.431 -0.503,1.007 0.145,0.936 2.229,-0.288 7.262,-0.864 8.196,0.288 0.864,1.15 -1.007,5.896 -1.869,7.981 -0.218,0.648 0.284,0.862 0.932,0.431zM56.774,41.164c-7.836,3.309 -16.394,4.96 -24.157,4.96 -11.503,0 -22.647,-3.164 -31.636,-8.412 -0.145,-0.072 -0.288,-0.145 -0.431,-0.145 -0.503,0 -0.791,0.574 -0.288,1.079C8.603,46.196 19.676,50.725 31.898,50.725c8.772,0 18.909,-2.731 25.885,-7.908 1.22,-0.862 0.213,-2.155 -1.009,-1.653z" stroke-width="1.88241" fill-opacity="0.75" id="path_1"/></svg>