<svg id="vector" xmlns="http://www.w3.org/2000/svg" width="72" height="72" viewBox="0 0 72 72"><path fill="#000" d="m18.234,13.759c-0.207,0.059 -0.309,0.155 -0.374,0.352 -0.069,0.207 -0.06,21.179 0.009,21.65 0.085,0.582 0.409,1.487 0.602,1.686 0.024,0.024 0.06,0.075 0.08,0.113 0.468,0.874 2.26,1.456 3.766,1.222 1.598,-0.248 1.612,-0.262 1.61,-1.556 -0.002,-1.258 0.022,-1.235 -1.248,-1.169 -0.733,0.038 -1.053,-0.084 -1.3,-0.496 -0.219,-0.366 -0.207,0.263 -0.208,-11.093 -0.001,-11.136 0.012,-10.404 -0.177,-10.581 -0.146,-0.137 -0.263,-0.15 -1.454,-0.162 -0.903,-0.009 -1.178,-0.002 -1.306,0.035m-11.338,7.301c-0.037,0.008 -0.279,0.029 -0.538,0.048 -0.487,0.035 -1.174,0.112 -1.497,0.168 -0.102,0.018 -0.321,0.055 -0.487,0.083 -0.166,0.028 -0.371,0.068 -0.454,0.087 -0.083,0.02 -0.227,0.051 -0.32,0.069 -0.259,0.052 -1.173,0.325 -1.362,0.407 -0.046,0.02 -0.114,0.047 -0.151,0.061 -0.835,0.302 -0.937,0.466 -0.939,1.514 -0.004,1.29 0.032,1.315 1.36,0.943 0.139,-0.039 0.313,-0.087 0.387,-0.108 0.074,-0.02 0.18,-0.05 0.235,-0.066 0.204,-0.058 0.816,-0.195 1.11,-0.248 0.166,-0.03 0.371,-0.068 0.454,-0.085 0.749,-0.153 2.31,-0.224 3.128,-0.141 1.139,0.115 1.613,0.29 2.117,0.782 0.607,0.593 0.713,1.038 0.733,3.081l0.015,1.551 -0.146,-0.03c-0.632,-0.129 -1.289,-0.253 -1.575,-0.298 -0.139,-0.022 -0.32,-0.053 -0.404,-0.069 -0.888,-0.172 -3.128,-0.16 -3.959,0.021 -0.125,0.027 -0.298,0.064 -0.385,0.081 -0.168,0.034 -0.663,0.184 -0.801,0.243 -0.046,0.02 -0.114,0.048 -0.151,0.063 -1.337,0.534 -2.418,1.578 -2.907,2.806 -0.015,0.037 -0.042,0.105 -0.061,0.151 -0.03,0.074 -0.06,0.179 -0.178,0.639 -0.183,0.707 -0.146,2.169 0.07,2.825 0.015,0.046 0.054,0.175 0.087,0.286 0.061,0.208 0.42,0.956 0.495,1.033 0.023,0.024 0.094,0.119 0.157,0.211 0.132,0.194 0.626,0.699 0.824,0.843 0.074,0.054 0.142,0.106 0.151,0.116 0.038,0.042 0.472,0.301 0.504,0.301 0.019,0 0.034,0.015 0.034,0.034 0,0.019 0.014,0.034 0.031,0.034 0.017,0 0.13,0.045 0.249,0.101 0.12,0.055 0.239,0.101 0.265,0.101 0.026,0 0.061,0.013 0.079,0.028 0.03,0.026 0.262,0.099 0.57,0.177 0.074,0.019 0.18,0.047 0.235,0.063 0.564,0.161 2.082,0.162 2.757,0.001 0.074,-0.018 0.248,-0.057 0.387,-0.087 0.139,-0.03 0.29,-0.067 0.336,-0.082 0.046,-0.015 0.175,-0.053 0.286,-0.084 0.413,-0.117 1.289,-0.484 1.502,-0.629 0.049,-0.034 0.098,-0.061 0.11,-0.061 0.025,0 0.736,-0.438 0.759,-0.468 0.009,-0.012 0.06,-0.049 0.112,-0.082 0.052,-0.033 0.12,-0.081 0.151,-0.107 0.591,-0.487 0.552,-0.496 0.644,0.152 0.155,1.092 0.222,1.143 1.512,1.143 1.144,0 1.378,-0.072 1.431,-0.444 0.042,-0.292 -0,-12.844 -0.044,-13.024 -0.022,-0.092 -0.065,-0.281 -0.095,-0.42 -0.066,-0.31 -0.191,-0.701 -0.295,-0.925 -0.043,-0.093 -0.099,-0.217 -0.124,-0.277 -0.025,-0.06 -0.056,-0.109 -0.068,-0.109 -0.012,0 -0.03,-0.034 -0.041,-0.076 -0.01,-0.042 -0.046,-0.107 -0.079,-0.143 -0.033,-0.037 -0.117,-0.152 -0.187,-0.255 -0.156,-0.231 -0.477,-0.561 -0.728,-0.747 -0.104,-0.077 -0.196,-0.148 -0.205,-0.159 -0.054,-0.06 -0.53,-0.313 -0.846,-0.45 -0.207,-0.089 -0.607,-0.224 -0.819,-0.276 -0.111,-0.027 -0.262,-0.064 -0.336,-0.082 -0.579,-0.142 -2.72,-0.29 -3.094,-0.214m26.142,-0.003c-0.009,0.009 -0.159,0.031 -0.334,0.049 -0.468,0.048 -0.838,0.099 -0.99,0.136 -0.074,0.018 -0.241,0.056 -0.37,0.085 -0.232,0.052 -0.743,0.2 -0.874,0.253 -0.037,0.015 -0.122,0.051 -0.19,0.081 -0.068,0.03 -0.131,0.054 -0.142,0.054 -0.02,0 -0.374,0.152 -0.458,0.198 -0.296,0.158 -0.908,0.531 -0.941,0.573 -0.009,0.012 -0.055,0.045 -0.101,0.074 -0.263,0.167 -0.96,0.861 -1.229,1.223 -0.11,0.148 -0.208,0.277 -0.218,0.286 -0.032,0.029 -0.286,0.448 -0.388,0.639 -0.054,0.102 -0.11,0.19 -0.123,0.196 -0.014,0.006 -0.025,0.029 -0.026,0.05 -0,0.022 -0.046,0.13 -0.1,0.241 -0.055,0.111 -0.1,0.213 -0.1,0.227 -0,0.014 -0.029,0.09 -0.063,0.168 -0.212,0.481 -0.475,1.352 -0.596,1.975 -0.027,0.139 -0.064,0.328 -0.082,0.42 -0.202,1.041 -0.207,3.109 -0.01,4.187 0.029,0.157 0.072,0.399 0.097,0.538 0.025,0.139 0.06,0.313 0.078,0.387 0.019,0.074 0.055,0.225 0.081,0.336 0.152,0.658 0.418,1.415 0.686,1.95 0.131,0.263 0.495,0.876 0.548,0.925 0.01,0.009 0.086,0.105 0.168,0.213 0.175,0.23 0.711,0.778 0.898,0.917 0.071,0.053 0.137,0.105 0.146,0.115 0.094,0.102 0.809,0.552 1.078,0.68 0.484,0.229 0.633,0.294 0.677,0.294 0.026,0 0.062,0.013 0.079,0.028 0.018,0.016 0.123,0.055 0.234,0.088 0.111,0.033 0.269,0.081 0.351,0.108 0.082,0.027 0.256,0.072 0.387,0.101 0.13,0.029 0.298,0.066 0.372,0.083 1.078,0.248 2.71,0.279 4.271,0.08 0.395,-0.05 0.478,-0.064 0.992,-0.165 0.545,-0.106 1.139,-0.279 1.471,-0.428 0.078,-0.035 0.151,-0.064 0.16,-0.064 0.078,0 0.622,-0.303 0.721,-0.402 0.19,-0.19 0.216,-0.334 0.215,-1.182 -0.001,-1.157 -0.179,-1.334 -1.004,-1.003 -0.037,0.015 -0.12,0.037 -0.185,0.05 -0.065,0.012 -0.133,0.034 -0.151,0.048 -0.019,0.014 -0.071,0.034 -0.118,0.044 -0.046,0.01 -0.228,0.06 -0.404,0.109 -0.176,0.05 -0.41,0.11 -0.521,0.133 -0.111,0.024 -0.315,0.067 -0.454,0.096 -1.206,0.254 -3.125,0.265 -4.035,0.024 -0.065,-0.017 -0.216,-0.056 -0.336,-0.086 -0.395,-0.1 -1.265,-0.476 -1.344,-0.582 -0.01,-0.013 -0.101,-0.087 -0.203,-0.163 -0.236,-0.178 -0.424,-0.359 -0.571,-0.55 -0.064,-0.083 -0.126,-0.159 -0.137,-0.168 -0.117,-0.096 -0.637,-1.094 -0.637,-1.224 0,-0.028 -0.013,-0.059 -0.03,-0.069 -0.016,-0.01 -0.037,-0.053 -0.047,-0.094 -0.009,-0.042 -0.062,-0.25 -0.117,-0.463 -0.09,-0.35 -0.14,-0.677 -0.243,-1.6 -0.077,-0.684 -0.127,-0.654 0.706,-0.413 0.065,0.019 0.209,0.054 0.32,0.078 1.174,0.256 1.675,0.304 3.161,0.304 1.234,0 2.018,-0.056 2.556,-0.184 0.074,-0.018 0.248,-0.057 0.387,-0.088 0.269,-0.06 0.889,-0.255 1.064,-0.335 0.058,-0.027 0.115,-0.049 0.125,-0.049 0.024,0 0.386,-0.159 0.473,-0.207 0.036,-0.02 0.134,-0.075 0.219,-0.122 0.199,-0.11 0.418,-0.247 0.44,-0.274 0.009,-0.012 0.055,-0.045 0.101,-0.074 0.17,-0.109 0.563,-0.471 0.723,-0.669 0.109,-0.135 0.266,-0.347 0.31,-0.419 0.238,-0.393 0.392,-0.756 0.484,-1.139 0.036,-0.151 0.081,-0.326 0.1,-0.391 0.053,-0.177 0.078,-1.48 0.034,-1.816 -0.082,-0.633 -0.207,-1.068 -0.462,-1.597 -0.098,-0.204 -0.36,-0.64 -0.415,-0.689 -0.01,-0.009 -0.078,-0.091 -0.151,-0.182 -0.163,-0.202 -0.344,-0.383 -0.551,-0.549 -0.086,-0.07 -0.187,-0.153 -0.223,-0.185 -0.036,-0.032 -0.075,-0.059 -0.088,-0.059 -0.012,0 -0.062,-0.034 -0.11,-0.076 -0.048,-0.042 -0.145,-0.106 -0.215,-0.143 -0.07,-0.037 -0.135,-0.074 -0.144,-0.084 -0.016,-0.017 -0.211,-0.111 -0.555,-0.268 -0.535,-0.244 -1.245,-0.424 -2.203,-0.557 -0.331,-0.046 -1.882,-0.073 -1.921,-0.034m31.784,0.002c-0.028,0.008 -0.255,0.029 -0.504,0.048 -0.507,0.039 -1.157,0.114 -1.463,0.169 -0.111,0.02 -0.3,0.052 -0.42,0.071 -0.236,0.037 -0.845,0.172 -1.143,0.254 -0.102,0.028 -0.253,0.066 -0.336,0.085 -0.083,0.019 -0.166,0.046 -0.185,0.059 -0.019,0.013 -0.124,0.051 -0.235,0.083 -0.111,0.032 -0.266,0.088 -0.344,0.123 -0.078,0.035 -0.149,0.064 -0.157,0.064 -0.072,0 -0.538,0.254 -0.624,0.341 -0.217,0.217 -0.236,0.315 -0.236,1.181 0,1.299 0.012,1.305 1.698,0.801 0.056,-0.017 0.207,-0.054 0.336,-0.084 0.13,-0.03 0.288,-0.068 0.353,-0.085 2.104,-0.552 4.853,-0.55 5.88,0.004 1.04,0.562 1.324,1.465 1.263,4.025l-0.023,0.987 -0.138,-0.02c-0.076,-0.011 -0.244,-0.041 -0.373,-0.067 -0.641,-0.129 -0.93,-0.184 -1.16,-0.221 -0.139,-0.022 -0.328,-0.054 -0.42,-0.07 -0.887,-0.161 -3.18,-0.16 -3.901,0.001 -0.87,0.195 -1.444,0.385 -1.883,0.622 -0.074,0.04 -0.187,0.102 -0.252,0.137 -0.065,0.035 -0.123,0.075 -0.129,0.089 -0.006,0.014 -0.025,0.025 -0.042,0.025 -0.185,0 -1.242,0.985 -1.483,1.382 -0.036,0.059 -0.087,0.129 -0.113,0.155 -0.026,0.026 -0.048,0.07 -0.048,0.096 0,0.026 -0.015,0.048 -0.034,0.048 -0.019,0 -0.034,0.021 -0.034,0.048 0,0.026 -0.011,0.053 -0.025,0.059 -0.075,0.033 -0.35,0.718 -0.461,1.146 -0.37,1.428 -0.038,3.618 0.675,4.448 0.045,0.052 0.081,0.107 0.081,0.122 0,0.043 0.672,0.714 0.824,0.823 0.074,0.053 0.142,0.105 0.151,0.115 0.016,0.018 0.265,0.17 0.437,0.267 0.18,0.102 0.493,0.246 0.671,0.309 0.103,0.037 0.21,0.078 0.238,0.094 0.028,0.015 0.104,0.038 0.168,0.051 0.064,0.013 0.147,0.035 0.184,0.05 0.549,0.225 2.25,0.264 3.06,0.071 0.074,-0.018 0.241,-0.056 0.37,-0.086 0.815,-0.187 1.932,-0.636 2.438,-0.979 0.064,-0.044 0.129,-0.079 0.144,-0.079 0.015,0 0.046,-0.016 0.068,-0.036 0.022,-0.019 0.139,-0.098 0.259,-0.175 0.12,-0.077 0.239,-0.16 0.263,-0.183 0.024,-0.024 0.075,-0.06 0.112,-0.079 0.075,-0.04 0.148,-0.097 0.332,-0.258 0.204,-0.179 0.19,-0.201 0.302,0.479 0.037,0.222 0.067,0.43 0.067,0.461 0,0.11 0.168,0.425 0.261,0.49 0.292,0.203 2.096,0.208 2.419,0.007 0.21,-0.131 0.195,0.325 0.206,-6.204 -0.249,-2.911 1.019,-7.919 -1.642,-10.037 -0.083,-0.064 -0.158,-0.126 -0.167,-0.137 -0.096,-0.118 -0.803,-0.485 -1.215,-0.632 -0.856,-0.304 -1.75,-0.432 -3.208,-0.458 -0.444,-0.008 -0.83,-0.008 -0.858,-0m-22.556,0.531c-0.291,0.106 -0.359,0.642 -0.11,0.863 0.01,0.009 0.124,0.176 0.253,0.37 0.129,0.194 0.243,0.361 0.253,0.37 0.01,0.009 0.086,0.115 0.167,0.235 0.129,0.189 0.186,0.268 0.328,0.454 0.014,0.019 0.061,0.091 0.104,0.161 0.043,0.07 0.095,0.146 0.117,0.168 0.021,0.023 0.13,0.177 0.241,0.344 0.111,0.166 0.21,0.31 0.221,0.319 0.01,0.009 0.119,0.161 0.242,0.336 0.122,0.176 0.235,0.335 0.251,0.353 0.016,0.018 0.063,0.091 0.106,0.161 0.043,0.07 0.095,0.145 0.117,0.168 0.022,0.023 0.068,0.086 0.103,0.141 0.035,0.055 0.077,0.115 0.092,0.134 0.041,0.051 0.533,0.753 0.65,0.927 0.055,0.083 0.127,0.179 0.16,0.215 0.032,0.036 0.059,0.076 0.059,0.09 0,0.014 0.02,0.045 0.045,0.07 0.025,0.025 0.088,0.113 0.14,0.195 0.052,0.083 0.115,0.17 0.14,0.195 0.025,0.025 0.045,0.056 0.045,0.07 0,0.014 0.026,0.054 0.059,0.09 0.032,0.036 0.104,0.133 0.159,0.217 0.103,0.156 0.357,0.508 0.387,0.538 0.009,0.009 0.108,0.153 0.219,0.32 0.111,0.166 0.211,0.31 0.223,0.319 0.061,0.049 0.265,0.41 0.265,0.469 0,0.058 -0.206,0.423 -0.267,0.473 -0.011,0.009 -0.049,0.062 -0.084,0.117 -0.035,0.055 -0.077,0.115 -0.094,0.134 -0.016,0.019 -0.12,0.163 -0.231,0.32 -0.11,0.157 -0.219,0.309 -0.242,0.336 -0.023,0.028 -0.07,0.095 -0.106,0.15 -0.036,0.055 -0.077,0.116 -0.093,0.135 -0.016,0.019 -0.225,0.315 -0.464,0.657 -0.24,0.342 -0.449,0.638 -0.465,0.657 -0.016,0.019 -0.058,0.079 -0.093,0.134 -0.035,0.055 -0.082,0.119 -0.103,0.141 -0.022,0.023 -0.074,0.098 -0.117,0.168 -0.043,0.07 -0.09,0.142 -0.105,0.161 -0.015,0.019 -0.072,0.094 -0.127,0.168 -0.055,0.074 -0.112,0.15 -0.127,0.168 -0.015,0.019 -0.062,0.091 -0.105,0.161 -0.043,0.07 -0.096,0.145 -0.117,0.168 -0.022,0.023 -0.068,0.086 -0.103,0.141 -0.035,0.055 -0.077,0.116 -0.092,0.135 -0.016,0.019 -0.225,0.314 -0.464,0.657 -0.24,0.342 -0.449,0.638 -0.465,0.657 -0.016,0.019 -0.058,0.079 -0.093,0.135 -0.035,0.055 -0.11,0.162 -0.165,0.238 -0.056,0.076 -0.124,0.173 -0.152,0.215 -0.028,0.042 -0.081,0.116 -0.118,0.165 -0.037,0.048 -0.135,0.186 -0.218,0.306 -0.082,0.12 -0.162,0.234 -0.177,0.252 -0.015,0.019 -0.088,0.117 -0.161,0.219 -0.073,0.102 -0.145,0.2 -0.159,0.219 -0.382,0.491 -0.433,0.957 -0.121,1.112 0.292,0.145 2.507,0.104 2.827,-0.053 0.16,-0.078 0.582,-0.527 0.582,-0.618 0,-0.009 0.116,-0.187 0.258,-0.396 0.355,-0.525 0.59,-0.877 1.451,-2.18 0.41,-0.619 0.756,-1.142 0.771,-1.16 0.014,-0.018 0.094,-0.139 0.176,-0.269 0.083,-0.13 0.159,-0.243 0.169,-0.252 0.01,-0.009 0.086,-0.123 0.168,-0.252 0.082,-0.13 0.158,-0.243 0.168,-0.252 0.01,-0.009 0.086,-0.123 0.168,-0.252 0.082,-0.13 0.158,-0.243 0.169,-0.252 0.01,-0.009 0.09,-0.129 0.177,-0.267 0.087,-0.137 0.158,-0.235 0.158,-0.217 0,0.018 0.027,0.063 0.06,0.098 0.033,0.036 0.095,0.122 0.138,0.192 0.043,0.07 0.096,0.145 0.118,0.168 0.022,0.023 0.106,0.147 0.187,0.277 0.081,0.13 0.157,0.243 0.168,0.252 0.012,0.009 0.073,0.1 0.137,0.202 0.063,0.102 0.125,0.192 0.137,0.202 0.012,0.009 0.064,0.085 0.115,0.168 0.052,0.083 0.104,0.159 0.116,0.168 0.012,0.009 0.088,0.123 0.168,0.252 0.081,0.129 0.156,0.243 0.168,0.252 0.012,0.009 0.073,0.1 0.137,0.202 0.064,0.102 0.124,0.192 0.134,0.202 0.01,0.009 0.139,0.198 0.287,0.42 0.148,0.222 0.276,0.411 0.286,0.42 0.01,0.009 0.085,0.123 0.168,0.252 0.082,0.13 0.158,0.243 0.168,0.252 0.01,0.009 0.158,0.225 0.328,0.479 0.814,1.215 0.934,1.39 0.974,1.432 0.023,0.024 0.043,0.057 0.043,0.072 0,0.056 0.299,0.334 0.442,0.41l0.147,0.078h1.402c1.702,0 1.728,-0.009 1.615,-0.547 -0.033,-0.158 -0.468,-0.893 -0.581,-0.983 -0.012,-0.009 -0.063,-0.084 -0.114,-0.165 -0.051,-0.082 -0.107,-0.165 -0.123,-0.185 -0.016,-0.02 -0.188,-0.263 -0.381,-0.541 -0.193,-0.277 -0.363,-0.52 -0.379,-0.538 -0.015,-0.019 -0.063,-0.091 -0.106,-0.161 -0.043,-0.07 -0.095,-0.146 -0.117,-0.169 -0.021,-0.023 -0.13,-0.178 -0.241,-0.344 -0.111,-0.166 -0.219,-0.321 -0.241,-0.343 -0.021,-0.023 -0.074,-0.098 -0.117,-0.168 -0.043,-0.07 -0.091,-0.142 -0.106,-0.161 -0.015,-0.019 -0.186,-0.261 -0.379,-0.538 -0.193,-0.277 -0.364,-0.521 -0.381,-0.541 -0.016,-0.02 -0.072,-0.102 -0.122,-0.182 -0.051,-0.08 -0.106,-0.162 -0.122,-0.182 -0.038,-0.046 -0.518,-0.73 -0.651,-0.929 -0.056,-0.083 -0.11,-0.158 -0.121,-0.167 -0.011,-0.009 -0.06,-0.077 -0.109,-0.151 -0.049,-0.074 -0.129,-0.195 -0.178,-0.269 -0.049,-0.074 -0.099,-0.142 -0.111,-0.151 -0.012,-0.009 -0.073,-0.1 -0.137,-0.202 -0.064,-0.102 -0.125,-0.192 -0.137,-0.202 -0.012,-0.009 -0.094,-0.123 -0.182,-0.252 -0.14,-0.206 -0.213,-0.308 -0.311,-0.437 -0.209,-0.275 -0.274,-0.485 -0.183,-0.591 0.023,-0.026 0.166,-0.222 0.318,-0.435 0.152,-0.213 0.304,-0.425 0.338,-0.471 0.162,-0.222 0.314,-0.435 0.359,-0.503 0.049,-0.074 0.206,-0.286 0.263,-0.355 0.015,-0.019 0.057,-0.079 0.093,-0.135 0.035,-0.055 0.091,-0.129 0.123,-0.165 0.032,-0.036 0.059,-0.076 0.059,-0.09 0,-0.014 0.02,-0.045 0.044,-0.069 0.024,-0.024 0.314,-0.422 0.644,-0.884 0.33,-0.462 0.613,-0.855 0.629,-0.874 0.015,-0.019 0.141,-0.194 0.278,-0.388 0.446,-0.631 0.506,-0.713 0.565,-0.783 0.032,-0.038 0.059,-0.078 0.059,-0.09 0,-0.012 0.027,-0.051 0.059,-0.087 0.032,-0.036 0.088,-0.11 0.123,-0.165 0.035,-0.055 0.078,-0.115 0.094,-0.134 0.016,-0.019 0.12,-0.163 0.231,-0.32 0.111,-0.157 0.221,-0.31 0.245,-0.339 0.024,-0.029 0.073,-0.101 0.107,-0.16 0.034,-0.059 0.074,-0.107 0.087,-0.107 0.013,0 0.033,-0.028 0.044,-0.061 0.011,-0.034 0.046,-0.09 0.078,-0.126 0.318,-0.353 0.473,-0.823 0.336,-1.022 -0.131,-0.19 -0.219,-0.202 -1.438,-0.201 -1.479,0.001 -1.685,0.071 -2.084,0.704 -0.064,0.102 -0.126,0.192 -0.138,0.202 -0.012,0.009 -0.087,0.123 -0.168,0.252 -0.08,0.13 -0.156,0.243 -0.168,0.252 -0.012,0.009 -0.088,0.123 -0.168,0.252 -0.081,0.13 -0.156,0.243 -0.168,0.252 -0.012,0.009 -0.088,0.123 -0.168,0.252 -0.08,0.13 -0.156,0.243 -0.168,0.252 -0.012,0.009 -0.088,0.123 -0.168,0.252 -0.08,0.13 -0.156,0.243 -0.168,0.252 -0.012,0.009 -0.088,0.123 -0.168,0.252 -0.081,0.13 -0.156,0.243 -0.168,0.252 -0.012,0.009 -0.064,0.085 -0.116,0.168 -0.052,0.083 -0.104,0.159 -0.116,0.168 -0.012,0.009 -0.088,0.123 -0.168,0.252 -0.08,0.129 -0.156,0.243 -0.168,0.252 -0.012,0.009 -0.073,0.1 -0.137,0.202 -0.063,0.102 -0.125,0.192 -0.137,0.202 -0.012,0.009 -0.087,0.123 -0.168,0.252 -0.08,0.129 -0.156,0.243 -0.168,0.252 -0.012,0.009 -0.064,0.085 -0.116,0.168 -0.052,0.083 -0.104,0.159 -0.115,0.168 -0.012,0.009 -0.072,0.096 -0.133,0.194 -0.148,0.234 -0.158,0.232 -0.34,-0.059 -0.064,-0.102 -0.125,-0.192 -0.137,-0.202 -0.012,-0.009 -0.064,-0.085 -0.115,-0.168 -0.052,-0.083 -0.104,-0.159 -0.115,-0.168 -0.012,-0.009 -0.073,-0.1 -0.137,-0.202 -0.064,-0.102 -0.124,-0.192 -0.134,-0.202 -0.01,-0.009 -0.139,-0.198 -0.287,-0.42 -0.147,-0.222 -0.276,-0.411 -0.286,-0.42 -0.01,-0.009 -0.155,-0.221 -0.323,-0.471 -0.479,-0.713 -0.6,-0.89 -0.619,-0.908 -0.01,-0.009 -0.085,-0.123 -0.167,-0.252 -0.082,-0.129 -0.159,-0.243 -0.169,-0.252 -0.011,-0.009 -0.052,-0.07 -0.092,-0.136 -0.04,-0.066 -0.099,-0.151 -0.133,-0.19 -0.033,-0.039 -0.117,-0.16 -0.186,-0.268 -0.229,-0.358 -0.39,-0.599 -0.422,-0.636 -0.018,-0.02 -0.07,-0.096 -0.117,-0.168 -0.209,-0.326 -0.451,-0.499 -0.77,-0.551 -0.303,-0.049 -2.469,-0.041 -2.608,0.009m-7.904,2.092c0.373,0.062 0.635,0.121 0.681,0.153 0.018,0.013 0.082,0.034 0.141,0.047 0.537,0.115 1.133,0.642 1.43,1.264 0.346,0.726 0.233,2.103 -0.218,2.645 -0.318,0.383 -0.82,0.717 -1.206,0.801 -0.061,0.014 -0.135,0.036 -0.163,0.05 -0.094,0.046 -0.284,0.097 -0.506,0.136 -0.12,0.021 -0.294,0.052 -0.387,0.069 -0.616,0.111 -2.138,0.11 -2.943,-0.003 -0.363,-0.05 -0.848,-0.131 -1.009,-0.168 -1.246,-0.283 -1.297,-0.308 -1.264,-0.606 0.027,-0.244 0.108,-0.723 0.15,-0.891 0.019,-0.074 0.05,-0.203 0.071,-0.286 0.08,-0.324 0.394,-1.112 0.469,-1.177 0.011,-0.009 0.046,-0.07 0.079,-0.135 0.166,-0.329 0.688,-0.913 1.009,-1.131 0.078,-0.053 0.15,-0.107 0.159,-0.119 0.021,-0.028 0.538,-0.293 0.723,-0.37 0.257,-0.108 0.68,-0.216 1.025,-0.264 0.157,-0.021 0.292,-0.045 0.3,-0.053 0.039,-0.039 1.176,-0.009 1.457,0.038m-26.306,7.329c0.577,0.05 1.241,0.13 1.53,0.186 0.092,0.018 0.304,0.048 0.471,0.068 0.604,0.071 0.732,0.205 0.66,0.69 -0.023,0.153 -0.038,0.759 -0.038,1.527 0,1.434 0.012,1.346 -0.198,1.488 -0.086,0.058 -0.163,0.116 -0.173,0.128 -0.058,0.075 -1.047,0.622 -1.48,0.817 -1.691,0.763 -3.745,0.8 -4.594,0.082 -0.234,-0.198 -0.484,-0.483 -0.484,-0.553 0,-0.025 -0.011,-0.045 -0.025,-0.045 -0.027,0 -0.05,-0.05 -0.189,-0.398 -0.219,-0.548 -0.211,-1.906 0.013,-2.208 0.014,-0.019 0.035,-0.075 0.047,-0.125 0.059,-0.245 0.401,-0.713 0.695,-0.951 0.716,-0.578 2.145,-0.846 3.765,-0.707m58.077,0.002c0.571,0.048 1.258,0.129 1.396,0.163 0.037,0.009 0.203,0.041 0.37,0.07 0.896,0.156 0.79,-0.098 0.79,1.905v1.675l-0.074,0.069c-0.041,0.038 -0.085,0.069 -0.098,0.069 -0.014,0 -0.046,0.021 -0.071,0.046 -0.025,0.025 -0.174,0.126 -0.33,0.224 -0.896,0.562 -1.783,0.946 -2.588,1.122 -0.12,0.026 -0.309,0.068 -0.42,0.093 -0.404,0.091 -1.731,0.063 -2.051,-0.044 -0.695,-0.231 -1.3,-0.766 -1.444,-1.276 -0.013,-0.044 -0.035,-0.111 -0.05,-0.148 -0.238,-0.596 -0.243,-1.581 -0.011,-2.186 0.169,-0.441 0.685,-1.104 0.916,-1.177 0.037,-0.012 0.068,-0.034 0.068,-0.049 0,-0.058 0.532,-0.289 0.925,-0.401 0.574,-0.165 1.743,-0.232 2.674,-0.154" stroke-width="0.201774" fill-rule="evenodd" stroke="#00000000" id="path_0"/><path fill="#000" d="m63.527,43.321c-0.018,0.008 -0.192,0.029 -0.387,0.048 -1.63,0.158 -2.913,0.466 -4.186,1.005 -0.41,0.173 -1.421,0.723 -1.497,0.814 -0.009,0.011 -0.072,0.054 -0.14,0.095 -0.402,0.244 -0.58,0.685 -0.37,0.919 0.144,0.161 0.331,0.164 1.468,0.028 0.13,-0.016 0.409,-0.045 0.622,-0.065 0.404,-0.038 0.807,-0.078 1.345,-0.135 1.174,-0.123 3.632,-0.115 4.237,0.015 0.624,0.134 0.892,0.224 1.092,0.37 0.097,0.07 0.109,0.082 0.224,0.219 0.396,0.472 0.271,2.027 -0.309,3.834 -0.032,0.102 -0.107,0.344 -0.166,0.538 -0.059,0.194 -0.153,0.482 -0.209,0.639 -0.056,0.157 -0.11,0.316 -0.12,0.353 -0.01,0.037 -0.03,0.082 -0.043,0.101 -0.014,0.018 -0.036,0.086 -0.05,0.15 -0.014,0.064 -0.036,0.14 -0.05,0.168 -0.038,0.077 -0.077,0.176 -0.269,0.69 -0.097,0.259 -0.198,0.524 -0.226,0.588 -0.066,0.155 -0.085,0.206 -0.195,0.504 -0.051,0.139 -0.126,0.328 -0.167,0.42 -0.302,0.684 -0.202,0.981 0.321,0.952 0.304,-0.017 0.475,-0.139 1.144,-0.818 0.427,-0.433 0.362,-0.359 0.822,-0.931 0.025,-0.031 0.073,-0.099 0.106,-0.151 0.033,-0.052 0.07,-0.102 0.081,-0.111 0.178,-0.143 1.07,-1.69 1.375,-2.388 0.061,-0.139 0.145,-0.328 0.186,-0.42 0.042,-0.092 0.117,-0.282 0.167,-0.42 0.051,-0.139 0.105,-0.282 0.12,-0.32 0.016,-0.037 0.053,-0.15 0.083,-0.252 0.03,-0.102 0.067,-0.215 0.083,-0.252 0.015,-0.037 0.036,-0.097 0.045,-0.134 0.01,-0.037 0.042,-0.151 0.072,-0.252 0.089,-0.303 0.155,-0.546 0.186,-0.689 0.016,-0.074 0.046,-0.195 0.066,-0.269 0.02,-0.074 0.06,-0.256 0.089,-0.404 0.029,-0.148 0.067,-0.337 0.083,-0.42 0.154,-0.774 0.21,-2.043 0.115,-2.569 -0.08,-0.442 -0.246,-0.687 -0.555,-0.817 -0.065,-0.027 -0.163,-0.07 -0.219,-0.095 -0.172,-0.076 -0.607,-0.212 -0.813,-0.253 -0.108,-0.022 -0.264,-0.053 -0.347,-0.07 -0.14,-0.028 -0.438,-0.073 -1.127,-0.169 -0.254,-0.035 -2.618,-0.075 -2.69,-0.046m-60.374,1.349c-0.163,0.084 -0.309,0.313 -0.309,0.485 0,0.311 0.121,0.46 0.988,1.226 0.337,0.297 1.152,0.977 1.433,1.194 0.083,0.065 0.159,0.125 0.168,0.135 0.009,0.01 0.123,0.1 0.252,0.201 0.129,0.101 0.243,0.191 0.252,0.201 0.009,0.01 0.108,0.086 0.219,0.169 0.111,0.083 0.222,0.17 0.246,0.193 0.024,0.023 0.055,0.042 0.067,0.042 0.013,0 0.076,0.045 0.14,0.101 0.065,0.055 0.128,0.101 0.14,0.101 0.013,0 0.043,0.02 0.067,0.043 0.024,0.024 0.165,0.13 0.313,0.235 0.148,0.106 0.285,0.205 0.304,0.22 0.019,0.016 0.079,0.057 0.134,0.092 0.055,0.035 0.119,0.082 0.141,0.103 0.023,0.021 0.098,0.074 0.168,0.116 0.07,0.043 0.135,0.086 0.144,0.098 0.009,0.011 0.342,0.235 0.74,0.497 0.397,0.262 0.741,0.492 0.764,0.511 0.022,0.019 0.054,0.034 0.071,0.034 0.016,0 0.065,0.03 0.107,0.067 0.042,0.037 0.389,0.255 0.77,0.484 0.952,0.572 0.983,0.591 1.088,0.635 0.051,0.022 0.092,0.051 0.092,0.066 0,0.014 0.014,0.026 0.031,0.026 0.017,0 0.203,0.098 0.412,0.218 0.209,0.12 0.398,0.219 0.42,0.219 0.022,0 0.044,0.012 0.05,0.026 0.014,0.03 0.27,0.169 0.835,0.453 0.231,0.116 0.428,0.219 0.437,0.23 0.009,0.01 0.077,0.047 0.151,0.081 0.074,0.034 0.4,0.189 0.723,0.345 0.742,0.356 0.887,0.423 1.345,0.625 0.065,0.029 0.201,0.089 0.303,0.134 0.102,0.045 0.344,0.147 0.538,0.227 0.194,0.079 0.367,0.157 0.385,0.173 0.018,0.015 0.053,0.028 0.078,0.028 0.025,0 0.129,0.038 0.23,0.084 0.101,0.046 0.192,0.084 0.203,0.084 0.01,0 0.074,0.024 0.142,0.054 0.168,0.073 0.186,0.081 0.779,0.299 0.776,0.287 0.85,0.313 0.942,0.336 0.046,0.012 0.118,0.036 0.16,0.053 0.042,0.017 0.11,0.045 0.151,0.063 0.042,0.017 0.166,0.057 0.277,0.09 0.111,0.032 0.217,0.07 0.235,0.084 0.019,0.014 0.094,0.036 0.168,0.049 0.074,0.013 0.15,0.034 0.168,0.046 0.036,0.024 0.107,0.047 0.572,0.187 0.442,0.133 0.813,0.242 1.043,0.305 0.111,0.031 0.24,0.068 0.286,0.084 0.046,0.016 0.137,0.038 0.202,0.049 0.065,0.012 0.156,0.033 0.202,0.049 0.136,0.045 0.337,0.098 0.589,0.156 0.13,0.03 0.281,0.068 0.336,0.085 0.134,0.04 0.759,0.189 0.992,0.236 0.102,0.02 0.246,0.051 0.32,0.067 0.074,0.017 0.248,0.053 0.387,0.081 0.139,0.028 0.32,0.066 0.404,0.084 0.083,0.019 0.28,0.057 0.437,0.084 0.157,0.028 0.362,0.065 0.454,0.083 0.092,0.018 0.319,0.057 0.504,0.087 0.185,0.03 0.412,0.068 0.504,0.084 0.092,0.016 0.342,0.054 0.555,0.083 0.213,0.03 0.485,0.068 0.605,0.086 0.12,0.017 0.415,0.055 0.656,0.083 0.241,0.028 0.558,0.066 0.706,0.084 0.148,0.018 0.541,0.056 0.874,0.085 1.896,0.164 2.605,0.194 4.624,0.194 1.719,-0 2.446,-0.023 3.481,-0.111 0.796,-0.067 1.526,-0.136 1.782,-0.167 0.148,-0.018 0.458,-0.056 0.689,-0.084 0.231,-0.028 0.526,-0.067 0.656,-0.086 0.13,-0.019 0.394,-0.058 0.589,-0.085 0.194,-0.028 0.429,-0.065 0.521,-0.082 0.092,-0.018 0.312,-0.055 0.488,-0.084 0.176,-0.028 0.395,-0.066 0.487,-0.084 0.093,-0.018 0.297,-0.056 0.454,-0.084 0.157,-0.028 0.354,-0.067 0.437,-0.085 0.083,-0.019 0.265,-0.056 0.404,-0.084 0.139,-0.028 0.313,-0.064 0.387,-0.081 0.074,-0.017 0.218,-0.047 0.319,-0.067 0.189,-0.038 0.731,-0.167 1.093,-0.26 0.111,-0.029 0.285,-0.071 0.387,-0.095 0.219,-0.051 0.949,-0.244 1.093,-0.288 0.056,-0.017 0.192,-0.055 0.303,-0.086 0.111,-0.03 0.24,-0.067 0.286,-0.082 0.046,-0.015 0.22,-0.068 0.387,-0.118 0.166,-0.05 0.454,-0.137 0.639,-0.192 0.185,-0.056 0.412,-0.129 0.504,-0.163 0.092,-0.034 0.221,-0.076 0.286,-0.094 0.065,-0.018 0.337,-0.111 0.605,-0.207 0.268,-0.096 0.586,-0.209 0.706,-0.252 0.286,-0.102 1.535,-0.581 1.665,-0.639 0.056,-0.025 0.237,-0.101 0.404,-0.168 0.166,-0.068 0.371,-0.153 0.454,-0.19 0.308,-0.135 0.391,-0.173 0.588,-0.262 0.111,-0.05 0.3,-0.136 0.42,-0.189 0.419,-0.188 2.373,-1.176 2.421,-1.225 0.009,-0.009 0.077,-0.047 0.151,-0.083 0.074,-0.037 0.203,-0.107 0.286,-0.156 0.378,-0.224 0.46,-0.271 0.547,-0.307 0.051,-0.022 0.092,-0.051 0.092,-0.066 0,-0.015 0.023,-0.026 0.05,-0.026 0.028,0 0.051,-0.015 0.051,-0.034 0,-0.019 0.017,-0.034 0.038,-0.034 0.037,0 1.174,-0.698 1.207,-0.741 0.009,-0.012 0.123,-0.088 0.252,-0.168 0.129,-0.081 0.243,-0.156 0.252,-0.168 0.009,-0.012 0.085,-0.064 0.168,-0.116 0.083,-0.052 0.159,-0.104 0.168,-0.115 0.009,-0.011 0.085,-0.064 0.168,-0.118 0.83,-0.535 1.159,-0.987 1.043,-1.435 -0.187,-0.723 -0.941,-0.981 -1.766,-0.605 -0.074,0.034 -0.172,0.073 -0.219,0.087 -0.046,0.014 -0.099,0.037 -0.118,0.05 -0.019,0.014 -0.146,0.067 -0.285,0.119 -0.138,0.052 -0.289,0.115 -0.336,0.139 -0.047,0.025 -0.109,0.045 -0.138,0.045 -0.029,0 -0.066,0.013 -0.084,0.029 -0.018,0.016 -0.206,0.093 -0.419,0.172 -0.455,0.168 -0.495,0.183 -0.605,0.228 -0.205,0.084 -1.008,0.38 -1.16,0.428 -0.093,0.029 -0.191,0.066 -0.22,0.081 -0.028,0.016 -0.104,0.04 -0.168,0.053 -0.064,0.014 -0.132,0.036 -0.15,0.049 -0.019,0.013 -0.17,0.067 -0.336,0.12 -0.166,0.053 -0.318,0.107 -0.336,0.12 -0.019,0.014 -0.094,0.035 -0.168,0.048 -0.074,0.013 -0.15,0.035 -0.168,0.048 -0.019,0.013 -0.124,0.05 -0.235,0.082 -0.111,0.032 -0.232,0.071 -0.269,0.086 -0.037,0.015 -0.158,0.054 -0.269,0.087 -0.111,0.033 -0.285,0.086 -0.387,0.118 -0.265,0.084 -0.829,0.25 -1.312,0.386 -0.083,0.024 -0.257,0.074 -0.387,0.112 -0.129,0.038 -0.296,0.084 -0.37,0.101 -0.074,0.018 -0.286,0.073 -0.471,0.122 -0.185,0.049 -0.389,0.103 -0.454,0.12 -0.065,0.017 -0.209,0.052 -0.32,0.078 -0.111,0.026 -0.285,0.069 -0.387,0.097 -0.102,0.027 -0.246,0.06 -0.32,0.072 -0.074,0.013 -0.18,0.036 -0.235,0.052 -0.215,0.063 -0.379,0.1 -1.101,0.254 -0.134,0.028 -0.38,0.082 -0.546,0.118 -0.166,0.036 -0.393,0.083 -0.504,0.103 -0.111,0.02 -0.262,0.05 -0.336,0.067 -0.074,0.017 -0.263,0.053 -0.42,0.081 -0.157,0.027 -0.369,0.066 -0.471,0.085 -0.102,0.019 -0.321,0.058 -0.488,0.086 -0.166,0.028 -0.386,0.065 -0.488,0.083 -0.102,0.018 -0.344,0.056 -0.538,0.085 -0.194,0.029 -0.429,0.065 -0.521,0.08 -0.092,0.015 -0.35,0.052 -0.572,0.081 -0.222,0.029 -0.509,0.069 -0.639,0.088 -0.129,0.019 -0.447,0.058 -0.706,0.086 -0.259,0.028 -0.592,0.066 -0.74,0.083 -0.241,0.028 -0.542,0.056 -1.816,0.167 -0.204,0.018 -0.65,0.047 -0.992,0.066 -0.342,0.018 -0.917,0.051 -1.278,0.072 -0.85,0.05 -4.232,0.05 -5.078,0 -0.361,-0.021 -0.936,-0.054 -1.278,-0.073 -0.661,-0.037 -0.998,-0.062 -1.967,-0.147 -0.815,-0.071 -1.804,-0.177 -2.354,-0.251 -0.13,-0.018 -0.425,-0.055 -0.656,-0.084 -0.231,-0.028 -0.511,-0.067 -0.622,-0.085 -0.111,-0.018 -0.323,-0.05 -0.471,-0.07 -0.148,-0.02 -0.398,-0.06 -0.555,-0.088 -0.157,-0.028 -0.422,-0.071 -0.588,-0.096 -0.166,-0.024 -0.341,-0.052 -0.387,-0.062 -0.209,-0.043 -0.495,-0.097 -1.009,-0.192 -0.305,-0.056 -0.615,-0.117 -0.689,-0.135 -0.074,-0.018 -0.293,-0.065 -0.487,-0.104 -0.194,-0.04 -0.406,-0.083 -0.471,-0.097 -0.065,-0.014 -0.201,-0.043 -0.303,-0.064 -0.102,-0.021 -0.238,-0.052 -0.303,-0.069 -0.065,-0.017 -0.186,-0.046 -0.269,-0.065 -0.456,-0.106 -1.034,-0.242 -1.093,-0.258 -0.356,-0.096 -1.006,-0.261 -1.127,-0.288 -0.083,-0.018 -0.182,-0.045 -0.219,-0.06 -0.106,-0.043 -0.292,-0.096 -0.42,-0.121 -0.065,-0.013 -0.208,-0.051 -0.319,-0.085 -0.111,-0.034 -0.331,-0.1 -0.488,-0.146 -0.157,-0.046 -0.445,-0.132 -0.639,-0.19 -0.194,-0.059 -0.406,-0.122 -0.471,-0.141 -0.065,-0.019 -0.142,-0.046 -0.172,-0.061 -0.03,-0.015 -0.113,-0.038 -0.185,-0.051 -0.072,-0.013 -0.145,-0.034 -0.164,-0.047 -0.019,-0.013 -0.124,-0.05 -0.235,-0.082 -0.111,-0.032 -0.232,-0.072 -0.269,-0.088 -0.037,-0.016 -0.151,-0.054 -0.252,-0.084 -0.102,-0.03 -0.215,-0.068 -0.252,-0.084 -0.037,-0.016 -0.151,-0.054 -0.252,-0.084 -0.18,-0.053 -0.299,-0.097 -0.405,-0.149 -0.028,-0.014 -0.104,-0.037 -0.168,-0.05 -0.064,-0.014 -0.132,-0.035 -0.15,-0.048 -0.019,-0.013 -0.117,-0.05 -0.219,-0.084 -0.333,-0.11 -1.206,-0.437 -1.319,-0.495 -0.032,-0.016 -0.077,-0.03 -0.101,-0.03 -0.023,-0 -0.081,-0.02 -0.128,-0.045 -0.047,-0.024 -0.198,-0.087 -0.336,-0.139 -0.138,-0.052 -0.265,-0.107 -0.283,-0.123 -0.018,-0.016 -0.053,-0.029 -0.078,-0.029 -0.04,0 -0.164,-0.049 -0.613,-0.242 -0.046,-0.02 -0.114,-0.048 -0.151,-0.063 -0.037,-0.015 -0.155,-0.066 -0.262,-0.113 -0.107,-0.047 -0.202,-0.086 -0.212,-0.086 -0.01,0 -0.104,-0.039 -0.209,-0.087 -0.187,-0.085 -0.325,-0.146 -0.527,-0.234 -0.201,-0.087 -0.509,-0.225 -0.723,-0.324 -0.12,-0.056 -0.279,-0.13 -0.353,-0.164 -0.93,-0.428 -2.313,-1.119 -3.245,-1.621 -0.157,-0.085 -0.354,-0.189 -0.437,-0.232 -0.083,-0.043 -0.156,-0.09 -0.162,-0.104 -0.006,-0.014 -0.024,-0.025 -0.04,-0.025 -0.016,0 -0.23,-0.116 -0.476,-0.257 -0.928,-0.531 -1.156,-0.605 -1.434,-0.463" stroke-width="0.201774" fill-rule="evenodd" stroke="#00000000" fill-opacity="0.75" id="path_1"/></svg>