<?xml version="1.0" encoding="UTF-8" standalone="no"?>
<svg
   id="vector"
   width="72"
   height="72"
   viewBox="0 0 6.2428 6.7525"
   version="1.1"
   sodipodi:docname="amazon_prime_video.svg"
   inkscape:version="1.2.1 (9c6d41e410, 2022-07-14)"
   xmlns:inkscape="http://www.inkscape.org/namespaces/inkscape"
   xmlns:sodipodi="http://sodipodi.sourceforge.net/DTD/sodipodi-0.dtd"
   xmlns="http://www.w3.org/2000/svg"
   xmlns:svg="http://www.w3.org/2000/svg">
  <defs
     id="defs12" />
  <sodipodi:namedview
     id="namedview10"
     pagecolor="#ffffff"
     bordercolor="#000000"
     borderopacity="0.25"
     inkscape:showpageshadow="2"
     inkscape:pageopacity="0.0"
     inkscape:pagecheckerboard="0"
     inkscape:deskcolor="#d1d1d1"
     showgrid="false"
     inkscape:zoom="11.513889"
     inkscape:cx="29.182147"
     inkscape:cy="36.043426"
     inkscape:window-width="1920"
     inkscape:window-height="1009"
     inkscape:window-x="-8"
     inkscape:window-y="-8"
     inkscape:window-maximized="1"
     inkscape:current-layer="vector" />
  <path
     fill="#000"
     d="M-0.0972,3.675A0.0702,0.0702 90.115,0 1,-0.1458 3.6585,0.0653 0.0653,89.9568 0,1 -0.1606,3.609L-0.1606,1.9272A0.0653,0.0653 90.0946,0 1,-0.1458 1.8777,0.0701 0.0701,89.9245 0,1 -0.098,1.8637L0.085,1.8637C0.1196,1.8602 0.1508,1.8846 0.1559,1.9189L0.174,1.9849A0.5607,0.5607 89.9909,0 1,0.357 1.867,0.5863 0.5863,89.9891 0,1 0.5763,1.8241C0.7262,1.8192 0.8695,1.8858 0.9621,2.0038A0.7576,0.7576 90.0598,0 1,1.1055 2.4894C1.1083,2.6154 1.0841,2.7404 1.0346,2.8563A0.5771,0.5771 89.9777,0 1,0.8425 3.0979,0.4751 0.4751,90.0251 0,1 0.5638,3.1803 0.5919,0.5919 90.045,0 1,0.3659 3.1473,0.4753 0.4753,90.0765 0,1 0.2068,3.0566l0,0.554A0.0693,0.0693 89.9286,0 1,0.1928 3.6601,0.0693 0.0693,90.0324 0,1 0.1433,3.6741ZM0.4577,2.9033A0.2376,0.2376 89.9331,0 0,0.6663 2.8068C0.7177,2.7146 0.7409,2.6094 0.7331,2.5042A0.5532,0.5532 90.0335,0 0,0.6671 2.1983,0.2367 0.2367,90.0379 0,0 0.4569,2.1018 0.4821,0.4821 90.0598,0 0,0.2096 2.1702L0.2096,2.8339C0.2838,2.8801 0.3695,2.9043 0.4569,2.904Z"
     fill-opacity="0.857143"
     id="path_0"
     style="fill:#000000;fill-opacity:1" />
  <path
     fill="#000"
     d="M1.4189,3.154A0.0544,0.0544 89.944,0 1,1.3554 3.0905L1.3554,1.9272A0.0653,0.0653 90.0946,0 1,1.3702 1.8777,0.0701 0.0701,89.9245 0,1 1.418,1.8637L1.6002,1.8637C1.6348,1.8602 1.666,1.8846 1.6711,1.9189l0.033,0.1352A0.7228,0.7228 90.1455,0 1,1.8954 1.8958C1.9544,1.8649 2.0201,1.8488 2.0867,1.8488L2.1222,1.8488C2.1401,1.8472 2.158,1.8522 2.1725,1.8628 2.184,1.8766 2.1894,1.8945 2.1873,1.9123L2.1873,2.125A0.0692,0.0692 89.8842,0 1,2.1733 2.1728,0.0653 0.0653,90.0946 0,1 2.1238,2.1876L2.0076,2.1876A0.7531,0.7531 90.0372,0 0,1.8658 2.2041C1.8172,2.2131 1.7697,2.2272 1.724,2.2461l0,0.845A0.0701,0.0701 89.9245,0 1,1.71 3.1389,0.0653 0.0653,90.0962 0,1 1.6605,3.1537Z"
     fill-opacity="0.857143"
     id="path_1"
     style="fill:#000000;fill-opacity:1" />
  <path
     fill="#000"
     d="M2.5524,1.6626A0.22,0.22 89.9843,0 1,2.3982 1.6098,0.1856 0.1856,89.8605 0,1 2.3397,1.4655C2.3369,1.4108 2.3582,1.3577 2.3982,1.3204 2.4886,1.2481 2.617,1.2481 2.7074,1.3204 2.7471,1.3576 2.7685,1.4103 2.7659,1.4647 2.7685,1.519 2.7471,1.5718 2.7074,1.609 2.6645,1.6462 2.609,1.6654 2.5524,1.6626ZM2.4312,3.1548A0.0544,0.0544 89.9448,0 1,2.3677 3.0913L2.3677,1.9272A0.0653,0.0653 90.0962,0 1,2.3825 1.8777,0.0701 0.0701,89.9233 0,1 2.4303,1.8637L2.6735,1.8637C2.6911,1.8619 2.7089,1.8668 2.723,1.8777 2.7339,1.8918 2.7388,1.9095 2.737,1.9272L2.737,3.0913A0.0692,0.0692 89.8842,0 1,2.723 3.1391,0.0653 0.0653,90.0946 0,1 2.6735,3.1539Z"
     fill-opacity="0.857143"
     id="path_2" />
  <path
     fill="#000"
     d="M3.1139,3.154A0.0544,0.0544 89.944,0 1,3.0504 3.0905L3.0504,1.9272A0.0653,0.0653 90.0946,0 1,3.0652 1.8777,0.0701 0.0701,90.0343 0,1 3.113,1.8637L3.2952,1.8637C3.3298,1.8602 3.361,1.8846 3.3661,1.9189L3.3867,1.9873C3.4617,1.9356 3.5428,1.8936 3.6283,1.862A0.6824,0.6824 89.9546,0 1,3.8476 1.8241C3.9775,1.813 4.1023,1.877 4.1691,1.989 4.2444,1.9372 4.3262,1.8957 4.4123,1.8653A0.7415,0.7415 90.0458,0 1,4.6481 1.8274,0.3693 0.3693,90.1142 0,1 4.9226,1.9263 0.3752,0.3752 90.0565,0 1,5.0199 2.2017L5.0199,3.0913A0.0701,0.0701 90.0343,0 1,5.0059 3.1391,0.0653 0.0653,90.0962 0,1 4.9564,3.1539L4.7165,3.1539A0.0544,0.0544 89.944,0 1,4.653 3.0904L4.653,2.2792C4.653,2.1644 4.6016,2.1069 4.4988,2.1069A0.6422,0.6422 89.9454,0 0,4.2226 2.1729L4.2226,3.0913A0.0692,0.0692 90.0517,0 1,4.2086 3.1391,0.0653 0.0653,89.9568 0,1 4.1591,3.1539L3.9167,3.1539A0.0544,0.0544 89.944,0 1,3.8532 3.0904L3.8532,2.2792C3.8532,2.1644 3.8018,2.1069 3.699,2.1069A0.6174,0.6174 89.9128,0 0,3.4203 2.1753L3.4203,3.0904A0.0701,0.0701 89.9233,0 1,3.4063 3.1382,0.0653 0.0653,90.0962 0,1 3.3568,3.153Z"
     fill-opacity="0.857143"
     id="path_3"
     style="fill:#000000;fill-opacity:1" />
  <path
     fill="#000"
     d="M5.9021,3.1919A0.6446,0.6446 89.9453,0 1,5.4198 3.0196,0.6752 0.6752,89.9607 0,1 5.2549,2.5249 0.7327,0.7327 90.0831,0 1,5.4231 2.0096,0.6184 0.6184,89.919 0,1 5.9021,1.8225 0.5491,0.5491 90.0859,0 1,6.2706 1.9363,0.3792 0.3792,90.0921 0,1 6.4033,2.2413 0.325,0.325 89.9559,0 1,6.2599 2.5282,0.751 0.751,90.0833 0,1 5.8386,2.6255C5.7553,2.6265 5.6722,2.6171 5.5913,2.5975a0.3428,0.3428 90.0693,0 0,0.1022 0.2424,0.4043 0.4043,89.9486 0,0 0.2646,0.0734c0.046,0 0.092,-0.0031 0.1377,-0.0091 0.0628,-0.0097 0.125,-0.023 0.1863,-0.0396l0.0272,0c0.0286,0 0.0429,0.0195 0.0429,0.0585L6.3522,3.0393C6.3538,3.059 6.3498,3.0787 6.3407,3.0962 6.329,3.11 6.3135,3.1199 6.2962,3.1251 6.1701,3.1715 6.0365,3.1942 5.9021,3.1919ZM5.8196,2.398A0.3449,0.3449 89.9105,0 0,6.0067 2.3584C6.0461,2.3314 6.0684,2.2857 6.0652,2.238c0,-0.1061 -0.0632,-0.1591 -0.1896,-0.1591 -0.1622,0 -0.2558,0.0995 -0.2811,0.2984 0.0736,0.0141 0.1485,0.021 0.2234,0.0206z"
     fill-opacity="0.857143"
     id="path_4"
     style="fill:#000000;fill-opacity:1" />
  <path
     fill="#000"
     d="M5.8461,4.6518C5.107,5.1968 4.0355,5.4862 3.1134,5.4862A4.9492,4.9491 89.9503,0 1,-0.225 4.2148C-0.2942,4.1524 -0.2326,4.0672 -0.1491,4.1152A6.7255,6.7254 90.0436,0 0,3.191 5.0002,6.6527 6.6526,90.0895 0,0 5.7356,4.4796C5.8638,4.4264 5.9685,4.5581 5.8461,4.6517Z"
     fill-opacity="0.5"
     id="path_5"
     style="fill:#000000;fill-opacity:0.75" />
  <path
     fill="#000"
     d="M6.1575,4.305C6.063,4.1844 5.5332,4.2476 5.2944,4.2763 5.2218,4.2847 5.21,4.2223 5.2758,4.1767 5.6976,3.8797 6.392,3.9658 6.4722,4.0653 6.5524,4.1649 6.4511,4.8592 6.0504,5.1908 5.9897,5.2414 5.9314,5.2144 5.9584,5.1469 6.0487,4.9199 6.2486,4.4222 6.1575,4.3049Z"
     id="path_6"
     style="fill:#000000;fill-opacity:0.75" />
</svg>
