<svg id="vector" xmlns="http://www.w3.org/2000/svg" width="72" height="72" viewBox="0 0 72 72"><path fill="#000" d="m0.131,54.079q0.327,-0.524 1.047,-0.065a69.73,69.73 0,0 0,35.605 9.49,70.439 70.439,0 0,0 25.329,-4.778q0.327,-0.131 0.949,-0.393 0.622,-0.262 0.884,-0.393a1.165,1.165 0,0 1,1.538 0.393q0.556,0.785 -0.36,1.44 -1.178,0.851 -3.011,1.964A49.056,49.056 0,0 1,49.546 66.907,52.933 52.933,0 0,1 35.998,68.74 52.416,52.416 0,0 1,16.69 65.173,53.166 53.166,0 0,1 0.393,55.126 0.893,0.893 0,0 1,0 54.471,0.704 0.704,0 0,1 0.131,54.079ZM19.831,35.425a13.209,13.209 0,0 1,2.225 -7.723,13.734 13.734,0 0,1 6.087,-4.843 32.931,32.931 0,0 1,8.705 -2.16q1.767,-0.196 5.76,-0.524L42.608,19.063A11.655,11.655 0,0 0,41.692 13.434,4.906 4.906,0 0,0 37.372,11.471h-0.524a7.162,7.162 0,0 0,-3.731 1.374,5.365 5.365,0 0,0 -2.029,3.273 1.662,1.662 0,0 1,-1.309 1.505L22.253,16.707q-1.113,-0.262 -1.113,-1.178a1.922,1.922 0,0 1,0.065 -0.458,12.545 12.545,0 0,1 5.465,-8.639 20.512,20.512 0,0 1,10.178 -3.142h1.636a16.541,16.541 0,0 1,11.65 3.862,12.468 12.468,0 0,1 1.211,1.407 12.68,12.68 0,0 1,0.884 1.342,6.867 6.867,0 0,1 0.589,1.702q0.262,1.113 0.393,1.538a9.347,9.347 0,0 1,0.196 1.833q0.065,1.407 0.065,1.669v15.839a9.387,9.387 0,0 0,0.491 3.109,8.098 8.098,0 0,0 0.949,2.029q0.458,0.622 1.505,1.996a1.959,1.959 0,0 1,0.393 1.047,1.132 1.132,0 0,1 -0.524,0.916q-5.432,4.712 -5.891,5.105a1.823,1.823 0,0 1,-1.898 0.131q-0.916,-0.785 -1.604,-1.505 -0.687,-0.72 -0.982,-1.047a14.616,14.616 0,0 1,-0.949 -1.276q-0.655,-0.949 -0.916,-1.276a16.071,16.071 0,0 1,-7.2 4.974,19.758 19.758,0 0,1 -5.498,0.655 11.469,11.469 0,0 1,-8.279 -3.109,11.627 11.627,0 0,1 -3.24,-8.803zM31.089,34.116a6.202,6.202 0,0 0,1.276 4.091,4.234 4.234,0 0,0 3.436,1.538 3.345,3.345 0,0 0,0.556 -0.065,3.343 3.343,0 0,1 0.491,-0.065 6.652,6.652 0,0 0,4.254 -3.534,10.244 10.244,0 0,0 1.08,-2.716 12.438,12.438 0,0 0,0.393 -2.389q0.033,-0.916 0.033,-3.011L42.608,26.328a23.846,23.846 0,0 0,-5.76 0.524,7.017 7.017,0 0,0 -5.76,7.265zM58.578,55.191a2.05,2.05 0,0 1,0.393 -0.524,10.273 10.273,0 0,1 3.142,-1.505 21.338,21.338 0,0 1,4.843 -0.72,3.909 3.909,0 0,1 1.244,0.065q2.945,0.262 3.534,0.982a2.143,2.143 0,0 1,0.262 1.178v0.458a14.921,14.921 0,0 1,-1.244 5.4,12.568 12.568,0 0,1 -3.469,5.007 0.988,0.988 0,0 1,-0.589 0.262,0.58 0.58,0 0,1 -0.262,-0.065Q66.039,65.533 66.236,65.009a24.976,24.976 0,0 0,2.422 -7.919,1.678 1.678,0 0,0 -0.262,-1.047q-0.655,-0.785 -3.665,-0.785 -1.113,0 -2.618,0.131 -1.636,0.196 -3.011,0.393a0.758,0.758 0,0 1,-0.524 -0.131,0.214 0.214,0 0,1 -0.065,-0.262 0.502,0.502 0,0 1,0.065 -0.196z" stroke-width="3.27251" id="path_0"/></svg>