<svg id="vector" xmlns="http://www.w3.org/2000/svg" width="72" height="72" viewBox="0 0 72 72"><path fill="#000" d="m51.12,9.715l2.52,-4.321c0,0 0,0 0,0C54.36,3.594 54,1.434 52.2,0.354 50.4,-0.366 48.24,-0.006 47.16,1.794l-2.16,3.961c2.16,0.72 4.32,2.16 6.12,3.961z" id="path_0"/><path fill="#000" d="M20.88,9.715C22.68,7.915 24.48,6.835 27,5.755L24.84,1.794c0,0 0,0 0,0C23.76,-0.006 21.6,-0.366 19.8,0.354 18,1.074 17.64,3.594 18.36,5.395Z" id="path_1"/><path fill="#000" d="M14.4,25.198l43.2,0l0,7.201l-43.2,0z" id="path_2"/><path fill="#000" d="M36,3.594C24.12,3.594 14.4,13.316 14.4,25.198L57.6,25.198C57.6,13.316 47.88,3.594 36,3.594Z" fill-opacity="0.5" id="path_3"/><path fill="#000" d="m68.4,25.198c-2.16,0 -3.6,1.44 -3.6,3.601l0,14.402c0,0 0,0 0,0 0,2.16 1.44,3.601 3.6,3.601 0,0 0,0 0,0 2.16,0 3.6,-1.44 3.6,-3.601L72,28.799C72,26.638 70.56,25.198 68.4,25.198Z" fill-opacity="0.5" id="path_4"/><path fill="#000" d="M3.6,25.198C1.44,25.198 0,26.638 0,28.799l0,14.402c0,0 0,0 0,0 0,2.16 1.44,3.601 3.6,3.601 0,0 0,0 0,0 2.16,0 3.6,-1.44 3.6,-3.601L7.2,28.799C7.2,26.638 5.76,25.198 3.6,25.198Z" fill-opacity="0.5" id="path_5"/><path fill="#000" d="m14.4,54.003c0,0 0,0 0,0 0,2.16 1.44,3.601 3.6,3.601l7.2,0l0,10.802c0,0 0,0 0,0 0,2.16 1.44,3.601 3.6,3.601 0,0 0,0 0,0 2.16,0 3.6,-1.44 3.6,-3.601l0,-10.802l7.2,0l0,10.802c0,0 0,0 0,0 0,2.16 1.44,3.601 3.6,3.601 0,0 0,0 0,0 2.16,0 3.6,-1.44 3.6,-3.601l0,-10.802l7.2,0c0,0 0,0 0,0 2.16,0 3.6,-1.44 3.6,-3.601L57.6,32.399L14.4,32.399Z" fill-opacity="0.5" id="path_6"/></svg>