<svg id="vector" xmlns="http://www.w3.org/2000/svg" width="72" height="72" viewBox="0 0 72 72"><path fill="#000" d="m62.775,39.51c0.135,-1.125 0.225,-2.295 0.225,-3.51 0,-1.215 -0.09,-2.385 -0.27,-3.51l7.605,-5.94c0.675,-0.54 0.855,-1.53 0.45,-2.295L63.585,11.79c-0.45,-0.81 -1.395,-1.08 -2.205,-0.81l-8.955,3.6C50.535,13.14 48.555,11.97 46.35,11.07L45,1.53C44.865,0.63 44.1,0 43.2,0L28.8,0c-0.9,0 -1.62,0.63 -1.755,1.53l-1.35,9.54c-2.205,0.9 -4.23,2.115 -6.075,3.51l-8.955,-3.6c-0.81,-0.315 -1.755,0 -2.205,0.81L1.26,24.255c-0.45,0.81 -0.27,1.755 0.45,2.295l7.605,5.94c-0.18,1.125 -0.315,2.34 -0.315,3.51 0,1.17 0.09,2.385 0.27,3.51l-7.605,5.94c-0.675,0.54 -0.855,1.53 -0.45,2.295l7.2,12.465c0.45,0.81 1.395,1.08 2.205,0.81l8.955,-3.6c1.89,1.44 3.87,2.61 6.075,3.51l1.35,9.54C27.18,71.37 27.9,72 28.8,72h14.4c0.9,0 1.665,-0.63 1.755,-1.53l1.35,-9.54c2.205,-0.9 4.23,-2.115 6.075,-3.51l8.955,3.6c0.81,0.315 1.755,0 2.205,-0.81l7.2,-12.465c0.45,-0.81 0.27,-1.755 -0.45,-2.295zM36,49.5c-7.425,0 -13.5,-6.075 -13.5,-13.5 0,-7.425 6.075,-13.5 13.5,-13.5 7.425,0 13.5,6.075 13.5,13.5 0,7.425 -6.075,13.5 -13.5,13.5z" stroke-width="3.75" id="path_0"/></svg>