<svg id="vector" xmlns="http://www.w3.org/2000/svg" width="72" height="72" viewBox="0 0 72 72"><path fill="#000" d="m55.65,38.251c0.065,-5.601 3.004,-10.775 7.781,-13.7 -3.028,-4.312 -7.903,-6.956 -13.169,-7.142 -5.608,-0.568 -10.942,3.301 -13.783,3.301 -2.843,0 -7.232,-3.217 -11.883,-3.129 -6.209,0.173 -11.869,3.601 -14.898,9.024 -6.345,11.017 -1.619,27.337 4.564,36.276 3.026,4.37 6.632,9.292 11.368,9.113 4.564,-0.179 6.286,-2.948 11.796,-2.948 5.512,0 7.062,2.948 11.883,2.859 4.906,-0.091 8.021,-4.46 11.022,-8.847 2.148,-3.154 3.826,-6.603 4.983,-10.24 -5.839,-2.494 -9.637,-8.219 -9.663,-14.568z" stroke-width="3.6" id="path_0"/><path fill="#000" d="M46.719,11.496C49.436,8.309 50.782,4.176 50.464,0 46.361,0.398 42.567,2.35 39.858,5.457 37.127,8.498 35.748,12.517 36.038,16.594c4.16,0.057 8.109,-1.828 10.681,-5.098z" stroke-width="3.6" fill-opacity="0.5" id="path_1"/></svg>