<?xml version="1.0" encoding="UTF-8" standalone="no"?>
<svg
   version="1.1"
   width="72"
   height="72"
   viewBox="0 0 72 72"
   id="svg6"
   sodipodi:docname="apple_music.svg"
   inkscape:version="1.2.1 (9c6d41e410, 2022-07-14)"
   xmlns:inkscape="http://www.inkscape.org/namespaces/inkscape"
   xmlns:sodipodi="http://sodipodi.sourceforge.net/DTD/sodipodi-0.dtd"
   xmlns="http://www.w3.org/2000/svg"
   xmlns:svg="http://www.w3.org/2000/svg"
   xmlns:rdf="http://www.w3.org/1999/02/22-rdf-syntax-ns#"
   xmlns:cc="http://creativecommons.org/ns#"
   xmlns:dc="http://purl.org/dc/elements/1.1/">
  <defs
     id="defs10" />
  <sodipodi:namedview
     id="namedview8"
     pagecolor="#ffffff"
     bordercolor="#000000"
     borderopacity="0.25"
     inkscape:showpageshadow="2"
     inkscape:pageopacity="0.0"
     inkscape:pagecheckerboard="0"
     inkscape:deskcolor="#d1d1d1"
     showgrid="false"
     inkscape:zoom="6.4765625"
     inkscape:cx="-3.1652593"
     inkscape:cy="41.07117"
     inkscape:window-width="1920"
     inkscape:window-height="1009"
     inkscape:window-x="-8"
     inkscape:window-y="-8"
     inkscape:window-maximized="1"
     inkscape:current-layer="svg6" />
  <title
     id="title2">apple-music</title>
  <path
     id="path4"
     style="fill:#000000;fill-opacity:1;stroke-width:1"
     d="m 61.783689,0.01098419 c -0.979365,0.069482 -1.961265,0.2766872 -2.927395,0.4652812 C 55.891733,1.0618985 52.948205,1.6677476 49.983644,2.2533808 L 39.967175,4.2889854 c -3.239181,0.6385722 -6.460637,1.2900187 -9.699817,1.9451337 -1.134873,0.241533 -2.290427,0.448686 -3.412062,0.743157 -1.204354,0.294471 -2.099401,1.017416 -2.410416,2.274708 -0.119112,0.536003 -0.187402,1.0888619 -0.187402,1.6414079 v 39.18701 0.652687 c -0.08603,1.723812 -0.968563,2.792927 -2.655979,3.153572 -1.257293,0.258076 -2.52958,0.517393 -3.786872,0.775469 -1.670874,0.344101 -3.313526,0.701953 -4.898376,1.357069 -4.066346,1.723811 -5.7013473,5.586632 -5.0793188,9.169914 0.7212884,4.152372 4.2372158,6.960245 8.4590688,6.804737 1.621245,-0.04963 3.204445,-0.309426 4.756207,-0.756083 2.928166,-0.843706 5.102326,-2.622068 6.326532,-5.447665 0.73783,-1.720506 0.943486,-3.546115 0.943486,-5.408894 0.01654,-11.47444 0.0028,-22.953051 0.01952,-34.430803 0,-0.188594 -0.01654,-0.380083 0,-0.568676 0.05294,-1.273833 0.481828,-1.827211 1.706031,-2.171312 0.06948,0 0.156699,-0.03517 0.226181,-0.05171 L 46.591106,19.86943 c 3.345057,-0.688202 6.700104,-1.361105 10.061705,-2.016218 0.688203,-0.138964 1.379247,-0.264164 2.087302,-0.29725 0.688202,-0.03309 1.172094,0.36876 1.344145,1.040419 0.06617,0.258076 0.116333,0.533162 0.116333,0.807781 v 24.020136 c 0,0.274619 -0.01456,0.571936 -0.08401,0.846555 -0.241533,1.260598 -1.031116,2.000088 -2.255323,2.274708 -1.654329,0.380496 -3.324434,0.705622 -4.995307,1.066267 -1.531912,0.311014 -3.071997,0.72703 -4.484794,1.415232 -3.583282,1.756898 -5.2203,5.513117 -4.581728,8.924348 0.741141,4.135829 4.380161,6.980871 8.568928,6.772425 1.601394,-0.06948 3.188677,-0.309426 4.723895,-0.756079 2.77597,-0.79408 4.839443,-2.433478 6.113279,-5.034086 0.827163,-1.670873 1.085656,-3.475495 1.085656,-5.318422 V 28.418978 l -0.0066,-0.01952 V 3.1193205 c -4e-6,-0.3275579 -0.01853,-0.6611647 -0.05172,-0.9887223 -0.138972,-1.37971231 -1.089333,-2.23872591 -2.449195,-2.11961401 z"
     sodipodi:nodetypes="cccccccsccccccccccccccccccssccccccccsccccc" />
  <metadata
     id="metadata3657">
    <rdf:RDF>
      <cc:Work
         rdf:about="">
        <dc:title>apple-music</dc:title>
      </cc:Work>
    </rdf:RDF>
  </metadata>
</svg>
