<svg id="vector" xmlns="http://www.w3.org/2000/svg" width="72" height="72" viewBox="0 0 72 72"><path fill="#000" d="m43.349,21.274l1.549,-2.794a0.312,0.312 0,0 0,-0.546 -0.303l-1.566,2.825a10.555,10.555 0,0 0,-8.476 0l-1.566,-2.825a0.312,0.312 0,0 0,-0.546 0.303l1.549,2.794a8.949,8.949 45,0 0,-4.991 7.868l19.584,0a8.949,8.949 135,0 0,-4.991 -7.868zM34.028,25.559a0.818,0.818 0,1 1,0.818 -0.818,0.819 0.819,0 0,1 -0.818,0.818zM43.067,25.559a0.818,0.818 0,1 1,0.818 -0.818,0.819 0.819,0 0,1 -0.818,0.818zM28.756,44.11a2.367,2.367 0,0 0,2.367 2.367l1.571,0l0,4.842a2.195,2.195 0,1 0,4.39 0l0,-4.842l2.927,0l0,4.842a2.195,2.195 0,1 0,4.39 0l0,-4.842l1.571,0a2.367,2.367 0,0 0,2.367 -2.367L48.34,29.917L28.756,29.917ZM25.743,29.54a2.198,2.198 0,0 0,-2.195 2.195l0,9.146a2.195,2.195 0,1 0,4.39 0l0,-9.146a2.198,2.198 0,0 0,-2.195 -2.195zM51.352,29.54a2.198,2.198 0,0 0,-2.195 2.195l0,9.146a2.195,2.195 0,1 0,4.39 0l0,-9.146a2.198,2.198 0,0 0,-2.195 -2.195z" stroke-width="1.614" id="path_0"/><path fill="#000" d="M17.93,13.616C11.6,19.946 8.289,28.71 8.727,37.523L2.349,31.145C1.813,30.609 0.937,30.609 0.401,31.145 -0.134,31.681 -0.134,32.557 0.401,33.093l9.738,9.738c0.536,0.536 1.412,0.536 1.948,0l9.738,-9.738c0.536,-0.536 0.536,-1.412 0,-1.948 -0.536,-0.536 -1.412,-0.536 -1.948,0L11.649,39.374C10.626,30.658 13.645,21.796 19.877,15.564c11.296,-11.296 29.604,-11.296 40.9,0 11.296,11.296 11.296,29.604 0,40.9 -9.056,9.056 -23.225,11.053 -34.521,4.82 -0.682,-0.39 -1.509,-0.146 -1.899,0.536C23.967,62.501 24.211,63.329 24.893,63.719 37.26,70.535 52.792,68.344 62.725,58.411 75.092,46.044 75.092,25.984 62.725,13.616 50.358,1.249 30.297,1.249 17.93,13.616Z" fill-opacity="0.75" id="path_1"/></svg>