<svg id="vector" xmlns="http://www.w3.org/2000/svg" width="72" height="72" viewBox="0 0 72 72"><path fill="#000" d="m15.046,15.545h7.93L38.023,56.455L29.805,56.455L27.2,49.169L10.823,49.169L8.218,56.455L0,56.455ZM12.944,41.966h11.325L18.607,26.625ZM41.258,56.455v-40.909h13.574c2.514,0 4.747,0.346 6.699,1.037 1.952,0.69 3.607,1.662 4.96,2.913 1.353,1.252 2.388,2.746 3.102,4.484 0.715,1.738 1.074,3.67 1.074,5.801 0,2.465 -0.609,4.772 -1.828,6.92 -1.218,2.148 -2.986,3.821 -5.307,5.015L72,56.455h-8.99l-6.786,-12.497h-7.077v12.497zM53.573,37.705c1.638,0 3.012,-0.198 4.125,-0.597 1.111,-0.398 2.009,-0.947 2.692,-1.648 0.682,-0.7 1.17,-1.506 1.463,-2.415 0.292,-0.908 0.439,-1.874 0.439,-2.896 0,-2.122 -0.692,-3.808 -2.076,-5.058 -1.386,-1.25 -3.6,-1.873 -6.642,-1.873h-5.033v14.488z" stroke-width="1.63636" fill-rule="evenodd" stroke="#00000000" id="path_0"/></svg>