<svg id="vector" xmlns="http://www.w3.org/2000/svg" width="72" height="72" viewBox="0 0 72 72"><path fill="#000" d="M36.008,14.135L17.062,25.068L17.062,46.932L36.008,57.865 54.953,46.932L54.953,25.068Z" stroke-linejoin="round" stroke-width="3.727" stroke="#000" fill-opacity="0" stroke-linecap="round" id="path_0"/><path fill="#000" d="m9.546,20.719m-5.171,0a5.171,5.171 0,1 1,10.327 0,5.171 5.171,0 1,1 -10.327,0" stroke-linejoin="round" stroke-width="3.727" stroke="#00000000" stroke-linecap="round" id="path_1"/><path fill="#000" d="m36.008,5.454m-5.171,0a5.171,5.171 0,1 1,10.327 0,5.171 5.171,0 1,1 -10.327,0" stroke-linejoin="round" stroke-width="3.727" stroke="#00000000" stroke-linecap="round" id="path_2"/><path fill="#000" d="m62.469,20.719m-5.171,0a5.171,5.171 0,1 1,10.327 0,5.171 5.171,0 1,1 -10.327,0" stroke-linejoin="round" stroke-width="3.727" stroke="#00000000" stroke-linecap="round" id="path_3"/><path fill="#000" d="m62.469,51.281m-5.171,0a5.171,5.171 0,1 1,10.327 0,5.171 5.171,0 1,1 -10.327,0" stroke-linejoin="round" stroke-width="3.727" stroke="#00000000" stroke-linecap="round" id="path_4"/><path fill="#000" d="m36.008,66.546m-5.171,0a5.171,5.171 0,1 1,10.327 0,5.171 5.171,0 1,1 -10.327,0" stroke-linejoin="round" stroke-width="3.727" stroke="#00000000" stroke-linecap="round" id="path_5"/><path fill="#000" d="m9.546,51.281m-5.171,0a5.171,5.171 0,1 1,10.327 0,5.171 5.171,0 1,1 -10.327,0" stroke-linejoin="round" stroke-width="3.727" stroke="#00000000" stroke-linecap="round" id="path_6"/><path fill="#000" d="m17.062,46.932l-3.044,1.755" stroke-linejoin="round" stroke-width="3.727" stroke="#000" fill-opacity="0" stroke-linecap="round" id="path_7"/><path fill="#000" d="m36.008,57.865l0,3.525" stroke-linejoin="round" stroke-width="3.727" stroke="#000" fill-opacity="0" stroke-linecap="round" id="path_8"/><path fill="#000" d="M36.008,14.135L36.008,10.595" stroke-linejoin="round" stroke-width="3.727" stroke="#000" fill-opacity="0" stroke-linecap="round" id="path_9"/><path fill="#000" d="m54.953,46.932l3.059,1.77" stroke-linejoin="round" stroke-width="3.727" stroke="#000" fill-opacity="0" stroke-linecap="round" id="path_10"/><path fill="#000" d="m54.953,25.068l3.044,-1.755" stroke-linejoin="round" stroke-width="3.727" stroke="#000" fill-opacity="0" stroke-linecap="round" id="path_11"/><path fill="#000" d="M17.062,25.068L14.003,23.297" stroke-linejoin="round" stroke-width="3.727" stroke="#000" fill-opacity="0" stroke-linecap="round" id="path_12"/><path fill="#000" d="M36.241,45.597L36.241,26.667" stroke-linejoin="round" stroke-width="3.727" stroke="#000" fill-opacity="0" stroke-linecap="round" id="path_13"/></svg>