<svg id="vector" xmlns="http://www.w3.org/2000/svg" width="72" height="72" viewBox="0 0 72 72"><path fill="#000" d="M8.027,42.855L27.668,26.944a13.238,13.238 0,0 1,16.663 0l19.642,15.91a6.619,6.619 0,0 1,0 10.292L44.332,69.049a13.238,13.238 0,0 1,-16.663 0L8.027,53.147a6.619,6.619 126.6,0 1,0 -10.292z" fill-opacity="0.25" id="path_0"/><path fill="#000" d="M8.027,18.861L27.668,2.951a13.238,13.238 0,0 1,16.663 0l19.642,15.91a6.619,6.619 0,0 1,0 10.292L44.332,45.056a13.238,13.238 0,0 1,-16.663 0L8.027,29.154a6.619,6.619 74.846,0 1,0 -10.292z" id="path_1"/></svg>