<svg id="vector" xmlns="http://www.w3.org/2000/svg" width="72" height="72" viewBox="0 0 72 72"><path fill="#000" d="M30.227,34.268L29.838,34.268l0.866,-0.476a8.4,8.4 0,0 0,3.941 -4.331,12.471 12.471,0 0,0 0.52,-6.106 10.134,10.134 0,0 0,-6.236 -8.271,17.021 17.021,0 0,0 -6.929,-1.386L0,13.698L0,58.173L20.094,58.173a34.013,34.013 0,0 0,5.716 -0.476,12.472 12.472,0 0,0 9.571,-7.102 13.469,13.469 0,0 0,1.083 -8.661,9.7 9.7,0 0,0 -6.236,-7.665zM10.437,21.449h8.661a16.809,16.809 0,0 1,4.331 0.563,3.724 3.724,0 0,1 2.858,3.335 6.842,6.842 0,0 1,0 2.685,3.595 3.595,0 0,1 -1.862,2.339 8.922,8.922 0,0 1,-4.331 0.953h-9.744zM27.196,46.307a5.024,5.024 0,0 1,-4.331 4.071,15.708 15.708,0 0,1 -2.858,0.303L10.35,50.681L10.35,38.902h10.307a9.79,9.79 0,0 1,3.248 0.563,4.721 4.721,0 0,1 3.291,4.331 9.176,9.176 0,0 1,-0 2.512zM71.974,43.405c0.043,-0.086 0.043,-0.173 -0.086,-0.086v-4.807a15.764,15.764 0,0 0,-1.472 -6.366,13.424 13.424,0 0,0 -6.929,-6.669 18.493,18.493 0,0 0,-10.61 -1.04,13.988 13.988,0 0,0 -11.563,10.133 24.122,24.122 0,0 0,-0.52 12.472,12.603 12.603,0 0,0 3.118,6.236 16.284,16.284 0,0 0,7.449 4.331,19.621 19.621,0 0,0 8.358,0.433 14.423,14.423 0,0 0,9.051 -4.764,11.395 11.395,0 0,0 2.555,-4.331 1.883,1.883 0,0 0,0.303 -1.256h-8.488a0.433,0.433 0,0 0,-0.433 0.26,6.149 6.149,0 0,1 -4.331,3.248 9.653,9.653 0,0 1,-3.898 0,6.842 6.842,0 0,1 -5.153,-3.811 8.661,8.661 0,0 1,-0.736 -2.599L48.589,43.405ZM49.109,37.169a16.256,16.256 0,0 1,0.693 -2.036,6.237 6.237,0 0,1 5.673,-3.898 8.232,8.232 0,0 1,3.768 0.52,6.409 6.409,0 0,1 4.071,5.197v0.909l-14.204,0.13a7.555,7.555 0,0 1,0 -0.822zM65.002,15.516L46.987,15.516v5.197l18.015,-0.043z" stroke-width="3.6" id="path_0"/></svg>