<svg id="vector" xmlns="http://www.w3.org/2000/svg" width="72" height="72" viewBox="0 0 72 72"><path fill="#000" d="m1.47,0.004c4.234,-0.006 8.468,-0.003 12.701,-0.003 0.011,9.958 -0.017,19.916 0.014,29.873 0.39,-0.386 0.651,-0.875 1.015,-1.282 2.557,-3.037 6.338,-4.889 10.231,-5.469 3.425,-0.501 7.023,-0.295 10.244,1.048 3.847,1.613 6.964,4.687 9.027,8.274 1.517,2.652 2.444,5.6 3.089,8.572 1.189,5.577 0.753,11.446 -1.045,16.844 -0.852,2.717 -2.185,5.292 -3.998,7.494 -1.517,1.799 -3.243,3.479 -5.326,4.61 -2.668,1.484 -5.758,2.062 -8.789,2.035 -2.909,-0.027 -5.889,-0.229 -8.616,-1.324 -1.084,-0.463 -2.123,-1.03 -3.101,-1.684 -0.889,-0.622 -1.77,-1.311 -2.357,-2.241 -0.409,-0.635 -0.858,-1.259 -1.087,-1.988 0.14,1.495 -0.184,3.083 -1.157,4.26 -1.159,1.416 -2.933,2.144 -4.677,2.526 -2.012,0.437 -4.09,0.482 -6.138,0.331 -0.062,-7.406 -0.009,-14.815 -0.026,-22.223 0,-16.552 0.001,-33.103 -0.001,-49.653zM22.942,32.601c-2.458,0.363 -4.579,1.9 -6.148,3.765 -1.652,1.969 -2.452,4.479 -2.985,6.953 -0.58,2.694 -0.609,5.508 -0.019,8.205 0.581,2.71 1.531,5.444 3.435,7.524 1.513,1.823 3.742,3.008 6.092,3.274 2.317,0.273 4.826,-0.043 6.758,-1.435 1.549,-1.085 2.556,-2.747 3.366,-4.417 1.37,-2.932 1.846,-6.206 1.796,-9.419 -0.039,-2.428 -0.394,-4.856 -1.114,-7.176 -0.75,-2.075 -1.91,-4.051 -3.591,-5.508C28.438,32.659 25.562,32.167 22.942,32.601Z" fill-rule="evenodd" fill-opacity="0.75" id="path_0"/><path fill="#000" d="m30.543,0.002c2.566,-0.003 5.134,-0.003 7.7,0 0,7.704 -0.003,15.408 0.001,23.112 -2.287,-1.464 -4.964,-2.406 -7.701,-2.357 0,-6.918 0.001,-13.836 0,-20.755zM41.176,25.335c2.733,-1.587 5.881,-2.488 9.047,-2.49 4.69,-0.078 9.323,1.821 12.761,4.981 2.134,1.934 3.824,4.345 4.972,6.984 2.152,5.164 3.031,10.875 2.352,16.438 -0.34,2.816 -1.054,5.581 -2.059,8.231 -0.923,2.388 -2.278,4.605 -3.976,6.52 -1.456,1.633 -3.117,3.127 -5.08,4.126 -2.609,1.38 -5.596,1.901 -8.527,1.872 -3.563,-0.017 -7.288,-0.371 -10.417,-2.229 1.775,-1.469 3.373,-3.153 4.705,-5.036 2.5,0.891 5.296,1.022 7.846,0.259 2.045,-0.603 3.834,-1.913 5.159,-3.569 1.497,-1.867 2.458,-4.106 3.089,-6.4 0.872,-3.232 1.11,-6.616 0.868,-9.949 -0.242,-3.064 -0.892,-6.131 -2.234,-8.911C58.629,34.006 57.07,32.033 54.974,30.817 52.069,29.123 48.427,29.009 45.276,30.037 44.103,28.312 42.722,26.734 41.176,25.335Z" fill-rule="evenodd" id="path_1"/></svg>