<svg id="vector" xmlns="http://www.w3.org/2000/svg" width="72" height="72" viewBox="0 0 72 72"><path fill="#000" d="M62.751,28.945C63.87,21.38 58.175,17.313 50.387,14.6L52.913,4.351 46.744,2.797 44.285,12.775c-1.622,-0.409 -3.287,-0.794 -4.942,-1.176L41.82,1.555 35.655,-0 33.127,10.245C31.785,9.936 30.467,9.63 29.189,9.309l0.007,-0.032 -8.506,-2.148 -1.641,6.663c0,0 4.577,1.061 4.48,1.126 1.784,0.23 3.059,1.839 2.874,3.628l-6.922,28.075c-0.362,1.185 -1.615,1.852 -2.8,1.49 -0.009,-0.003 -0.018,-0.006 -0.027,-0.009 0.061,0.091 -4.483,-1.132 -4.483,-1.132l-3.062,7.141 8.027,2.024c1.493,0.378 2.957,0.775 4.398,1.148L18.98,67.649 25.141,69.203 27.669,58.948c1.683,0.462 3.317,0.888 4.916,1.29l-2.519,10.207 6.168,1.555 2.553,-10.346c10.518,2.013 18.427,1.201 21.756,-8.42 2.734,-5.419 0.558,-12.028 -4.861,-14.762 -0.264,-0.133 -0.533,-0.256 -0.807,-0.367 4.398,-0.915 7.63,-4.674 7.876,-9.16zM48.657,48.932c-1.906,7.747 -14.803,3.559 -18.984,2.509L33.061,37.708c4.181,1.055 17.589,3.145 15.597,11.224zM50.565,28.833c-1.739,7.046 -12.473,3.466 -15.955,2.588l3.071,-12.455c3.482,0.878 14.696,2.516 12.884,9.867z" stroke-width="5.68569" fill-opacity="0.5" id="path_0"/></svg>