<?xml version="1.0" encoding="UTF-8" standalone="no"?>
<svg
   viewBox="0 0 72.000002 71.999999"
   version="1.1"
   id="svg12"
   sodipodi:docname="blabla_car.svg"
   width="72"
   height="72"
   inkscape:version="1.2.1 (9c6d41e410, 2022-07-14)"
   xmlns:inkscape="http://www.inkscape.org/namespaces/inkscape"
   xmlns:sodipodi="http://sodipodi.sourceforge.net/DTD/sodipodi-0.dtd"
   xmlns="http://www.w3.org/2000/svg"
   xmlns:svg="http://www.w3.org/2000/svg">
  <defs
     id="defs16" />
  <sodipodi:namedview
     id="namedview14"
     pagecolor="#ffffff"
     bordercolor="#000000"
     borderopacity="0.25"
     inkscape:showpageshadow="2"
     inkscape:pageopacity="0.0"
     inkscape:pagecheckerboard="0"
     inkscape:deskcolor="#d1d1d1"
     showgrid="false"
     inkscape:zoom="3.2273122"
     inkscape:cx="102.09734"
     inkscape:cy="37.802354"
     inkscape:window-width="1920"
     inkscape:window-height="1009"
     inkscape:window-x="-8"
     inkscape:window-y="-8"
     inkscape:window-maximized="1"
     inkscape:current-layer="g302" />
  <g
     id="g302"
     style="fill:#000000;fill-opacity:1;stroke-width:4.02972"
     transform="matrix(0.24815641,0,0,0.24815641,0.00852832,5.5516888)">
    <path
       fill="#054752"
       d="m 289,150.2 c -7.4,-44.6 -49.6,-74.6 -94,-67 L 208,8.5 160.3,0 c -4,9 -22,50 -30.7,96 17.7,12 30.7,31 34.6,54 4,24.3 -3,48 -17.6,65.6 3.6,4.4 7.7,8.4 12.3,12 18.5,14.6 41,20.3 63,16.6 44.7,-7.4 74.7,-49.6 67,-94 z"
       id="path2"
       style="fill:#000000;fill-opacity:0.75;stroke-width:4.02972" />
    <path
       fill="#2dbeff"
       d="m 128.8,101.2 1,-5 C 112.8,84.6 91.8,79.4 70,83 L 83,8.4 35.4,0 C 31.2,9.3 12,53 3.8,101 c -6.6,38.8 -6.3,80.4 14,109.7 4.5,6.3 9.8,12 16.2,17 18.6,14.6 41.2,20.3 63.2,16.6 20.2,-3.3 37.3,-14 49.4,-28.5 l -3.8,-5 C 122.4,181.6 122.1,140 128.8,101.3 Z"
       id="path4"
       style="fill:#000000;fill-opacity:0.5;stroke-width:4.02972" />
    <path
       fill="#9ef769"
       d="m 164.3,150.2 c -4,-23 -17,-42 -34.6,-54 l -1,5 c -6.5,38.8 -6.2,80.4 14.2,109.7 l 3.7,5 c 14.6,-18 21.8,-41.6 17.6,-66 z"
       id="path6"
       style="fill:#000000;fill-opacity:1;stroke-width:4.02972" />
  </g>
</svg>
