<svg id="vector" xmlns="http://www.w3.org/2000/svg" width="72" height="72" viewBox="0 0 72 72"><path fill="#000" d="M9.805,41.788L0,41.788L2.674,29.448h9.395c6.105,0 7.559,2.991 7.559,5.365 0,3.359 -2.185,6.975 -9.823,6.975zM13.182,23.2L3.405,23.2L6.06,10.851h9.404c6.101,0 7.559,3 7.559,5.374 -0,3.358 -2.186,6.975 -9.842,6.975zM32.367,61.149L22.563,61.149l2.668,-12.358h9.405c6.096,0 7.541,3.009 7.541,5.383 0,3.368 -2.172,6.975 -9.81,6.975zM35.984,41.788L26.202,41.788L28.866,29.448h9.4c6.101,0 7.545,2.991 7.545,5.365 -0,3.359 -2.172,6.975 -9.828,6.975zM39.379,23.2h-9.781l2.669,-12.349h9.386c6.11,0 7.564,3 7.564,5.374 0,3.358 -2.181,6.975 -9.837,6.975zM58.528,51.846h-9.791l2.668,-12.358h9.395c6.101,0 7.555,3.018 7.555,5.383 0,3.358 -2.172,6.975 -9.827,6.975zM62.172,34.252h-9.791l2.669,-12.349h9.404c6.101,0 7.546,3 7.546,5.374 0,3.359 -2.172,6.975 -9.828,6.975z" stroke-width="5.11057" fill-opacity="0.5" id="path_0"/></svg>