<?xml version="1.0" encoding="UTF-8" standalone="no"?>
<!-- Generator: Adobe Illustrator 14.0.0, SVG Export Plug-In . SVG Version: 6.00 Build 43363)  -->

<svg
   version="1.1"
   id="Layer_1"
   x="0px"
   y="0px"
   width="72"
   height="72"
   viewBox="0 0 71.999999 72"
   xml:space="preserve"
   inkscape:version="1.2.1 (9c6d41e410, 2022-07-14)"
   sodipodi:docname="blackberry_app.svg"
   xmlns:inkscape="http://www.inkscape.org/namespaces/inkscape"
   xmlns:sodipodi="http://sodipodi.sourceforge.net/DTD/sodipodi-0.dtd"
   xmlns="http://www.w3.org/2000/svg"
   xmlns:svg="http://www.w3.org/2000/svg"
   xmlns:rdf="http://www.w3.org/1999/02/22-rdf-syntax-ns#"
   xmlns:cc="http://creativecommons.org/ns#"
   xmlns:dc="http://purl.org/dc/elements/1.1/"><metadata
   id="metadata55"><rdf:RDF><cc:Work
       rdf:about=""><dc:format>image/svg+xml</dc:format><dc:type
         rdf:resource="http://purl.org/dc/dcmitype/StillImage" /></cc:Work></rdf:RDF></metadata><defs
   id="defs53">
			
			
			
			
			
			
			
		</defs><sodipodi:namedview
   pagecolor="#ffffff"
   bordercolor="#666666"
   borderopacity="1"
   objecttolerance="10"
   gridtolerance="10"
   guidetolerance="10"
   inkscape:pageopacity="0"
   inkscape:pageshadow="2"
   inkscape:window-width="1920"
   inkscape:window-height="1009"
   id="namedview51"
   showgrid="false"
   fit-margin-top="0"
   fit-margin-left="0"
   fit-margin-right="0"
   fit-margin-bottom="0"
   inkscape:zoom="3.0374886"
   inkscape:cx="120.00045"
   inkscape:cy="44.115392"
   inkscape:window-x="-8"
   inkscape:window-y="-8"
   inkscape:window-maximized="1"
   inkscape:current-layer="Layer_1"
   inkscape:showpageshadow="2"
   inkscape:pagecheckerboard="0"
   inkscape:deskcolor="#d1d1d1" />
<g
   id="g338"
   transform="matrix(1.891253,0,0,1.891253,4.3459451e-6,10.637351)"><path
     d="M 12.266998,2.864 C 12.266998,1.6 11.492998,0 8.2399975,0 c -1.335,0 -5.009,0 -5.009,0 l -1.424,6.588 c 0,0 2.707,0 5.222,0 4.0770005,0 5.2380005,-1.93 5.2380005,-3.724 z"
     id="path29"
     inkscape:connector-curvature="0" /><path
     d="m 25.759997,2.864 c 0,-1.264 -0.772,-2.864 -4.024,-2.864 -1.336,0 -5.01,0 -5.01,0 l -1.423,6.587 c 0,0 2.706,0 5.219,0 4.079,0.001 5.238,-1.929 5.238,-3.723 z"
     id="path31"
     inkscape:connector-curvature="0" /><path
     d="m 10.459998,12.779 c 0,-1.264 -0.7740005,-2.868 -4.0270005,-2.868 -1.335,0 -5.009,0 -5.009,0 l -1.424,6.592 c 0,0 2.707,0 5.22,0 4.078,0 5.2400005,-1.935 5.2400005,-3.724 z"
     id="path33"
     inkscape:connector-curvature="0" /><path
     d="m 23.952998,12.779 c 0,-1.264 -0.775,-2.868 -4.025,-2.868 -1.337001,0 -5.009,0 -5.009,0 l -1.426,6.592 c 0,0 2.707,0 5.222,0 4.079,0 5.238,-1.935 5.238,-3.724 z"
     id="path35"
     inkscape:connector-curvature="0" /><path
     d="m 38.069997,8.758 c 0,-1.265 -0.775,-2.868 -4.025,-2.868 -1.337,0 -5.009,0 -5.009,0 l -1.426,6.591 c 0,0 2.709001,0 5.220001,0 4.079,0 5.24,-1.93 5.239999,-3.723 z"
     id="path37"
     inkscape:connector-curvature="0" /><path
     d="m 36.123998,19.081 c 0,-1.265 -0.773001,-2.864 -4.025,-2.864 -1.335,0 -5.009,0 -5.009,0 l -1.424,6.588 c 0,0 2.705,0 5.22,0 4.078,0 5.238,-1.935 5.238,-3.724 z"
     id="path39"
     inkscape:connector-curvature="0" /><path
     d="m 22.013998,23.103 c 0,-1.27 -0.772,-2.873 -4.022,-2.873 -1.338,0 -5.012,0 -5.012,0 l -1.424,6.591 c 0,0 2.707,0 5.22,0 4.079,10e-4 5.238,-1.929 5.238,-3.718 z"
     id="path41"
     inkscape:connector-curvature="0" /></g>
</svg>
