<?xml version="1.0" encoding="UTF-8" standalone="no"?>
<svg
   version="1.0"
   width="72pt"
   height="72pt"
   viewBox="0 0 72 72"
   preserveAspectRatio="xMidYMid"
   id="svg14"
   inkscape:version="1.2.1 (9c6d41e410, 2022-07-14)"
   xmlns:inkscape="http://www.inkscape.org/namespaces/inkscape"
   xmlns:sodipodi="http://sodipodi.sourceforge.net/DTD/sodipodi-0.dtd"
   xmlns="http://www.w3.org/2000/svg"
   xmlns:svg="http://www.w3.org/2000/svg">
  <defs
     id="defs18" />
  <sodipodi:namedview
     id="namedview16"
     pagecolor="#ffffff"
     bordercolor="#000000"
     borderopacity="0.25"
     inkscape:showpageshadow="2"
     inkscape:pageopacity="0.0"
     inkscape:pagecheckerboard="0"
     inkscape:deskcolor="#d1d1d1"
     inkscape:document-units="pt"
     showgrid="false"
     inkscape:zoom="0.48101055"
     inkscape:cx="-448.01512"
     inkscape:cy="449.0546"
     inkscape:window-width="1920"
     inkscape:window-height="1009"
     inkscape:window-x="-8"
     inkscape:window-y="-8"
     inkscape:window-maximized="1"
     inkscape:current-layer="g12" />
  <g
     transform="matrix(0.1,0,0,-0.1,0,457)"
     fill="#000000"
     stroke="none"
     id="g12">
    <g
       id="g6113"
       transform="matrix(0.21569078,0,0,0.21569078,-101.60513,3748.4203)">
      <path
         d="m 1450,3803 c -153,-25 -321,-124 -424,-249 -227,-275 -227,-683 0,-958 88,-106 199,-180 340,-228 58,-19 90,-23 199,-23 136,0 207,15 309,67 51,25 155,99 180,126 18,20 18,22 -2,49 -76,109 -131,280 -139,438 -9,182 27,341 112,489 52,92 54,87 -52,162 -124,89 -268,135 -415,133 -46,-1 -94,-4 -108,-6 z"
         id="path2"
         style="fill:#000000;fill-opacity:0.75" />
      <path
         d="m 2635,3800 c -143,-26 -271,-94 -376,-199 -141,-141 -208,-294 -217,-492 -6,-141 12,-236 67,-354 64,-136 176,-262 287,-321 34,-19 34,-19 51,6 95,137 283,262 468,311 108,29 288,30 394,2 l 73,-20 19,44 c 41,96 53,165 54,298 0,150 -18,224 -88,360 -50,97 -169,221 -267,278 -132,76 -325,112 -465,87 z"
         id="path4"
         style="fill:#000000;fill-opacity:0.5" />
      <path
         d="m 2975,2636 c -258,-49 -467,-238 -550,-499 -29,-89 -31,-117 -11,-117 8,0 48,-17 89,-38 264,-137 435,-390 469,-696 l 12,-104 64,-5 c 171,-13 348,43 494,158 107,84 205,237 243,380 41,152 27,339 -35,489 -128,307 -460,492 -775,432 z"
         id="path6"
         style="fill:#000000;fill-opacity:0.5" />
      <path
         d="M 797,2530 C 586,2396 459,2138 473,1870 c 13,-261 150,-482 377,-608 91,-50 174,-73 291,-79 181,-10 336,39 473,150 243,195 335,518 235,823 -32,97 -30,96 -129,72 -122,-29 -300,-22 -420,16 -155,50 -304,149 -392,261 -24,29 -48,54 -54,54 -5,1 -31,-12 -57,-29 z"
         id="path8" />
      <path
         d="m 2054,1932 c -6,-4 -14,-40 -18,-81 -23,-237 -146,-472 -320,-610 -67,-54 -223,-141 -252,-141 -20,0 -11,-47 27,-153 69,-191 201,-335 385,-418 274,-124 617,-44 812,189 262,316 232,773 -70,1047 -76,68 -215,140 -313,160 -73,15 -232,20 -251,7 z"
         id="path10"
         style="fill:#000000;fill-opacity:0.75" />
    </g>
  </g>
</svg>
