<?xml version="1.0" encoding="UTF-8" standalone="no"?>
<svg
   version="1.0"
   width="72pt"
   height="72pt"
   viewBox="0 0 72 72"
   preserveAspectRatio="xMidYMid"
   id="svg12"
   sodipodi:docname="blackverry_uem.svg"
   inkscape:version="1.2.1 (9c6d41e410, 2022-07-14)"
   xmlns:inkscape="http://www.inkscape.org/namespaces/inkscape"
   xmlns:sodipodi="http://sodipodi.sourceforge.net/DTD/sodipodi-0.dtd"
   xmlns="http://www.w3.org/2000/svg"
   xmlns:svg="http://www.w3.org/2000/svg">
  <defs
     id="defs16" />
  <sodipodi:namedview
     id="namedview14"
     pagecolor="#ffffff"
     bordercolor="#000000"
     borderopacity="0.25"
     inkscape:showpageshadow="2"
     inkscape:pageopacity="0.0"
     inkscape:pagecheckerboard="0"
     inkscape:deskcolor="#d1d1d1"
     inkscape:document-units="pt"
     showgrid="false"
     inkscape:zoom="0.30358887"
     inkscape:cx="113.64053"
     inkscape:cy="925.59389"
     inkscape:window-width="1920"
     inkscape:window-height="1009"
     inkscape:window-x="-8"
     inkscape:window-y="-8"
     inkscape:window-maximized="1"
     inkscape:current-layer="g10" />
  <g
     transform="matrix(0.1,0,0,-0.1,0,1024)"
     fill="#000000"
     stroke="none"
     id="g10">
    <g
       id="g1790"
       transform="matrix(0.07037779,0,0,0.07037779,-0.31669035,9519.9045)">
      <path
         d="m 4989,10196 c -2,-3 -40,-11 -84,-19 -44,-9 -104,-22 -134,-31 -78,-22 -230,-100 -303,-155 -75,-58 -209,-194 -265,-271 -115,-158 -382,-544 -639,-925 -64,-93 -176,-260 -251,-370 -155,-229 -546,-813 -558,-834 -9,-15 43,13 100,54 43,31 258,159 405,242 544,306 1079,518 1480,588 52,9 122,21 154,26 92,16 376,13 501,-5 172,-25 240,-41 470,-107 39,-11 79,-24 90,-29 11,-4 61,-22 110,-40 392,-139 941,-419 1339,-682 49,-32 90,-57 92,-55 6,6 -788,1181 -1184,1752 -273,393 -317,451 -422,556 -164,164 -301,236 -555,290 -82,17 -333,28 -346,15 z"
         id="path2"
         style="fill:#000000;fill-opacity:0.75" />
      <path
         d="M 2579,7442 C 2566,7432 2350,7286 2100,7118 1598,6782 1210,6520 1003,6377 957,6346 884,6295 840,6265 471,6011 391,5950 289,5843 144,5691 75,5561 18,5330 0,5255 0,4945 18,4870 c 57,-230 134,-378 274,-526 95,-100 172,-159 538,-411 545,-374 1783,-1203 1789,-1197 2,2 -18,36 -44,76 -197,297 -488,836 -600,1113 -20,50 -42,104 -50,120 -49,112 -150,435 -181,580 -40,186 -46,241 -51,431 -5,197 6,328 37,459 5,22 19,81 31,130 108,467 426,1150 800,1718 33,50 59,91 59,93 0,9 -19,2 -41,-14 z"
         id="path4"
         style="fill:#000000;fill-opacity:0.75" />
      <path
         d="m 7620,7444 c 0,-3 17,-31 39,-62 162,-239 410,-685 536,-962 80,-177 193,-462 215,-545 5,-16 23,-77 40,-135 17,-58 38,-136 46,-175 85,-392 71,-741 -46,-1135 -17,-58 -35,-118 -40,-135 -9,-37 -85,-239 -133,-355 -133,-325 -362,-753 -589,-1103 -39,-59 -69,-109 -67,-111 2,-2 65,36 139,86 190,127 919,617 1075,723 240,162 410,278 470,320 541,376 550,383 679,525 106,117 168,231 219,405 31,106 32,116 32,295 0,201 -9,258 -65,411 -74,203 -228,392 -440,540 -30,21 -93,65 -140,98 -47,33 -128,89 -180,125 -52,36 -142,97 -200,137 -204,140 -1579,1059 -1584,1059 -3,0 -6,-2 -6,-6 z"
         id="path6"
         style="fill:#000000;fill-opacity:0.75" />
      <path
         d="m 2696,2578 c 13,-21 523,-757 653,-943 70,-99 189,-270 266,-380 153,-219 444,-624 539,-750 135,-180 307,-319 476,-387 375,-152 808,-101 1125,132 70,52 188,172 255,260 119,157 481,668 790,1115 57,83 129,186 160,230 53,76 180,259 355,515 44,63 93,134 109,157 16,24 27,46 23,49 -4,4 -25,-5 -48,-21 -213,-140 -679,-392 -944,-510 -33,-14 -69,-30 -80,-35 -103,-46 -305,-123 -410,-158 -162,-53 -268,-83 -440,-123 -71,-17 -167,-29 -313,-41 -231,-19 -503,12 -777,87 -33,9 -71,19 -85,22 -14,3 -29,9 -35,13 -5,4 -27,11 -49,14 -21,4 -46,11 -55,16 -9,5 -45,18 -81,30 -36,12 -78,28 -95,35 -16,8 -57,23 -90,36 -33,12 -79,30 -102,40 -23,11 -44,19 -47,19 -7,0 -150,67 -296,138 -243,119 -518,273 -716,400 -82,53 -101,61 -88,40 z"
         id="path8"
         style="fill:#000000;fill-opacity:1" />
      <g
         id="g27"
         transform="matrix(73.548726,0,0,-73.548726,3412.2721,6770.6173)"
         style="fill:#000000;fill-opacity:0.5">
			<path
   d="m 16.451,11.896 c 0,-1.264 -0.774,-2.864 -4.027,-2.864 -1.335,0 -5.009,0 -5.009,0 L 5.991,15.62 c 0,0 2.707,0 5.222,0 4.077,0 5.238,-1.93 5.238,-3.724 z"
   id="path29"
   inkscape:connector-curvature="0"
   style="fill:#000000;fill-opacity:0.5" />

			<path
   d="m 29.944,11.896 c 0,-1.264 -0.772,-2.864 -4.024,-2.864 -1.336,0 -5.01,0 -5.01,0 l -1.423,6.587 c 0,0 2.706,0 5.219,0 4.079,10e-4 5.238,-1.929 5.238,-3.723 z"
   id="path31"
   inkscape:connector-curvature="0"
   style="fill:#000000;fill-opacity:0.5" />

			<path
   d="m 14.644,21.811 c 0,-1.264 -0.774,-2.868 -4.027,-2.868 -1.335,0 -5.009,0 -5.009,0 l -1.424,6.592 c 0,0 2.707,0 5.22,0 4.078,0 5.24,-1.935 5.24,-3.724 z"
   id="path33"
   inkscape:connector-curvature="0"
   style="fill:#000000;fill-opacity:0.5" />

			<path
   d="m 28.137,21.811 c 0,-1.264 -0.775,-2.868 -4.025,-2.868 -1.337,0 -5.009,0 -5.009,0 l -1.426,6.592 c 0,0 2.707,0 5.222,0 4.079,0 5.238,-1.935 5.238,-3.724 z"
   id="path35"
   inkscape:connector-curvature="0"
   style="fill:#000000;fill-opacity:0.5" />

			<path
   d="m 42.254,17.79 c 0,-1.265 -0.775,-2.868 -4.025,-2.868 -1.337,0 -5.009,0 -5.009,0 l -1.426,6.591 c 0,0 2.709,0 5.22,0 4.079,0 5.24,-1.93 5.24,-3.723 z"
   id="path37"
   inkscape:connector-curvature="0"
   style="fill:#000000;fill-opacity:0.5" />

			<path
   d="m 40.308,28.113 c 0,-1.265 -0.773,-2.864 -4.025,-2.864 -1.335,0 -5.009,0 -5.009,0 l -1.424,6.588 c 0,0 2.705,0 5.22,0 4.078,0 5.238,-1.935 5.238,-3.724 z"
   id="path39"
   inkscape:connector-curvature="0"
   style="fill:#000000;fill-opacity:0.5" />

			<path
   d="m 26.198,32.135 c 0,-1.27 -0.772,-2.873 -4.022,-2.873 -1.338,0 -5.012,0 -5.012,0 l -1.424,6.591 c 0,0 2.707,0 5.22,0 4.079,10e-4 5.238,-1.929 5.238,-3.718 z"
   id="path41"
   inkscape:connector-curvature="0"
   style="fill:#000000;fill-opacity:0.5" />

		</g>
    </g>
  </g>
</svg>
