<svg id="vector" xmlns="http://www.w3.org/2000/svg" width="72" height="72" viewBox="0 0 72 72"><path fill="#000" d="M54.62,26.329H54.606V21.606C54.595,11.195 46.159,2.759 35.749,2.748H26.32C13.308,2.764 2.764,13.308 2.748,26.32V45.177C2.764,58.189 13.308,68.733 26.32,68.749H45.177C58.189,68.734 68.733,58.189 68.749,45.177V40.463C68.743,32.661 62.421,26.338 54.62,26.329ZM26.32,21.606h4.714c2.604,0 4.714,2.111 4.714,4.714 0,2.604 -2.111,4.714 -4.714,4.714h-4.714c-2.604,0 -4.714,-2.111 -4.714,-4.714 0,-2.604 2.111,-4.714 4.714,-4.714zM45.177,49.891H26.32c-2.604,0 -4.714,-2.111 -4.714,-4.714 0,-2.604 2.111,-4.714 4.714,-4.714h18.857c2.604,0 4.714,2.111 4.714,4.714 0,2.604 -2.111,4.714 -4.714,4.714z" stroke-linejoin="round" stroke-width="5.99974" stroke="#000" stroke-linecap="round" id="path_0"/></svg>