<svg id="vector" xmlns="http://www.w3.org/2000/svg" width="72" height="72" viewBox="0 0 72 72"><path fill="#000" d="m71.533,20.995l-4.02,-7.025 -7.147,3.533 -4.02,-7.025 -7.147,3.533 -4.02,-7.025 -7.147,3.533 -4.02,-7.025 -7.147,3.533 -4.02,-7.025 -7.147,3.533 -15.228,50.843 18.437,5.807c1.218,-4.102 4.954,-7.107 9.34,-7.107 5.401,0 9.787,4.508 9.787,10.071l0,0.203c0.041,0.893 -0.041,1.827 -0.325,2.721l18.761,5.929" fill-opacity="0.25" id="path_0"/><path fill="#000" d="m16.264,50.152c-0.975,-0.162 -1.624,-1.015 -1.624,-2.03l0,-24.975c0,-1.178 0.893,-2.071 2.03,-2.071l17.462,0c0.447,0 0.893,0.041 1.34,0.122 3.736,0.69 6.497,4.02 6.497,7.959l0,18.964c0,0.569 -0.203,1.096 -0.609,1.503 -0.365,0.365 -0.893,0.609 -1.421,0.609l-0.365,-0.041c-0.975,-0.162 -1.624,-1.015 -1.624,-2.03l0,-18.924c0,-1.909 -1.34,-3.533 -3.168,-3.858l-0.65,-0.081l-3.817,0L30.315,48.162c0,0.569 -0.203,1.096 -0.609,1.503 -0.365,0.365 -0.893,0.609 -1.421,0.609l-0.365,-0.041c-0.975,-0.162 -1.624,-1.015 -1.624,-2.03L26.294,25.299L18.66,25.299L18.66,48.162c0,0.569 -0.203,1.096 -0.609,1.462 -0.365,0.365 -0.893,0.609 -1.421,0.609l-0.365,-0.081" id="path_1"/><path fill="#000" d="m45.299,61.036c-0.975,-0.162 -1.624,-1.015 -1.624,-2.03 0,-0.569 0.203,-1.096 0.569,-1.462 0.365,-0.365 0.893,-0.609 1.421,-0.609 1.706,0 3.168,-1.137 3.655,-2.802l2.071,-7.147 -6.782,-23.431c-0.325,-1.096 0.284,-2.274 1.34,-2.64l0.893,-0.041c0.731,0.122 1.34,0.69 1.584,1.421l5.036,17.462 5.117,-17.462c0.244,-0.975 1.259,-1.624 2.315,-1.421l0.122,0.041c1.096,0.365 1.706,1.543 1.34,2.64l-6.985,24.041 -2.193,7.716c-0.569,1.787 -1.543,3.208 -2.843,4.183 -1.381,1.056 -3.005,1.624 -4.711,1.624l-0.325,-0.081" id="path_2"/></svg>