<?xml version="1.0" encoding="UTF-8" standalone="no"?>
<svg
   id="Layer_1"
   data-name="Layer 1"
   viewBox="0 0 72.000002 72.000002"
   version="1.1"
   sodipodi:docname="brave_browser.svg"
   width="72"
   height="72"
   inkscape:version="1.2.1 (9c6d41e410, 2022-07-14)"
   xmlns:inkscape="http://www.inkscape.org/namespaces/inkscape"
   xmlns:sodipodi="http://sodipodi.sourceforge.net/DTD/sodipodi-0.dtd"
   xmlns="http://www.w3.org/2000/svg"
   xmlns:svg="http://www.w3.org/2000/svg"
   xmlns:rdf="http://www.w3.org/1999/02/22-rdf-syntax-ns#"
   xmlns:cc="http://creativecommons.org/ns#"
   xmlns:dc="http://purl.org/dc/elements/1.1/">
  <sodipodi:namedview
     id="namedview44"
     pagecolor="#ffffff"
     bordercolor="#000000"
     borderopacity="0.25"
     inkscape:showpageshadow="2"
     inkscape:pageopacity="0.0"
     inkscape:pagecheckerboard="0"
     inkscape:deskcolor="#d1d1d1"
     showgrid="false"
     inkscape:zoom="2.6191044"
     inkscape:cx="110.53397"
     inkscape:cy="38.18099"
     inkscape:window-width="1920"
     inkscape:window-height="1009"
     inkscape:window-x="-8"
     inkscape:window-y="-8"
     inkscape:window-maximized="1"
     inkscape:current-layer="Layer_1" />
  <defs
     id="defs21">
    <style
       id="style2">.cls-1{fill:#fff;}.cls-2{fill:url(#linear-gradient);}.cls-3{fill:#77777a;}</style>
    <linearGradient
       id="linear-gradient"
       x1="168.37"
       y1="199.89999"
       x2="289.95999"
       y2="199.89999"
       gradientUnits="userSpaceOnUse">
      <stop
         offset="0"
         stop-color="#f1562b"
         id="stop4"
         style="stop-color:#000000;stop-opacity:1;" />
      <stop
         offset="0.3"
         stop-color="#f1542b"
         id="stop6" />
      <stop
         offset="0.41"
         stop-color="#f04d2a"
         id="stop8" />
      <stop
         offset="0.49"
         stop-color="#ef4229"
         id="stop10" />
      <stop
         offset="0.5"
         stop-color="#ef4029"
         id="stop12" />
      <stop
         offset="0.56"
         stop-color="#e83e28"
         id="stop14" />
      <stop
         offset="0.67"
         stop-color="#e13c26"
         id="stop16" />
      <stop
         offset="1"
         stop-color="#df3c26"
         id="stop18" />
    </linearGradient>
  </defs>
  <title
     id="title23">brave_logo_2color_reversed</title>
  <path
     id="path971"
     style="fill:#000000;fill-opacity:1;stroke-width:1"
     class="cls-2"
     d="M 35.976839,2.2008033e-7 25.027402,0.08574194 18.618385,7.0900308 17.478104,6.6859568 a 6.7969687,6.7969687 0 0 0 -7.10974,1.6547364 L 6.0940442,12.665276 a 0.94360294,0.94360294 0 0 0 -0.1911981,1.049609 l 1.609398,3.593306 -2.2095951,6.024652 1.4270708,5.434315 6.5144732,24.765828 a 12.615013,12.615013 0 0 0 4.879446,7.064407 c 0,0 7.907544,5.57577 15.708648,10.641949 a 3.4817435,3.4817435 0 0 0 4.344297,0 C 46.941475,65.496999 53.875372,60.577684 53.875372,60.577684 a 12.615013,12.615013 0 0 0 4.874522,-7.064407 l 6.478989,-24.776672 1.468468,-5.444165 -2.220439,-6.029583 1.543367,-3.46223 A 1.1858112,1.1858112 0 0 0 65.778822,12.483932 L 61.580385,8.2401667 A 6.7767847,6.7767847 0 0 0 54.515978,6.6002151 L 53.340223,7.009219 46.926276,0.06011832 36.047801,2.2008033e-7 Z M 36.095107,10.97112 a 9.7640197,9.7640197 0 0 1 1.031868,0.0542 c 0.650935,0.141288 1.700938,0.439633 2.336734,0.64652 l 3.265119,1.054534 a 4.7079227,4.7079227 0 0 0 1.771031,0.25723 l 1.811435,-0.348886 4.132401,-0.79632 c 0.655981,-0.12615 1.201383,-0.222736 1.201383,-0.222736 h 0.05519 a 9.4562134,9.4562134 0 0 1 0.802234,0.939228 l 2.704346,3.385355 c 0.428901,0.519739 1.065495,1.398299 1.438899,1.953359 l 2.018402,2.961571 a 10.884233,10.884233 0 0 1 1.150131,2.170176 8.4974724,8.4974724 0 0 1 0.08082,1.291066 l -0.101511,0.323262 a 4.7886587,4.7886587 0 0 1 -0.216822,0.595272 c -0.418818,0.519728 -1.130502,1.327533 -1.589688,1.832134 l -7.064407,7.517755 a 2.018402,2.018402 0 0 0 -0.357752,2.018402 l 1.160975,2.740808 a 3.5574335,3.5574335 0 0 1 0.05519,2.254934 l -0.232585,0.63568 a 6.1258501,6.1258501 0 0 1 -1.881413,2.644223 l -1.110712,0.908674 a 2.0991381,2.0991381 0 0 1 -2.018402,0.247376 L 42.591839,44.157474 A 10.031458,10.031458 0 0 1 40.573437,42.82501 l -3.163613,-2.850205 a 1.2665473,1.2665473 0 0 1 -0.06504,-1.817349 l 7.124525,-4.813415 a 1.3826054,1.3826054 0 0 0 0.433638,-1.751317 L 42.132572,26.39593 a 2.7046587,2.7046587 0 0 1 -0.136005,-2.063741 3.1537531,3.1537531 0 0 1 1.568989,-1.42313 l 8.66494,-3.284828 c 0.620658,-0.237162 0.590185,-0.484457 -0.07589,-0.545009 l -5.091344,-0.475036 a 7.8515838,7.8515838 0 0 0 -2.377137,0.211892 l -4.43004,1.241792 a 1.3573753,1.3573753 0 0 0 -0.949082,1.513801 l 1.751317,9.506593 a 4.9097629,4.9097629 0 0 1 0.09067,1.604473 c -0.07569,0.22707 -0.665765,0.53468 -1.316689,0.681014 l -2.427406,0.550923 a 6.5598065,6.5598065 0 0 1 -2.371229,0 l -2.7004,-0.575563 c -0.650934,-0.161472 -1.24605,-0.439158 -1.316694,-0.666229 a 4.9148089,4.9148089 0 0 1 0.08574,-1.604473 l 1.740478,-9.506592 a 1.3573753,1.3573753 0 0 0 -0.948094,-1.513802 l -4.430039,-1.236862 a 7.8566298,7.8566298 0 0 0 -2.377143,-0.211891 l -5.091338,0.5046 c -0.661027,0.04037 -0.696667,0.307842 -0.07096,0.545004 l 8.66888,3.274978 a 3.1537531,3.1537531 0 0 1 1.569978,1.42313 2.6996127,2.6996127 0 0 1 -0.136004,2.063735 l -2.765448,5.197784 a 1.3826054,1.3826054 0 0 0 0.433638,1.750333 l 7.130439,4.804544 a 1.2665473,1.2665473 0 0 1 -0.06603,1.816365 l -3.158678,2.851189 a 10.031458,10.031458 0 0 1 -2.018402,1.336405 l -3.94613,1.882397 A 2.0991381,2.0991381 0 0 1 23.619057,45.80728 l -1.109728,-0.902765 a 6.1308961,6.1308961 0 0 1 -1.882397,-2.639293 l -0.23259,-0.635681 a 3.5574335,3.5574335 0 0 1 0.05618,-2.255917 L 21.60558,36.6338 a 2.018402,2.018402 0 0 0 -0.357752,-2.018402 l -7.064407,-7.507906 c -0.459186,-0.489462 -1.1758,-1.327533 -1.594618,-1.832134 a 4.7886587,4.7886587 0 0 1 -0.187252,-0.610052 l -0.100527,-0.323262 a 7.2258792,7.2258792 0 0 1 0.27201,-1.877467 15.869686,15.869686 0 0 1 0.954013,-1.589688 l 2.018402,-2.961571 c 0.373394,-0.550015 1.024142,-1.44777 1.437914,-1.95237 l 2.7004,-3.386344 a 9.4562134,9.4562134 0 0 1 0.802234,-0.938239 h 0.05519 c 0.005,-0.005 0.544413,0.0956 1.200394,0.221747 l 4.138314,0.792379 1.81144,0.342972 a 4.7079227,4.7079227 0 0 0 1.771027,-0.25723 l 3.265123,-1.05946 c 0.635797,-0.206886 1.684811,-0.500069 2.335746,-0.651449 a 9.7640197,9.7640197 0 0 1 1.031872,-0.0542 z m -0.355783,33.196209 h 0.772669 a 9.2947412,9.2947412 0 0 1 1.281211,0.464192 l 1.937585,0.797309 c 0.620659,0.2523 1.610231,0.70644 2.20566,1.009201 l 3.567681,1.811435 a 0.67616467,0.67616467 0 0 1 0.0956,1.256576 l -3.10349,2.220439 c -0.544968,0.39863 -1.397506,1.074799 -1.902107,1.513802 l -0.87812,0.766755 -1.827209,1.594614 -0.867282,0.7569 a 1.4229734,1.4229734 0 0 1 -1.82129,0 l -0.827863,-0.731277 c -0.499555,-0.444043 -1.322603,-1.165587 -1.827204,-1.599543 l -0.872212,-0.751971 c -0.5046,-0.45414 -1.363052,-1.130305 -1.908021,-1.513801 l -3.103489,-2.189891 a 0.68121068,0.68121068 0 0 1 0.08673,-1.261501 l 3.571623,-1.861698 c 0.590383,-0.292669 1.580192,-0.751855 2.195805,-1.009201 l 1.94251,-0.808148 a 9.2947412,9.2947412 0 0 1 1.281216,-0.464192 z" />
  <metadata
     id="metadata1028">
    <rdf:RDF>
      <cc:Work
         rdf:about="">
        <dc:title>brave_logo_2color_reversed</dc:title>
      </cc:Work>
    </rdf:RDF>
  </metadata>
</svg>
