<?xml version="1.0" encoding="UTF-8" standalone="no"?>
<svg
   width="72"
   height="72"
   version="1.1"
   id="svg42"
   sodipodi:docname="byjus_learning.svg"
   inkscape:version="1.2.1 (9c6d41e410, 2022-07-14)"
   xmlns:inkscape="http://www.inkscape.org/namespaces/inkscape"
   xmlns:sodipodi="http://sodipodi.sourceforge.net/DTD/sodipodi-0.dtd"
   xmlns="http://www.w3.org/2000/svg"
   xmlns:svg="http://www.w3.org/2000/svg">
  <sodipodi:namedview
     id="namedview44"
     pagecolor="#ffffff"
     bordercolor="#000000"
     borderopacity="0.25"
     inkscape:showpageshadow="2"
     inkscape:pageopacity="0.0"
     inkscape:pagecheckerboard="0"
     inkscape:deskcolor="#d1d1d1"
     showgrid="false"
     inkscape:zoom="1.5198637"
     inkscape:cx="160.21174"
     inkscape:cy="103.95669"
     inkscape:window-width="1920"
     inkscape:window-height="1009"
     inkscape:window-x="-8"
     inkscape:window-y="-8"
     inkscape:window-maximized="1"
     inkscape:current-layer="g40" />
  <defs
     id="defs5">
    <path
       id="a"
       d="m 0,0.075 h 52.26 v 52.23 H 0 Z" />
    <path
       id="c"
       d="M 3.025,0.041 A 3.024,3.024 0 0 0 0,3.065 v 17.127 a 5.065,5.065 0 0 0 5.067,5.064 H 47.193 A 5.065,5.065 0 0 0 52.26,20.192 V 3.065 A 3.024,3.024 0 0 0 49.234,0.041 Z" />
    <path
       id="e"
       d="M 5.067,0.075 A 5.065,5.065 0 0 0 0,5.14 v 17.127 a 3.024,3.024 0 0 0 3.025,3.024 h 46.21 A 3.024,3.024 0 0 0 52.26,22.267 V 5.139 A 5.065,5.065 0 0 0 47.193,0.075 Z" />
  </defs>
  <g
     fill="none"
     fill-rule="evenodd"
     id="g40">
    <g
       id="g1710"
       transform="matrix(0.87987281,0,0,0.87987281,-139.12197,-11.512252)"
       style="stroke-width:1.13653">
      <path
         id="path34"
         style="display:inline;fill:#000000;fill-opacity:0.25;stroke-width:1.13653"
         class="st2"
         d="m 199.82682,17.440954 c -1.37341,0.01066 -2.76046,0.214141 -4.12695,0.619141 l -23.52149,6.734375 c -1.996,0.511999 -3.03562,2.557642 -2.51562,4.43164 l 0.0156,0.05664 19.59766,-5.597656 c 5.37999,-1.533999 11.19584,0.08572 14.83984,4.261718 2.866,3.067997 4.42602,7.159942 4.16602,11.335938 a 15.436,15.436 0 0 1 -5.38086,10.826172 c 10.15399,0.17 18.22461,8.18426 18.22461,18.15625 0,8.097992 -5.46714,15.258611 -13.45313,17.474609 l -0.25976,0.08594 -16.14063,4.601562 c -0.71071,0.190715 -1.4225,0.145446 -2.09766,-0.06641 0.68396,0.22729 1.4402,0.26738 2.18555,0.06836 l 22.73438,-6.480469 h 0.002 c 9.28399,-2.727997 15.36031,-11.592743 14.32031,-21.052734 -1.044,-9.54599 -8.94016,-16.87861 -18.66015,-17.474609 3.29799,-2.811997 5.38068,-6.989942 5.55468,-11.335938 0.174,-4.433995 -1.38772,-8.695659 -4.51172,-11.847656 -2.86499,-3.133497 -6.85244,-4.828844 -10.97265,-4.796875 z" />
      <path
         fill="#fefefe"
         d="m 189.83707,94.912005 c -3.212,0 -6.076,-2.132 -6.944,-5.2 l -17.614,-60.264 c -1.128,-3.836 1.128,-7.758 4.946,-8.866 l 24.214,-6.902 c 1.474,-0.426 3.036,-0.596 4.686,-0.596 a 21.514,21.514 0 0 1 15.968,7.074 c 2.69,3.24 4.252,7.246 4.686,11.422 a 19.13,19.13 0 0 1 -2.256,10.912 24.24,24.24 0 0 1 11.802,9.716 c 3.038,4.86 4.252,10.57 3.56,16.28 -0.61,4.434 -2.606,8.526 -5.642,11.85 a 23.184,23.184 0 0 1 -11.022,7.416 l -24.386,6.904 a 8.556,8.556 0 0 1 -1.996,0.256 z m 10.066,-77.654 c -1.388,0 -2.864,0.17 -4.166,0.598 l -23.604,6.732 c -1.91,0.598 -3.038,2.56 -2.516,4.434 l 17.182,58.814 c 0.26,0.94 0.868,1.706 1.736,2.132 0.868,0.426 1.822,0.596 2.776,0.34 l 22.74,-6.478 c 9.37,-2.642 15.36,-11.592 14.318,-21.054 -1.042,-9.546 -8.94,-16.878 -18.66,-17.474 a 15.48,15.48 0 0 0 5.556,-10.91 c 0.26,-4.52 -1.39,-8.95 -4.514,-12.274 a 14.448,14.448 0 0 0 -10.848,-4.86 z"
         class="st3"
         id="path36"
         style="display:inline;fill:#000000;fill-opacity:1;stroke-width:1.13653" />
    </g>
  </g>
</svg>
