<svg id="vector" xmlns="http://www.w3.org/2000/svg" width="72" height="72" viewBox="0 0 72 72"><path fill="#000" d="M0,34.759L34.759,34.759L34.759,0L0,0ZM9.931,14.897l4.966,0L14.897,9.931c0,-1.37 1.112,-2.483 2.483,-2.483 1.37,0 2.483,1.112 2.483,2.483l0,4.966l4.966,0c1.37,0 2.483,1.112 2.483,2.483 0,1.37 -1.112,2.483 -2.483,2.483l-4.966,0l0,4.966c0,1.37 -1.112,2.483 -2.483,2.483 -1.37,0 -2.483,-1.112 -2.483,-2.483L14.897,19.862L9.931,19.862C8.561,19.862 7.448,18.75 7.448,17.379 7.448,16.009 8.561,14.897 9.931,14.897Z" fill-opacity="0.5" id="path_0"/><path fill="#000" d="M37.241,0L37.241,34.759L72,34.759L72,0ZM62.069,19.862L47.172,19.862c-1.37,0 -2.483,-1.112 -2.483,-2.483 0,-1.37 1.112,-2.483 2.483,-2.483l14.897,0c1.37,0 2.483,1.112 2.483,2.483 0,1.37 -1.112,2.483 -2.483,2.483z" id="path_1"/><path fill="#000" d="M37.241,72L72,72L72,37.241L37.241,37.241ZM47.172,48.414l14.897,0c1.37,0 2.483,1.112 2.483,2.483 0,1.37 -1.112,2.483 -2.483,2.483L47.172,53.379c-1.37,0 -2.483,-1.112 -2.483,-2.483 0,-1.37 1.112,-2.483 2.483,-2.483zM47.172,55.862l14.897,0c1.37,0 2.483,1.112 2.483,2.483 0,1.37 -1.112,2.483 -2.483,2.483L47.172,60.828c-1.37,0 -2.483,-1.112 -2.483,-2.483 0,-1.37 1.112,-2.483 2.483,-2.483z" id="path_2"/><path fill="#000" d="M0,72L34.759,72L34.759,37.241L0,37.241ZM9.417,50.169c-0.97,-0.97 -0.97,-2.541 0,-3.511 0.968,-0.97 2.542,-0.97 3.511,0L17.379,51.11 21.831,46.658c0.968,-0.97 2.542,-0.97 3.511,0 0.97,0.97 0.97,2.541 0,3.511L20.89,54.621l4.452,4.452c0.97,0.97 0.97,2.541 0,3.511C24.857,63.068 24.222,63.31 23.586,63.31 22.951,63.31 22.315,63.068 21.831,62.583L17.379,58.131 12.928,62.583C12.444,63.068 11.808,63.31 11.172,63.31 10.537,63.31 9.901,63.068 9.417,62.583 8.448,61.613 8.448,60.042 9.417,59.072L13.869,54.621Z" fill-opacity="0.75" id="path_3"/></svg>