<svg id="vector" xmlns="http://www.w3.org/2000/svg" width="72" height="72" viewBox="0 0 285.41 258.05"><path fill="#000" d="m142.7,188.96c25.22,0 45.67,-20.45 45.67,-45.67 0,-25.22 -20.45,-45.67 -45.67,-45.67 -25.22,0 -45.67,20.45 -45.67,45.67 0,25.22 20.45,45.67 45.67,45.67z" fill-opacity="0.5" id="path_0"/><path fill="#000" d="M99.89,0.59L73.78,29.13L28.54,29.13C12.84,29.13 0,41.97 0,57.67l0,171.24c0,15.7 12.84,28.54 28.54,28.54l228.33,0c15.7,0 28.54,-12.84 28.54,-28.54L285.41,57.67C285.41,41.97 272.56,29.13 256.87,29.13L211.63,29.13L185.52,0.59ZM142.7,214.65C103.32,214.65 71.35,182.68 71.35,143.29 71.35,103.91 103.32,71.94 142.7,71.94c39.39,0 71.35,31.97 71.35,71.35 0,39.39 -31.97,71.35 -71.35,71.35z" id="path_1"/></svg>