<svg id="vector" xmlns="http://www.w3.org/2000/svg" width="72" height="72" viewBox="0 0 72 72"><path fill="#000" d="m62.416,58.664l5.886,-0L68.302,29.963L62.416,29.963L62.416,58.664" id="path_0"/><path fill="#000" d="m28.642,58.664l5.878,-0l0,-28.7l-5.878,-0L28.642,58.664" id="path_1"/><path fill="#000" d="m57.55,52.424c-1.57,0.956 -3.028,1.437 -4.339,1.437 -1.901,-0 -2.761,-1.005 -2.761,-3.239l0,-15.229l5.992,-0l0,-5.402l-5.992,-0l0,-8.931L44.689,24.146L44.689,29.991L39.717,29.991L39.717,35.394l4.972,-0L44.689,51.593c0,4.412 2.614,7.431 6.519,7.51 2.65,0.052 4.246,-0.738 5.214,-1.318l0.062,-0.039L57.898,52.211 57.55,52.424" id="path_2"/><path fill="#000" d="m21.953,50.221l-0.132,0.128c-2.079,2.118 -4.484,3.237 -6.962,3.237 -5.175,-0 -8.929,-3.882 -8.929,-9.237 0,-5.347 3.754,-9.235 8.929,-9.235 2.478,-0 4.883,1.125 6.962,3.251L21.953,38.492 25.281,34.467 25.192,34.36c-2.767,-3.27 -6.089,-4.861 -10.172,-4.861 -4.093,-0 -7.841,1.38 -10.538,3.864 -2.937,2.693 -4.482,6.49 -4.482,10.987 0,4.497 1.545,8.302 4.482,10.995 2.697,2.499 6.445,3.868 10.538,3.868 4.083,-0 7.405,-1.593 10.172,-4.865L25.281,54.249 21.953,50.221" id="path_3"/><path fill="#000" d="m71.731,24.933c-5.371,-7.607 -14.29,-12.145 -23.364,-12.145 -9.072,-0 -17.992,4.538 -23.353,12.145l-0.277,0.391l6.763,-0l0.074,-0.081c4.602,-4.753 10.613,-7.264 16.793,-7.264 6.18,-0 12.187,2.511 16.799,7.264l0.074,0.081L72,25.324L71.731,24.933" fill-opacity="0.5" id="path_4"/></svg>