<?xml version="1.0" encoding="UTF-8" standalone="no"?>
<!-- Generator: Adobe Illustrator 25.0.1, SVG Export Plug-In . SVG Version: 6.00 Build 0)  -->

<svg
   version="1.0"
   id="Layer_1"
   x="0px"
   y="0px"
   viewBox="0 0 72.000001 72.000002"
   xml:space="preserve"
   sodipodi:docname="coin_dcx.svg"
   width="72"
   height="72"
   inkscape:version="1.2.1 (9c6d41e410, 2022-07-14)"
   xmlns:inkscape="http://www.inkscape.org/namespaces/inkscape"
   xmlns:sodipodi="http://sodipodi.sourceforge.net/DTD/sodipodi-0.dtd"
   xmlns="http://www.w3.org/2000/svg"
   xmlns:svg="http://www.w3.org/2000/svg"><defs
   id="defs19" /><sodipodi:namedview
   id="namedview17"
   pagecolor="#ffffff"
   bordercolor="#000000"
   borderopacity="0.25"
   inkscape:showpageshadow="2"
   inkscape:pageopacity="0.0"
   inkscape:pagecheckerboard="0"
   inkscape:deskcolor="#d1d1d1"
   showgrid="false"
   inkscape:zoom="7.77111"
   inkscape:cx="13.704606"
   inkscape:cy="25.09294"
   inkscape:window-width="1920"
   inkscape:window-height="1009"
   inkscape:window-x="-8"
   inkscape:window-y="-8"
   inkscape:window-maximized="1"
   inkscape:current-layer="Layer_1" />
<style
   type="text/css"
   id="style2">
	.st0{fill:#1C2951;}
	.st1{fill:#F94A29;}
	.st2{fill:none;}
</style>




<g
   id="g868"
   transform="matrix(0.10403105,0,0,0.10403105,-9.6119103,7.7346585)"
   style="stroke-width:9.61251"><g
     id="g860"
     style="fill:#000000;fill-opacity:0.75;stroke-width:9.61251"><path
       class="st0"
       d="m 196.8,298.5 17.5,15 c -3.4,4.7 -7.4,8.8 -12,12.3 -5.7,4.5 -12.1,8.1 -18.9,10.7 -7.5,2.9 -15.5,4.4 -23.6,4.3 -12.3,0.2 -24.4,-2.9 -35,-9 -10,-5.8 -18.2,-14.2 -23.8,-24.4 -5.9,-10.7 -8.8,-22.8 -8.6,-35.1 -0.1,-9.2 1.6,-18.3 4.9,-26.9 3.2,-8.3 8,-15.8 14.1,-22.2 6,-6.4 13.3,-11.5 21.4,-15 8.8,-3.7 18.2,-5.6 27.7,-5.5 11.4,-0.4 22.6,2.2 32.6,7.6 8.2,4.8 15.4,11.2 21,18.9 l -17.7,15.6 c -3.9,-5.8 -8.9,-10.7 -14.7,-14.6 -6.4,-3.9 -13.8,-5.8 -21.2,-5.5 -8,-0.2 -15.8,2 -22.4,6.4 -6.3,4.4 -11.3,10.4 -14.5,17.4 -3.4,7.3 -5.2,15.3 -5.1,23.4 -0.1,7.9 1.7,15.7 5.1,22.8 3.2,6.6 8,12.3 14.1,16.4 6.4,4.1 13.8,6.2 21.4,6 6.4,0.3 12.8,-0.9 18.7,-3.3 4.2,-1.9 8.1,-4.5 11.4,-7.8 l 7.6,-7.5"
       id="path4"
       style="fill:#000000;fill-opacity:0.75;stroke-width:9.61251" /><path
       class="st0"
       d="m 221.1,291.1 c -0.1,-8.6 2.1,-17.1 6.3,-24.6 4.2,-7.4 10.3,-13.6 17.7,-17.9 16.3,-8.8 36,-8.8 52.3,0 7.4,4.3 13.4,10.5 17.6,17.9 13.1,24.5 3.8,55 -20.7,68.1 -23.7,12.7 -53.3,4.4 -67,-18.7 -4.2,-7.5 -6.4,-16 -6.3,-24.6 z m 49.9,29.5 c 5.3,0.2 10.5,-1.4 14.7,-4.5 3.9,-2.9 6.9,-6.8 8.8,-11.3 1.9,-4.2 2.9,-8.8 2.9,-13.5 0,-4.6 -1.1,-9.2 -2.9,-13.5 -1.9,-4.5 -5,-8.4 -8.8,-11.3 -8.9,-6 -20.6,-6 -29.5,0 -3.8,2.9 -6.8,6.7 -8.6,11.1 -1.9,4.2 -2.9,8.8 -3,13.5 0.1,4.7 1.1,9.4 3,13.6 1.9,4.5 5,8.4 8.8,11.3 4.3,3.1 9.5,4.7 14.7,4.5"
       id="path6"
       style="fill:#000000;fill-opacity:0.75;stroke-width:9.61251" /><path
       class="st0"
       d="m 326,205.9 h 23.4 v 24.6 H 326 Z m 0,39 h 23.4 v 92.6 H 326 Z"
       id="path8"
       style="fill:#000000;fill-opacity:0.75;stroke-width:9.61251" /><path
       class="st0"
       d="M 358.6,337.5 V 245.1 H 381 l 0.6,10.5 c 3.1,-3.2 6.6,-5.9 10.4,-8.2 5.4,-3.1 11.5,-4.6 17.7,-4.3 9.9,-0.6 19.6,3.1 26.5,10.3 6.5,7.8 9.8,17.8 9.2,27.9 v 56.1 h -23.5 v -56 c 0.3,-5 -1.5,-10 -4.9,-13.6 -1.6,-1.6 -3.6,-2.9 -5.8,-3.7 -2.2,-0.8 -4.5,-1.2 -6.8,-1.1 -6.1,-0.2 -12,2.4 -16.1,7 -4.2,4.8 -6.5,11 -6.3,17.4 v 50.1 z"
       id="path10"
       style="fill:#000000;fill-opacity:0.75;stroke-width:9.61251" /></g><path
     class="st1"
     d="m 734.3,267 41.3,-61 h -39.1 l -21.4,34.1 -22,-34.1 h -43.3 l 2,2.7 -1.4,-0.6 c -10.2,-3.8 -21.1,-5.7 -32,-5.6 -12.6,-0.2 -25,2.9 -36,9.2 -7.8,4.5 -14.6,10.6 -19.8,17.9 -5.8,-7.2 -13.2,-12.8 -21.6,-16.4 -11.6,-4.8 -24,-7.2 -36.5,-7 h -50.9 v 131.4 h 50.7 c 12.6,0.2 25,-2.2 36.5,-7.2 8.4,-3.6 15.8,-9.2 21.6,-16.2 5.4,7.4 12.3,13.5 20.2,17.9 10.9,6 23.3,9 35.8,8.8 11.8,0.2 23.5,-2.3 34.2,-7.4 l -2.8,4.1 h 38.5 l 25.7,-40.4 26.5,40.4 h 44 z m -204.5,30 c -7.2,6.8 -16.9,10.4 -26.7,9.8 h -14.3 v -70.2 h 14.4 c 10.1,-0.9 20.2,2.7 27.5,9.8 6.1,7 9.2,16.1 8.9,25.4 0.2,9.3 -3.3,18.4 -9.8,25.2 z M 670.7,306.5 654,291 c -3.9,5 -8.7,9.3 -14.1,12.7 -5.8,3 -12.4,4.4 -18.9,4.1 -6.5,0.2 -12.9,-1.5 -18.5,-4.7 -5.2,-3.1 -9.5,-7.6 -12.2,-13.1 -2.9,-5.9 -4.4,-12.4 -4.3,-18.9 -0.1,-6.4 1.3,-12.8 4.1,-18.5 2.7,-5.4 6.9,-9.9 12,-13.1 5.8,-3.4 12.4,-5.1 19.1,-4.9 6.2,-0.1 12.3,1.4 17.7,4.5 5.2,3.1 9.8,7.2 13.4,12.1 l 17.5,-17.4 25.5,36.5 z"
     id="path12"
     style="fill:#000000;fill-opacity:1;stroke-width:9.61251" /></g>

</svg>
