<svg id="vector" xmlns="http://www.w3.org/2000/svg" width="72" height="72" viewBox="0 0 72 72"><path fill="#000" d="m48.656,36l-11.368,0 -5.684,0c-8.375,0 -15.158,6.783 -15.158,15.158l0,17.053c0,2.084 1.705,3.789 3.789,3.789l17.053,0 11.368,0c8.375,0 15.158,-6.783 15.158,-15.158l0,-5.684c0,-8.375 -6.783,-15.158 -15.158,-15.158z" fill-opacity="0.75" id="path_0"/><path fill="#000" d="m40.397,35.851l-11.368,0 -5.684,0c-8.375,0 -15.158,6.783 -15.158,15.158l0,17.053c0,2.084 1.705,3.789 3.789,3.789l17.053,0 11.368,0c8.375,0 15.158,-6.783 15.158,-15.158l0,-5.684c0,-8.375 -6.783,-15.158 -15.158,-15.158z" fill-opacity="0.75" id="path_1"/><path fill="#000" d="m37.51,28.421c7.848,0 14.211,-6.362 14.211,-14.211 0,-7.848 -6.362,-14.211 -14.211,-14.211 -7.848,0 -14.211,6.362 -14.211,14.211 0,7.848 6.362,14.211 14.211,14.211z" id="path_2"/></svg>