<svg id="vector" xmlns="http://www.w3.org/2000/svg" width="72" height="72" viewBox="0 0 72 72"><defs><clipPath id="clip_path_0"><path d="M4.343,-0.226l220.984,0l0,72.542l-220.984,0z"/></clipPath></defs><g id="g_0"><path fill="#000000" d="M36.018,72C35.62,71.994 35.228,71.897 34.874,71.714L5.523,55.162C5.167,54.962 4.871,54.671 4.664,54.32 4.457,53.968 4.346,53.568 4.343,53.16L4.343,2.287C4.343,1.986 4.401,1.689 4.516,1.411 4.631,1.133 4.799,0.88 5.012,0.668 5.224,0.455 5.477,0.287 5.755,0.172 6.033,0.058 6.331,-0.001 6.631,0L65.369,0c0.301,-0.001 0.599,0.058 0.877,0.172 0.278,0.115 0.53,0.283 0.743,0.496 0.213,0.213 0.381,0.465 0.496,0.743 0.115,0.278 0.173,0.576 0.172,0.877L67.657,53.16c-0.003,0.408 -0.113,0.808 -0.321,1.159 -0.207,0.352 -0.503,0.642 -0.859,0.842l-29.351,16.553c-0.357,0.214 -0.715,0.286 -1.108,0.286zM8.955,51.837L36.017,67.067 63.08,51.837L63.08,4.61L8.955,4.61L8.955,51.837Z" clip-path="url(#clip_path_0)"/></g><path fill="#000" d="M36.018,48.977C35.62,48.972 35.228,48.874 34.874,48.691L25.579,43.436C25.223,43.236 24.927,42.945 24.72,42.594 24.513,42.242 24.402,41.842 24.399,41.434l0,-9.653l4.611,0l0,8.295l7.008,3.933 8.187,-4.612 2.252,4.003 -9.295,5.256c-0.394,0.214 -0.751,0.322 -1.144,0.322z" id="path_0"/><path fill="#000" d="M36.018,60.489C35.62,60.483 35.228,60.385 34.874,60.203L15.533,49.299C15.177,49.099 14.881,48.808 14.674,48.457 14.466,48.105 14.356,47.705 14.353,47.297L14.353,22.344C14.352,22.044 14.411,21.746 14.525,21.468 14.64,21.19 14.808,20.937 15.021,20.724 15.233,20.512 15.486,20.343 15.764,20.228 16.042,20.114 16.34,20.055 16.641,20.056l28.385,0L45.026,24.668L18.929,24.668l0,21.307l17.017,9.581 17.017,-9.581l0,-9.975l4.683,0l0,11.298c-0.003,0.408 -0.113,0.808 -0.32,1.159 -0.207,0.352 -0.503,0.642 -0.859,0.842l-19.341,10.904c-0.358,0.214 -0.715,0.286 -1.108,0.286z" id="path_1"/><path fill="#000" d="M57.646,27.206L53.035,27.206L53.035,14.622L22.504,14.622L22.504,10.01L55.323,10.01c0.301,-0.001 0.599,0.058 0.877,0.172 0.278,0.115 0.53,0.283 0.743,0.496 0.213,0.213 0.381,0.465 0.496,0.743 0.115,0.278 0.173,0.576 0.172,0.877l0,14.908z" id="path_2"/></svg>