<svg id="vector" xmlns="http://www.w3.org/2000/svg" width="72" height="72" viewBox="0 0 72 72"><path fill="#000" d="M71.109,1.457A3.909,4.002 0,0 0,68.094 -0H13.401a3.907,4 0,0 0,0 8H63.351L60.301,24H9.494a3.907,4 0,0 0,0 8H58.775L54.233,55.82 29.531,63.807 8.395,57.01 9.191,52.75A3.907,4.001 0,0 0,1.515 51.25l-1.446,7.76a3.909,4.002 0,0 0,2.667 4.566l25.628,8.24a3.913,4.007 0,0 0,2.348 -0.002l28.088,-9.08a3.909,4.003 0,0 0,2.657 -3.049l10.47,-54.92A3.907,4 0,0 0,71.109 1.457Z" stroke-width="5.92956" stroke="#00000000" id="path_0"/></svg>