<?xml version="1.0" encoding="UTF-8" standalone="no"?>
<svg
   version="1.0"
   width="72pt"
   height="72pt"
   viewBox="0 0 72 72"
   preserveAspectRatio="xMidYMid"
   id="svg8"
   sodipodi:docname="daily_hunt.svg"
   inkscape:version="1.2.1 (9c6d41e410, 2022-07-14)"
   xmlns:inkscape="http://www.inkscape.org/namespaces/inkscape"
   xmlns:sodipodi="http://sodipodi.sourceforge.net/DTD/sodipodi-0.dtd"
   xmlns="http://www.w3.org/2000/svg"
   xmlns:svg="http://www.w3.org/2000/svg">
  <defs
     id="defs12" />
  <sodipodi:namedview
     id="namedview10"
     pagecolor="#ffffff"
     bordercolor="#000000"
     borderopacity="0.25"
     inkscape:showpageshadow="2"
     inkscape:pageopacity="0.0"
     inkscape:pagecheckerboard="0"
     inkscape:deskcolor="#d1d1d1"
     inkscape:document-units="pt"
     showgrid="false"
     inkscape:zoom="0.60717773"
     inkscape:cx="353.27382"
     inkscape:cy="428.2107"
     inkscape:window-width="1920"
     inkscape:window-height="1009"
     inkscape:window-x="-8"
     inkscape:window-y="-8"
     inkscape:window-maximized="1"
     inkscape:current-layer="g6" />
  <g
     transform="matrix(0.1,0,0,-0.1,0,512)"
     fill="#000000"
     stroke="none"
     id="g6">
    <g
       id="g899"
       transform="matrix(0.15173867,0,0,0.15173867,-28.450991,4400)"
       style="stroke-width:6.59028">
      <g
         id="g337"
         transform="translate(-201.42633,-82.267456)"
         style="fill:#000000;fill-opacity:1;stroke-width:6.59028">
        <path
           d="m 2910,1648 c 0,-444 3,-584 15,-661 76,-502 484,-873 995,-903 497,-29 957,309 1081,793 73,289 18,609 -148,861 -50,76 -162,193 -243,254 -85,65 -242,141 -355,173 -132,38 -264,45 -832,45 h -513 z"
           id="path2"
           style="fill:#000000;fill-opacity:1;stroke-width:6.59028" />
        <path
           d="M 1379,2190 C 969,2120 644,1830 524,1425 492,1315 480,1096 500,973 533,766 629,574 779,417 874,317 961,252 1075,196 c 532,-264 1169,-42 1425,497 22,45 52,123 67,172 l 28,90 3,623 3,622 -588,-1 c -323,-1 -609,-5 -634,-9 z"
           id="path4"
           style="fill:#000000;fill-opacity:1;stroke-width:6.59028" />
      </g>
      <g
         id="g333"
         transform="translate(-7392.4733,3314.3242)"
         style="stroke-width:6.59028">
        <path
           d="m 9803.9003,-135.05689 c 0,444 -3,584.0002 -15,661.0002 -76,501.99999 -484.0001,872.99999 -995.0001,902.99999 -497,29 -957.001,-309 -1081.001,-793 -73,-289.00019 -18,-609.00019 148,-861.00019 50,-76.00001 162,-193.00001 243,-254 85.001,-65 242.001,-141 355.001,-173 132,-38 264,-45 832,-45 h 513.0001 z"
           id="path2-7"
           style="fill:#000000;fill-opacity:0.5;stroke-width:6.59028" />
        <path
           d="m 11334.9,-842.05689 c 410,70 735,360 855,765 32,110 44,329.0002 24,452.0002 -33,206.99999 -129,398.99999 -279,555.99999 -95,100 -182,165 -296,221 -532,264 -1169,42 -1425,-497 -22,-45 -52,-123 -67,-172 l -28,-89.99999 -3,-623.0002 -3,-622 588,1 c 323,1 609,5 634,9 z"
           id="path4-8"
           style="fill:#000000;fill-opacity:0.75;stroke-width:6.59028" />
      </g>
    </g>
  </g>
</svg>
