<svg id="vector" xmlns="http://www.w3.org/2000/svg" width="72" height="72" viewBox="0 0 72 72"><path fill="#000" d="M7.471,36m-5.283,5.283a7.471,7.471 90,1 1,10.566 -10.566a7.471,7.471 90,1 1,-10.566 10.566" stroke-linejoin="round" stroke-width="0.412587" fill-rule="evenodd" fill-opacity="0.75" stroke-linecap="round" id="path_0"/><path fill="#000" d="M36,64.529m-5.283,5.283a7.471,7.471 90,1 1,10.566 -10.566a7.471,7.471 90,1 1,-10.566 10.566" stroke-linejoin="round" stroke-width="0.412587" fill-rule="evenodd" fill-opacity="0.75" stroke-linecap="round" id="path_1"/><path fill="#000" d="M64.529,36m-5.283,5.283a7.471,7.471 90,1 1,10.566 -10.566a7.471,7.471 90,1 1,-10.566 10.566" stroke-linejoin="round" stroke-width="0.412587" fill-rule="evenodd" fill-opacity="0.75" stroke-linecap="round" id="path_2"/><path fill="#000" d="M50.264,21.736m-5.283,5.283a7.471,7.471 90,1 1,10.566 -10.566a7.471,7.471 0,1 1,-10.566 10.566" stroke-linejoin="round" stroke-width="0.412587" fill-rule="evenodd" fill-opacity="0.5" stroke-linecap="round" id="path_3"/><path fill="#000" d="M21.736,50.264m-5.283,5.283a7.471,7.471 90,1 1,10.566 -10.566a7.471,7.471 90,1 1,-10.566 10.566" stroke-linejoin="round" stroke-width="0.412587" fill-rule="evenodd" fill-opacity="0.75" stroke-linecap="round" id="path_4"/><path fill="#000" d="M50.264,50.264m-5.283,5.283a7.471,7.471 0,1 1,10.566 -10.566a7.471,7.471 0,1 1,-10.566 10.566" stroke-linejoin="round" stroke-width="0.412587" fill-rule="evenodd" fill-opacity="0.75" stroke-linecap="round" id="path_5"/><path fill="#000" d="M21.736,21.736m-5.283,5.283a7.471,7.471 90,1 1,10.566 -10.566a7.471,7.471 90,1 1,-10.566 10.566" stroke-linejoin="round" stroke-width="0.412587" fill-rule="evenodd" fill-opacity="0.5" stroke-linecap="round" id="path_6"/><path fill="#000" d="M36,36m-5.283,5.283a7.471,7.471 0,1 1,10.566 -10.566a7.471,7.471 0,1 1,-10.566 10.566" stroke-linejoin="round" stroke-width="0.412587" fill-rule="evenodd" stroke-linecap="round" id="path_7"/><path fill="#000" d="M36,7.471m-5.283,5.283a7.471,7.471 90,1 1,10.566 -10.566a7.471,7.471 90,1 1,-10.566 10.566" stroke-linejoin="round" stroke-width="0.412587" fill-rule="evenodd" fill-opacity="0.5" stroke-linecap="round" id="path_8"/></svg>