<svg id="vector" xmlns="http://www.w3.org/2000/svg" width="72" height="72" viewBox="0 0 72 72"><path fill="#000" d="m53.137,61.887c0,0 -2.219,-2.651 -4.069,-4.993 4.468,-1.052 8.421,-3.651 11.158,-7.336 -2.218,1.476 -4.596,2.697 -7.089,3.637 -2.868,1.224 -5.867,2.114 -8.938,2.651 -5.28,0.972 -10.694,0.952 -15.966,-0.061 -3.095,-0.606 -6.128,-1.493 -9.062,-2.651 -1.546,-0.595 -3.05,-1.295 -4.5,-2.096 -0.185,-0.124 -0.37,-0.186 -0.555,-0.309 -0.093,-0.046 -0.176,-0.109 -0.246,-0.185 -1.11,-0.616 -1.726,-1.048 -1.726,-1.048 2.638,3.608 6.454,6.181 10.788,7.274 -1.849,2.343 -4.13,5.117 -4.13,5.117C11.366,62.087 4.317,58.575 0,52.517 0.2,40.02 3.235,27.731 8.877,16.578 13.841,12.679 19.894,10.418 26.198,10.106l0.616,0.74c-5.932,1.468 -11.467,4.225 -16.212,8.075 0,0 1.356,-0.74 3.637,-1.788 4.431,-2.023 9.154,-3.333 13.994,-3.883 0.345,-0.072 0.696,-0.113 1.048,-0.124 4.131,-0.538 8.311,-0.579 12.452,-0.123 6.511,0.744 12.814,2.754 18.554,5.918 -4.504,-3.667 -9.736,-6.335 -15.349,-7.829l0.863,-0.986c6.305,0.312 12.358,2.574 17.322,6.473 5.642,11.153 8.677,23.441 8.877,35.938 -4.352,6.05 -11.413,9.557 -18.863,9.369zM46.972,33.099C40.735,32.57 37.101,39.979 41.336,44.587 45.57,49.196 53.259,46.2 53.259,39.941 53.414,36.315 50.598,33.251 46.972,33.099M22.535,31.714c-6.237,-0.529 -9.871,6.88 -5.636,11.488 4.235,4.608 11.924,1.613 11.923,-4.646 0.155,-3.626 -2.661,-6.69 -6.287,-6.842" stroke-width="5.99314" id="path_0"/></svg>