<svg id="vector" xmlns="http://www.w3.org/2000/svg" width="72" height="72" viewBox="0 0 72 72"><path fill="#000" stroke-width="1" d="m50.887,41.757c-0.997,0.228 -3.619,0.36 -3.619,0.36l-0.332,1.038c0,0 1.308,-0.111 2.263,-0.014 0,0 0.311,-0.035 0.346,0.353 0.014,0.36 -0.028,0.747 -0.028,0.747 0,0 -0.021,0.235 -0.353,0.291 -0.36,0.062 -2.823,0.152 -2.823,0.152l-0.401,1.349c0,0 -0.145,0.311 0.187,0.221 0.311,-0.083 2.893,-0.567 3.232,-0.498 0.36,0.09 0.761,0.567 0.644,1.01 -0.138,0.54 -2.713,2.187 -4.284,2.069 0,0 -0.824,0.055 -1.522,-1.059 -0.65,-1.059 0.249,-3.073 0.249,-3.073 0,0 -0.408,-0.941 -0.111,-1.253 0,0 0.18,-0.159 0.692,-0.201l0.63,-1.308c0,0 -0.72,0.048 -1.149,-0.477 -0.401,-0.505 -0.429,-0.734 -0.125,-0.872 0.325,-0.159 3.322,-0.706 5.384,-0.637 0,0 0.72,-0.069 1.336,1.176 -0.007,0 0.298,0.505 -0.215,0.623zM43.129,46.781c-0.263,0.623 -0.962,1.287 -1.827,0.872 -0.858,-0.415 -2.221,-3.204 -2.221,-3.204 0,0 -0.519,-1.038 -0.616,-1.017 0,0 -0.111,-0.201 -0.18,0.934 -0.069,1.135 0.014,3.342 -0.436,3.688 -0.429,0.346 -0.948,0.208 -1.218,-0.201 -0.242,-0.401 -0.346,-1.356 -0.215,-3.031 0.159,-1.675 0.547,-3.46 1.045,-4.021 0.498,-0.554 0.9,-0.152 1.052,-0.007 0,0 0.664,0.602 1.765,2.374l0.194,0.325c0,0 0.997,1.675 1.1,1.668 0,0 0.083,0.076 0.152,0.021 0.104,-0.028 0.062,-0.567 0.062,-0.567 0,0 -0.208,-1.82 -1.114,-4.906 0,0 -0.138,-0.388 -0.042,-0.747 0.09,-0.367 0.457,-0.194 0.457,-0.194 0,0 1.412,0.706 2.09,3.003 0.671,2.318 0.215,4.387 -0.048,5.01zM36.195,40.878c-0.118,0.235 -0.187,0.574 -0.782,0.664 0,0 -5.695,0.388 -5.965,0.789 0,0 -0.201,0.235 0.111,0.304 0.311,0.062 1.599,0.235 2.221,0.27 0.664,0.007 2.906,0.028 3.709,1.031 0,0 0.477,0.477 0.457,1.557 -0.021,1.107 -0.215,1.495 -0.644,1.896 -0.45,0.374 -4.311,2.104 -6.803,-0.554 0,0 -1.149,-1.28 0.394,-2.249 0,0 1.114,-0.671 3.945,0.118 0,0 0.858,0.311 0.817,0.623 -0.048,0.332 -0.706,0.685 -1.661,0.664 -0.927,-0.028 -1.605,-0.471 -1.474,-0.401 0.125,0.048 -0.997,-0.54 -1.343,-0.138 -0.346,0.367 -0.263,0.595 0.076,0.824 0.865,0.491 4.207,0.318 5.204,-0.789 0,0 0.394,-0.45 -0.208,-0.817 -0.602,-0.346 -2.325,-0.554 -2.996,-0.588 -0.644,-0.035 -3.038,0.007 -3.384,-0.63 0,0 -0.346,-0.429 0.035,-1.647 0.401,-1.273 3.19,-1.765 4.394,-1.875 0,0 3.315,-0.118 3.924,0.561 -0.007,0 0.076,0.159 -0.028,0.388zM26.784,48.345c-0.401,0.298 -1.253,0.166 -1.495,-0.166 -0.242,-0.298 -0.325,-1.481 -0.277,-3.336 0.048,-1.875 0.09,-4.201 0.491,-4.567 0.429,-0.374 0.692,-0.048 0.858,0.208 0.18,0.249 0.394,0.526 0.443,1.114 0.042,0.588 0.18,3.675 0.18,3.675 0,0 0.18,2.782 -0.201,3.073zM27.649,38.394c-1.17,0.388 -1.972,0.256 -2.65,-0.035 -0.298,0.519 -0.471,0.678 -0.699,0.713 -0.332,0.035 -0.63,-0.498 -0.685,-0.671 -0.055,-0.131 -0.215,-0.353 -0.021,-0.879 -0.664,-0.595 -0.713,-1.398 -0.602,-1.938 0.166,-0.623 1.287,-2.99 4.699,-3.266 0,0 1.668,-0.125 1.951,0.768l0.048,0c0,0 1.619,0.007 1.585,1.446 -0.021,1.446 -1.799,3.246 -3.626,3.861zM24.465,35.19c-0.346,0.554 -0.36,0.886 -0.201,1.114 0.394,-0.602 1.114,-1.55 2.173,-2.27 -0.817,0.069 -1.502,0.422 -1.972,1.156zM29.178,34.262c-1.073,0.159 -2.733,1.599 -3.522,2.775 1.211,0.221 3.349,0.138 4.297,-1.792 -0.007,0 0.45,-1.197 -0.775,-0.983zM58.298,45.411c-0.644,1.121 -2.45,3.46 -4.858,2.913 -0.796,1.931 -1.46,3.875 -1.841,6.796 0,0 -0.083,0.567 -0.554,0.367 -0.464,-0.166 -1.239,-0.941 -1.391,-2.014 -0.166,-1.412 0.464,-3.799 1.744,-6.533 -0.374,-0.609 -0.63,-1.481 -0.408,-2.72 0,0 0.325,-2.298 2.63,-4.374 0,0 0.277,-0.242 0.436,-0.166 0.18,0.076 0.097,0.824 -0.048,1.183 -0.145,0.36 -1.176,2.145 -1.176,2.145 0,0 -0.644,1.204 -0.464,2.152 1.211,-1.862 3.965,-5.619 5.675,-4.436 0.574,0.408 0.837,1.301 0.837,2.263 -0.007,0.851 -0.208,1.751 -0.581,2.422zM57.8,42.463c0,0 -0.097,-0.74 -0.817,0.076 -0.623,0.685 -1.744,1.979 -2.65,3.73 0.948,-0.104 1.862,-0.623 2.138,-0.886 0.45,-0.401 1.495,-1.481 1.329,-2.92zM24.202,43.404c-0.131,1.675 -0.775,4.491 -5.335,5.882 -3.01,0.907 -5.854,0.471 -7.405,0.076 -0.035,0.616 -0.104,0.879 -0.201,0.983 -0.131,0.131 -1.114,0.699 -1.654,-0.104C9.365,49.86 9.241,49.168 9.172,48.552 5.684,46.947 4.078,44.636 4.016,44.532 3.94,44.456 3.144,43.625 3.94,42.608c0.747,-0.92 3.19,-1.841 5.391,-2.214 0.076,-1.882 0.298,-3.301 0.561,-3.951 0.318,-0.754 0.72,-0.076 1.066,0.436 0.291,0.381 0.464,2.021 0.477,3.329 1.439,-0.069 2.291,0.035 3.896,0.325 2.09,0.381 3.488,1.446 3.363,2.657 -0.09,1.19 -1.183,1.682 -1.599,1.716 -0.436,0.035 -1.114,-0.277 -1.114,-0.277 -0.464,-0.221 -0.035,-0.415 0.526,-0.657 0.609,-0.298 0.471,-0.602 0.471,-0.602 -0.228,-0.664 -2.941,-1.128 -5.64,-1.128 -0.014,1.488 0.062,3.958 0.097,5.398 1.889,0.36 3.301,0.291 3.301,0.291 0,0 6.893,-0.194 7.1,-4.595 0.215,-4.408 -6.872,-8.636 -12.11,-9.979 -5.232,-1.37 -8.193,-0.415 -8.45,-0.284 -0.277,0.138 -0.021,0.18 -0.021,0.18 0,0 0.284,0.042 0.775,0.208 0.519,0.166 0.118,0.436 0.118,0.436 -0.893,0.284 -1.896,0.104 -2.09,-0.304 -0.194,-0.408 0.131,-0.775 0.505,-1.301 0.374,-0.554 0.782,-0.533 0.782,-0.533 6.47,-2.242 14.352,1.813 14.352,1.813 7.384,3.744 8.643,8.131 8.505,9.834zM4.674,43.176c-0.734,0.36 -0.228,0.879 -0.228,0.879 1.377,1.481 3.073,2.408 4.685,2.983 0.187,-2.554 0.159,-3.453 0.18,-4.74 -2.519,0.173 -3.972,0.574 -4.637,0.879z" stroke="#00000000" id="path_0"/><path fill="#000" stroke-width="1" d="m72,42.65l0,0.913c0,0.201 -0.159,0.36 -0.36,0.36l-4.353,0c0,0.228 0.007,0.429 0.007,0.616 0,1.349 -0.055,2.45 -0.187,3.688 -0.021,0.187 -0.173,0.325 -0.353,0.325l-0.941,0c-0.097,0 -0.187,-0.042 -0.249,-0.111 -0.062,-0.069 -0.097,-0.166 -0.083,-0.263 0.131,-1.232 0.194,-2.318 0.194,-3.64 0,-0.194 0,-0.394 -0.007,-0.616l-4.304,0c-0.201,0 -0.36,-0.159 -0.36,-0.36l0,-0.913c0,-0.201 0.159,-0.36 0.36,-0.36l4.242,0c-0.09,-1.488 -0.27,-2.92 -0.561,-4.374 -0.014,-0.09 0.007,-0.18 0.062,-0.249 0.055,-0.069 0.138,-0.111 0.228,-0.111l1.017,0c0.159,0 0.291,0.111 0.325,0.27 0.284,1.502 0.464,2.962 0.554,4.464l4.408,0c0.194,0 0.36,0.166 0.36,0.36z" stroke="#00000000" fill-opacity="0.75" id="path_1"/><path fill="#000" stroke-width="1" d="m13.822,30.588l-0.007,0m-0.048,0.007c-0.021,0 -0.042,-0.007 -0.062,-0.007 0.021,0.007 0.042,0.007 0.062,0.007l0.021,0c-0.007,0 -0.014,0 -0.021,0zM13.767,30.595c-0.021,0 -0.042,-0.007 -0.062,-0.007 0.021,0.007 0.042,0.007 0.062,0.007l0.021,0c-0.007,0 -0.014,0 -0.021,0z" stroke="#00000000" fill-opacity="0.5" id="path_2"/><path fill="#000" stroke-width="1" d="M66.076,35.404C63.827,29.875 60.028,25.162 55.087,21.771 50.028,18.304 44.098,16.471 37.939,16.471 27.752,16.471 18.299,21.529 12.659,30.006c-0.062,0.09 -0.076,0.208 -0.042,0.311 0.035,0.111 0.118,0.187 0.221,0.221l0.789,0.27c0.048,0.014 0.097,0.021 0.138,0.021 0.145,0 0.284,-0.076 0.367,-0.194 2.588,-3.806 6.09,-6.969 10.131,-9.155 4.173,-2.256 8.899,-3.453 13.667,-3.453 5.765,0 11.321,1.702 16.083,4.913 4.643,3.135 8.249,7.515 10.429,12.657 0.062,0.152 0.215,0.256 0.381,0.256l0.941,0c0.111,0 0.215,-0.055 0.27,-0.145 0.069,-0.09 0.083,-0.201 0.042,-0.304zM13.767,30.595c-0.021,0 -0.042,-0.007 -0.062,-0.014 0.021,0.007 0.042,0.014 0.062,0.014l0.014,0c0,0 -0.007,0 -0.014,0zM64.63,35.729c0.021,0.014 0.042,0.028 0.062,0.035 -0.021,-0.014 -0.042,-0.021 -0.062,-0.035z" stroke="#00000000" fill-opacity="0.5" id="path_3"/></svg>