<svg id="vector" xmlns="http://www.w3.org/2000/svg" width="72" height="72" viewBox="0 0 72 72"><path fill="#000" d="m71.299,29.69a9.457,9.457 0,0 0,-5.877 -1.536,18.68 18.68,135 0,0 -3.039,0.267 11.449,11.449 0,0 0,-5.143 -7.714l-1.035,-0.601 -0.668,0.968a14.281,14.281 0,0 0,-1.837 4.274,10.147 10.147,0 0,0 1.202,7.981 14.168,14.168 135,0 1,-5.243 1.269L2.242,34.598A2.237,2.237 0,0 0,0.004 36.836,33.79 33.79,45 0,0 2.075,49.024 18.28,18.28 0,0 0,9.287 58.408,31.926 31.926,45 0,0 25.116,61.814a48.548,48.548 45,0 0,8.782 -0.801,36.245 36.245,45 0,0 11.487,-4.174 31.442,31.442 0,0 0,7.814 -6.412,42.514 42.514,0 0,0 7.647,-13.19l0.668,0a10.987,10.987 0,0 0,8.048 -3.039,8.893 8.893,0 0,0 2.137,-3.139L72,30.191Z" id="path_0"/><path fill="#000" d="m6.649,33.229l6.345,0a0.563,0.563 135,0 0,0.568 -0.568L13.562,26.985A0.563,0.563 45,0 0,12.994 26.417L6.649,26.417a0.563,0.563 45,0 0,-0.568 0.568l0,5.677a0.584,0.584 45,0 0,0.568 0.568zM15.398,33.229L21.743,33.229a0.563,0.563 135,0 0,0.568 -0.568L22.311,26.985A0.563,0.563 45,0 0,21.743 26.417L15.398,26.417A0.563,0.563 45,0 0,14.831 26.985l0,5.677a0.584,0.584 0,0 0,0.568 0.568m8.916,0l6.345,0a0.563,0.563 135,0 0,0.568 -0.568L31.227,26.985A0.563,0.563 45,0 0,30.659 26.417L24.314,26.417a0.563,0.563 45,0 0,-0.568 0.568l0,5.677a0.544,0.544 0,0 0,0.568 0.568zM33.097,33.229l6.345,0a0.563,0.563 135,0 0,0.568 -0.568L40.009,26.985A0.563,0.563 45,0 0,39.442 26.417l-6.345,0a0.563,0.563 45,0 0,-0.568 0.568l0,5.677a0.563,0.563 0,0 0,0.568 0.568zM15.398,25.115L21.743,25.115A0.585,0.585 0,0 0,22.311 24.547L22.311,18.87A0.563,0.563 0,0 0,21.743 18.303L15.398,18.303A0.563,0.563 0,0 0,14.831 18.87l0,5.677a0.61,0.61 0,0 0,0.568 0.568m8.916,0l6.345,0A0.585,0.585 0,0 0,31.227 24.547L31.227,18.87A0.563,0.563 0,0 0,30.659 18.303L24.314,18.303A0.563,0.563 135,0 0,23.747 18.87l0,5.677A0.563,0.563 0,0 0,24.314 25.115m8.782,0L39.442,25.115A0.585,0.585 0,0 0,40.009 24.547L40.009,18.87A0.585,0.585 0,0 0,39.442 18.303l-6.345,0a0.563,0.563 0,0 0,-0.568 0.568l0,5.677a0.585,0.585 0,0 0,0.568 0.568m0,-8.148L39.442,16.967A0.563,0.563 45,0 0,40.009 16.399L40.009,10.722A0.585,0.585 0,0 0,39.442 10.155L33.097,10.155A0.563,0.563 0,0 0,32.529 10.722L32.529,16.399a0.585,0.585 0,0 0,0.568 0.568m8.849,16.263l6.345,0a0.563,0.563 0,0 0,0.568 -0.568L48.858,26.985A0.563,0.563 0,0 0,48.291 26.417l-6.345,0a0.563,0.563 0,0 0,-0.568 0.568l0,5.677a0.584,0.584 0,0 0,0.568 0.568" fill-opacity="0.5" id="path_1"/></svg>