<svg id="vector" xmlns="http://www.w3.org/2000/svg" width="72" height="72" viewBox="0 0 72 72"><path fill="#000" d="m53.065,27.405c-1.171,1.171 -2.708,1.754 -4.238,1.754 -1.531,0 -3.067,-0.582 -4.238,-1.754 -1.165,-1.171 -1.754,-2.708 -1.754,-4.238 0,-1.531 0.589,-3.067 1.754,-4.238 1.171,-1.171 2.702,-1.76 4.238,-1.76 1.531,0 3.067,0.582 4.238,1.76 1.165,1.165 1.754,2.702 1.754,4.238 0,1.537 -0.589,3.073 -1.754,4.238zM71.252,21.431L50.574,0.747c-0.998,-0.998 -2.615,-0.998 -3.613,0l-22.363,22.363 24.29,24.29 22.363,-22.363c0.998,-0.998 0.998,-2.615 0,-3.606z" fill-opacity="0.75" id="path_0"/><path fill="#000" d="m27.771,44.68c1.171,-1.171 2.708,-1.754 4.232,-1.754 1.531,0 3.067,0.582 4.232,1.754 1.171,1.171 1.76,2.702 1.76,4.238 0,1.531 -0.582,3.067 -1.76,4.232 -1.165,1.165 -2.702,1.754 -4.232,1.754 -1.531,0 -3.067,-0.589 -4.232,-1.754 -1.171,-1.171 -1.754,-2.708 -1.754,-4.232 -0.006,-1.537 0.582,-3.073 1.754,-4.238zM18.662,52.909c-1.171,1.165 -2.708,1.747 -4.238,1.747 -1.537,0 -3.067,-0.582 -4.238,-1.747 -1.171,-1.165 -1.754,-2.702 -1.754,-4.232 0,-1.531 0.582,-3.067 1.754,-4.238 1.171,-1.165 2.702,-1.754 4.238,-1.754 1.531,0 3.067,0.582 4.238,1.754 1.171,1.171 1.754,2.708 1.754,4.238 -0.006,1.524 -0.589,3.067 -1.754,4.232zM0.748,46.955c-0.998,0.998 -0.998,2.615 0,3.613l20.684,20.684c0.496,0.496 1.153,0.75 1.803,0.75 0.651,0 1.307,-0.248 1.803,-0.75L47.389,48.894 23.099,24.598Z" id="path_1"/></svg>