<?xml version="1.0" encoding="UTF-8" standalone="no"?>
<svg
   width="72"
   height="72"
   viewBox="0 0 3.9000459 3.9007584"
   version="1.1"
   id="svg8"
   sodipodi:docname="evernote-icon.svg"
   inkscape:version="1.2.1 (9c6d41e410, 2022-07-14)"
   xmlns:inkscape="http://www.inkscape.org/namespaces/inkscape"
   xmlns:sodipodi="http://sodipodi.sourceforge.net/DTD/sodipodi-0.dtd"
   xmlns="http://www.w3.org/2000/svg"
   xmlns:svg="http://www.w3.org/2000/svg">
  <defs
     id="defs12" />
  <sodipodi:namedview
     id="namedview10"
     pagecolor="#ffffff"
     bordercolor="#000000"
     borderopacity="0.25"
     inkscape:showpageshadow="2"
     inkscape:pageopacity="0.0"
     inkscape:pagecheckerboard="0"
     inkscape:deskcolor="#d1d1d1"
     showgrid="false"
     inkscape:zoom="3.7516257"
     inkscape:cx="65.704848"
     inkscape:cy="73.301555"
     inkscape:window-width="1920"
     inkscape:window-height="1009"
     inkscape:window-x="-8"
     inkscape:window-y="-8"
     inkscape:window-maximized="1"
     inkscape:current-layer="g898" />
  <g
     id="g898"
     style="fill:#000000;fill-opacity:1"
     transform="translate(0.31834681,-2.7863027e-4)">
    <path
       fill="#74bb44"
       d="m 0.32584013,0.75577719 h 0.36636289 a 0.0379582,0.0379582 0 0 0 0.0378718,-0.037843 c 0,-1.44e-4 -0.004435,-0.31397596 -0.004435,-0.40115311 v -0.001066 c 0,-0.0716252 0.0150047,-0.1340921 0.0412702,-0.18650783 l 0.0124703,-0.0234719 a 0.00768956,0.00768956 0 0 0 -0.004176,0.002275 L 0.0638479,0.81340569 a 0.00797756,0.00797756 0 0 0 -0.0026496,0.004176 c 0.01471672,-0.007286 0.03484782,-0.0172799 0.0376702,-0.0185183 0.06189088,-0.0279935 0.13702969,-0.0432862 0.22697163,-0.0432862 z"
       id="path4"
       style="display:inline;fill:#000000;fill-opacity:0.75;stroke-width:1" />
    <path
       fill="#74bb44"
       d="M 3.1744909,0.67896799 C 3.145403,0.52333361 3.0528115,0.44661081 2.9691192,0.41642856 2.8788892,0.38379833 2.6957798,0.34998731 2.4658418,0.32291545 2.2807739,0.30108516 2.0632487,0.30287075 1.9318638,0.30687393 1.9161102,0.1988745 1.8403666,0.10020621 1.7555799,0.06604959 1.5298467,-0.02478514 1.1808213,-0.00283965 1.0913113,0.02224502 1.0200893,0.04217451 0.94129293,0.0829263 0.89748835,0.14573877 c -0.0294046,0.042019 -0.0484701,0.0957595 -0.0486141,0.17089831 0,0.0425086 0.001181,0.14264566 0.002275,0.231666 0.001037,0.0892219 0.002275,0.16908391 0.002275,0.16965991 A 0.14443125,0.14443125 0 0 1 0.70913733,0.86219264 H 0.34297604 c -0.0780764,0 -0.13777848,0.0131039 -0.18336864,0.033811 -0.0456478,0.0207359 -0.07799,0.0486718 -0.10255627,0.081734 C 0.00817779,1.0433437 -3.181706e-4,1.1243577 -1.165717e-4,1.2070708 c 0,0 6.911964e-4,0.067536 0.0169631117,0.1983158 0.01356473,0.1011451 0.12329216,0.807951 0.22751881,1.0229131 0.0404062,0.083577 0.0673629,0.1185114 0.14670644,0.1553752 0.17688868,0.075744 0.58089298,0.1600119 0.77030961,0.1841462 0.1889846,0.024192 0.30764,0.074995 0.3783148,-0.073238 2.304e-4,-4.608e-4 0.014198,-0.036806 0.033321,-0.090547 0.061401,-0.1859319 0.069955,-0.3509838 0.069955,-0.4703592 0,-0.012182 0.017827,-0.012701 0.017827,0 0,0.084326 -0.016157,0.3826924 0.2092597,0.4626696 0.08902,0.031507 0.273541,0.059673 0.461172,0.081676 0.1695447,0.019555 0.2925777,0.086198 0.2925777,0.5213349 0,0.2646706 -0.055584,0.3009296 -0.346203,0.3009296 -0.2356116,0 -0.3254383,0.00608 -0.3254383,-0.1809783 0,-0.1513432 0.149644,-0.1354457 0.2605234,-0.1354457 0.049565,0 0.013565,-0.036806 0.013565,-0.1302041 0,-0.092937 0.058176,-0.1465912 0.00317,-0.147916 -0.3834124,-0.010598 -0.6090592,-4.608e-4 -0.6090592,0.4791431 0,0.4353097 0.1665783,0.5161509 0.7108667,0.5161509 0.4266698,0 0.5769762,-0.013939 0.7532025,-0.5606179 C 3.1193127,3.232506 3.2036958,2.9032085 3.2546428,2.3501938 3.2868698,2.0006212 3.2241728,0.94527951 3.1744928,0.67896729 Z M 2.4306484,1.8453619 c -0.052704,-0.00181 -0.1033915,0.0015 -0.150652,0.0091 0.013334,-0.1074235 0.057657,-0.2393844 0.214818,-0.2338548 0.1739799,0.00602 0.198287,0.1704375 0.1988918,0.2817489 C 2.6203822,1.869697 2.5295759,1.848846 2.4306484,1.8453619 Z"
       id="path6"
       style="display:inline;fill:#000000;fill-opacity:1;stroke:none;stroke-width:1" />
  </g>
</svg>
