<svg id="vector" xmlns="http://www.w3.org/2000/svg" width="72" height="72" viewBox="0 0 72 72"><path fill="#000" d="m55.814,27.648l-9.687,15.368c-1.461,2.313 -4.52,3.004 -6.834,1.544 -0.111,-0.07 -0.219,-0.144 -0.323,-0.223l-7.709,-5.782c-0.707,-0.529 -1.679,-0.526 -2.384,0.007l-10.418,7.906c-0.689,0.523 -1.671,0.389 -2.195,-0.3 -0.395,-0.521 -0.426,-1.232 -0.076,-1.785l9.694,-15.374c1.461,-2.313 4.521,-3.004 6.835,-1.543 0.11,0.07 0.218,0.144 0.323,0.222l7.709,5.782c0.707,0.529 1.679,0.526 2.384,-0.007L53.543,25.564c0.689,-0.523 1.671,-0.389 2.194,0.3 0.395,0.521 0.426,1.232 0.076,1.784z" stroke-linejoin="round" stroke-width="6" stroke="#00000000" fill-opacity="0.5" stroke-linecap="round" id="path_0"/><path fill="#000" d="m37.95,3.02c-0.65,-0.02 -1.299,-0.02 -1.949,0C18.424,2.383 3.659,16.114 3.023,33.687c-0.016,0.445 -0.023,0.89 -0.02,1.336 -0.115,9.015 3.662,17.641 10.364,23.672 0.539,0.48 0.86,1.158 0.89,1.879l0.179,5.868c0.047,1.46 1.268,2.605 2.728,2.558 0.337,-0.011 0.668,-0.086 0.977,-0.221l6.547,-2.888c0.554,-0.245 1.175,-0.292 1.759,-0.133 3.113,0.85 6.327,1.277 9.554,1.268C53.679,67.565 68.447,53.672 68.985,35.998 69.523,18.322 55.628,3.558 37.95,3.02Z" stroke-linejoin="round" stroke-width="6" stroke="#000" stroke-linecap="round" id="path_1"/></svg>