<svg id="vector" xmlns="http://www.w3.org/2000/svg" width="72" height="72" viewBox="0 0 72 72"><path fill="#000" d="m14.921,27.56c1.495,0.264 2.955,0.448 4.37,0.782 1.415,0.334 1.34,0.384 1.101,1.684 -1.605,0 -3.184,0 -4.759,0 -0.703,0 -0.912,0.244 -0.997,0.957 -0.498,5.741 -1.027,11.461 -2.312,17.117A11.586,11.586 0,0 1,8.866 54.211c-1.849,1.699 -4.071,1.938 -6.393,1.595a3.573,3.573 0,0 1,-1.754 -0.997c-1.076,-0.997 -0.947,-1.625 0.409,-2.392 0.214,0.304 0.424,0.618 0.648,0.922 0.962,1.291 2.043,1.335 2.87,0a10.52,10.52 0,0 0,1.405 -3.289c0.867,-4.37 1.615,-8.765 2.352,-13.161 0.289,-1.694 0.439,-3.413 0.678,-5.322L5.019,33.167 4.232,31.582c1.525,-0.832 3.035,-1.634 4.515,-2.492a1.45,1.45 0,0 0,0.673 -0.872c0.239,-1.61 0.259,-3.259 0.598,-4.844A16.649,16.649 0,0 1,11.453 19.059C13.331,15.481 18.374,15.466 20.801,17.131a4.898,4.898 0,0 1,0.942 0.847c1.191,1.41 0.997,2.801 -0.603,3.767a1.126,1.126 0,0 1,-0.797 0.085C19.909,21.705 19.515,21.456 19.087,21.302 18.005,20.918 17.457,20.245 17.642,19.029 17.687,18.73 17.407,18.097 17.308,18.102a2.128,2.128 0,0 0,-1.286 0.409,2.227 2.227,0 0,0 -0.538,1.321C15.26,22.428 15.1,25.039 14.921,27.56Z" id="path_0"/><path fill="#000" d="m31.196,30.944c0.149,-1.256 0.937,-1.211 1.734,-1.022 1.355,0.314 2.691,0.688 4.056,1.046 -1.216,5.133 -2.452,10.101 -2.272,15.548l2.696,-1.226 0.752,1.535c-1.739,1.6 -3.628,2.89 -5.98,3.229 -1.819,0.259 -2.781,-0.394 -3.563,-2.337l-0.822,0.628c-1.256,0.967 -2.576,1.809 -4.246,1.749a4.938,4.938 0,0 1,-4.684 -4.136,17.67 17.67,0 0,1 1.311,-11.711c1.066,-2.168 2.616,-3.907 5.138,-4.445a7.814,7.814 45,0 1,4.669 0.608c0.364,0.145 0.713,0.314 1.211,0.533zM30.394,32.888c-2.163,-1.027 -3.344,-0.718 -4.151,1.58a32.49,32.49 135,0 0,-1.495 6.423,15.732 15.732,0 0,0 0.279,4.251 1.291,1.291 0,0 0,1.654 1.116c1.256,-0.209 1.849,-0.728 1.914,-1.634 0.075,-0.997 0.125,-1.993 0.289,-2.99 0.478,-2.905 0.997,-5.781 1.51,-8.746z" id="path_1"/><path fill="#000" d="m61.778,42.6c0.12,0.638 0.184,1.186 0.339,1.709 0.573,1.993 2.098,2.885 4.066,2.237a31.02,31.02 120.524,0 0,3.678 -1.759l0.917,1.256c-2.078,2.083 -4.375,3.663 -7.335,3.957 -4.535,0.453 -7.196,-1.809 -7.699,-6.369A15.224,15.224 0,0 1,56.371 36.999c1.495,-4.485 5.835,-7.51 10.345,-7.3 3.902,0.179 5.98,2.86 5.073,6.588a6.309,6.309 0,0 1,-3.274 4.051,16.415 16.415,0 0,1 -6.045,2.088 5.307,5.307 0,0 0,-0.693 0.174zM61.708,40.213C65.127,40.148 67.842,35.504 66.223,32.653a1.261,1.261 45,0 0,-1.928 -0.409,3.987 3.987,0 0,0 -1.216,1.47 17.441,17.441 0,0 0,-1.37 6.498z" id="path_2"/><path fill="#000" d="m39.752,44.942c0.184,-3.154 0.339,-6.309 0.563,-9.468A5.81,5.81 0,0 0,39.114 31.462c-0.434,-0.578 -0.379,-0.997 0.329,-1.136a23.361,23.361 45,0 1,4.126 -0.608c2.088,-0.03 3.214,1.046 3.169,3.129A59.046,59.046 0,0 1,46.091 39.042c-0.219,1.679 -0.598,3.339 -0.762,5.018 -0.06,0.648 0.279,1.335 0.434,1.993 0.663,-0.209 1.445,-0.254 1.958,-0.653a11.172,11.172 135,0 0,3.628 -4.983,1.45 1.45,0 0,0 -0.319,-1.689 28.952,28.952 45,0 1,-1.904 -2.227,1.615 1.615,45 0,1 -0.384,-1.027 8.711,8.711 0,0 1,2.332 -5.337,1.625 1.625,45 0,1 1.186,-0.399 3.149,3.149 0,0 1,2.93 3.319,20.331 20.331,0 0,1 -7.265,15.313 6.837,6.837 0,0 1,-3.777 1.679c-2.551,0.294 -4.221,-1.066 -4.41,-3.643 -0.015,-0.483 0.015,-0.977 0.015,-1.465z" id="path_3"/></svg>