<?xml version="1.0" encoding="UTF-8" standalone="no"?>
<svg
   version="1.0"
   width="72pt"
   height="72pt"
   viewBox="0 0 72 72"
   preserveAspectRatio="xMidYMid"
   id="svg6"
   sodipodi:docname="feem.svg"
   inkscape:version="1.2.1 (9c6d41e410, 2022-07-14)"
   xmlns:inkscape="http://www.inkscape.org/namespaces/inkscape"
   xmlns:sodipodi="http://sodipodi.sourceforge.net/DTD/sodipodi-0.dtd"
   xmlns="http://www.w3.org/2000/svg"
   xmlns:svg="http://www.w3.org/2000/svg">
  <defs
     id="defs10" />
  <sodipodi:namedview
     id="namedview8"
     pagecolor="#ffffff"
     bordercolor="#000000"
     borderopacity="0.25"
     inkscape:showpageshadow="2"
     inkscape:pageopacity="0.0"
     inkscape:pagecheckerboard="0"
     inkscape:deskcolor="#d1d1d1"
     inkscape:document-units="pt"
     showgrid="false"
     inkscape:zoom="4.8574219"
     inkscape:cx="68.657821"
     inkscape:cy="71.642943"
     inkscape:window-width="1920"
     inkscape:window-height="1009"
     inkscape:window-x="-8"
     inkscape:window-y="-8"
     inkscape:window-maximized="1"
     inkscape:current-layer="g4" />
  <g
     transform="matrix(0.1,0,0,-0.1,0,512)"
     fill="#000000"
     stroke="none"
     id="g4">
    <g
       id="g967"
       transform="matrix(0.99008723,0,0,0.99008723,3.5685967,39.759158)"
       style="stroke-width:1.01001">
      <path
         d="m 716.29949,5111.0161 c 2.0815,-2.7754 3.7005,-6.7072 3.7005,-8.3262 0,-7.1697 -47.4128,-142.7009 -51.3446,-146.6327 -3.9318,-3.9318 -12.0266,-4.163 -135.9937,-4.163 -72.3912,0 -131.8306,0.9251 -131.8306,1.8502 0,1.1564 3.2379,11.1015 6.9384,22.4344 3.9318,11.3328 6.7072,21.5092 6.4759,22.4343 -0.6938,1.619 -201.4465,-124.4296 -202.6029,-127.205 -0.2313,-0.9252 5.3195,-8.3262 12.4892,-16.6523 7.1698,-8.3262 33.5359,-38.3928 58.2831,-66.8405 l 45.3312,-52.0384 8.3261,25.441 8.5575,25.2097 59.902,0.6939 60.1332,0.4625 5.5508,21.9718 c 3.0067,12.0267 6.2446,21.9718 6.9385,21.7405 0.6938,0 29.604,-31.4543 64.2963,-69.6158 54.3513,-59.6707 62.6774,-70.0784 59.2082,-71.9287 -2.0816,-1.1564 -46.0251,-27.06 -97.601,-57.5892 -51.3445,-30.2979 -93.9004,-55.045 -94.1317,-54.5825 -0.4625,0.4626 0.9252,7.401 3.238,15.7272 2.3128,8.3261 4.8569,17.8087 5.782,21.5092 l 1.3877,6.2446 h -94.5943 -94.5942 l -101.3015,-107.546 C 68.941589,4450.2438 24.998089,4405.3751 21.760089,4404.45 c -7.8636,-2.0815 -16.8836,1.8503 -21.04660002,9.2513 -3.23799998,6.0133 0.2312,17.1149 105.92700102,334.4336 71.2349,213.9357 111.7092,331.6581 115.8723,338.3653 3.7005,5.782 10.1764,13.1831 14.5707,16.6523 17.3461,13.1831 7.1697,12.7205 250.9408,12.7205 l 224.806,0.2313 z"
         id="path2"
         sodipodi:nodetypes="csssscccsccccccccccccsccccccccccccc"
         style="stroke-width:1.01001" />
      <path
         d="m 716.29949,5126.0161 c 2.0815,-2.7754 3.7005,-6.7072 3.7005,-8.3262 0,-7.1697 -47.4128,-142.7009 -51.3446,-146.6327 -3.9318,-3.9318 -12.0266,-4.163 -135.9937,-4.163 -72.3912,0 -131.8306,0.9251 -131.8306,1.8502 0,1.1564 3.2379,11.1015 6.9384,22.4344 3.9318,11.3328 6.7072,21.5092 6.4759,22.4343 -0.6938,1.619 -201.4465,-124.4296 -202.6029,-127.205 -0.2313,-0.9252 5.3195,-8.3262 12.4892,-16.6523 7.1698,-8.3262 33.5359,-38.3928 58.2831,-66.8405 l 45.3312,-52.0384 8.3261,25.441 8.5575,25.2097 59.902,0.6939 60.1332,0.4625 5.5508,21.9718 c 3.0067,12.0267 6.2446,21.9718 6.9385,21.7405 0.6938,0 29.604,-31.4543 64.2963,-69.6158 54.3513,-59.6707 62.6774,-70.0784 59.2082,-71.9287 -2.0816,-1.1564 -46.0251,-27.06 -97.601,-57.5892 -51.3445,-30.2979 -93.9004,-55.045 -94.1317,-54.5825 -0.4625,0.4626 0.9252,7.401 3.238,15.7272 2.3128,8.3261 4.8569,17.8087 5.782,21.5092 l 1.3877,6.2446 h -94.5943 -94.5942 l -101.3015,-107.546 C 68.941589,4465.2438 24.998089,4420.3751 21.760089,4419.45 c -7.8636,-2.0815 -16.8836,1.8503 -21.0466,9.2513 -3.238,6.0133 0.2312,17.1149 105.927001,334.4336 71.2349,213.9357 111.7092,331.6581 115.8723,338.3653 3.7005,5.782 10.1764,13.1831 14.5707,16.6523 17.3461,13.1831 7.1697,12.7205 250.9408,12.7205 l 224.806,0.2313 z"
         id="path2-9"
         sodipodi:nodetypes="csssscccsccccccccccccsccccccccccccc"
         style="fill:#000000;fill-opacity:0.25;stroke-width:1.01001" />
    </g>
  </g>
</svg>
