<svg id="vector" xmlns="http://www.w3.org/2000/svg" width="72" height="72" viewBox="0 0 72 72"><path fill="#000" d="M24.293,7.809C25.314,5.393 27.113,2.917 31.722,0.814c2.112,-0.839 4.508,-0.92 6.873,-0.728 1.516,0.232 2.921,0.546 4.346,1.637 1.021,0.798 2.274,2.032 2.658,4.134 0.02,0.263 -0.677,0.162 -0.92,0.131 -1.081,-0.131 -1.637,0.364 -2.547,0.9 -0.253,0.152 -0.687,0.323 -1.011,0.071C40.323,6.08 39.686,5.453 38.888,4.564 36.887,2.866 33.966,3.584 31.843,5.12 29.397,7.192 28.336,9.153 27.578,11.104c-0.758,2.102 -1.071,4.195 -1.486,6.287 -0.374,3.386 -0.394,6.641 -0.384,9.936 0.02,1.678 0.091,3.356 0.445,4.953 0.546,1.172 1.314,2.163 2.84,2.547 1.617,0.192 3.224,0.384 4.841,0.576 0.869,0.131 1.557,0.536 1.971,1.385 0.182,1.061 -0.061,1.738 -0.627,1.87 -1.799,-0.03 -3.659,-0.02 -5.478,0.091 -2.325,0.526 -1.981,2.395 -2.163,3.912 1.344,9.016 2.527,17.93 3.487,27.037 -0.081,1.749 -0.627,2.021 -1.445,2.183 -0.283,0.283 -1.243,0.111 -2.021,-0.97C25.597,59.973 24.03,48.905 21.817,37.939 21.645,36.685 21.018,36.028 19.967,35.947 17.491,35.836 15.024,35.725 12.548,35.614 11.436,35.442 10.597,35.068 10.244,34.34 9.789,32.855 9.89,31.278 11.042,30.014c0.576,-0.576 1.021,-1.112 2.618,-0.94 1.071,0.283 1.86,0.859 2.85,2.092 0.869,0.718 2.517,0.819 4.023,0.465 0.667,-0.172 1.183,-0.768 0.95,-2.193 -0.445,-3.457 -0.465,-6.449 -0.273,-9.754 0.404,-4.427 1.213,-7.874 3.083,-11.876" id="path_0"/><path fill="#000" d="m41.181,23.424c3.426,-2.456 6.358,-3.608 10.815,-3.073 3.052,0.869 6.196,1.516 7.581,4.659 0.212,2.173 -1.425,2.982 -4.174,3.295 -2.87,0.091 -3.831,-1.658 -5.448,-3.123 -3.386,-1.425 -5.286,-0.738 -7.712,2.052 -3.002,3.265 -0.081,15.272 4.417,18.557 2.638,2.112 5.428,2.304 8.126,1.637 1.162,-0.293 2.133,-1.172 2.426,-2.436 0.323,-1.981 2.123,-2.244 3.174,-1.557 2.143,1.789 2.224,5.114 -0.111,6.641 -1.9,1.243 -4.336,1.496 -6.499,1.577 -5.933,0.465 -9.39,-2.335 -12.513,-5.599 -3.78,-6.216 -6.358,-17.071 -0.081,-22.63" fill-opacity="0.75" id="path_1"/></svg>