<svg id="vector" xmlns="http://www.w3.org/2000/svg" width="72" height="72" viewBox="0 0 72 72"><path fill="#000" d="m63.737,62.156l-0.241,0.241A31.773,31.773 0,0 1,53.09 69.429,32.889 32.889,0 0,1 40.354,72 32.556,32.556 0,0 1,17.211 62.397,32.298 32.298,0 0,1 8.01,44.438q-0.161,-1.125 1.929,-1.446 2.049,-0.321 2.25,0.804a0.233,0.233 0,0 1,0.04 0.161,35.623 35.623,0 0,0 1.848,6.388 27.154,27.154 0,0 0,6.107 9.08,28.496 28.496,0 0,0 31.258,6.107 28.659,28.659 0,0 0,9.04 -6.107l0.241,-0.241a0.972,0.972 0,0 1,1.004 -0.241,3.682 3.682,0 0,1 1.326,0.884q1.446,1.487 0.683,2.331zM44.773,37.447L42.122,40.099 44.653,42.63q0.844,0.844 -0.281,1.969a1.913,1.913 0,0 1,-1.286 0.683,1.034 1.034,0 0,1 -0.763,-0.402l-2.491,-2.451 -2.652,2.652a0.819,0.819 0,0 1,-0.603 0.201,1.823 1.823,0 0,1 -1.246,-0.643l-0.08,-0.08a1.626,1.626 0,0 1,-0.723 -1.165,1.19 1.19,0 0,1 0.321,-0.683l2.652,-2.612 -2.652,-2.652q-0.643,-0.643 0.562,-1.808a1.979,1.979 0,0 1,1.246 -0.723,0.918 0.918,0 0,1 0.522,0.201l2.612,2.652 2.612,-2.612q0.723,-0.683 1.929,0.522 1.085,1.085 0.442,1.768zM63.697,39.737a23.33,23.33 0,0 1,-6.911 16.634,23.814 23.814,0 0,1 -7.513,5.062 23.626,23.626 0,0 1,-18.321 0,23.814 23.814,0 0,1 -7.513,-5.062 22.823,22.823 0,0 1,-5.022 -7.473,5.873 5.873,0 0,1 -0.603,-1.607h-0.041q-0.362,-1.085 1.728,-1.768 2.009,-0.643 2.411,0.482a21.277,21.277 0,0 0,3.897 6.71h0.04L25.849,39.014a12.931,12.931 0,0 1,4.098 -9.321,13.991 13.991,0 0,1 10.165,-4.138 13.809,13.809 0,0 1,10.085 4.138,13.564 13.564,0 0,1 4.179,10.004 14.301,14.301 0,0 1,-14.263 14.263,15.756 15.756,0 0,1 -4.5,-0.643q-1.125,-0.442 -0.522,-2.451 0.643,-2.049 1.768,-1.728l0.562,0.121q0.562,0.121 1.306,0.241a7.946,7.946 0,0 0,1.225 0.121,9.653 9.653,0 0,0 7.071,-2.873 9.505,9.505 0,0 0,2.893 -7.011,9.216 9.216,0 0,0 -2.893,-6.87 9.555,9.555 0,0 0,-7.031 -2.853,9.162 9.162,0 0,0 -7.152,3.214 9.449,9.449 0,0 0,-2.571 6.428v16.594a18.335,18.335 0,0 0,9.723 2.692,19.406 19.406,0 0,0 7.433,-1.467 19.18,19.18 0,0 0,11.893 -17.738,19.273 19.273,0 0,0 -19.285,-19.245 18.598,18.598 0,0 0,-13.661 5.625,29.151 29.151,0 0,0 -3.094,3.496l-0.08,0.08a4.259,4.259 0,0 1,-0.522 0.623,2.535 2.535,0 0,1 -0.864,0.382 2.437,2.437 0,0 1,-1.547 -0.121,3.974 3.974,0 0,1 -1.467,-0.663 1.319,1.319 0,0 1,-0.623 -1.065L18.175,1.528a1.532,1.532 0,0 1,0.422 -1.065,1.426 1.426,0 0,1 1.105,-0.462h35.236q1.205,0 1.205,2.21 0,2.21 -1.205,2.21L22.354,4.421L22.354,23.827h0.04a25.047,25.047 0,0 1,4.098 -3.375,25.221 25.221,0 0,1 4.339,-2.451 23.625,23.625 0,0 1,9.281 -1.848,22.947 22.947,0 0,1 9.161,1.848 23.487,23.487 0,0 1,14.424 21.736zM62.452,16.394a0.952,0.952 0,0 1,0.362 0.723,1.247 1.247,0 0,1 -0.221,0.723q-0.221,0.321 -0.663,0.844 -1.045,1.045 -1.567,1.045A0.885,0.885 0,0 1,59.719 19.447,31.642 31.642,0 0,0 51.403,14.103 27.359,27.359 0,0 0,40.313 11.854,29.429 29.429,0 0,0 29.787,13.822Q28.702,14.224 27.979,12.335a4.05,4.05 0,0 1,-0.321 -1.527,0.935 0.935,0 0,1 0.643,-0.803 29.664,29.664 0,0 1,12.013 -2.29,32.401 32.401,0 0,1 12.696,2.571 30.85,30.85 0,0 1,9.442 6.107z" stroke-width="3.59995" id="path_0"/></svg>