<?xml version="1.0" encoding="UTF-8" standalone="no"?>
<svg
   id="vector"
   width="72"
   height="72"
   viewBox="0 0 72 72"
   version="1.1"
   sodipodi:docname="flipkart.svg"
   inkscape:version="1.2.1 (9c6d41e410, 2022-07-14)"
   xmlns:inkscape="http://www.inkscape.org/namespaces/inkscape"
   xmlns:sodipodi="http://sodipodi.sourceforge.net/DTD/sodipodi-0.dtd"
   xmlns="http://www.w3.org/2000/svg"
   xmlns:svg="http://www.w3.org/2000/svg">
  <defs
     id="defs15" />
  <sodipodi:namedview
     id="namedview13"
     pagecolor="#ffffff"
     bordercolor="#000000"
     borderopacity="0.25"
     inkscape:showpageshadow="2"
     inkscape:pageopacity="0.0"
     inkscape:pagecheckerboard="0"
     inkscape:deskcolor="#d1d1d1"
     showgrid="false"
     inkscape:zoom="5.7569444"
     inkscape:cx="6.1664656"
     inkscape:cy="38.562123"
     inkscape:window-width="1920"
     inkscape:window-height="1009"
     inkscape:window-x="-8"
     inkscape:window-y="-8"
     inkscape:window-maximized="1"
     inkscape:current-layer="vector" />
  <path
     fill="#000"
     d="m71.952,12.672c-0.03,-0.101 -0.061,-0.202 -0.101,-0.303 -23.913,0.01 -47.815,0 -71.718,0.01 -0.061,0.071 -0.101,0.141 -0.111,0.232 0,18.543 0,37.075 -0.01,55.618 0.151,0.989 0.696,1.888 1.423,2.564 0.03,0.01 0.101,0.02 0.131,0.03 0.373,0.394 0.908,0.585 1.413,0.767 0.373,-0.02 0.737,0.141 1.11,0.101h29.676c0.283,-0.01 0.575,0.04 0.848,-0.071 0.01,-0.04 0.02,-0.111 0.03,-0.151 0.01,-0.05 0.02,-0.162 0.03,-0.222 0.636,-3.553 1.252,-7.116 1.928,-10.669l0.061,-0.454c-2.746,-0.01 -5.501,0 -8.247,-0.01 -0.666,-0.02 -1.353,0 -2.019,-0.081 -1.141,-0.05 -2.291,-0.01 -3.432,-0.121 -1.413,0 -2.816,-0.131 -4.229,-0.131C17.625,59.67 16.504,59.71 15.384,59.66 14.657,59.569 13.91,59.61 13.173,59.579 11.972,59.448 10.75,59.539 9.549,59.407 8.277,59.417 7.005,59.306 5.733,59.276c0.01,-0.01 0.02,-0.05 0.02,-0.061 0.424,0.01 0.838,-0.02 1.262,-0.03 0.939,-0.121 1.888,-0.04 2.826,-0.172 0.979,0 1.948,-0.131 2.927,-0.131 0.868,-0.121 1.746,-0.05 2.614,-0.172 1.019,0 2.019,-0.131 3.038,-0.141 0.838,-0.111 1.686,-0.05 2.523,-0.162 0.979,0.01 1.948,-0.141 2.927,-0.131 0.959,-0.111 1.938,-0.081 2.897,-0.182 -0.091,-0.373 -0.162,-0.747 -0.242,-1.12 -0.071,-0.232 -0.353,-0.182 -0.535,-0.212 -2.19,-0.313 -4.371,-0.626 -6.551,-0.929 0.141,-0.111 0.333,-0.061 0.495,-0.081 1.696,-0.131 3.381,-0.283 5.077,-0.404 0.384,-0.02 0.757,-0.091 1.141,-0.101 -0.172,-0.525 -0.273,-1.1 -0.505,-1.585 -3.624,-0.555 -7.247,-1.05 -10.861,-1.645 0.939,-0.151 1.888,-0.222 2.826,-0.323l0.081,-0.03c2.998,-0.313 6.006,-0.666 9.004,-0.959 3.805,-0.02 7.601,-0.01 11.406,0 0.121,-0.02 0.333,0.04 0.353,-0.131 0.313,-1.635 0.616,-3.27 0.929,-4.906 0.434,-2.271 1.12,-4.512 2.18,-6.581 1.666,-3.331 4.3,-6.157 7.51,-8.035 2.998,-1.756 6.47,-2.604 9.922,-2.766 1.12,-0.101 2.251,-0.071 3.361,0.071 0.727,0.172 1.474,0.373 2.049,0.868 0.474,0.384 0.757,0.949 0.969,1.514 0.464,1.342 0.727,2.735 0.949,4.139 0.01,0.565 0.111,1.201 -0.192,1.716 -0.283,0.505 -0.848,0.747 -1.383,0.898 -1.948,0.505 -3.987,0.03 -5.935,0.505 -1.605,0.343 -3.099,1.231 -4.118,2.513 -1.201,1.494 -1.837,3.351 -2.19,5.208 -0.273,1.655 -0.616,3.311 -0.888,4.976 1.918,0.01 3.846,-0.01 5.774,0.01 0.767,0 1.554,0.424 1.867,1.151 0.404,0.929 0.313,1.978 0.182,2.958 -0.162,1.1 -0.424,2.19 -0.919,3.2 -0.414,0.858 -1.1,1.645 -2.039,1.948 -0.485,0.192 -1.009,0.151 -1.524,0.151 -1.696,0 -3.392,0.02 -5.087,0 -0.273,1.242 -0.454,2.513 -0.696,3.775 -0.444,2.453 -0.878,4.916 -1.322,7.379 -0.01,0.081 -0.02,0.252 -0.02,0.343 0.797,0.04 1.595,0 2.392,0.02 5.915,0 11.84,-0.01 17.765,0 0.636,0.02 1.282,-0.131 1.837,-0.444 0.333,-0.121 0.535,-0.414 0.828,-0.575 0.283,-0.162 0.363,-0.495 0.606,-0.707 0.262,-0.464 0.535,-0.949 0.555,-1.494 0.03,0 0.111,-0.01 0.151,-0.02 -0.03,-18.573 0,-37.146 -0.02,-55.719z"
     stroke-width="0.009"
     stroke="#000"
     fill-opacity="0.75"
     id="path_0" />
  <path
     fill="#000"
     d="m9.43,0.458c0.858,-0.273 1.756,-0.091 2.635,-0.151 16.483,0.01 32.967,0 49.45,0 0.979,-0.04 1.837,0.515 2.746,0.797 0.727,0.293 1.484,0.525 2.211,0.838 0.151,0.061 0.262,0.192 0.373,0.303 -0.01,1.332 0,2.675 0,4.017 0.01,0.353 -0.05,0.717 0.071,1.06 0.212,0.03 0.323,0.192 0.464,0.323 0.666,0.303 1.231,0.797 1.837,1.201 0.908,0.646 1.877,1.211 2.766,1.877 0.04,0.262 0.01,0.535 -0.071,0.777 -0.091,0.283 -0.03,0.585 -0.061,0.868 -23.913,0.01 -47.815,0 -71.718,0.01C0.083,12.045 0.173,11.712 0.032,11.399 0.012,11.137 -0.079,10.793 0.173,10.612 1.182,9.905 2.252,9.27 3.242,8.523 3.858,8.129 4.453,7.726 5.049,7.322 5.17,7.12 5.13,6.868 5.13,6.646 5.13,5.182 5.13,3.719 5.14,2.255 5.483,1.811 6.079,1.76 6.553,1.538 7.512,1.175 8.481,0.821 9.43,0.458M9.491,0.63C8.199,1.125 6.897,1.599 5.605,2.094 5.433,2.124 5.343,2.276 5.252,2.407c0.01,0.081 0.02,0.222 0.02,0.303 -0.01,1.211 0,2.423 -0.01,3.634C5.272,6.647 5.232,6.95 5.343,7.222 5.212,7.353 5.07,7.484 4.909,7.585 3.445,8.534 2.032,9.563 0.569,10.502c-0.252,0.151 -0.535,0.353 -0.454,0.686 -0.05,0.182 0.04,0.333 0.232,0.283 3.17,-0.02 6.329,0.02 9.498,-0.03 4.714,0 9.418,0.01 14.132,0l0.071,-0.03c0.212,0.05 0.424,0.03 0.646,0.03 8.539,0 17.079,0.01 25.629,0 2.685,0.01 5.38,0 8.075,0 4.441,0 8.893,0.04 13.334,0.02 0.131,-0.03 0.172,-0.121 0.121,-0.283 -0.01,-0.162 0.05,-0.384 -0.121,-0.485C71.025,10.36 70.42,9.845 69.743,9.441 69.501,9.239 69.188,9.128 69.006,8.856 68.31,8.462 67.664,7.978 66.977,7.544 66.846,7.463 66.745,7.332 66.634,7.221c0.061,-0.212 0.081,-0.444 0.081,-0.666 -0.01,-1.282 0,-2.564 -0.01,-3.846 0.03,-0.202 0.02,-0.434 -0.162,-0.565C65.332,1.71 64.131,1.246 62.929,0.802 62.556,0.62 62.142,0.519 61.738,0.459H10.148C9.926,0.469 9.714,0.58 9.492,0.631Z"
     stroke-width="0.009"
     stroke="#000"
     fill-opacity="0.548399"
     id="path_1" />
  <path
     fill="#000"
     d="M5.271,2.709C6.159,3.082 7.108,3.294 8.006,3.658 8.491,3.85 8.642,4.375 8.854,4.799 8.642,5.011 8.39,5.183 8.137,5.344 7.208,5.97 6.26,6.575 5.341,7.221 5.23,6.948 5.27,6.646 5.26,6.343 5.27,5.132 5.26,3.92 5.27,2.709ZM63.968,3.658c0.898,-0.353 1.837,-0.596 2.735,-0.949 0.01,1.282 0,2.564 0.01,3.846 0,0.222 -0.02,0.454 -0.081,0.666C65.845,6.676 65.047,6.161 64.26,5.626 63.876,5.343 63.452,5.131 63.109,4.788 63.321,4.364 63.482,3.849 63.967,3.657Z"
     stroke-width="0.009"
     stroke="#000"
     fill-opacity="0.548399"
     id="path_2" />
  <path
     fill="#000"
     d="m20.675,4.072c1.11,-0.262 2.352,0.727 2.261,1.888 0.01,1.141 -1.191,2.069 -2.291,1.807C20.201,7.616 19.777,7.383 19.504,6.99 19.151,6.455 19.07,5.738 19.353,5.153 19.555,4.588 20.1,4.204 20.675,4.073ZM49.473,4.708C49.937,4.193 50.674,3.9 51.361,4.082 51.876,4.233 52.38,4.567 52.603,5.071 53.047,5.939 52.704,7.11 51.836,7.564 51.069,7.988 50.1,7.786 49.514,7.17 48.918,6.494 48.878,5.383 49.474,4.707Z"
     stroke-width="0.009"
     stroke="#000"
     fill-opacity="0.75"
     id="path_3" />
  <path
     fill="#000"
     d="M8.138,5.343C8.39,5.181 8.643,5.01 8.855,4.798l0.071,0.071c0.071,0.525 0.02,1.06 0.04,1.585 -0.03,1.575 0.03,3.159 -0.04,4.734 -2.937,0 -5.875,-0.02 -8.812,0C0.033,10.855 0.316,10.653 0.568,10.502 2.032,9.563 3.445,8.534 4.908,7.585 5.07,7.484 5.211,7.353 5.342,7.222 6.261,6.576 7.209,5.97 8.138,5.345ZM63.009,5.142c0,-0.131 0.03,-0.242 0.101,-0.353 0.343,0.343 0.767,0.555 1.151,0.838 0.787,0.535 1.585,1.05 2.372,1.595 0.111,0.111 0.212,0.242 0.343,0.323 0.686,0.434 1.332,0.919 2.029,1.312 0.182,0.273 0.495,0.384 0.737,0.585 0.676,0.404 1.282,0.919 1.989,1.252 0.172,0.101 0.111,0.323 0.121,0.485 -2.937,0.01 -5.865,-0.01 -8.802,0.01C63,10.785 63.03,10.381 63.02,9.988 63.02,8.373 63,6.758 63.01,5.143Z"
     stroke-width="0.009"
     stroke="#000"
     fill-opacity="0.548399"
     id="path_4" />
  <path
     fill="#000"
     d="m71.851,11.178c-2.937,0.01 -5.865,-0.01 -8.802,0.01 -0.05,-0.404 -0.02,-0.808 -0.03,-1.201 0,-1.615 -0.02,-3.23 -0.01,-4.845 0,-0.131 0.03,-0.242 0.101,-0.353C63.322,4.365 63.483,3.85 63.968,3.658 64.866,3.305 65.805,3.062 66.703,2.709 66.733,2.507 66.723,2.275 66.541,2.144 65.33,1.71 64.129,1.246 62.927,0.802 62.554,0.62 62.14,0.519 61.736,0.459H10.146C9.924,0.469 9.712,0.58 9.49,0.631 8.198,1.126 6.896,1.6 5.604,2.095 5.432,2.125 5.342,2.277 5.251,2.408 5.261,2.489 5.271,2.63 5.271,2.711 6.159,3.084 7.108,3.296 8.006,3.66 8.491,3.852 8.642,4.377 8.854,4.801l0.071,0.071c0.071,0.525 0.02,1.06 0.04,1.585 -0.03,1.575 0.03,3.159 -0.04,4.734 -2.937,0 -5.875,-0.02 -8.812,0 -0.05,0.182 0.04,0.333 0.232,0.283 3.17,-0.02 6.329,0.02 9.498,-0.03 4.714,0 9.418,0.01 14.132,0l0.071,-0.03c0.212,0.05 0.424,0.03 0.646,0.03 8.539,0 17.079,0.01 25.629,0 2.685,0.01 5.38,0 8.075,0 4.441,0 8.893,0.04 13.334,0.02 0.131,-0.03 0.172,-0.121 0.121,-0.283zM19.352,5.152c0.202,-0.565 0.747,-0.949 1.322,-1.08 1.11,-0.262 2.352,0.727 2.261,1.888 0.01,1.141 -1.191,2.069 -2.291,1.807C20.2,7.616 19.776,7.383 19.503,6.99 19.15,6.455 19.069,5.738 19.352,5.153ZM49.473,4.708C49.937,4.193 50.674,3.9 51.361,4.082 51.876,4.233 52.38,4.567 52.603,5.071 53.047,5.939 52.704,7.11 51.836,7.564 51.069,7.988 50.1,7.786 49.514,7.17 48.918,6.494 48.878,5.383 49.474,4.707Z"
     stroke-width="0.009"
     stroke="#000"
     fill-opacity="0.548399"
     id="path_5" />
  <path
     fill="#000"
     d="m50.724,22.079c0.151,-0.132 0.252,-0.132 0.454,-0.132 -1.211,2.624 -2.624,5.249 -4.749,7.292 -0.227,0.203 -0.467,0.391 -0.719,0.563 -0.243,0.178 -0.481,0.345 -0.719,0.515 -0.232,0.162 -0.463,0.323 -0.687,0.493 -0.575,0.313 -1.08,0.747 -1.716,0.939 -1.161,0.555 -2.412,0.929 -3.674,1.191 -0.495,0.081 -0.999,0.202 -1.504,0.212 -0.626,0.182 -1.292,0.05 -1.928,0.091 -0.353,0.061 -0.666,-0.141 -1.009,-0.101 -0.298,-0.042 -0.595,-0.093 -0.89,-0.151 -0.3,-0.062 -0.598,-0.132 -0.892,-0.212 -4.627,-1.443 -9.169,-4.976 -10.493,-9.755 -0.06,-0.322 -0.09,-0.648 -0.09,-0.976 0.141,0.283 0.288,0.563 0.439,0.841 1.883,4.105 5.617,7.335 10.029,8.309 0.358,0.164 0.746,0.106 1.089,0.247 0.313,0 0.616,-0.01 0.919,0.091 1.04,0.02 2.079,0.01 3.119,0.01 0.141,0.01 0.273,-0.061 0.414,-0.091 1.733,-0.059 3.431,-0.531 5.012,-1.248 0.316,-0.143 0.628,-0.297 0.934,-0.458 0.267,-0.141 0.53,-0.294 0.784,-0.458 0.25,-0.162 0.493,-0.333 0.729,-0.515 1.868,-1.48 3.483,-3.398 4.581,-5.603 0.208,-0.395 0.4,-0.762 0.568,-1.093z"
     stroke-width="0.009"
     stroke="#000"
     fill-opacity="0.548399"
     id="path_6"
     style="fill:#000000;fill-opacity:0.5" />
  <path
     fill="#000"
     d="m49.079,31.053c2.998,-1.756 6.47,-2.604 9.922,-2.766 1.12,-0.101 2.251,-0.071 3.361,0.071 0.727,0.172 1.474,0.373 2.049,0.868 -0.293,0.02 -0.575,-0.111 -0.868,-0.151 -0.828,-0.162 -1.686,-0.101 -2.523,-0.121 -2.433,0 -4.885,0.192 -7.237,0.858 -1.231,0.373 -2.463,0.808 -3.583,1.454 -1.938,1.07 -3.684,2.483 -5.097,4.179 -2.523,2.897 -4.007,6.571 -4.724,10.316 -0.343,2.009 -0.737,4.007 -1.05,6.026 -0.505,0.05 -1.019,0.02 -1.524,0.02 -2.221,-0.01 -4.441,-0.02 -6.662,-0.04 -0.474,0.02 -0.939,-0.091 -1.413,-0.061 -4.038,0.02 -8.075,-0.01 -12.113,-0.01l0.081,-0.03c2.998,-0.313 6.006,-0.666 9.004,-0.959 3.805,-0.02 7.601,-0.01 11.406,0 0.121,-0.02 0.333,0.04 0.353,-0.131 0.313,-1.635 0.616,-3.27 0.929,-4.906 0.434,-2.271 1.12,-4.512 2.18,-6.581 1.666,-3.331 4.3,-6.157 7.51,-8.035z"
     stroke-width="0.009"
     stroke="#000"
     fill-opacity="0.548399"
     id="path_7" />
  <path
     fill="#000"
     d="m51.623,50.696c1.918,0.01 3.846,-0.01 5.774,0.01 0.767,0 1.554,0.424 1.867,1.151 -0.727,0.05 -1.454,0.01 -2.18,0.03 -1.908,-0.02 -3.816,0.01 -5.723,-0.02 0.071,-0.394 0.141,-0.797 0.262,-1.171zM36.734,60.154c0.283,-0.05 0.565,-0.05 0.838,0.01 -0.707,3.715 -1.342,7.449 -2.029,11.164 -0.071,0.394 -0.565,0.252 -0.838,0.222 -0.01,-0.071 -0.02,-0.222 -0.03,-0.303 0.636,-3.553 1.252,-7.116 1.928,-10.669 0.05,-0.141 0.091,-0.283 0.131,-0.424z"
     stroke-width="0.009"
     stroke="#000"
     fill-opacity="0.548399"
     id="path_8" />
  <path
     fill="#000"
     d="m52.506,15.896c-0.081,-0.151 -0.091,-0.333 -0.091,-0.505l-0.081,0.01c-0.121,-0.444 -0.495,-0.868 -0.979,-0.888 -0.363,-0.03 -0.818,-0.02 -1.03,0.323 -0.404,0.545 -0.212,1.242 -0.232,1.857 0,0.04 0.01,0.111 0.01,0.151 0,0.414 -0.05,0.818 -0.121,1.221 -0.061,0.121 -0.091,0.252 -0.091,0.394 -0.172,0.949 -0.515,1.888 -0.979,2.746 -0.091,0.121 -0.162,0.252 -0.192,0.394 -0.303,0.525 -0.666,1.009 -1.04,1.494 -0.061,0.05 -0.111,0.111 -0.162,0.172 -0.262,0.323 -0.545,0.596 -0.838,0.878 -0.071,0.04 -0.121,0.091 -0.182,0.131 -0.343,0.333 -0.727,0.646 -1.141,0.898 -0.05,0.03 -0.101,0.071 -0.162,0.111 -2.584,1.706 -5.723,2.412 -8.782,2.443 -2.594,0.081 -5.208,-0.474 -7.55,-1.595 -0.04,-0.02 -0.141,-0.061 -0.182,-0.081 -0.394,-0.212 -0.797,-0.394 -1.161,-0.656 -0.081,-0.04 -0.162,-0.091 -0.252,-0.131 -0.373,-0.222 -0.727,-0.464 -1.06,-0.747 -0.111,-0.101 -0.232,-0.182 -0.353,-0.273 -0.363,-0.293 -0.737,-0.606 -1.05,-0.959 -0.081,-0.091 -0.162,-0.172 -0.242,-0.252 -1.1,-1.141 -1.958,-2.534 -2.412,-4.048 -0.434,-1.201 -0.373,-2.513 -0.424,-3.775 -0.363,-0.555 -1.131,-0.868 -1.736,-0.525 -0.252,0.182 -0.283,0.515 -0.474,0.747 -0.313,3.331 1.11,6.652 3.381,9.054 0,0.081 0.04,0.131 0.111,0.162 0.404,0.373 0.797,0.757 1.201,1.12 0.071,0.071 0.151,0.141 0.242,0.202 0.404,0.333 0.838,0.636 1.262,0.949 0.081,0.061 0.162,0.111 0.252,0.162 0.555,0.323 1.08,0.707 1.676,0.929 0.04,0.03 0.111,0.081 0.151,0.101 1.918,0.919 3.987,1.544 6.107,1.746 0.232,0 0.464,0.02 0.696,0.071 1.009,0.061 2.019,0.03 3.028,0.01 3.119,-0.273 6.339,-1.03 8.943,-2.867l0.03,0.04c0.081,-0.071 0.151,-0.131 0.232,-0.192 0.414,-0.303 0.818,-0.626 1.221,-0.959 0.091,-0.071 0.192,-0.151 0.283,-0.242 0.444,-0.485 0.959,-0.929 1.332,-1.484l0.061,0.03c0.03,-0.05 0.081,-0.151 0.111,-0.202 0.343,-0.464 0.656,-0.949 0.959,-1.433 0.02,-0.03 0.071,-0.081 0.091,-0.111l-0.04,-0.04c0.03,-0.04 0.101,-0.121 0.131,-0.162 0.555,-1.131 1.05,-2.312 1.221,-3.563 0.071,-0.03 0.111,-0.091 0.111,-0.162 0.01,-0.404 0.151,-0.787 0.111,-1.191 0.091,-0.495 0.101,-0.999 0.081,-1.504z"
     stroke-width="0.009"
     stroke="#000"
     fill-opacity="0.75"
     id="path_9" />
</svg>
