<?xml version="1.0" encoding="UTF-8" standalone="no"?>
<svg
   id="vector"
   width="72"
   height="72"
   viewBox="0 0 72 72"
   version="1.1"
   sodipodi:docname="fm_radio.svg"
   inkscape:version="1.2.1 (9c6d41e410, 2022-07-14)"
   xmlns:inkscape="http://www.inkscape.org/namespaces/inkscape"
   xmlns:sodipodi="http://sodipodi.sourceforge.net/DTD/sodipodi-0.dtd"
   xmlns="http://www.w3.org/2000/svg"
   xmlns:svg="http://www.w3.org/2000/svg">
  <defs
     id="defs7" />
  <sodipodi:namedview
     id="namedview5"
     pagecolor="#ffffff"
     bordercolor="#000000"
     borderopacity="0.25"
     inkscape:showpageshadow="2"
     inkscape:pageopacity="0.0"
     inkscape:pagecheckerboard="0"
     inkscape:deskcolor="#d1d1d1"
     showgrid="false"
     inkscape:zoom="8.1415489"
     inkscape:cx="21.801748"
     inkscape:cy="45.814378"
     inkscape:window-width="1920"
     inkscape:window-height="1009"
     inkscape:window-x="-8"
     inkscape:window-y="-8"
     inkscape:window-maximized="1"
     inkscape:current-layer="vector" />
  <path
     fill="#000"
     stroke-width="1"
     d="m23.037,33.402c-6.642,0 -12.028,5.428 -12.028,12.123 0,6.695 5.387,12.123 12.028,12.123 6.642,0 12.028,-5.428 12.028,-12.123 0,-6.695 -5.387,-12.123 -12.028,-12.123"
     fill-rule="nonzero"
     stroke="#00000000"
     id="path_0" />
  <path
     fill="#000000"
     stroke-width="0.999993"
     d="M 64.16065,36.035314 H 41.966117 V 31.521409 H 64.16065 Z m 0,7.513842 H 41.966117 V 39.035252 H 64.16065 Z m 0,7.519842 H 41.966117 V 46.555093 H 64.16065 Z m 0,7.519842 H 41.966117 V 54.080935 H 64.16065 Z m -41.029136,3.005936 c -8.963812,0 -16.2246593,-7.319845 -16.2246593,-16.353656 0,-9.034809 7.2668473,-16.353655 16.2246593,-16.353655 8.963811,0 16.224658,7.319846 16.224658,16.353655 0,9.034811 -7.266847,16.353656 -16.224658,16.353656 z M 69.758532,31.144417 h -0.188995 v -3.288931 c 0,-2.946937 -2.39295,-5.356887 -5.315888,-5.356887 H 16.890644 L 39.962159,5.6499536 C 40.504147,5.254962 40.622146,4.488978 40.233153,3.9469894 v 0 C 39.844162,3.4050009 39.078178,3.2810035 38.542189,3.6759951 L 12.758732,22.498599 H 5.3158882 C 2.3929497,22.498599 0,24.908549 0,27.855486 v 35.342257 c 0,2.946938 2.3929497,5.356887 5.3158882,5.356887 H 64.254649 c 2.922938,0 5.315888,-2.409949 5.315888,-5.356887 V 45.529114 h 0.188995 c 1.231974,0 2.239953,-1.013978 2.239953,-2.256952 l -0.001,-9.870792 c 0,-1.243974 -1.007979,-2.256953 -2.239953,-2.256953"
     fill-rule="nonzero"
     stroke="#00000000"
     fill-opacity="0.75"
     id="path_1" />
</svg>
