<svg id="vector" xmlns="http://www.w3.org/2000/svg" width="72" height="72" viewBox="0 0 72 72"><path fill="#000" d="m23.885,69.677c9.249,3.096 19.255,3.097 28.504,0.003 -1.175,0.377 -2.433,-0.269 -2.811,-1.444 -0.074,-0.23 -0.11,-0.47 -0.107,-0.712 0,-1.529 0.057,-6.401 0.057,-12.463 0.246,-3.106 -0.871,-6.166 -3.059,-8.384C56.553,45.544 67.147,41.692 67.147,24.3 67.221,19.794 65.558,15.432 62.502,12.12 63.887,8.205 63.725,3.909 62.048,0.11c0,0 -3.796,-1.246 -12.463,4.645 -7.416,-2.04 -15.244,-2.04 -22.66,0C18.257,-1.079 14.462,0.11 14.462,0.11 12.785,3.909 12.623,8.205 14.009,12.12c-3.047,3.318 -4.709,7.676 -4.645,12.18 0,17.335 10.537,21.244 20.621,22.377 -1.666,1.603 -2.693,3.758 -2.889,6.062 -4.667,2.615 -10.571,0.952 -13.186,-3.715 -0.004,-0.008 -0.009,-0.016 -0.013,-0.024 -1.426,-2.592 -4.027,-4.326 -6.968,-4.645 -3.795,0.057 -1.529,2.153 0.057,3.003 2.045,1.725 3.639,3.922 4.645,6.401 0.906,2.549 3.852,7.421 15.239,5.325 0,3.796 0.057,7.365 0.057,8.441 0,1.174 -0.84,2.498 -3.04,2.153z" stroke-width="4.53205" stroke="#00000000" fill-opacity="0.5" id="path_0"/></svg>