<svg id="vector" xmlns="http://www.w3.org/2000/svg" width="72" height="72" viewBox="0 0 72 72"><path fill="#000" d="m35.998,69.157l0,0L49.262,28.357L22.753,28.357Z" id="path_0"/><path fill="#000" d="m4.174,28.357l0,0l-4.039,12.396a2.747,2.747 0,0 0,0.994 3.07l34.869,25.335z" fill-opacity="0.25" id="path_1"/><path fill="#000" d="M4.174,28.357L22.753,28.357L14.757,3.785a1.379,1.379 0,0 0,-2.617 0z" id="path_2"/><path fill="#000" d="m67.84,28.357l0,0l4.025,12.396a2.747,2.747 0,0 1,-0.994 3.07l-34.874,25.335 31.843,-40.8z" fill-opacity="0.25" id="path_3"/><path fill="#000" d="m67.84,28.357l-18.579,0l7.981,-24.572a1.379,1.379 0,0 1,2.617 0l7.981,24.572z" id="path_4"/><path fill="#000" d="M35.996,69.158l13.266,-40.802l18.58,0z" fill-opacity="0.5" id="path_5"/><path fill="#000" d="M35.996,69.158l-31.824,-40.802l18.58,0z" fill-opacity="0.5" id="path_6"/></svg>