<svg id="vector" xmlns="http://www.w3.org/2000/svg" width="72" height="72" viewBox="0 0 72 72"><path fill="#000" d="m72,22.607l-17.18,12.807l0,27.957l12.026,0c2.811,0 5.154,-2.265 5.154,-5.154z" id="path_0"/><path fill="#000" d="m-0,22.607l17.102,12.885l0,27.957L5.154,63.449c-2.811,0 -5.154,-2.265 -5.154,-5.154z" id="path_1"/><path fill="#000" d="M17.18,35.414l18.82,14.134l18.82,-14.134l0,-21.397l-18.82,14.134l-18.82,-14.134z" fill-opacity="0.5" id="path_2"/><path fill="#000" d="m-0,15.892l0,6.716L17.102,35.492L17.102,14.017L11.792,10.035c-1.249,-0.937 -2.811,-1.484 -4.451,-1.484l0,0c-4.061,0 -7.341,3.28 -7.341,7.341z" fill-opacity="0.75" id="path_3"/><path fill="#000" d="m72,15.892l0,6.716l-17.18,12.807L54.82,14.017l5.388,-3.983c1.249,-0.937 2.811,-1.484 4.451,-1.484l0,0c4.061,0 7.341,3.28 7.341,7.341z" fill-opacity="0.75" id="path_4"/></svg>