<svg id="vector" xmlns="http://www.w3.org/2000/svg" width="72" height="72" viewBox="0 0 72 72"><path fill="#000" d="M71.327,36.785C70.34,33.231 68.272,30.456 65.031,28.609 64.655,28.395 64.509,28.079 64.446,27.676 63.986,24.706 63.136,21.859 61.726,19.195 60.702,17.263 59.426,15.522 57.729,14.115 55.834,12.544 53.682,11.655 51.193,11.655 41.073,11.655 30.954,11.655 20.834,11.657 20.142,11.651 19.452,11.718 18.774,11.856 16.902,12.256 15.297,13.162 13.883,14.429c-1.9,1.705 -3.245,3.8 -4.286,6.106 -1.037,2.296 -1.69,4.704 -2.082,7.185 -0.07,0.44 -0.274,0.723 -0.653,0.939 -2.824,1.618 -4.733,4.004 -5.854,7.032 -1.025,2.771 -1.243,5.623 -0.769,8.529 0.487,2.99 1.715,5.633 3.819,7.84 0.324,0.34 0.464,0.692 0.456,1.16 -0.023,1.301 -0.02,2.602 -0.005,3.903 0.02,1.693 1.272,3.055 2.961,3.16 1.75,0.109 3.506,0.048 5.258,0.028 1.02,-0.012 1.866,-0.437 2.497,-1.253 0.483,-0.622 0.679,-1.33 0.676,-2.112 -0.006,-0.915 -0.114,-0.836 0.811,-0.836 6.435,0 12.871,0 19.306,0l19.354,0c0.129,0 0.258,0.005 0.386,0 0.222,-0.01 0.328,0.096 0.33,0.312 0.001,0.216 -0.005,0.45 0.004,0.675 0.053,1.357 0.676,2.348 1.91,2.939 0.505,0.241 1.051,0.284 1.6,0.286 1.464,0.004 2.928,0.004 4.392,0 0.354,0 0.707,-0.02 1.053,-0.108 1.429,-0.368 2.397,-1.578 2.415,-3.051 0.014,-1.332 0.01,-2.665 0,-3.999 -0.003,-0.41 0.118,-0.737 0.41,-1.035 0.86,-0.87 1.59,-1.859 2.169,-2.935 2.113,-3.959 2.476,-8.12 1.286,-12.408zM14.613,25.392c0.673,-2.378 1.704,-4.568 3.438,-6.373 0.938,-0.977 2.021,-1.735 3.372,-2.044 0.424,-0.094 0.857,-0.14 1.291,-0.137 8.781,0 17.563,-0.002 26.345,-0.005 1.358,0 2.556,0.402 3.634,1.205 1.193,0.889 2.092,2.033 2.853,3.292 0.7,1.156 1.242,2.389 1.673,3.67 0.055,0.167 0.097,0.339 0.127,0.512 0.159,0.892 -0.372,1.55 -1.284,1.583 -0.369,0.014 -0.739,0.011 -1.111,0.011L35.99,27.107L35.99,27.112L16.11,27.112c-0.872,0 -1.392,-0.393 -1.534,-1.151 -0.033,-0.19 -0.02,-0.385 0.037,-0.569zM64.474,45.552c-0.378,0.56 -0.832,1.065 -1.348,1.502 -1.418,1.196 -3.062,1.831 -4.915,1.811 -2.426,-0.024 -4.426,-0.996 -5.934,-2.902 -0.386,-0.491 -0.831,-0.692 -1.444,-0.691 -4.714,0.012 -9.428,0.014 -14.142,0.007L22.838,45.278c-0.112,0 -0.225,0.004 -0.338,0 -0.694,-0.034 -1.23,0.229 -1.672,0.776 -0.987,1.221 -2.253,2.041 -3.761,2.486 -4.477,1.325 -9.137,-1.69 -9.792,-6.305 -0.594,-4.192 2.358,-8.107 6.508,-8.668 2.916,-0.394 5.318,0.597 7.169,2.862 0.483,0.591 1.014,0.848 1.775,0.848 9.38,-0.014 18.76,-0.014 28.139,0 0.605,0 1.014,-0.204 1.395,-0.675 1.656,-2.049 3.822,-3.068 6.46,-2.896 2.441,0.159 4.363,1.315 5.758,3.328 0.068,0.089 0.123,0.188 0.163,0.293 0.087,0.276 -0.067,0.521 -0.355,0.569 -0.128,0.013 -0.258,0.016 -0.386,0.009 -1.319,0 -2.639,-0.012 -3.96,0.004 -1.586,0.019 -2.881,1.121 -3.197,2.692 -0.314,1.56 0.497,3.157 1.92,3.78 0.413,0.182 0.86,0.274 1.311,0.271 1.206,-0.003 2.414,-0.003 3.622,0 0.145,0 0.29,0 0.435,0.003 0.225,0.004 0.462,-0.013 0.587,0.235 0.131,0.258 -0.006,0.458 -0.145,0.662z" id="path_0"/><path fill="#000" d="m14.774,38.072c-1.788,-0.012 -3.389,1.253 -3.378,3.125 0.014,2.001 1.796,3.089 3.315,3.091 1.903,0.003 3.406,-1.34 3.415,-3.079 0.079,-1.44 -1.17,-3.122 -3.352,-3.137z" fill-opacity="0.754266" id="path_1"/></svg>