<svg id="vector" xmlns="http://www.w3.org/2000/svg" width="72" height="72" viewBox="0 0 72 72"><path fill="#000" d="M36,36m-36,0a36,36 0,1 1,72 0a36,36 0,1 1,-72 0" fill-opacity="0.5" id="path_0"/><path fill="#000" d="m36,58.908c-12.654,0 -22.908,-10.255 -22.908,-22.908 0,-12.654 10.255,-22.908 22.908,-22.908 6.324,0 12.05,2.564 16.199,6.71L61.455,10.545C54.94,4.029 45.938,-0 36,-0 16.117,-0 0,16.117 0,36c0,19.883 16.117,36 36,36 9.941,0 15.905,-3.768 15.905,-3.768l-9.917,-10.085c0,0 0.336,0.761 -5.988,0.761z" fill-opacity="0.5" id="path_1"/><path fill="#000" d="m58.908,36l-11.456,0c0,-6.324 -5.129,-11.456 -11.456,-11.456 -6.327,0 -11.453,5.129 -11.453,11.456 0,3.081 1.218,5.874 3.2,7.937l-0.009,0.009 14.182,14.182 0.003,0.003c9.782,-2.611 16.988,-11.528 16.988,-22.131z" fill-opacity="0.25" id="path_2"/><path fill="#000" d="m71.997,36l-13.092,0c0,10.603 -7.209,19.52 -16.985,22.131l10.11,10.11c11.836,-5.898 19.967,-18.119 19.967,-32.24z" fill-opacity="0.5" id="path_3"/><path fill="#000" d="M6.544,36m-2.454,0a2.454,2.454 0,1 1,4.908 0a2.454,2.454 0,1 1,-4.908 0" fill-opacity="0.75" id="path_4"/><path fill="#000" d="M36,6.544m-2.454,0a2.454,2.454 135,1 1,4.908 0a2.454,2.454 45,1 1,-4.908 0" fill-opacity="0.75" id="path_5"/><path fill="#000" d="M36,65.453m-2.454,0a2.454,2.454 0,1 1,4.908 0a2.454,2.454 0,1 1,-4.908 0" fill-opacity="0.75" id="path_6"/><path fill="#000" d="M15.137,15.172m-2.454,0a2.454,2.454 45,1 1,4.908 0a2.454,2.454 0,1 1,-4.908 0" fill-opacity="0.75" id="path_7"/><path fill="#000" d="M15.137,56.863m-2.454,0a2.454,2.454 0,1 1,4.908 0a2.454,2.454 0,1 1,-4.908 0" fill-opacity="0.75" id="path_8"/><path fill="#000" d="M56.863,56.863m-2.454,0a2.454,2.454 0,1 1,4.908 0a2.454,2.454 0,1 1,-4.908 0" fill-opacity="0.75" id="path_9"/><path fill="#000" d="M65.454,32.726L35.999,32.726c-1.807,0 -3.272,1.465 -3.272,3.272 0,1.807 1.465,3.272 3.272,3.272l29.453,0c1.807,0 3.272,-1.465 3.272,-3.272 0.003,-1.807 -1.462,-3.272 -3.269,-3.272z" fill-opacity="0.75" id="path_10"/></svg>