<?xml version="1.0" encoding="UTF-8" standalone="no"?>
<svg
   id="vector"
   width="72"
   height="72"
   viewBox="0 0 72 72"
   version="1.1"
   sodipodi:docname="google_calendar_13.svg"
   inkscape:version="1.2.1 (9c6d41e410, 2022-07-14)"
   xmlns:inkscape="http://www.inkscape.org/namespaces/inkscape"
   xmlns:sodipodi="http://sodipodi.sourceforge.net/DTD/sodipodi-0.dtd"
   xmlns="http://www.w3.org/2000/svg"
   xmlns:svg="http://www.w3.org/2000/svg">
  <defs
     id="defs14" />
  <sodipodi:namedview
     id="namedview12"
     pagecolor="#ffffff"
     bordercolor="#000000"
     borderopacity="0.25"
     inkscape:showpageshadow="2"
     inkscape:pageopacity="0.0"
     inkscape:pagecheckerboard="0"
     inkscape:deskcolor="#d1d1d1"
     showgrid="false"
     inkscape:zoom="8.1415489"
     inkscape:cx="2.2722949"
     inkscape:cy="39.30456"
     inkscape:window-width="1920"
     inkscape:window-height="1009"
     inkscape:window-x="-8"
     inkscape:window-y="-8"
     inkscape:window-maximized="1"
     inkscape:current-layer="g352" />
  <g
     id="g352">
    <path
       fill="#000"
       d="m54.948,72l17.052,-17.052 -8.526,-0 -8.526,0 -0,8.526z"
       fill-opacity="0.75"
       id="path_3" />
    <path
       fill="#000"
       d="M17.052,63.474L17.052,72L54.947,72L54.947,54.948L17.052,54.948Z"
       fill-opacity="0.5"
       id="path_4" />
    <path
       fill="#000"
       d="M5.684,-0C2.544,-0 -0,2.544 -0,5.684L-0,54.947L8.526,54.947 17.052,54.947L17.052,17.052l37.895,0l0,-8.526L54.948,-0Z"
       fill-opacity="0.75"
       id="path_5" />
    <path
       fill="#000"
       d="m-0,54.948l0,11.368c0,3.141 2.544,5.684 5.684,5.684l11.368,0l0,-17.052z"
       id="path_6" />
    <path
       fill="#000"
       d="M54.948,17.052L54.948,54.947L72,54.947L72,17.052l-8.895,0z"
       fill-opacity="0.5"
       id="path_7" />
    <path
       fill="#000"
       d="M72,17.052L72,5.684c0,-3.141 -2.544,-5.684 -5.684,-5.684l-11.368,0l0,17.052z"
       id="path_8" />
    <path
       d="M 26.369937,47.463687 V 30.268156 l -3.452514,2.513967 -2.212291,-3.385475 6.73743,-4.860335 h 3.318436 V 47.463687 Z M 43.250174,48 c -1.854678,0 -3.541759,-0.49169 -5.061453,-1.47486 -1.519483,-1.005587 -2.569692,-2.52507 -3.150838,-4.55866 l 4.156425,-1.642458 c 0.558729,2.27933 1.910615,3.418995 4.055866,3.418995 0.938547,0 1.765434,-0.27926 2.480447,-0.837989 0.715223,-0.580936 1.072626,-1.329679 1.072626,-2.24581 0,-0.983171 -0.379819,-1.75412 -1.139665,-2.312849 -0.759637,-0.558729 -1.765224,-0.837989 -3.01676,-0.837989 h -1.977653 v -3.988827 h 1.810056 c 0.916341,0 1.731914,-0.234637 2.446928,-0.703911 0.715223,-0.469273 1.072625,-1.1956 1.072625,-2.17877 0,-0.759847 -0.27926,-1.385406 -0.837989,-1.877095 -0.536312,-0.49169 -1.251326,-0.737431 -2.145251,-0.737431 -0.98317,0 -1.743017,0.268157 -2.27933,0.80447 -0.536312,0.536312 -0.905028,1.128561 -1.106145,1.776536 l -3.988827,-1.642458 c 0.268157,-0.759847 0.715224,-1.519483 1.340782,-2.27933 0.625769,-0.759846 1.441341,-1.396718 2.446928,-1.910614 C 40.434532,24.257053 41.641236,24 43.049058,24 c 1.47486,0 2.759915,0.268156 3.854748,0.804469 1.117458,0.536313 1.988967,1.273743 2.614525,2.212291 0.625767,0.916131 0.938548,1.955237 0.938548,3.117318 0,1.318366 -0.312781,2.402305 -0.938548,3.251397 -0.603352,0.849092 -1.26243,1.452444 -1.977654,1.810056 v 0.268156 c 1.05042,0.424651 1.933031,1.106145 2.648044,2.044693 0.737431,0.938547 1.106146,2.122835 1.106146,3.553073 0,1.318365 -0.335196,2.502863 -1.005587,3.553072 -0.670391,1.05021 -1.608939,1.877095 -2.815642,2.480447 C 46.266934,47.698324 44.859112,48 43.250174,48 Z"
       fill="#2f353e"
       id="path8363"
       style="fill:#000000;fill-opacity:0.75;stroke-width:2.09497" />
  </g>
</svg>
