<svg id="vector" xmlns="http://www.w3.org/2000/svg" width="72" height="72" viewBox="0 0 1905 1905"><path fill="#000" d="M130.6,698.8L1774.4,698.8A127.7,130.6 90,0 1,1905 826.6L1905,1777.3A127.7,130.6 90,0 1,1774.4 1905L130.6,1905A127.7,130.6 90,0 1,0 1777.3L0,826.6A127.7,130.6 90,0 1,130.6 698.8z" fill-opacity="0.5" id="path_0"/><path fill="#000" d="m274.8,953.7l133.6,0c11.5,0 21,9.4 21,20.9L429.3,1107.9c0,11.5 -9.4,20.9 -21,20.9l-133.6,0c-11.5,0 -21,-9.4 -21,-20.9l0,-133.3c0,-11.5 9.4,-20.9 21,-20.9zM580.2,953.7l133.6,0c11.5,0 21,9.4 21,20.9L734.8,1107.9c0,11.5 -9.4,20.9 -21,20.9L580.2,1128.9c-11.5,0 -21,-9.4 -21,-20.9l0,-133.3c0,-11.5 9.4,-20.9 21,-20.9zM885.7,953.7l133.6,0c11.5,0 21,9.4 21,20.9L1040.3,1107.9c0,11.5 -9.4,20.9 -21,20.9l-133.6,0c-11.5,0 -21,-9.4 -21,-20.9l0,-133.3c0,-11.5 9.4,-20.9 21,-20.9zM1191.2,953.7l133.6,0c11.5,0 21,9.4 21,20.9L1345.8,1107.9c0,11.5 -9.4,20.9 -21,20.9l-133.6,0c-11.5,0 -21,-9.4 -21,-20.9l0,-133.3c0,-11.5 9.4,-20.9 21,-20.9zM1496.7,953.7l133.6,0c11.5,0 21,9.4 21,20.9L1651.2,1107.9c0,11.5 -9.4,20.9 -21,20.9l-133.6,0c-11.5,0 -21,-9.4 -21,-20.9l0,-133.3c0,-11.5 9.4,-20.9 21,-20.9zM274.8,1256l133.6,0c11.5,0 21,9.4 21,20.9l0,133.3c0,11.5 -9.4,20.9 -21,20.9l-133.6,0c-11.5,0 -21,-9.4 -21,-20.9l0,-133.3c0,-11.5 9.4,-20.9 21,-20.9zM580.2,1256l133.6,0c11.5,0 21,9.4 21,20.9l0,133.3c0,11.5 -9.4,20.9 -21,20.9L580.2,1431.2c-11.5,0 -21,-9.4 -21,-20.9l0,-133.3c0,-11.5 9.4,-20.9 21,-20.9zM885.7,1256l133.6,0c11.5,0 21,9.4 21,20.9l0,133.3c0,11.5 -9.4,20.9 -21,20.9l-133.6,0c-11.5,0 -21,-9.4 -21,-20.9l0,-133.3c0,-11.5 9.4,-20.9 21,-20.9zM1191.2,1256l133.6,0c11.5,0 21,9.4 21,20.9l0,133.3c0,11.5 -9.4,20.9 -21,20.9l-133.6,0c-11.5,0 -21,-9.4 -21,-20.9l0,-133.3c0,-11.5 9.4,-20.9 21,-20.9zM1496.7,1256l133.6,0c11.5,0 21,9.4 21,20.9l0,133.3c0,11.5 -9.4,20.9 -21,20.9l-133.6,0c-11.5,0 -21,-9.4 -21,-20.9l0,-133.3c0,-11.5 9.4,-20.9 21,-20.9z" fill-opacity="0.5" id="path_1"/><path fill="#000" d="M455.4,1554.9L1446.8,1554.9A23.2,24 90,0 1,1470.8 1578.1L1470.8,1707.6A23.2,24 90,0 1,1446.8 1730.8L455.4,1730.8A23.2,24 90,0 1,431.4 1707.6L431.4,1578.1A23.2,24 90,0 1,455.4 1554.9z" fill-opacity="0.5" id="path_2"/><path fill="#000" d="m469.9,952.5l480,386.9 0.3,0.2 -2.1,-0.8 478.2,-386.9c67.3,-51.8 84.8,-76.1 84.9,-139.2l0,-673C1510,52.9 1461,2.9 1371.8,-0L528.6,-0c-89.2,2.9 -140.6,53.4 -141.8,140.4l0.6,672.4c0.1,63.1 15.3,87.9 82.5,139.7z" fill-opacity="0.5" id="path_3"/><path fill="#000" d="m957.8,279.5c54.3,-0.9 106.7,19.6 146,57L1213.3,227.3C1144.2,162.5 1052.6,126.9 957.8,128 813.4,128 681.3,209.2 616.5,337.9L744.1,436.6C774.2,343.9 860.2,280.8 957.8,279.5Z" id="path_4"/><path fill="#000" d="m616.5,337.9c-54.2,107.6 -54.2,234.5 0,342.1L744.1,581.3c-16,-46.9 -16,-97.8 0,-144.7z" id="path_5"/><path fill="#000" d="M1087.1,702C980,770.6 837.5,739.6 768.8,632.8 758.5,616.7 750.2,599.4 744.1,581.3l-127.6,98.7c64.8,128.7 196.9,209.9 341.3,209.9 93,2.5 183.4,-30.5 252.7,-92.3z" id="path_6"/><path fill="#000" d="m1317.5,439.7l-359.7,0l0,147.3l205.5,0c-8.6,47.1 -36.1,88.6 -76.2,115 -0.1,0.1 -0.2,0.1 -0.4,0.2 0.1,-0.1 0.2,-0.1 0.4,-0.2l123.4,95.6 0,-0c76,-73 117.4,-174.8 113.9,-280 0,-26.1 -2.3,-52.2 -6.9,-77.9z" id="path_7"/></svg>