<svg id="vector" xmlns="http://www.w3.org/2000/svg" width="72" height="72" viewBox="0 0 72 72"><path fill="#000" d="m34.604,0.293c0.358,-0.179 0.807,-0.358 1.255,-0.269 0.358,0 0.717,-0.09 0.986,0.09 0.807,0.179 1.524,0.627 2.061,1.165 2.42,2.42 4.839,4.839 7.259,7.17 0.269,0.269 0.538,0.448 0.717,0.807 -2.689,2.778 -5.467,5.467 -8.155,8.155 -0.896,0.896 -1.792,1.792 -2.689,2.689 -1.165,1.165 -2.33,2.33 -3.495,3.495 -5.288,5.288 -10.575,10.575 -15.863,15.952 -2.42,2.509 -4.929,5.019 -7.438,7.438 -2.689,2.689 -5.288,5.377 -7.976,7.976 0,-5.825 0,-11.651 0,-17.476 0,-1.075 0,-2.24 0,-3.316 0,-0.179 0.179,-0.358 0.179,-0.627 0.179,-0.269 0.269,-0.538 0.448,-0.807 0.358,-0.538 0.896,-0.896 1.255,-1.344C13.095,21.353 23.132,11.316 33.08,1.279c0.448,-0.358 0.896,-0.717 1.524,-0.986z" fill-opacity="0.5" id="path_0"/><path fill="#000" d="m38.726,17.5c2.689,-2.689 5.467,-5.467 8.155,-8.155 7.349,7.349 14.698,14.698 22.047,22.136 0.627,0.717 1.434,1.344 1.703,2.24 0.269,0.627 0.179,1.344 0.179,1.972 0,10.754 0,21.598 0,32.353 0.179,2.151 -1.882,4.123 -3.943,3.943 -3.854,0 -7.618,0 -11.471,0 0,-5.108 0,-10.306 0,-15.415 0,-5.646 0,-11.292 0,-17.028 -4.75,-4.75 -9.5,-9.589 -14.339,-14.339 -1.703,-1.703 -3.316,-3.316 -5.019,-5.019 0.896,-0.896 1.792,-1.792 2.689,-2.689z" fill-opacity="0.75" id="path_1"/><path fill="#000" d="m9.241,46.985c2.509,-2.509 4.929,-4.929 7.438,-7.438 0,5.646 0,11.292 0,16.938 0,5.108 0,10.306 0,15.415 -4.033,0 -8.066,0 -12.099,0 -1.703,-0.179 -3.137,-1.613 -3.406,-3.316 0,-4.571 0,-9.052 0,-13.622 2.778,-2.599 5.377,-5.288 8.066,-7.976z" fill-opacity="0.75" id="path_2"/><path fill="#000" d="m16.769,56.395c12.905,0.09 25.811,0.09 38.626,0.179 0,5.108 -0.09,10.306 -0.09,15.415 -12.905,-0.09 -25.811,-0.09 -38.716,-0.179 0.09,-5.108 0.09,-10.217 0.179,-15.415z" id="path_3"/></svg>