<svg id="vector" xmlns="http://www.w3.org/2000/svg" width="72" height="72" viewBox="0 0 72 72"><path fill="#000" d="M35.845,12.864m-12.864,0a12.864,12.864 0,1 1,25.728 0a12.864,12.864 0,1 1,-25.728 0" fill-opacity="0.75" id="path_0"/><path fill="#000" d="M35.521,72L18.012,54.01 40.165,32.73c4.989,-4.802 12.933,-4.645 17.735,0.344l0,0c4.802,4.989 4.645,12.933 -0.344,17.735z" fill-opacity="0.254957" id="path_1"/><path fill="#000" d="M53.933,54.226L35.481,71.971 14.152,50.052C9.321,45.093 9.429,37.149 14.388,32.318l0.363,-0.354C19.71,27.133 27.655,27.241 32.486,32.2Z" fill-opacity="0.2521245" id="path_2"/><path fill="#000" d="M54.179,54.039l-17.499,-17.98l-18.668,17.931l17.509,18z" id="path_3"/></svg>