<?xml version="1.0" encoding="UTF-8" standalone="no"?>
<svg
   id="vector"
   width="72"
   height="72"
   viewBox="0 0 72 72"
   version="1.1"
   sodipodi:docname="google_calendar_10.svg"
   inkscape:version="1.2.1 (9c6d41e410, 2022-07-14)"
   xmlns:inkscape="http://www.inkscape.org/namespaces/inkscape"
   xmlns:sodipodi="http://sodipodi.sourceforge.net/DTD/sodipodi-0.dtd"
   xmlns="http://www.w3.org/2000/svg"
   xmlns:svg="http://www.w3.org/2000/svg">
  <defs
     id="defs14" />
  <sodipodi:namedview
     id="namedview12"
     pagecolor="#ffffff"
     bordercolor="#000000"
     borderopacity="0.25"
     inkscape:showpageshadow="2"
     inkscape:pageopacity="0.0"
     inkscape:pagecheckerboard="0"
     inkscape:deskcolor="#d1d1d1"
     showgrid="false"
     inkscape:zoom="8.1415489"
     inkscape:cx="38.321946"
     inkscape:cy="39.30456"
     inkscape:window-width="1920"
     inkscape:window-height="1009"
     inkscape:window-x="-8"
     inkscape:window-y="-8"
     inkscape:window-maximized="1"
     inkscape:current-layer="g352" />
  <g
     id="g352">
    <path
       fill="#000"
       d="m54.948,72l17.052,-17.052 -8.526,-0 -8.526,0 -0,8.526z"
       fill-opacity="0.75"
       id="path_3" />
    <path
       fill="#000"
       d="M17.052,63.474L17.052,72L54.947,72L54.947,54.948L17.052,54.948Z"
       fill-opacity="0.5"
       id="path_4" />
    <path
       fill="#000"
       d="M5.684,-0C2.544,-0 -0,2.544 -0,5.684L-0,54.947L8.526,54.947 17.052,54.947L17.052,17.052l37.895,0l0,-8.526L54.948,-0Z"
       fill-opacity="0.75"
       id="path_5" />
    <path
       fill="#000"
       d="m-0,54.948l0,11.368c0,3.141 2.544,5.684 5.684,5.684l11.368,0l0,-17.052z"
       id="path_6" />
    <path
       fill="#000"
       d="M54.948,17.052L54.948,54.947L72,54.947L72,17.052l-8.895,0z"
       fill-opacity="0.5"
       id="path_7" />
    <path
       fill="#000"
       d="M72,17.052L72,5.684c0,-3.141 -2.544,-5.684 -5.684,-5.684l-11.368,0l0,17.052z"
       id="path_8" />
    <path
       d="M 24.710719,47.463687 V 30.268156 l -3.452513,2.513967 -2.212291,-3.385475 6.73743,-4.860335 h 3.318436 V 47.463687 Z M 43.333974,48 C 41.367423,48 39.657926,47.474791 38.205482,46.424581 36.775245,45.374372 35.669099,43.944134 34.887046,42.134078 34.104993,40.324022 33.713862,38.27933 33.713862,36 c 0,-2.27933 0.391131,-4.324022 1.173184,-6.134078 0.782053,-1.810056 1.888199,-3.240294 3.318436,-4.290503 C 39.657926,24.525209 41.367423,24 43.333974,24 c 1.96655,0 3.664734,0.525209 5.094972,1.575419 1.452444,1.050209 2.569902,2.480447 3.351955,4.290503 0.782053,1.810056 1.173184,3.854748 1.173184,6.134078 0,2.27933 -0.391131,4.324022 -1.173184,6.134078 -0.782053,1.810056 -1.899511,3.240294 -3.351955,4.290503 C 46.998708,47.474791 45.300524,48 43.333974,48 Z m 0,-4.122905 c 1.095042,0 2.033589,-0.346299 2.815642,-1.039106 0.782053,-0.692807 1.374302,-1.631355 1.776536,-2.815643 0.424651,-1.184287 0.636872,-2.525069 0.636872,-4.022346 0,-1.519483 -0.212221,-2.871578 -0.636872,-4.055866 -0.402234,-1.184288 -0.994483,-2.111732 -1.776536,-2.782123 -0.782053,-0.692807 -1.7206,-1.039106 -2.815642,-1.039106 -1.072626,0 -2.00007,0.346299 -2.782123,1.039106 -0.782053,0.670391 -1.385405,1.597835 -1.810056,2.782123 C 38.33956,33.128422 38.138443,34.480517 38.138443,36 c 0,1.497277 0.201117,2.838059 0.603352,4.022346 0.424651,1.184288 1.028003,2.122836 1.810056,2.815643 0.782053,0.692807 1.709497,1.039106 2.782123,1.039106 z"
       fill="#2f353e"
       id="path7988"
       style="fill:#000000;fill-opacity:0.75;stroke-width:2.09497" />
  </g>
</svg>
