<?xml version="1.0" encoding="UTF-8" standalone="no"?>
<svg
   id="vector"
   width="72"
   height="72"
   viewBox="0 0 72 72"
   version="1.1"
   sodipodi:docname="google_calendar_9.svg"
   inkscape:version="1.2.1 (9c6d41e410, 2022-07-14)"
   xmlns:inkscape="http://www.inkscape.org/namespaces/inkscape"
   xmlns:sodipodi="http://sodipodi.sourceforge.net/DTD/sodipodi-0.dtd"
   xmlns="http://www.w3.org/2000/svg"
   xmlns:svg="http://www.w3.org/2000/svg">
  <defs
     id="defs14" />
  <sodipodi:namedview
     id="namedview12"
     pagecolor="#ffffff"
     bordercolor="#000000"
     borderopacity="0.25"
     inkscape:showpageshadow="2"
     inkscape:pageopacity="0.0"
     inkscape:pagecheckerboard="0"
     inkscape:deskcolor="#d1d1d1"
     showgrid="false"
     inkscape:zoom="8.1415489"
     inkscape:cx="-10.685927"
     inkscape:cy="39.30456"
     inkscape:window-width="1920"
     inkscape:window-height="1009"
     inkscape:window-x="-8"
     inkscape:window-y="-8"
     inkscape:window-maximized="1"
     inkscape:current-layer="g352" />
  <g
     id="g352">
    <path
       fill="#000"
       d="m54.948,72l17.052,-17.052 -8.526,-0 -8.526,0 -0,8.526z"
       fill-opacity="0.75"
       id="path_3" />
    <path
       fill="#000"
       d="M17.052,63.474L17.052,72L54.947,72L54.947,54.948L17.052,54.948Z"
       fill-opacity="0.5"
       id="path_4" />
    <path
       fill="#000"
       d="M5.684,-0C2.544,-0 -0,2.544 -0,5.684L-0,54.947L8.526,54.947 17.052,54.947L17.052,17.052l37.895,0l0,-8.526L54.948,-0Z"
       fill-opacity="0.75"
       id="path_5" />
    <path
       fill="#000"
       d="m-0,54.948l0,11.368c0,3.141 2.544,5.684 5.684,5.684l11.368,0l0,-17.052z"
       id="path_6" />
    <path
       fill="#000"
       d="M54.948,17.052L54.948,54.947L72,54.947L72,17.052l-8.895,0z"
       fill-opacity="0.5"
       id="path_7" />
    <path
       fill="#000"
       d="M72,17.052L72,5.684c0,-3.141 -2.544,-5.684 -5.684,-5.684l-11.368,0l0,17.052z"
       id="path_8" />
    <path
       d="m 35.383335,48.000001 -3.4,-2.33334 c 0.77771,-1.11104 1.55542,-2.21104 2.33333,-3.3 0.8,-1.111038 1.58875,-2.211038 2.36667,-3.299996 l -0.2,-0.2 c -0.51125,0.222291 -1.08896,0.333333 -1.73333,0.333333 -1.15563,0 -2.25563,-0.311042 -3.3,-0.933332 -1.04459,-0.622293 -1.9,-1.48896 -2.56667,-2.600001 -0.66667,-1.133333 -1,-2.422291 -1,-3.866667 0,-1.533332 0.37771,-2.877707 1.13333,-4.033332 0.75542,-1.177709 1.74438,-2.100001 2.96667,-2.766667 1.22208,-0.666667 2.53333,-1 3.93333,-1 1.31105,0 2.48875,0.244375 3.53334,0.733333 1.06666,0.466667 1.95541,1.1 2.66666,1.9 0.64438,0.711042 1.13334,1.522292 1.46667,2.433334 0.35542,0.911041 0.53333,1.877707 0.53333,2.9 0,1.533333 -0.31125,2.933333 -0.93333,4.2 -0.6,1.266666 -1.36667,2.577708 -2.3,3.933333 -0.91125,1.311042 -1.83333,2.633333 -2.76667,3.966663 -0.91125,1.31105 -1.82229,2.6223 -2.73333,3.933339 z m 0.63333,-12.433336 c 0.66667,0 1.28875,-0.155625 1.86667,-0.466667 0.57771,-0.333333 1.04437,-0.777708 1.4,-1.333333 0.37771,-0.577709 0.56667,-1.244375 0.56667,-2 0,-0.755625 -0.18896,-1.411042 -0.56667,-1.966667 -0.35563,-0.555625 -0.82229,-0.988958 -1.4,-1.3 -0.57792,-0.333333 -1.2,-0.5 -1.86667,-0.5 -0.66666,0 -1.3,0.166667 -1.9,0.5 -0.57791,0.311042 -1.05562,0.744375 -1.43333,1.3 -0.35563,0.555625 -0.53333,1.211042 -0.53333,1.966667 0,0.755625 0.1777,1.422291 0.53333,2 0.37771,0.555625 0.85542,1 1.43333,1.333333 0.6,0.311042 1.23334,0.466667 1.9,0.466667 z"
       fill="#2f353e"
       id="path1343"
       style="fill:#000000;fill-opacity:1;stroke-width:2.08333" />
  </g>
</svg>
