<svg id="vector" xmlns="http://www.w3.org/2000/svg" width="72" height="72" viewBox="0 0 72 72"><path fill="#000" d="M17.529,31.08C18.616,27.012 21.016,23.416 24.357,20.85 27.696,18.286 31.789,16.894 36,16.89l30.489,0C63.42,11.984 59.214,7.89 54.223,4.957 49.235,2.024 43.609,0.341 37.83,0.047 32.051,-0.248 26.285,0.857 21.022,3.27 15.761,5.68 11.159,9.325 7.61,13.896Z" fill-opacity="0.75" id="path_0"/><path fill="#000" d="M40.949,54.51C36.883,55.617 32.563,55.342 28.669,53.731 24.776,52.117 21.529,49.259 19.435,45.601L19.417,45.611 4.16,19.182c-2.713,5.115 -4.152,10.808 -4.194,16.598 -0.04,5.787 1.313,11.501 3.952,16.654 2.636,5.155 6.478,9.595 11.198,12.946 4.72,3.351 10.18,5.515 15.913,6.306z" id="path_1"/><path fill="#000" d="m49.559,22.522c2.973,2.977 4.881,6.854 5.425,11.028 0.543,4.174 -0.306,8.41 -2.42,12.051L52.586,45.613 37.351,72c5.782,-0.206 11.429,-1.804 16.462,-4.658 5.031,-2.854 9.301,-6.88 12.446,-11.737 3.143,-4.856 5.071,-10.4 5.615,-16.157 0.546,-5.761 -0.306,-11.567 -2.484,-16.926z" fill-opacity="0.5" id="path_2"/><path fill="#000" d="m36,49.547c7.463,0 13.513,-6.05 13.513,-13.513 0,-7.463 -6.049,-13.513 -13.513,-13.513 -7.463,0 -13.513,6.05 -13.513,13.513 0,7.463 6.05,13.513 13.513,13.513z" fill-opacity="0.25" id="path_3"/></svg>