<svg id="vector" xmlns="http://www.w3.org/2000/svg" width="72" height="72" viewBox="0 0 72 72"><path fill="#000" d="m53.73,56.511l0,7.514c0,4.447 -3.604,7.974 -7.974,7.974 -4.371,0 -7.974,-3.604 -7.974,-7.974L37.782,44.243Z" id="path_0"/><path fill="#000" d="m53.73,8.051l0,48.46L37.782,44.319L37.782,24.997l13.035,-10.812c1.994,-1.534 2.914,-3.834 2.914,-6.134z" fill-opacity="0.75" id="path_1"/><path fill="#000" d="m53.73,7.744c0,0.077 0,0.153 0,0.307 0,2.3 -0.997,4.601 -2.914,6.134l-13.035,10.812L37.782,8.051c0,-2.607 1.227,-4.984 3.22,-6.441 0.153,-0.077 0.307,-0.23 0.46,-0.307 0.077,-0.077 0.153,-0.077 0.23,-0.153 0.153,-0.077 0.23,-0.153 0.383,-0.23l0.383,-0.153 0.307,-0.153c0.153,-0.077 0.23,-0.077 0.383,-0.153 0.153,-0.077 0.23,-0.077 0.383,-0.153 0.23,-0.077 0.46,-0.153 0.69,-0.153 0.077,0 0.153,0 0.23,-0.077 0.077,0 0.077,0 0.153,0 0.077,0 0.153,0 0.307,-0.077 0.077,0 0.23,0 0.307,0 0.077,0 0.153,0 0.307,0 0.153,0 0.23,0 0.383,0l0,0c0.307,0 0.537,0 0.843,0.077 0.153,0 0.307,0 0.46,0.077 0.153,0 0.307,0.077 0.46,0.077 0.153,0 0.307,0.077 0.383,0.077 0.077,0 0.23,0.077 0.383,0.077 0.23,0.077 0.46,0.153 0.69,0.23 0.077,0.077 0.23,0.077 0.307,0.153 0.153,0.077 0.307,0.153 0.383,0.23 0.23,0.077 0.383,0.23 0.537,0.383 0,0 0.077,0 0.077,0.077 0.23,0.153 0.383,0.307 0.613,0.46 0.077,0.077 0.153,0.153 0.307,0.23l0,0c0.077,0.077 0.153,0.153 0.307,0.23 0.153,0.077 0.153,0.153 0.23,0.307 0.153,0.153 0.307,0.383 0.46,0.613 0.077,0.153 0.23,0.307 0.307,0.46 0.077,0.077 0.077,0.153 0.153,0.23 0.077,0.153 0.153,0.23 0.23,0.383 0.077,0.077 0.153,0.23 0.153,0.383 0.077,0.077 0.077,0.23 0.153,0.307 0.077,0.153 0.077,0.23 0.153,0.383 0.077,0.153 0.077,0.23 0.153,0.383 0.077,0.153 0.077,0.383 0.153,0.537 0,0.077 0.077,0.153 0.077,0.23 0,0.077 0.077,0.23 0.077,0.307 0,0.077 0,0.153 0,0.307 0,0.077 0,0.23 0,0.307 0,0.077 0,0.153 0,0.307 -0.23,-0.153 -0.23,-0.077 -0.23,-0.077z" fill-opacity="0.5" id="path_2"/><path fill="#000" d="m40.695,1.84c0.077,-0.077 0.23,-0.153 0.307,-0.23 -1.917,1.457 -3.22,3.757 -3.22,6.441l0,16.946l-6.748,5.597c-1.457,1.227 -3.297,1.84 -5.061,1.84 -2.3,0 -4.601,-0.997 -6.134,-2.914 -2.76,-3.374 -2.3,-8.435 1.073,-11.272z" fill-opacity="0.25" id="path_3"/></svg>