<?xml version="1.0" encoding="UTF-8" standalone="no"?>
<svg
   id="vector"
   width="72"
   height="72"
   viewBox="0 0 72 72"
   version="1.1"
   sodipodi:docname="google_calendar_3.svg"
   inkscape:version="1.2.1 (9c6d41e410, 2022-07-14)"
   xmlns:inkscape="http://www.inkscape.org/namespaces/inkscape"
   xmlns:sodipodi="http://sodipodi.sourceforge.net/DTD/sodipodi-0.dtd"
   xmlns="http://www.w3.org/2000/svg"
   xmlns:svg="http://www.w3.org/2000/svg">
  <defs
     id="defs14" />
  <sodipodi:namedview
     id="namedview12"
     pagecolor="#ffffff"
     bordercolor="#000000"
     borderopacity="0.25"
     inkscape:showpageshadow="2"
     inkscape:pageopacity="0.0"
     inkscape:pagecheckerboard="0"
     inkscape:deskcolor="#d1d1d1"
     showgrid="false"
     inkscape:zoom="8.1415489"
     inkscape:cx="-10.685927"
     inkscape:cy="39.30456"
     inkscape:window-width="1920"
     inkscape:window-height="1009"
     inkscape:window-x="-8"
     inkscape:window-y="-8"
     inkscape:window-maximized="1"
     inkscape:current-layer="g352" />
  <g
     id="g352">
    <path
       fill="#000000"
       d="m 31.3775,46.097981 c -1.416,-0.957 -2.397,-2.354 -2.932,-4.202 l 3.288,-1.355 c 0.298,1.137 0.819,2.018 1.563,2.643 0.739,0.625 1.639,0.933 2.691,0.933 1.075,0 1.999,-0.327 2.771,-0.981 0.772,-0.654 1.161,-1.488 1.161,-2.496 0,-1.032 -0.408,-1.876 -1.222,-2.529 -0.815,-0.653 -1.838,-0.981 -3.06,-0.981 l -1.901,10e-4 v -3.254 h 1.705 c 1.052,0 1.938,-0.284 2.658,-0.852 0.72,-0.568 1.08,-1.345 1.08,-2.335 0,-0.881 -0.322,-1.582 -0.966,-2.108 -0.644,-0.526 -1.459,-0.791 -2.449,-0.791 -0.966,0 -1.734,0.256 -2.302,0.772 -0.568,0.516 -0.981,1.151 -1.241,1.899 l -3.255,-1.354 c 0.431,-1.222 1.222,-2.302 2.382,-3.235 1.161,-0.933 2.643,-1.402 4.443,-1.402 1.331,0 2.529,0.256 3.591,0.772 1.061,0.516 1.895,1.232 2.496,2.141 0.602,0.914 0.9,1.938 0.9,3.074 0,1.161 -0.279,2.141 -0.838,2.946 -0.559,0.805 -1.246,1.421 -2.061,1.852 v 0.194 c 1.075,0.45 1.952,1.137 2.643,2.061 0.687,0.924 1.032,2.028 1.032,3.316 0,1.288 -0.327,2.439 -0.981,3.448 -0.654,1.009 -1.558,1.805 -2.705,2.382 -1.151,0.578 -2.444,0.872 -3.879,0.872 -1.662,0.005 -3.197,-0.474 -4.613,-1.431 z"
       fill-opacity="0.75"
       id="path_1"
       style="fill:#000000;fill-opacity:1" />
    <path
       fill="#000"
       d="m54.948,72l17.052,-17.052 -8.526,-0 -8.526,0 -0,8.526z"
       fill-opacity="0.75"
       id="path_3" />
    <path
       fill="#000"
       d="M17.052,63.474L17.052,72L54.947,72L54.947,54.948L17.052,54.948Z"
       fill-opacity="0.5"
       id="path_4" />
    <path
       fill="#000"
       d="M5.684,-0C2.544,-0 -0,2.544 -0,5.684L-0,54.947L8.526,54.947 17.052,54.947L17.052,17.052l37.895,0l0,-8.526L54.948,-0Z"
       fill-opacity="0.75"
       id="path_5" />
    <path
       fill="#000"
       d="m-0,54.948l0,11.368c0,3.141 2.544,5.684 5.684,5.684l11.368,0l0,-17.052z"
       id="path_6" />
    <path
       fill="#000"
       d="M54.948,17.052L54.948,54.947L72,54.947L72,17.052l-8.895,0z"
       fill-opacity="0.5"
       id="path_7" />
    <path
       fill="#000"
       d="M72,17.052L72,5.684c0,-3.141 -2.544,-5.684 -5.684,-5.684l-11.368,0l0,17.052z"
       id="path_8" />
  </g>
</svg>
