<?xml version="1.0" encoding="UTF-8" standalone="no"?>
<svg
   id="vector"
   width="72"
   height="72"
   viewBox="0 0 72 72"
   version="1.1"
   sodipodi:docname="google_calendar_24.svg"
   inkscape:version="1.2.1 (9c6d41e410, 2022-07-14)"
   xmlns:inkscape="http://www.inkscape.org/namespaces/inkscape"
   xmlns:sodipodi="http://sodipodi.sourceforge.net/DTD/sodipodi-0.dtd"
   xmlns="http://www.w3.org/2000/svg"
   xmlns:svg="http://www.w3.org/2000/svg">
  <defs
     id="defs14" />
  <sodipodi:namedview
     id="namedview12"
     pagecolor="#ffffff"
     bordercolor="#000000"
     borderopacity="0.25"
     inkscape:showpageshadow="2"
     inkscape:pageopacity="0.0"
     inkscape:pagecheckerboard="0"
     inkscape:deskcolor="#d1d1d1"
     showgrid="false"
     inkscape:zoom="8.1415489"
     inkscape:cx="2.2722949"
     inkscape:cy="39.30456"
     inkscape:window-width="1920"
     inkscape:window-height="1009"
     inkscape:window-x="-8"
     inkscape:window-y="-8"
     inkscape:window-maximized="1"
     inkscape:current-layer="g352" />
  <g
     id="g352">
    <path
       fill="#000"
       d="m54.948,72l17.052,-17.052 -8.526,-0 -8.526,0 -0,8.526z"
       fill-opacity="0.75"
       id="path_3" />
    <path
       fill="#000"
       d="M17.052,63.474L17.052,72L54.947,72L54.947,54.948L17.052,54.948Z"
       fill-opacity="0.5"
       id="path_4" />
    <path
       fill="#000"
       d="M5.684,-0C2.544,-0 -0,2.544 -0,5.684L-0,54.947L8.526,54.947 17.052,54.947L17.052,17.052l37.895,0l0,-8.526L54.948,-0Z"
       fill-opacity="0.75"
       id="path_5" />
    <path
       fill="#000"
       d="m-0,54.948l0,11.368c0,3.141 2.544,5.684 5.684,5.684l11.368,0l0,-17.052z"
       id="path_6" />
    <path
       fill="#000"
       d="M54.948,17.052L54.948,54.947L72,54.947L72,17.052l-8.895,0z"
       fill-opacity="0.5"
       id="path_7" />
    <path
       fill="#000"
       d="M72,17.052L72,5.684c0,-3.141 -2.544,-5.684 -5.684,-5.684l-11.368,0l0,17.052z"
       id="path_8" />
    <path
       d="m 20.647679,46 v -3.4 c 0.03804,-0.03804 0.266607,-0.266607 0.685714,-0.685714 0.418929,-0.419107 0.933214,-0.933393 1.542857,-1.542857 0.628572,-0.628572 1.266607,-1.266608 1.914286,-1.914286 0.666607,-0.666607 1.266607,-1.27625 1.8,-1.828572 0.533214,-0.552321 0.92375,-0.952321 1.171428,-1.2 0.666608,-0.72375 1.133215,-1.333393 1.4,-1.828571 0.266608,-0.495179 0.4,-1.066607 0.4,-1.714286 0,-0.628571 -0.238214,-1.180893 -0.714285,-1.657143 -0.47625,-0.47625 -1.142857,-0.714285 -2,-0.714285 -0.857143,0 -1.523929,0.247678 -2,0.742857 -0.47625,0.495178 -0.809643,1.047678 -1,1.657143 l -3.371429,-1.4 c 0.209464,-0.704822 0.580893,-1.4 1.114286,-2.085715 0.552321,-0.685714 1.266607,-1.257143 2.142857,-1.714285 C 24.628572,26.238036 25.685714,26 26.904822,26 c 1.333214,0 2.476071,0.257143 3.428571,0.771428 0.971429,0.514286 1.714286,1.2 2.228571,2.057143 0.533215,0.857143 0.8,1.819107 0.8,2.885715 0,1.219107 -0.295357,2.342857 -0.885714,3.371428 -0.571428,1.028572 -1.304821,1.971429 -2.2,2.828572 -0.342857,0.342857 -0.742857,0.733392 -1.2,1.171428 -0.438214,0.438036 -0.885714,0.885715 -1.342857,1.342857 -0.438214,0.457143 -0.847679,0.87625 -1.228571,1.257143 -0.381072,0.361965 -0.67625,0.647679 -0.885715,0.857143 l 0.08571,0.171429 h 7.914285 V 46 Z m 15.704643,-3.6 v -3.028571 l 8.685714,-12.914286 h 4.057143 V 38.914286 H 51.52375 V 42.4 H 49.095179 V 46 h -3.742857 v -3.6 z m 4.142857,-3.485714 h 4.857143 V 32.028571 H 45.12375 Z"
       fill="#2f353e"
       id="path12591"
       style="stroke-width:1;fill:#000000;fill-opacity:1" />
  </g>
</svg>
