<svg id="vector" xmlns="http://www.w3.org/2000/svg" width="72" height="72" viewBox="0 0 72 72"><path fill="#000" d="M18,16.39C27.951,16.39 36,24.439 36,34.39l0,1.683L1.683,36.073c-0.878,0 -1.61,-0.732 -1.683,-1.683 0.073,-9.951 8.122,-18 18,-18z" fill-opacity="0.25" id="path_0"/><path fill="#000" d="M55.61,18C55.61,27.951 47.561,36 37.61,36L36,36L36,1.683c0,-0.878 0.732,-1.683 1.61,-1.683 9.951,0.073 18,8.122 18,18z" fill-opacity="0.5" id="path_1"/><path fill="#000" d="M54,55.61C44.049,55.61 36,47.561 36,37.683L36,36l34.317,0c0.878,0 1.683,0.732 1.683,1.61 -0.073,9.951 -8.122,18 -18,18z" fill-opacity="0.75" id="path_2"/><path fill="#000" d="M16.39,54C16.39,44.049 24.439,36 34.39,36L36,36l0,34.317c0,0.878 -0.732,1.61 -1.683,1.683C24.439,71.927 16.39,63.878 16.39,54Z" id="path_3"/></svg>