<svg id="vector" xmlns="http://www.w3.org/2000/svg" width="72" height="72" viewBox="0 0 72 72"><path fill="#000" d="M17.474,31.08C18.561,27.012 20.961,23.416 24.302,20.85 27.641,18.286 31.733,16.894 35.945,16.89l30.489,0C63.365,11.984 59.159,7.89 54.168,4.957 49.18,2.024 43.554,0.341 37.775,0.047 31.995,-0.248 26.23,0.857 20.967,3.27 15.706,5.68 11.104,9.325 7.554,13.896Z" fill-opacity="0.75" id="path_0"/><path fill="#000" d="m49.457,36.034c0,7.463 -6.049,13.513 -13.513,13.513 -7.463,0 -13.513,-6.05 -13.513,-13.513 0,-7.463 6.05,-13.513 13.513,-13.513 7.463,0 13.513,6.05 13.513,13.513zM39.51,36c1.988,0 3.6,-1.612 3.6,-3.6 0,-1.988 -1.612,-3.6 -3.6,-3.6 -1.988,0 -3.6,1.612 -3.6,3.6 0,1.988 1.612,3.6 3.6,3.6z" fill-rule="evenodd" fill-opacity="0.25" id="path_1"/><path fill="#000" d="M54.37,30.83C53.488,27.705 51.819,24.84 49.504,22.522l19.831,0c2.178,5.359 3.031,11.165 2.484,16.926 -0.545,5.757 -2.472,11.301 -5.615,16.157 -3.145,4.857 -7.415,8.883 -12.446,11.737 -5.033,2.855 -10.68,4.452 -16.462,4.658l15.234,-26.387 -0.022,-0.012c0.815,-1.403 1.441,-2.894 1.873,-4.437L64.71,36Z" fill-opacity="0.5" id="path_2"/><path fill="#000" d="m28.614,53.731c3.894,1.612 8.214,1.886 12.279,0.779l-9.919,17.176C25.241,70.895 19.782,68.731 15.061,65.38 10.341,62.029 6.499,57.588 3.863,52.434 1.693,48.195 0.392,43.577 0.021,38.851l15.438,0l3.903,6.76 0.018,-0.01c2.094,3.658 5.341,6.516 9.235,8.13z" id="path_3"/><path fill="#000" d="M12.207,33.218L4.105,19.182C1.794,23.54 0.407,28.318 0.021,33.218Z" fill-opacity="0.75" id="path_4"/></svg>