<?xml version="1.0" encoding="UTF-8" standalone="no"?>
<svg
   id="vector"
   width="72"
   height="72"
   viewBox="0 0 72 72"
   version="1.1"
   sodipodi:docname="google_calendar_27.svg"
   inkscape:version="1.2.1 (9c6d41e410, 2022-07-14)"
   xmlns:inkscape="http://www.inkscape.org/namespaces/inkscape"
   xmlns:sodipodi="http://sodipodi.sourceforge.net/DTD/sodipodi-0.dtd"
   xmlns="http://www.w3.org/2000/svg"
   xmlns:svg="http://www.w3.org/2000/svg">
  <defs
     id="defs14" />
  <sodipodi:namedview
     id="namedview12"
     pagecolor="#ffffff"
     bordercolor="#000000"
     borderopacity="0.25"
     inkscape:showpageshadow="2"
     inkscape:pageopacity="0.0"
     inkscape:pagecheckerboard="0"
     inkscape:deskcolor="#d1d1d1"
     showgrid="false"
     inkscape:zoom="8.1415489"
     inkscape:cx="2.2722949"
     inkscape:cy="39.30456"
     inkscape:window-width="1920"
     inkscape:window-height="1009"
     inkscape:window-x="-8"
     inkscape:window-y="-8"
     inkscape:window-maximized="1"
     inkscape:current-layer="g352" />
  <g
     id="g352">
    <path
       fill="#000"
       d="m54.948,72l17.052,-17.052 -8.526,-0 -8.526,0 -0,8.526z"
       fill-opacity="0.75"
       id="path_3" />
    <path
       fill="#000"
       d="M17.052,63.474L17.052,72L54.947,72L54.947,54.948L17.052,54.948Z"
       fill-opacity="0.5"
       id="path_4" />
    <path
       fill="#000"
       d="M5.684,-0C2.544,-0 -0,2.544 -0,5.684L-0,54.947L8.526,54.947 17.052,54.947L17.052,17.052l37.895,0l0,-8.526L54.948,-0Z"
       fill-opacity="0.75"
       id="path_5" />
    <path
       fill="#000"
       d="m-0,54.948l0,11.368c0,3.141 2.544,5.684 5.684,5.684l11.368,0l0,-17.052z"
       id="path_6" />
    <path
       fill="#000"
       d="M54.948,17.052L54.948,54.947L72,54.947L72,17.052l-8.895,0z"
       fill-opacity="0.5"
       id="path_7" />
    <path
       fill="#000"
       d="M72,17.052L72,5.684c0,-3.141 -2.544,-5.684 -5.684,-5.684l-11.368,0l0,17.052z"
       id="path_8" />
    <path
       d="M 21.912447,45.553072 V 42.22905 c 0.03736,-0.03719 0.260823,-0.260649 0.670391,-0.670391 0.409742,-0.409742 0.912535,-0.912535 1.50838,-1.50838 0.614526,-0.614525 1.238478,-1.238303 1.871509,-1.871509 0.651885,-0.651711 1.238478,-1.24773 1.759775,-1.787709 0.521475,-0.539979 0.903283,-0.931041 1.145252,-1.173185 0.651885,-0.707576 1.108066,-1.303596 1.368715,-1.787709 0.260824,-0.484113 0.391061,-1.042773 0.391061,-1.675978 0,-0.614525 -0.232716,-1.154504 -0.698324,-1.620112 -0.465433,-0.465607 -1.117318,-0.698324 -1.955307,-0.698324 -0.837989,0 -1.4897,0.242144 -1.955307,0.726257 -0.465433,0.484113 -0.791376,1.024267 -0.977654,1.620112 l -3.296089,-1.368715 c 0.204958,-0.689071 0.568086,-1.368715 1.089385,-2.039106 0.540154,-0.670391 1.238478,-1.229051 2.094972,-1.675978 0.875349,-0.465608 1.908869,-0.698324 3.100559,-0.698324 1.303596,0 2.420915,0.251397 3.351955,0.75419 0.949721,0.502793 1.675978,1.173184 2.178771,2.011173 0.521474,0.837989 0.782123,1.778457 0.782123,2.821229 0,1.191865 -0.288582,2.290503 -0.865921,3.29609 -0.55866,1.005586 -1.275489,1.927374 -2.150839,2.765363 -0.335195,0.335196 -0.726257,0.717004 -1.173184,1.145251 -0.428247,0.428249 -0.865922,0.865922 -1.312849,1.31285 -0.428247,0.446927 -0.828562,0.856669 -1.201117,1.22905 -0.372382,0.353876 -0.660964,0.633205 -0.865922,0.837989 l 0.0838,0.167598 h 7.73743 v 3.21229 z M 41.260736,46 38.18811,44.296089 46.149005,30.050278 46.037272,29.882682 H 37.266323 V 26.446927 H 50.25515 v 3.603352 c -1.489874,2.644379 -2.988827,5.29801 -4.497207,7.960893 C 44.249563,40.674058 42.750436,43.337116 41.260736,46 Z"
       fill="#2f353e"
       id="path16382"
       style="stroke-width:1;fill:#000000;fill-opacity:1" />
  </g>
</svg>
