<svg id="vector" xmlns="http://www.w3.org/2000/svg" width="72" height="72" viewBox="0 0 72 72"><path fill="#000" d="m22.5,36.016c0.018,-7.44 6.055,-13.465 13.5,-13.465 7.445,0 13.481,6.025 13.5,13.465z" stroke-width="3.59656" fill-rule="evenodd" fill-opacity="0.25" id="path_0"/><path fill="#000" d="M72,35.939C71.993,31.332 71.1,26.76 69.358,22.473H49.546c2.97,2.974 4.876,6.848 5.42,11.018 0.106,0.815 0.159,1.633 0.16,2.448z" stroke-width="3.59656" fill-rule="evenodd" fill-opacity="0.5" id="path_1"/><path fill="#000" d="m17.502,31.05c1.086,-4.064 3.484,-7.656 6.822,-10.22 3.336,-2.562 7.424,-3.952 11.632,-3.956h30.46C63.349,11.972 59.147,7.882 54.161,4.952 49.177,2.022 43.557,0.34 37.784,0.046 32.01,-0.248 26.25,0.856 20.992,3.266 15.736,5.674 11.138,9.316 7.592,13.882Z" stroke-width="3.59656" fill-rule="evenodd" fill-opacity="0.75" id="path_2"/><path fill="#000" d="M0,36.051L0.001,35.832c0.042,-5.784 1.48,-11.472 4.19,-16.582l9.699,16.801z" stroke-width="3.59656" fill-rule="evenodd" id="path_3"/><path fill="#000" d="m30.999,71.635l-0.027,0.047C25.175,70.882 19.654,68.694 14.881,65.305 10.107,61.917 6.223,57.427 3.557,52.214 1.792,48.768 0.596,45.075 0,41.275h72c-0.787,5.033 -2.626,9.854 -5.403,14.146 -3.18,4.911 -7.498,8.982 -12.585,11.869C48.922,70.176 43.211,71.791 37.365,72l0.029,-0.05c-0.463,0.017 -0.928,0.027 -1.395,0.027 -1.696,0 -3.365,-0.116 -4.999,-0.341zM31.636,51.122v13.761h2.239V61.115l-0.2,-0.928h0.073c0.073,0.097 0.243,0.237 0.51,0.419 0.267,0.17 0.613,0.316 1.038,0.437 0.437,0.134 0.934,0.2 1.493,0.2 0.728,0 1.402,-0.176 2.02,-0.528 0.619,-0.364 1.117,-0.892 1.493,-1.584 0.388,-0.692 0.582,-1.535 0.582,-2.53 0,-0.643 -0.127,-1.195 -0.382,-1.656 -0.242,-0.461 -0.552,-0.825 -0.928,-1.092 -0.364,-0.267 -0.716,-0.431 -1.056,-0.491v-0.073c0.255,-0.097 0.504,-0.273 0.746,-0.528 0.255,-0.267 0.467,-0.613 0.637,-1.038 0.17,-0.437 0.255,-0.94 0.255,-1.511 0,-0.449 -0.085,-0.892 -0.255,-1.329 -0.158,-0.437 -0.412,-0.831 -0.764,-1.183 -0.34,-0.364 -0.77,-0.649 -1.292,-0.855 -0.522,-0.218 -1.147,-0.328 -1.875,-0.328 -0.983,0 -1.796,0.176 -2.439,0.528 -0.643,0.352 -1.122,0.868 -1.438,1.547 -0.303,0.68 -0.455,1.523 -0.455,2.53z" stroke-width="3.6404" fill-rule="evenodd" id="path_4"/></svg>