<svg id="vector" xmlns="http://www.w3.org/2000/svg" width="72" height="72" viewBox="0 0 72 72"><path fill="#000" d="m44.368,38.93l8.42,8.359 12.39,-7.157c1.657,-0.829 2.718,-2.507 2.755,-4.36 -0.067,-1.791 -1.122,-3.398 -2.739,-4.171C64.164,31.046 55.339,25.925 52.028,23.998L52.018,23.992 11.908,0.834C10.268,-0.204 8.197,-0.278 6.487,0.639 6.324,0.75 6.168,0.871 6.02,1.002Z" fill-opacity="0.5" id="path_0"/><path fill="#000" d="M65.194,31.602C64.231,31.082 56.496,26.596 52.786,24.438L44.287,32.876 5.842,71.016c0.157,0.143 0.325,0.274 0.501,0.392C7.027,71.8 7.802,72.004 8.59,72 9.547,71.988 10.483,71.726 11.307,71.239 12.579,70.501 52.019,47.734 52.019,47.734l13.159,-7.601c1.657,-0.829 2.718,-2.507 2.755,-4.36 -0.067,-1.791 -1.122,-3.398 -2.739,-4.171z" fill-opacity="0.75" id="path_1"/><path fill="#000" d="M41.271,35.867L6.026,1.008C4.764,1.984 4.006,3.486 4.071,5.104L4.071,67.244c-0.042,1.481 0.643,2.852 1.777,3.767z" fill-opacity="0.25" id="path_2"/><path fill="#000" d="M65.194,31.602C62.758,30.29 54.164,25.24 52.786,24.438l-8.499,8.437 -3.016,2.992 3.097,3.063 8.42,8.359 12.39,-7.157c1.657,-0.829 2.718,-2.507 2.755,-4.36 -0.067,-1.791 -1.122,-3.398 -2.739,-4.171z" id="path_3"/></svg>