<svg id="vector" xmlns="http://www.w3.org/2000/svg" width="72" height="72" viewBox="0 0 72 72"><path fill="#000" d="m36.706,57.741c-3.072,-2.517 -6.811,-5.959 -11.104,-12.141 -4.294,-6.181 -6.181,-10.919 -7.477,-14.695 -2.739,-8.106 -3.923,-12.104 -5.959,-19.063 -0.222,-0.962 -0.296,0.746 -0.222,-0.216 -9.809,11.363 -8.439,26.867 2.11,42.154 10.549,15.25 24.753,21.764 38.67,16.323 -0.888,-0.222 0.565,0.482 -0.212,-0.036 -5.885,-4.442 -9.18,-6.922 -15.805,-12.326z" id="path_0"/><path fill="#000" d="m18.547,1.189c-2.184,1.555 -3.664,4.442 -3.035,7.181 0,0.037 0,0.074 0.037,0.111 1.962,6.811 3.146,10.771 5.922,18.914 3.22,-1.74 9.29,-4.923 9.29,-4.923 3.035,-1.629 4.146,-5.441 2.554,-8.476l-5.589,-10.66c-1.592,-3.035 -5.293,-4.22 -8.291,-2.628z" fill-opacity="0.5" id="path_1"/><path fill="#000" d="m65.098,57.613l-7.958,-8.957c-2.295,-2.591 -6.218,-2.776 -8.772,-0.481 0,0 -5.034,4.701 -7.773,7.181 6.589,5.404 9.883,7.884 15.509,12.104 0.037,0.037 0.074,0.037 0.111,0.074 2.332,1.518 5.515,1.073 7.699,-0.444 0.185,-0.148 0.37,-0.259 0.555,-0.407l0.222,-0.222c2.517,-2.369 2.665,-6.292 0.407,-8.846z" fill-opacity="0.5" id="path_2"/><path fill="#000" d="m40.325,54.95c-3.072,-2.517 -6.811,-5.959 -11.104,-12.141 -4.294,-6.181 -6.181,-10.919 -7.477,-14.695 -2.739,-8.106 -3.923,-12.104 -5.959,-19.063 -0.222,-0.962 -0.296,-1.999 -0.222,-2.961 -9.809,11.363 -8.439,29.611 2.11,44.899 10.549,15.25 27.02,22.838 40.938,17.397 -0.888,-0.222 -1.703,-0.592 -2.48,-1.11 -5.885,-4.442 -9.18,-6.922 -15.805,-12.326z" fill-opacity="0.5" id="path_3"/></svg>