<svg id="vector" xmlns="http://www.w3.org/2000/svg" width="72" height="72" viewBox="0 0 72 72"><path fill="#000" d="m8.986,36c0,1.051 0.15,2.101 0,3.152 -0.3,2.326 -2.326,3.902 -4.803,3.827 -2.251,-0.15 -4.052,-1.951 -4.127,-4.352 -0.075,-1.726 -0.075,-3.452 0,-5.178 0.15,-2.551 2.176,-4.427 4.727,-4.277 2.401,0.075 4.277,2.101 4.277,4.577 0,0.675 0,1.426 -0.075,2.251 0,0 0,0 0,0z" fill-opacity="0.5" id="path_0"/><path fill="#000" d="m62.939,36c0,-0.825 0,-1.576 0,-2.401 0,-2.551 1.951,-4.502 4.352,-4.577 2.551,-0.075 4.577,1.876 4.652,4.427 0.075,1.651 0.075,3.377 0,5.028 -0.075,2.551 -2.101,4.427 -4.652,4.352 -2.401,-0.075 -4.277,-2.026 -4.352,-4.502 0,-0.75 0,-1.501 0,-2.326z" fill-opacity="0.5" id="path_1"/><path fill="#000" d="m47.481,45.23c0,-2.701 0,-5.328 0,-8.029 0,-2.251 1.726,-4.127 3.827,-4.352 2.401,-0.3 4.427,1.126 4.953,3.377 0.075,0.3 0.15,0.675 0.15,0.976 0,5.403 0,10.806 0,16.133 0,2.251 -1.726,4.127 -3.902,4.352 -2.401,0.225 -4.427,-1.126 -4.953,-3.377 -0.075,-0.45 -0.15,-0.9 -0.15,-1.351 0.075,-2.626 0.075,-5.178 0.075,-7.729 0,0 0,0 0,0z" fill-opacity="0.75" id="path_2"/><path fill="#000" d="m24.519,26.845c0,2.701 0,5.328 0,8.029 0,2.251 -1.726,4.127 -3.902,4.352 -2.326,0.225 -4.427,-1.126 -4.953,-3.377 -0.075,-0.375 -0.15,-0.675 -0.15,-1.051 0,-5.328 0,-10.581 0,-15.908 0,-3.227 3.227,-5.403 6.153,-4.127 1.726,0.75 2.776,2.101 2.776,4.052 0.15,2.626 0.075,5.328 0.075,8.029z" fill-opacity="0.75" id="path_3"/><path fill="#000" d="m56.411,21.367c0,0.825 0,1.651 0,2.551 -0.075,2.476 -2.026,4.352 -4.502,4.352 -2.401,0 -4.352,-1.876 -4.427,-4.352 -0.075,-1.726 -0.075,-3.452 0,-5.178 0.075,-2.476 2.026,-4.277 4.427,-4.352 2.476,0 4.427,1.876 4.502,4.277 0,0.9 0,1.801 0,2.701 0,0 0,0 0,0z" fill-opacity="0.75" id="path_4"/><path fill="#000" d="m24.519,50.633c0,0.9 0,1.726 0,2.626 -0.075,2.476 -2.026,4.352 -4.427,4.427 -2.476,0 -4.427,-1.876 -4.502,-4.352 0,-1.726 0,-3.452 0,-5.103 0.075,-2.476 2.026,-4.352 4.502,-4.352 2.401,0 4.352,1.876 4.427,4.352 0.075,0.75 0,1.576 0,2.401z" fill-opacity="0.75" id="path_5"/><path fill="#000" d="m31.498,36c0,-4.352 0,-8.705 0,-12.982 0,-2.476 1.576,-4.202 3.977,-4.502 2.326,-0.3 4.727,1.576 4.878,3.902 0,0.225 0,0.45 0,0.675 0,8.629 0,17.259 0,25.888 0,2.401 -1.501,4.202 -3.752,4.577C33.974,54.009 31.498,51.983 31.423,49.282 31.348,45.68 31.423,42.003 31.423,38.401 31.498,37.576 31.498,36.825 31.498,36Z" id="path_6"/><path fill="#000" d="m40.502,6.96c0,0.825 0,1.651 0,2.551 -0.075,2.476 -2.026,4.427 -4.427,4.427 -2.401,0 -4.427,-1.951 -4.502,-4.352 0,-1.726 0,-3.452 0,-5.103 0.075,-2.476 2.101,-4.427 4.502,-4.427 2.401,0 4.352,1.951 4.427,4.352 0,0.825 0,1.726 0,2.551z" id="path_7"/><path fill="#000" d="m31.498,64.965c0,-0.825 0,-1.651 0,-2.476 0.075,-2.551 2.026,-4.502 4.502,-4.427 2.401,0 4.427,1.951 4.427,4.427 0,1.651 0,3.377 0,5.028 -0.075,2.476 -2.026,4.427 -4.427,4.427 -2.401,0 -4.427,-1.951 -4.502,-4.502 0,-0.75 0,-1.651 0,-2.476z" id="path_8"/></svg>