<?xml version="1.0" encoding="UTF-8" standalone="no"?>
<svg
   id="vector"
   width="72"
   height="72"
   viewBox="0 0 72 72"
   version="1.1"
   sodipodi:docname="google_calendar_18.svg"
   inkscape:version="1.2.1 (9c6d41e410, 2022-07-14)"
   xmlns:inkscape="http://www.inkscape.org/namespaces/inkscape"
   xmlns:sodipodi="http://sodipodi.sourceforge.net/DTD/sodipodi-0.dtd"
   xmlns="http://www.w3.org/2000/svg"
   xmlns:svg="http://www.w3.org/2000/svg">
  <defs
     id="defs14" />
  <sodipodi:namedview
     id="namedview12"
     pagecolor="#ffffff"
     bordercolor="#000000"
     borderopacity="0.25"
     inkscape:showpageshadow="2"
     inkscape:pageopacity="0.0"
     inkscape:pagecheckerboard="0"
     inkscape:deskcolor="#d1d1d1"
     showgrid="false"
     inkscape:zoom="8.1415489"
     inkscape:cx="2.2722949"
     inkscape:cy="39.30456"
     inkscape:window-width="1920"
     inkscape:window-height="1009"
     inkscape:window-x="-8"
     inkscape:window-y="-8"
     inkscape:window-maximized="1"
     inkscape:current-layer="g352" />
  <g
     id="g352">
    <path
       fill="#000"
       d="m54.948,72l17.052,-17.052 -8.526,-0 -8.526,0 -0,8.526z"
       fill-opacity="0.75"
       id="path_3" />
    <path
       fill="#000"
       d="M17.052,63.474L17.052,72L54.947,72L54.947,54.948L17.052,54.948Z"
       fill-opacity="0.5"
       id="path_4" />
    <path
       fill="#000"
       d="M5.684,-0C2.544,-0 -0,2.544 -0,5.684L-0,54.947L8.526,54.947 17.052,54.947L17.052,17.052l37.895,0l0,-8.526L54.948,-0Z"
       fill-opacity="0.75"
       id="path_5" />
    <path
       fill="#000"
       d="m-0,54.948l0,11.368c0,3.141 2.544,5.684 5.684,5.684l11.368,0l0,-17.052z"
       id="path_6" />
    <path
       fill="#000"
       d="M54.948,17.052L54.948,54.947L72,54.947L72,17.052l-8.895,0z"
       fill-opacity="0.5"
       id="path_7" />
    <path
       fill="#000"
       d="M72,17.052L72,5.684c0,-3.141 -2.544,-5.684 -5.684,-5.684l-11.368,0l0,17.052z"
       id="path_8" />
    <path
       d="M 27.737518,45.553074 V 31.223463 l -2.877095,2.094972 -1.843576,-2.821229 5.614525,-4.050279 h 2.765364 v 19.106146 z m 14.318261,0.446927 c -1.359462,0 -2.560581,-0.251397 -3.603352,-0.75419 -1.042772,-0.521473 -1.862257,-1.21037 -2.458101,-2.067039 -0.57734,-0.875175 -0.865921,-1.852829 -0.865921,-2.932961 0,-1.117319 0.298009,-2.067039 0.893853,-2.849162 0.595845,-0.800803 1.266237,-1.405901 2.011174,-1.815643 V 35.357542 C 37.437587,34.9478 36.90686,34.407822 36.441253,33.737431 35.994326,33.04836 35.770862,32.266237 35.770862,31.391062 c 0,-1.024267 0.270077,-1.936627 0.810056,-2.73743 0.539979,-0.819309 1.284916,-1.461768 2.234637,-1.927375 C 39.765275,26.242143 40.845408,26 42.055778,26 c 1.21037,0 2.28125,0.242143 3.212291,0.726257 0.94972,0.465607 1.694658,1.108066 2.234638,1.927375 0.558659,0.800803 0.837988,1.713163 0.837988,2.73743 0,0.875175 -0.232716,1.657298 -0.698325,2.346369 -0.446927,0.670391 -0.977652,1.210369 -1.592177,1.620111 v 0.223464 c 0.763441,0.409742 1.44326,1.01484 2.039105,1.815643 0.596019,0.782123 0.893855,1.731843 0.893855,2.849162 0,1.080133 -0.297836,2.057786 -0.893855,2.932961 -0.57734,0.856668 -1.387395,1.545566 -2.430168,2.067039 -1.024267,0.502793 -2.225384,0.75419 -3.603351,0.75419 z m 0,-12.011174 c 0.763443,0 1.405901,-0.214211 1.927374,-0.642459 0.53998,-0.446926 0.810055,-1.024266 0.810055,-1.731843 0,-0.726257 -0.270076,-1.294169 -0.810055,-1.703911 -0.521473,-0.428247 -1.163932,-0.642458 -1.927374,-0.642458 -0.782123,0 -1.443261,0.214211 -1.983241,0.642458 -0.521473,0.409742 -0.782122,0.977654 -0.782122,1.703911 0,0.707577 0.260649,1.284916 0.782122,1.731843 0.53998,0.428248 1.201118,0.642459 1.983241,0.642459 z m 0,8.631286 c 0.94972,0 1.722591,-0.251397 2.318435,-0.75419 0.614525,-0.502794 0.921788,-1.163933 0.921788,-1.983241 0,-0.782123 -0.307263,-1.424582 -0.921788,-1.927374 -0.614525,-0.502793 -1.387394,-0.75419 -2.318435,-0.75419 -0.931041,0 -1.713164,0.251396 -2.34637,0.75419 -0.614525,0.502792 -0.921787,1.145251 -0.921787,1.927374 0,0.819308 0.307262,1.480447 0.921787,1.983241 0.614526,0.502792 1.396648,0.75419 2.34637,0.75419 z"
       fill="#2f353e"
       id="path9861"
       style="stroke-width:1;fill:#000000;fill-opacity:1" />
  </g>
</svg>
