<svg id="vector" xmlns="http://www.w3.org/2000/svg" width="72" height="72" viewBox="0 0 72 72"><path fill="#000" d="m36.71,14.318c5.116,-0.086 10.059,1.848 13.759,5.383L60.792,9.377C54.277,3.258 45.647,-0.101 36.71,0.002 23.101,-0.003 10.654,7.67 4.546,19.831L16.571,29.156C19.406,20.402 27.509,14.432 36.71,14.318Z" fill-opacity="0.75" id="path_0"/><path fill="#000" d="m4.546,19.831c-5.104,10.171 -5.104,22.156 0,32.328L16.571,42.833c-1.505,-4.435 -1.505,-9.242 0,-13.677z" id="path_1"/><path fill="#000" d="M48.899,54.237C38.806,60.715 25.373,57.785 18.895,47.692 17.922,46.175 17.141,44.543 16.571,42.833l-12.025,9.325c6.109,12.161 18.556,19.834 32.164,19.829 8.762,0.238 17.283,-2.882 23.82,-8.72z" fill-opacity="0.5" id="path_2"/><path fill="#000" d="m70.608,29.451l-33.898,0l0,13.922l19.37,0c-0.81,4.45 -3.405,8.375 -7.182,10.863 -0.012,0.008 -0.023,0.013 -0.035,0.02 0.012,-0.007 0.023,-0.013 0.035,-0.02l11.632,9.031 0,-0c7.164,-6.9 11.064,-16.514 10.732,-26.454 0.002,-2.469 -0.217,-4.932 -0.654,-7.362z" fill-opacity="0.25" id="path_3"/></svg>