<?xml version="1.0" encoding="UTF-8" standalone="no"?>
<svg
   id="vector"
   width="72"
   height="72"
   viewBox="0 0 72 72"
   version="1.1"
   sodipodi:docname="google_calendar_16.svg"
   inkscape:version="1.2.1 (9c6d41e410, 2022-07-14)"
   xmlns:inkscape="http://www.inkscape.org/namespaces/inkscape"
   xmlns:sodipodi="http://sodipodi.sourceforge.net/DTD/sodipodi-0.dtd"
   xmlns="http://www.w3.org/2000/svg"
   xmlns:svg="http://www.w3.org/2000/svg">
  <defs
     id="defs14" />
  <sodipodi:namedview
     id="namedview12"
     pagecolor="#ffffff"
     bordercolor="#000000"
     borderopacity="0.25"
     inkscape:showpageshadow="2"
     inkscape:pageopacity="0.0"
     inkscape:pagecheckerboard="0"
     inkscape:deskcolor="#d1d1d1"
     showgrid="false"
     inkscape:zoom="8.1415489"
     inkscape:cx="2.2722949"
     inkscape:cy="39.30456"
     inkscape:window-width="1920"
     inkscape:window-height="1009"
     inkscape:window-x="-8"
     inkscape:window-y="-8"
     inkscape:window-maximized="1"
     inkscape:current-layer="g352" />
  <g
     id="g352">
    <path
       fill="#000"
       d="m54.948,72l17.052,-17.052 -8.526,-0 -8.526,0 -0,8.526z"
       fill-opacity="0.75"
       id="path_3" />
    <path
       fill="#000"
       d="M17.052,63.474L17.052,72L54.947,72L54.947,54.948L17.052,54.948Z"
       fill-opacity="0.5"
       id="path_4" />
    <path
       fill="#000"
       d="M5.684,-0C2.544,-0 -0,2.544 -0,5.684L-0,54.947L8.526,54.947 17.052,54.947L17.052,17.052l37.895,0l0,-8.526L54.948,-0Z"
       fill-opacity="0.75"
       id="path_5" />
    <path
       fill="#000"
       d="m-0,54.948l0,11.368c0,3.141 2.544,5.684 5.684,5.684l11.368,0l0,-17.052z"
       id="path_6" />
    <path
       fill="#000"
       d="M54.948,17.052L54.948,54.947L72,54.947L72,17.052l-8.895,0z"
       fill-opacity="0.5"
       id="path_7" />
    <path
       fill="#000"
       d="M72,17.052L72,5.684c0,-3.141 -2.544,-5.684 -5.684,-5.684l-11.368,0l0,17.052z"
       id="path_8" />
    <path
       d="m 27.840625,45.555556 v -14.25 l -2.861111,2.083333 -1.833334,-2.805555 5.583334,-4.027778 h 2.75 v 19 z M 42.159375,46 c -1.055556,0 -2.018577,-0.185243 -2.888889,-0.555555 -0.85191,-0.388889 -1.574132,-0.898091 -2.166667,-1.527778 -1.185243,-1.240799 -1.777777,-2.759202 -1.777777,-4.555556 0,-1.277778 0.25,-2.444444 0.75,-3.5 0.518403,-1.055555 1.166666,-2.14809 1.944445,-3.277777 0.759201,-1.092535 1.518402,-2.185244 2.277777,-3.277778 C 41.076042,28.194445 41.844445,27.092535 42.60382,26 l 2.833333,1.944445 c -0.648264,0.907465 -1.305555,1.824132 -1.972222,2.75 -0.648264,0.907465 -1.296354,1.824132 -1.944444,2.75 l 0.166666,0.166666 c 0.425868,-0.185243 0.907292,-0.277777 1.444445,-0.277777 0.962847,0 1.879514,0.259201 2.75,0.777777 0.870312,0.518577 1.583333,1.240799 2.138889,2.166667 0.555555,0.925868 0.833333,2 0.833333,3.222222 0,1.259202 -0.314931,2.379688 -0.944444,3.361111 -0.629688,0.981424 -1.45382,1.75 -2.472223,2.305556 C 44.418577,45.722222 43.326042,46 42.159375,46 Z m -0.08333,-3.333333 c 0.57396,0 1.101737,-0.129688 1.583334,-0.388889 0.481423,-0.277778 0.870312,-0.64809 1.166666,-1.111111 0.314757,-0.481424 0.472223,-1.027778 0.472223,-1.638889 0,-0.629688 -0.157466,-1.175868 -0.472223,-1.638889 -0.296354,-0.481424 -0.694443,-0.85191 -1.194443,-1.111111 -0.481597,-0.277778 -1,-0.416667 -1.555557,-0.416667 -0.537152,0 -1.055555,0.138889 -1.555555,0.416667 -0.481597,0.259201 -0.879688,0.629687 -1.194445,1.111111 -0.296354,0.463021 -0.444443,1.009201 -0.444443,1.638889 0,0.611111 0.14809,1.157465 0.444443,1.638889 0.314757,0.463021 0.712848,0.833333 1.194445,1.111111 0.481423,0.259201 1,0.388889 1.555555,0.388889 z"
       fill="#2f353e"
       id="path9611"
       style="stroke-width:1;fill:#000000;fill-opacity:1" />
  </g>
</svg>
