<?xml version="1.0" encoding="UTF-8" standalone="no"?>
<svg
   id="vector"
   width="72"
   height="72"
   viewBox="0 0 72 72"
   version="1.1"
   sodipodi:docname="google_calendar_20.svg"
   inkscape:version="1.2.1 (9c6d41e410, 2022-07-14)"
   xmlns:inkscape="http://www.inkscape.org/namespaces/inkscape"
   xmlns:sodipodi="http://sodipodi.sourceforge.net/DTD/sodipodi-0.dtd"
   xmlns="http://www.w3.org/2000/svg"
   xmlns:svg="http://www.w3.org/2000/svg">
  <defs
     id="defs14" />
  <sodipodi:namedview
     id="namedview12"
     pagecolor="#ffffff"
     bordercolor="#000000"
     borderopacity="0.25"
     inkscape:showpageshadow="2"
     inkscape:pageopacity="0.0"
     inkscape:pagecheckerboard="0"
     inkscape:deskcolor="#d1d1d1"
     showgrid="false"
     inkscape:zoom="8.1415489"
     inkscape:cx="2.2722949"
     inkscape:cy="39.30456"
     inkscape:window-width="1920"
     inkscape:window-height="1009"
     inkscape:window-x="-8"
     inkscape:window-y="-8"
     inkscape:window-maximized="1"
     inkscape:current-layer="g352" />
  <g
     id="g352">
    <path
       fill="#000"
       d="m54.948,72l17.052,-17.052 -8.526,-0 -8.526,0 -0,8.526z"
       fill-opacity="0.75"
       id="path_3" />
    <path
       fill="#000"
       d="M17.052,63.474L17.052,72L54.947,72L54.947,54.948L17.052,54.948Z"
       fill-opacity="0.5"
       id="path_4" />
    <path
       fill="#000"
       d="M5.684,-0C2.544,-0 -0,2.544 -0,5.684L-0,54.947L8.526,54.947 17.052,54.947L17.052,17.052l37.895,0l0,-8.526L54.948,-0Z"
       fill-opacity="0.75"
       id="path_5" />
    <path
       fill="#000"
       d="m-0,54.948l0,11.368c0,3.141 2.544,5.684 5.684,5.684l11.368,0l0,-17.052z"
       id="path_6" />
    <path
       fill="#000"
       d="M54.948,17.052L54.948,54.947L72,54.947L72,17.052l-8.895,0z"
       fill-opacity="0.5"
       id="path_7" />
    <path
       fill="#000"
       d="M72,17.052L72,5.684c0,-3.141 -2.544,-5.684 -5.684,-5.684l-11.368,0l0,17.052z"
       id="path_8" />
    <path
       d="m 21.900812,44.597766 v -2.99162 c 0.03362,-0.03347 0.234741,-0.234584 0.603351,-0.603353 0.368769,-0.368766 0.821282,-0.821281 1.357542,-1.357542 0.553073,-0.553072 1.114631,-1.114472 1.684358,-1.684356 0.586697,-0.58654 1.114629,-1.122957 1.583799,-1.608939 0.469326,-0.485982 0.812954,-0.837936 1.030725,-1.055867 0.586699,-0.63682 0.997261,-1.173236 1.231846,-1.608938 0.23474,-0.435702 0.351954,-0.938495 0.351954,-1.508381 0,-0.553071 -0.209444,-1.039053 -0.628491,-1.4581 -0.418891,-0.419046 -1.005588,-0.628492 -1.759776,-0.628492 -0.754191,0 -1.34073,0.21793 -1.759778,0.653632 -0.41889,0.435701 -0.712237,0.92184 -0.879888,1.4581 l -2.966481,-1.231842 c 0.184463,-0.620165 0.511279,-1.231844 0.980448,-1.835196 0.486137,-0.603353 1.114629,-1.106146 1.885475,-1.50838 C 25.40371,27.209445 26.333878,27 27.406399,27 c 1.173236,0 2.178823,0.226257 3.016759,0.678771 0.854749,0.452514 1.50838,1.055865 1.960894,1.810056 0.469326,0.75419 0.703911,1.600611 0.703911,2.539105 0,1.072679 -0.259725,2.061453 -0.77933,2.966481 -0.502794,0.905029 -1.147941,1.734637 -1.935754,2.488827 -0.301675,0.301677 -0.653632,0.645304 -1.055866,1.030727 -0.385423,0.385421 -0.77933,0.77933 -1.181565,1.181562 -0.385423,0.402237 -0.745704,0.771003 -1.081006,1.106147 -0.335142,0.318489 -0.594866,0.569885 -0.779329,0.754189 l 0.07542,0.150838 h 6.963688 v 2.891062 z M 43.034943,45 C 41.56003,45 40.277907,44.606093 39.188574,43.818436 38.115896,43.030778 37.286287,41.9581 36.699748,40.600558 36.11305,39.243016 35.819859,37.709497 35.819859,36 c 0,-1.709497 0.293191,-3.243016 0.879889,-4.600558 0.586539,-1.357542 1.416148,-2.43022 2.488826,-3.217878 C 40.277907,27.393907 41.56003,27 43.034943,27 c 1.474755,0 2.748551,0.393906 3.821229,1.181564 1.089333,0.787658 1.92727,1.860336 2.513966,3.217878 0.58654,1.357542 0.879889,2.891061 0.879889,4.600558 0,1.709497 -0.293349,3.243017 -0.879889,4.600558 -0.586696,1.357542 -1.424633,2.43022 -2.513966,3.217878 C 45.783494,44.606093 44.509698,45 43.034943,45 Z m 0,-3.092179 c 0.821124,0 1.525034,-0.259724 2.111731,-0.77933 0.586541,-0.519606 1.030727,-1.223516 1.332403,-2.111733 0.318331,-0.888215 0.477654,-1.893802 0.477654,-3.016759 0,-1.139612 -0.159323,-2.153683 -0.477654,-3.041899 -0.301676,-0.888217 -0.745862,-1.583798 -1.332403,-2.086592 -0.586697,-0.519606 -1.290607,-0.77933 -2.111731,-0.77933 -0.804469,0 -1.500052,0.259724 -2.086592,0.77933 -0.586696,0.502794 -1.039211,1.198377 -1.357542,2.086592 -0.301677,0.888216 -0.452514,1.902287 -0.452514,3.041899 0,1.122957 0.150837,2.128544 0.452514,3.016759 0.318331,0.888217 0.770846,1.592127 1.357542,2.111733 0.58654,0.519606 1.282123,0.77933 2.086592,0.77933 z"
       fill="#2f353e"
       id="path10111"
       style="stroke-width:0.999999;fill:#000000;fill-opacity:1" />
  </g>
</svg>
