<?xml version="1.0" encoding="UTF-8" standalone="no"?>
<svg
   id="vector"
   width="72"
   height="72"
   viewBox="0 0 72 72"
   version="1.1"
   sodipodi:docname="google_calendar_13.svg"
   inkscape:version="1.2.1 (9c6d41e410, 2022-07-14)"
   xmlns:inkscape="http://www.inkscape.org/namespaces/inkscape"
   xmlns:sodipodi="http://sodipodi.sourceforge.net/DTD/sodipodi-0.dtd"
   xmlns="http://www.w3.org/2000/svg"
   xmlns:svg="http://www.w3.org/2000/svg">
  <defs
     id="defs14" />
  <sodipodi:namedview
     id="namedview12"
     pagecolor="#ffffff"
     bordercolor="#000000"
     borderopacity="0.25"
     inkscape:showpageshadow="2"
     inkscape:pageopacity="0.0"
     inkscape:pagecheckerboard="0"
     inkscape:deskcolor="#d1d1d1"
     showgrid="false"
     inkscape:zoom="8.1415489"
     inkscape:cx="-25.547964"
     inkscape:cy="39.30456"
     inkscape:window-width="1920"
     inkscape:window-height="1009"
     inkscape:window-x="-8"
     inkscape:window-y="-8"
     inkscape:window-maximized="1"
     inkscape:current-layer="g352" />
  <g
     id="g352">
    <path
       fill="#000"
       d="m54.948,72l17.052,-17.052 -8.526,-0 -8.526,0 -0,8.526z"
       fill-opacity="0.75"
       id="path_3" />
    <path
       fill="#000"
       d="M17.052,63.474L17.052,72L54.947,72L54.947,54.948L17.052,54.948Z"
       fill-opacity="0.5"
       id="path_4" />
    <path
       fill="#000"
       d="M5.684,-0C2.544,-0 -0,2.544 -0,5.684L-0,54.947L8.526,54.947 17.052,54.947L17.052,17.052l37.895,0l0,-8.526L54.948,-0Z"
       fill-opacity="0.75"
       id="path_5" />
    <path
       fill="#000"
       d="m-0,54.948l0,11.368c0,3.141 2.544,5.684 5.684,5.684l11.368,0l0,-17.052z"
       id="path_6" />
    <path
       fill="#000"
       d="M54.948,17.052L54.948,54.947L72,54.947L72,17.052l-8.895,0z"
       fill-opacity="0.5"
       id="path_7" />
    <path
       fill="#000"
       d="M72,17.052L72,5.684c0,-3.141 -2.544,-5.684 -5.684,-5.684l-11.368,0l0,17.052z"
       id="path_8" />
    <path
       d="M 27.974948,45.553072 V 31.223463 l -2.877095,2.094973 -1.843576,-2.821229 5.614525,-4.05028 h 2.765363 V 45.553072 Z M 42.041812,46 c -1.545565,0 -2.951466,-0.409742 -4.217878,-1.22905 -1.266235,-0.837989 -2.14141,-2.104225 -2.625698,-3.798883 l 3.463688,-1.368715 c 0.465607,1.899441 1.592179,2.849162 3.379888,2.849162 0.782122,0 1.471195,-0.232717 2.067039,-0.698324 0.596019,-0.484113 0.893855,-1.108066 0.893855,-1.871508 0,-0.81931 -0.316516,-1.461767 -0.949721,-1.927375 -0.633031,-0.465607 -1.47102,-0.698324 -2.513967,-0.698324 h -1.648044 v -3.324022 h 1.50838 c 0.763618,0 1.443262,-0.195531 2.039107,-0.586593 0.596019,-0.391061 0.893854,-0.996333 0.893854,-1.815641 0,-0.633206 -0.232717,-1.154505 -0.698324,-1.564246 -0.446927,-0.409742 -1.042772,-0.614526 -1.787709,-0.614526 -0.819309,0 -1.452514,0.223464 -1.899442,0.670392 -0.446927,0.446926 -0.75419,0.940467 -0.921787,1.480446 L 35.70103,30.134078 c 0.223464,-0.633206 0.59602,-1.266236 1.117319,-1.899441 0.521474,-0.633205 1.201117,-1.163932 2.039106,-1.592179 C 39.695443,26.214211 40.70103,26 41.874215,26 c 1.22905,0 2.299929,0.223463 3.21229,0.670391 0.931215,0.446927 1.657473,1.061452 2.178771,1.843576 0.521472,0.763442 0.782123,1.629364 0.782123,2.597765 0,1.098638 -0.260651,2.00192 -0.782123,2.709497 -0.502793,0.707577 -1.052025,1.21037 -1.648045,1.50838 v 0.223463 c 0.87535,0.353876 1.610859,0.921788 2.206703,1.703911 0.614526,0.782123 0.921789,1.769029 0.921789,2.960894 0,1.098638 -0.27933,2.08572 -0.83799,2.960894 -0.558659,0.875175 -1.340782,1.564246 -2.346368,2.067039 C 44.555778,45.748603 43.382593,46 42.041812,46 Z"
       fill="#2f353e"
       id="path8363"
       style="fill:#000000;fill-opacity:1;stroke-width:2.09497" />
  </g>
</svg>
