<svg id="vector" xmlns="http://www.w3.org/2000/svg" width="72" height="72" viewBox="0 0 72 72"><path fill="#000" d="M59.106,28.282L38.965,28.282l0,-5.271l20.141,0c0.565,0 1.035,0.471 1.035,1.035l0,3.2c0,0.565 -0.471,1.035 -1.035,1.035z" id="path_0"/><path fill="#000" d="M59.106,48.423L38.965,48.423l0,-5.271l20.141,0c0.565,0 1.035,0.471 1.035,1.035l0,3.2c0,0.565 -0.471,1.035 -1.035,1.035z" id="path_1"/><path fill="#000" d="M62.306,38.353L38.965,38.353L38.965,33.082L62.306,33.082c0.565,0 1.035,0.471 1.035,1.035l0,3.2c0,0.565 -0.471,1.035 -1.035,1.035z" id="path_2"/><path fill="#000" d="m20.988,33.553l0,4.8l6.871,0c-0.565,2.918 -3.106,4.988 -6.871,4.988 -4.141,0 -7.529,-3.482 -7.529,-7.718 0,-4.141 3.388,-7.718 7.529,-7.718 1.882,0 3.576,0.659 4.894,1.882l0,0l3.671,-3.671C27.388,24.047 24.471,22.824 21.082,22.824 14.024,22.824 8.377,28.471 8.377,35.529 8.377,42.588 14.024,48.235 21.082,48.235 28.329,48.423 33.129,43.247 33.129,36 33.129,35.153 33.035,34.4 32.941,33.553Z" id="path_3"/><path fill="#000" d="m72,61.412c0,1.318 -1.035,2.353 -2.353,2.353L2.353,63.765c-1.318,0 -2.353,-1.035 -2.353,-2.353L0,10.588c0,-1.318 1.035,-2.353 2.353,-2.353l67.2,0c1.318,0 2.353,1.035 2.353,2.353l0,50.823z" fill-opacity="0.5" id="path_4"/></svg>