<svg id="vector" xmlns="http://www.w3.org/2000/svg" width="72" height="72" viewBox="0 0 72 72"><path fill="#000" d="M21.966,23.53m-21.966,0a21.966,21.966 135,1 1,43.932 0a21.966,21.966 0,1 1,-43.932 0" fill-opacity="0.75" id="path_0"/><path fill="#000" d="m72,25.665c0,2.441 -1.983,4.5 -4.5,4.5 -2.441,0 -4.5,-1.983 -4.5,-4.5 0,-2.441 1.983,-4.5 4.5,-4.5 2.517,0.076 4.5,2.059 4.5,4.5z" fill-opacity="0.5" id="path_1"/><path fill="#000" d="m63.992,36.572c0,4.958 -3.966,8.924 -8.924,8.924 -4.958,0 -8.924,-3.966 -8.924,-8.924 0,-4.958 3.966,-8.924 8.924,-8.924 4.881,0 8.924,3.966 8.924,8.924z" fill-opacity="0.75" id="path_2"/><path fill="#000" d="m65.746,59.682c0,5.949 -4.805,10.754 -10.754,10.754 -5.949,0 -10.754,-4.805 -10.754,-10.754 0,-5.949 4.805,-10.754 10.754,-10.754 5.949,0 10.754,4.805 10.754,10.754z" id="path_3"/></svg>