<?xml version="1.0" encoding="UTF-8" standalone="no"?>
<svg
   id="vector"
   width="72"
   height="72"
   viewBox="0 0 72 72"
   version="1.1"
   sodipodi:docname="google_calendar_6.svg"
   inkscape:version="1.2.1 (9c6d41e410, 2022-07-14)"
   xmlns:inkscape="http://www.inkscape.org/namespaces/inkscape"
   xmlns:sodipodi="http://sodipodi.sourceforge.net/DTD/sodipodi-0.dtd"
   xmlns="http://www.w3.org/2000/svg"
   xmlns:svg="http://www.w3.org/2000/svg">
  <defs
     id="defs14" />
  <sodipodi:namedview
     id="namedview12"
     pagecolor="#ffffff"
     bordercolor="#000000"
     borderopacity="0.25"
     inkscape:showpageshadow="2"
     inkscape:pageopacity="0.0"
     inkscape:pagecheckerboard="0"
     inkscape:deskcolor="#d1d1d1"
     showgrid="false"
     inkscape:zoom="8.1415489"
     inkscape:cx="2.2722949"
     inkscape:cy="39.30456"
     inkscape:window-width="1920"
     inkscape:window-height="1009"
     inkscape:window-x="-8"
     inkscape:window-y="-8"
     inkscape:window-maximized="1"
     inkscape:current-layer="g352" />
  <g
     id="g352">
    <path
       fill="#000"
       d="m54.948,72l17.052,-17.052 -8.526,-0 -8.526,0 -0,8.526z"
       fill-opacity="0.75"
       id="path_3" />
    <path
       fill="#000"
       d="M17.052,63.474L17.052,72L54.947,72L54.947,54.948L17.052,54.948Z"
       fill-opacity="0.5"
       id="path_4" />
    <path
       fill="#000"
       d="M5.684,-0C2.544,-0 -0,2.544 -0,5.684L-0,54.947L8.526,54.947 17.052,54.947L17.052,17.052l37.895,0l0,-8.526L54.948,-0Z"
       fill-opacity="0.75"
       id="path_5" />
    <path
       fill="#000"
       d="m-0,54.948l0,11.368c0,3.141 2.544,5.684 5.684,5.684l11.368,0l0,-17.052z"
       id="path_6" />
    <path
       fill="#000"
       d="M54.948,17.052L54.948,54.947L72,54.947L72,17.052l-8.895,0z"
       fill-opacity="0.5"
       id="path_7" />
    <path
       fill="#000"
       d="M72,17.052L72,5.684c0,-3.141 -2.544,-5.684 -5.684,-5.684l-11.368,0l0,17.052z"
       id="path_8" />
    <path
       d="m 36.083334,47.999999 c -1.266667,0 -2.422291,-0.22229 -3.466667,-0.666661 -1.02229,-0.466669 -1.888957,-1.07771 -2.6,-1.833339 -1.422291,-1.488961 -2.133333,-3.311041 -2.133333,-5.466661 0,-1.533337 0.3,-2.933336 0.9,-4.200003 0.622083,-1.266666 1.4,-2.577708 2.333333,-3.933333 0.911042,-1.311042 1.822084,-2.622292 2.733334,-3.933334 0.933333,-1.333334 1.855416,-2.655625 2.766665,-3.966667 l 3.4,2.333333 c -0.777915,1.088959 -1.566665,2.188959 -2.366666,3.3 -0.777917,1.088959 -1.555625,2.188959 -2.333334,3.3 l 0.2,0.200001 c 0.511042,-0.222291 1.08875,-0.333334 1.733334,-0.333334 1.155416,0 2.255416,0.311042 3.3,0.933333 1.044375,0.622292 1.9,1.48896 2.566666,2.600001 0.666667,1.111042 1,2.399999 1,3.866664 0,1.511039 -0.377916,2.855629 -1.133333,4.03334 -0.755625,1.1777 -1.744583,2.1 -2.966667,2.76666 -1.222291,0.66667 -2.533333,1 -3.933332,1 z m -0.1,-4 c 0.68875,0 1.322083,-0.15562 1.9,-0.466661 0.577708,-0.333339 1.044375,-0.77771 1.4,-1.333339 0.377708,-0.577711 0.566668,-1.233331 0.566668,-1.96666 0,-0.75563 -0.188959,-1.411046 -0.566668,-1.96667 -0.355625,-0.577709 -0.833333,-1.022292 -1.433333,-1.333335 -0.577917,-0.333332 -1.2,-0.5 -1.866667,-0.5 -0.644583,0 -1.266667,0.166668 -1.866667,0.5 -0.577915,0.311043 -1.055624,0.755626 -1.433333,1.333335 -0.355625,0.555624 -0.533333,1.21104 -0.533333,1.96667 0,0.73333 0.177708,1.38895 0.533333,1.96666 0.377708,0.555629 0.855417,1 1.433333,1.333339 0.577709,0.311041 1.2,0.466661 1.866667,0.466661 z"
       fill="#2f353e"
       id="path968"
       style="fill:#000000;fill-opacity:0.75;stroke-width:2.08333" />
  </g>
</svg>
