<?xml version="1.0" encoding="UTF-8" standalone="no"?>
<svg
   id="vector"
   width="72"
   height="72"
   viewBox="0 0 72 72"
   version="1.1"
   sodipodi:docname="google_calendar_26.svg"
   inkscape:version="1.2.1 (9c6d41e410, 2022-07-14)"
   xmlns:inkscape="http://www.inkscape.org/namespaces/inkscape"
   xmlns:sodipodi="http://sodipodi.sourceforge.net/DTD/sodipodi-0.dtd"
   xmlns="http://www.w3.org/2000/svg"
   xmlns:svg="http://www.w3.org/2000/svg">
  <defs
     id="defs14" />
  <sodipodi:namedview
     id="namedview12"
     pagecolor="#ffffff"
     bordercolor="#000000"
     borderopacity="0.25"
     inkscape:showpageshadow="2"
     inkscape:pageopacity="0.0"
     inkscape:pagecheckerboard="0"
     inkscape:deskcolor="#d1d1d1"
     showgrid="false"
     inkscape:zoom="8.1415489"
     inkscape:cx="2.2722949"
     inkscape:cy="39.30456"
     inkscape:window-width="1920"
     inkscape:window-height="1009"
     inkscape:window-x="-8"
     inkscape:window-y="-8"
     inkscape:window-maximized="1"
     inkscape:current-layer="g352" />
  <g
     id="g352">
    <path
       fill="#000"
       d="m54.948,72l17.052,-17.052 -8.526,-0 -8.526,0 -0,8.526z"
       fill-opacity="0.75"
       id="path_3" />
    <path
       fill="#000"
       d="M17.052,63.474L17.052,72L54.947,72L54.947,54.948L17.052,54.948Z"
       fill-opacity="0.5"
       id="path_4" />
    <path
       fill="#000"
       d="M5.684,-0C2.544,-0 -0,2.544 -0,5.684L-0,54.947L8.526,54.947 17.052,54.947L17.052,17.052l37.895,0l0,-8.526L54.948,-0Z"
       fill-opacity="0.75"
       id="path_5" />
    <path
       fill="#000"
       d="m-0,54.948l0,11.368c0,3.141 2.544,5.684 5.684,5.684l11.368,0l0,-17.052z"
       id="path_6" />
    <path
       fill="#000"
       d="M54.948,17.052L54.948,54.947L72,54.947L72,17.052l-8.895,0z"
       fill-opacity="0.5"
       id="path_7" />
    <path
       fill="#000"
       d="M72,17.052L72,5.684c0,-3.141 -2.544,-5.684 -5.684,-5.684l-11.368,0l0,17.052z"
       id="path_8" />
    <path
       d="M 21.685243,45.555555 V 42.25 c 0.03698,-0.03698 0.259202,-0.259202 0.666667,-0.666667 0.407291,-0.407465 0.907291,-0.907465 1.5,-1.5 0.611111,-0.611111 1.231423,-1.231423 1.861111,-1.861111 0.64809,-0.64809 1.231423,-1.240799 1.75,-1.777778 0.518403,-0.536979 0.89809,-0.925868 1.138889,-1.166666 C 29.25,34.574132 29.703646,33.981423 29.963021,33.5 c 0.259201,-0.481424 0.388889,-1.036979 0.388889,-1.666667 0,-0.611111 -0.231597,-1.14809 -0.694445,-1.611111 -0.463021,-0.463021 -1.111111,-0.694444 -1.944444,-0.694444 -0.833333,0 -1.481597,0.240798 -1.944445,0.722222 -0.46302,0.481423 -0.787152,1.018576 -0.972222,1.611111 L 21.518576,30.5 c 0.203646,-0.685243 0.564757,-1.361111 1.083334,-2.027778 0.536979,-0.666667 1.231423,-1.222222 2.083333,-1.666667 0.870313,-0.46302 1.89809,-0.694444 3.083333,-0.694444 1.296181,0 2.407292,0.25 3.333334,0.75 0.944444,0.5 1.666666,1.166667 2.166666,2 0.518403,0.833333 0.777778,1.768576 0.777778,2.805556 0,1.185243 -0.287153,2.277777 -0.861111,3.277777 -0.555555,1 -1.268576,1.916667 -2.138889,2.75 -0.333333,0.333334 -0.722222,0.713021 -1.166666,1.138889 -0.426042,0.425868 -0.861112,0.861111 -1.305556,1.305556 -0.426042,0.444444 -0.824132,0.851909 -1.194444,1.222222 -0.370487,0.35191 -0.657466,0.629687 -0.861112,0.833333 l 0.08333,0.166667 h 7.694444 v 3.194444 z M 43.786979,46 c -1.055555,0 -2.018576,-0.185243 -2.888889,-0.555556 -0.851909,-0.388889 -1.574132,-0.89809 -2.166666,-1.527778 -1.185243,-1.240798 -1.777778,-2.759201 -1.777778,-4.555555 0,-1.277778 0.25,-2.444445 0.75,-3.5 0.518403,-1.055556 1.166666,-2.14809 1.944444,-3.277778 0.759202,-1.092535 1.518403,-2.185243 2.277778,-3.277778 C 42.703646,28.194444 43.472049,27.092535 44.231424,26 l 2.833333,1.944444 c -0.648264,0.907466 -1.305556,1.824132 -1.972222,2.75 -0.648264,0.907466 -1.296354,1.824132 -1.944445,2.75 l 0.166667,0.166667 c 0.425868,-0.185243 0.907292,-0.277778 1.444444,-0.277778 0.962848,0 1.879514,0.259202 2.75,0.777778 0.870313,0.518576 1.583334,1.240799 2.138889,2.166667 0.555556,0.925868 0.833334,2 0.833334,3.222222 0,1.259201 -0.314931,2.379687 -0.944445,3.361111 -0.629687,0.981423 -1.453819,1.75 -2.472222,2.305555 C 46.04618,45.722222 44.953646,46 43.786979,46 Z m -0.08333,-3.333334 c 0.573958,0 1.101736,-0.129687 1.583333,-0.388888 0.481424,-0.277778 0.870313,-0.648091 1.166667,-1.111112 0.314757,-0.481423 0.472222,-1.027777 0.472222,-1.638888 0,-0.629688 -0.157465,-1.175868 -0.472222,-1.638889 -0.296354,-0.481424 -0.694445,-0.85191 -1.194445,-1.111111 -0.481597,-0.277778 -1,-0.416667 -1.555555,-0.416667 -0.537153,0 -1.055556,0.138889 -1.555556,0.416667 -0.481597,0.259201 -0.879687,0.629687 -1.194444,1.111111 -0.296354,0.463021 -0.444445,1.009201 -0.444445,1.638889 0,0.611111 0.148091,1.157465 0.444445,1.638888 0.314757,0.463021 0.712847,0.833334 1.194444,1.111112 0.481424,0.259201 1,0.388888 1.555556,0.388888 z"
       fill="#2f353e"
       id="path16257"
       style="stroke-width:1;fill:#000000;fill-opacity:1" />
  </g>
</svg>
