<svg id="vector" xmlns="http://www.w3.org/2000/svg" width="72" height="72" viewBox="0 0 72 72"><path fill="#000" d="M65.517,17.178C58.401,13.071 49.303,15.512 45.191,22.627l-10.365,17.955c-2.999,5.185 0.862,6.996 5.167,9.578l9.973,5.756c3.377,1.948 7.691,0.792 9.639,-2.581l10.655,-18.452c3.58,-6.2 1.456,-14.125 -4.745,-17.704z" fill-opacity="0.5" id="path_0"/><path fill="#000" d="M53.789,24.61L43.815,18.853c-5.506,-3.056 -8.623,-3.259 -10.884,0.334L18.222,44.662c-4.107,7.111 -1.662,16.205 5.448,20.303 6.2,3.58 14.125,1.456 17.704,-4.745L56.366,34.253c1.957,-3.377 0.8,-7.696 -2.577,-9.644z" fill-opacity="0.35" id="path_1"/><path fill="#000" d="M55.708,11.514L48.703,7.469C40.955,2.996 31.047,5.648 26.575,13.396L13.237,36.496c-1.97,3.408 -0.8,7.77 2.608,9.736l7.845,4.529c3.874,2.238 8.826,0.91 11.064,-2.964L49.991,21.409c3.157,-5.466 10.145,-7.339 15.611,-4.182z" fill-opacity="0.9" id="path_2"/><path fill="#000" d="M28.47,20.006L20.897,15.643C17.52,13.7 13.206,14.852 11.258,18.22L2.173,33.919c-4.472,7.726 -1.821,17.612 5.928,22.071l5.765,3.32 6.992,4.028 3.034,1.746C18.505,61.478 16.794,54.253 20.088,48.563l2.353,-4.063 8.615,-14.886c1.944,-3.36 0.787,-7.665 -2.586,-9.608z" id="path_3"/></svg>