<?xml version="1.0" encoding="UTF-8" standalone="no"?>
<svg
   id="vector"
   width="72"
   height="72"
   viewBox="0 0 72 72"
   version="1.1"
   sodipodi:docname="google_calendar_5.svg"
   inkscape:version="1.2.1 (9c6d41e410, 2022-07-14)"
   xmlns:inkscape="http://www.inkscape.org/namespaces/inkscape"
   xmlns:sodipodi="http://sodipodi.sourceforge.net/DTD/sodipodi-0.dtd"
   xmlns="http://www.w3.org/2000/svg"
   xmlns:svg="http://www.w3.org/2000/svg">
  <defs
     id="defs14" />
  <sodipodi:namedview
     id="namedview12"
     pagecolor="#ffffff"
     bordercolor="#000000"
     borderopacity="0.25"
     inkscape:showpageshadow="2"
     inkscape:pageopacity="0.0"
     inkscape:pagecheckerboard="0"
     inkscape:deskcolor="#d1d1d1"
     showgrid="false"
     inkscape:zoom="8.1415489"
     inkscape:cx="-10.685927"
     inkscape:cy="39.30456"
     inkscape:window-width="1920"
     inkscape:window-height="1009"
     inkscape:window-x="-8"
     inkscape:window-y="-8"
     inkscape:window-maximized="1"
     inkscape:current-layer="g352" />
  <g
     id="g352">
    <path
       fill="#000"
       d="m54.948,72l17.052,-17.052 -8.526,-0 -8.526,0 -0,8.526z"
       fill-opacity="0.75"
       id="path_3" />
    <path
       fill="#000"
       d="M17.052,63.474L17.052,72L54.947,72L54.947,54.948L17.052,54.948Z"
       fill-opacity="0.5"
       id="path_4" />
    <path
       fill="#000"
       d="M5.684,-0C2.544,-0 -0,2.544 -0,5.684L-0,54.947L8.526,54.947 17.052,54.947L17.052,17.052l37.895,0l0,-8.526L54.948,-0Z"
       fill-opacity="0.75"
       id="path_5" />
    <path
       fill="#000"
       d="m-0,54.948l0,11.368c0,3.141 2.544,5.684 5.684,5.684l11.368,0l0,-17.052z"
       id="path_6" />
    <path
       fill="#000"
       d="M54.948,17.052L54.948,54.947L72,54.947L72,17.052l-8.895,0z"
       fill-opacity="0.5"
       id="path_7" />
    <path
       fill="#000"
       d="M72,17.052L72,5.684c0,-3.141 -2.544,-5.684 -5.684,-5.684l-11.368,0l0,17.052z"
       id="path_8" />
    <path
       d="M 36.017144,48 C 34.851429,48 33.685715,47.771357 32.520001,47.314286 31.377,46.857214 30.371358,46.159929 29.502858,45.222857 28.634144,44.285786 28.028572,43.097143 27.685715,41.657143 L 31.731429,40.08 c 0.251357,1.120071 0.742715,2.034214 1.474286,2.742857 0.731357,0.685714 1.657071,1.028572 2.777143,1.028572 1.074214,0 1.977,-0.365786 2.708571,-1.097143 0.754286,-0.731357 1.131429,-1.657072 1.131429,-2.777143 0,-1.097143 -0.354429,-2.0115 -1.062857,-2.742857 -0.708643,-0.754286 -1.634357,-1.131429 -2.777143,-1.131429 -0.708644,0 -1.337143,0.1485 -1.885714,0.445714 -0.548572,0.297215 -1.017216,0.674358 -1.405716,1.131429 L 28.337144,35.725714 29.674286,24 h 13.234286 v 3.942857 h -9.497144 l -0.857143,5.485714 0.274286,0.06857 c 0.457072,-0.3885 1.017,-0.72 1.68,-0.994286 0.685714,-0.274286 1.485643,-0.411428 2.4,-0.411428 1.302857,0 2.514214,0.3315 3.634286,0.994285 1.119857,0.662786 2.022857,1.5885 2.708571,2.777143 0.708429,1.165714 1.062857,2.537143 1.062857,4.114286 0,1.554214 -0.354428,2.937214 -1.062857,4.148571 -0.708643,1.211357 -1.691571,2.16 -2.948571,2.845715 -1.234286,0.685714 -2.662929,1.028571 -4.285714,1.028571 z"
       fill="#2f353e"
       id="path843"
       style="fill:#000000;fill-opacity:1;stroke-width:2.14286" />
  </g>
</svg>
