<?xml version="1.0" encoding="UTF-8" standalone="no"?>
<svg
   id="vector"
   width="72"
   height="72"
   viewBox="0 0 72 72"
   version="1.1"
   sodipodi:docname="google_calendar_10.svg"
   inkscape:version="1.2.1 (9c6d41e410, 2022-07-14)"
   xmlns:inkscape="http://www.inkscape.org/namespaces/inkscape"
   xmlns:sodipodi="http://sodipodi.sourceforge.net/DTD/sodipodi-0.dtd"
   xmlns="http://www.w3.org/2000/svg"
   xmlns:svg="http://www.w3.org/2000/svg">
  <defs
     id="defs14" />
  <sodipodi:namedview
     id="namedview12"
     pagecolor="#ffffff"
     bordercolor="#000000"
     borderopacity="0.25"
     inkscape:showpageshadow="2"
     inkscape:pageopacity="0.0"
     inkscape:pagecheckerboard="0"
     inkscape:deskcolor="#d1d1d1"
     showgrid="false"
     inkscape:zoom="8.1415489"
     inkscape:cx="10.440274"
     inkscape:cy="39.30456"
     inkscape:window-width="1920"
     inkscape:window-height="1009"
     inkscape:window-x="-8"
     inkscape:window-y="-8"
     inkscape:window-maximized="1"
     inkscape:current-layer="g352" />
  <g
     id="g352">
    <path
       fill="#000"
       d="m54.948,72l17.052,-17.052 -8.526,-0 -8.526,0 -0,8.526z"
       fill-opacity="0.75"
       id="path_3" />
    <path
       fill="#000"
       d="M17.052,63.474L17.052,72L54.947,72L54.947,54.948L17.052,54.948Z"
       fill-opacity="0.5"
       id="path_4" />
    <path
       fill="#000"
       d="M5.684,-0C2.544,-0 -0,2.544 -0,5.684L-0,54.947L8.526,54.947 17.052,54.947L17.052,17.052l37.895,0l0,-8.526L54.948,-0Z"
       fill-opacity="0.75"
       id="path_5" />
    <path
       fill="#000"
       d="m-0,54.948l0,11.368c0,3.141 2.544,5.684 5.684,5.684l11.368,0l0,-17.052z"
       id="path_6" />
    <path
       fill="#000"
       d="M54.948,17.052L54.948,54.947L72,54.947L72,17.052l-8.895,0z"
       fill-opacity="0.5"
       id="path_7" />
    <path
       fill="#000"
       d="M72,17.052L72,5.684c0,-3.141 -2.544,-5.684 -5.684,-5.684l-11.368,0l0,17.052z"
       id="path_8" />
    <path
       d="M 26.592266,45.553072 V 31.223463 l -2.877094,2.094973 -1.843576,-2.821229 5.614525,-4.05028 h 2.765363 V 45.553072 Z M 42.111645,46 C 40.472853,46 39.048272,45.562326 37.837902,44.687151 36.646038,43.811977 35.724249,42.620112 35.072538,41.111732 34.420828,39.603352 34.094885,37.899442 34.094885,36 c 0,-1.899442 0.325943,-3.603352 0.977653,-5.111732 0.651711,-1.50838 1.5735,-2.700245 2.765364,-3.575419 C 39.048272,26.437674 40.472853,26 42.111645,26 c 1.638792,0 3.053945,0.437674 4.24581,1.312849 1.21037,0.875174 2.141585,2.067039 2.793296,3.575419 0.651711,1.50838 0.977653,3.21229 0.977653,5.111732 0,1.899442 -0.325942,3.603352 -0.977653,5.111732 -0.651711,1.50838 -1.582926,2.700245 -2.793296,3.575419 C 45.16559,45.562326 43.750437,46 42.111645,46 Z m 0,-3.435754 c 0.912535,0 1.694658,-0.288583 2.346368,-0.865922 0.651711,-0.577339 1.145252,-1.359462 1.480447,-2.346369 0.353876,-0.986906 0.530727,-2.104224 0.530727,-3.351955 0,-1.266236 -0.176851,-2.392982 -0.530727,-3.379888 -0.335195,-0.986907 -0.828736,-1.759777 -1.480447,-2.318436 -0.65171,-0.577339 -1.433833,-0.865922 -2.346368,-0.865922 -0.893855,0 -1.666725,0.288583 -2.318436,0.865922 -0.651711,0.558659 -1.154504,1.331529 -1.50838,2.318436 -0.335196,0.986906 -0.502793,2.113652 -0.502793,3.379888 0,1.247731 0.167597,2.365049 0.502793,3.351955 0.353876,0.986907 0.856669,1.76903 1.50838,2.346369 0.651711,0.577339 1.424581,0.865922 2.318436,0.865922 z"
       fill="#2f353e"
       id="path7988"
       style="fill:#000000;fill-opacity:1;stroke-width:2.09497" />
  </g>
</svg>
