<?xml version="1.0" encoding="UTF-8" standalone="no"?>
<svg
   id="vector"
   width="72"
   height="72"
   viewBox="0 0 72 72"
   version="1.1"
   sodipodi:docname="google_calendar_23.svg"
   inkscape:version="1.2.1 (9c6d41e410, 2022-07-14)"
   xmlns:inkscape="http://www.inkscape.org/namespaces/inkscape"
   xmlns:sodipodi="http://sodipodi.sourceforge.net/DTD/sodipodi-0.dtd"
   xmlns="http://www.w3.org/2000/svg"
   xmlns:svg="http://www.w3.org/2000/svg">
  <defs
     id="defs14" />
  <sodipodi:namedview
     id="namedview12"
     pagecolor="#ffffff"
     bordercolor="#000000"
     borderopacity="0.25"
     inkscape:showpageshadow="2"
     inkscape:pageopacity="0.0"
     inkscape:pagecheckerboard="0"
     inkscape:deskcolor="#d1d1d1"
     showgrid="false"
     inkscape:zoom="8.1415489"
     inkscape:cx="2.2722949"
     inkscape:cy="39.30456"
     inkscape:window-width="1920"
     inkscape:window-height="1009"
     inkscape:window-x="-8"
     inkscape:window-y="-8"
     inkscape:window-maximized="1"
     inkscape:current-layer="g352" />
  <g
     id="g352">
    <path
       fill="#000"
       d="m54.948,72l17.052,-17.052 -8.526,-0 -8.526,0 -0,8.526z"
       fill-opacity="0.75"
       id="path_3" />
    <path
       fill="#000"
       d="M17.052,63.474L17.052,72L54.947,72L54.947,54.948L17.052,54.948Z"
       fill-opacity="0.5"
       id="path_4" />
    <path
       fill="#000"
       d="M5.684,-0C2.544,-0 -0,2.544 -0,5.684L-0,54.947L8.526,54.947 17.052,54.947L17.052,17.052l37.895,0l0,-8.526L54.948,-0Z"
       fill-opacity="0.75"
       id="path_5" />
    <path
       fill="#000"
       d="m-0,54.948l0,11.368c0,3.141 2.544,5.684 5.684,5.684l11.368,0l0,-17.052z"
       id="path_6" />
    <path
       fill="#000"
       d="M54.948,17.052L54.948,54.947L72,54.947L72,17.052l-8.895,0z"
       fill-opacity="0.5"
       id="path_7" />
    <path
       fill="#000"
       d="M72,17.052L72,5.684c0,-3.141 -2.544,-5.684 -5.684,-5.684l-11.368,0l0,17.052z"
       id="path_8" />
    <path
       d="m 21.717004,45.553073 v -3.324022 c 0.03719,-0.03719 0.260649,-0.260649 0.670391,-0.670391 0.409567,-0.409742 0.91236,-0.912535 1.50838,-1.50838 0.614525,-0.614525 1.238303,-1.238304 1.871508,-1.871508 0.651711,-0.651711 1.238303,-1.247731 1.759777,-1.78771 0.521298,-0.539979 0.903107,-0.931041 1.145251,-1.173184 0.651711,-0.707577 1.107891,-1.303597 1.368715,-1.78771 0.26065,-0.484113 0.391062,-1.042772 0.391062,-1.675978 0,-0.614525 -0.232891,-1.154504 -0.698324,-1.620111 -0.465608,-0.465608 -1.117319,-0.698324 -1.955308,-0.698324 -0.837989,0 -1.489874,0.242143 -1.955307,0.726257 -0.465608,0.484113 -0.79155,1.024266 -0.977654,1.620111 l -3.296089,-1.368715 c 0.204783,-0.689071 0.567912,-1.368715 1.089385,-2.039106 0.539979,-0.670391 1.238303,-1.22905 2.094972,-1.675978 C 25.608938,26.232717 26.642458,26 27.834322,26 c 1.303422,0 2.42074,0.251397 3.351956,0.75419 0.94972,0.502794 1.675977,1.173185 2.178771,2.011174 0.521298,0.837988 0.782122,1.778456 0.782122,2.821229 0,1.191864 -0.288757,2.290502 -0.865921,3.296089 -0.55866,1.005587 -1.275664,1.927374 -2.150838,2.765363 -0.335196,0.335196 -0.726257,0.717004 -1.173185,1.145252 -0.428422,0.428247 -0.865922,0.865922 -1.312849,1.312849 -0.428422,0.446927 -0.828736,0.856669 -1.201117,1.22905 -0.372556,0.353876 -0.661139,0.633206 -0.865922,0.837989 l 0.0838,0.167598 h 7.73743 v 3.21229 z m 22.029679,0.446928 c -1.545566,0 -2.951641,-0.409742 -4.217877,-1.229051 -1.266236,-0.837988 -2.141586,-2.104224 -2.625699,-3.798882 l 3.463688,-1.368715 c 0.465607,1.899441 1.592178,2.849162 3.379888,2.849162 0.782123,0 1.471194,-0.232717 2.067039,-0.698324 0.595845,-0.484113 0.893855,-1.108066 0.893855,-1.871509 0,-0.819308 -0.316516,-1.461767 -0.949721,-1.927374 -0.633205,-0.465609 -1.471194,-0.698324 -2.513966,-0.698324 h -1.648045 v -3.324023 h 1.50838 c 0.763443,0 1.443261,-0.19553 2.039106,-0.586592 0.595845,-0.391061 0.893855,-0.996334 0.893855,-1.815642 0,-0.633206 -0.232717,-1.154505 -0.698324,-1.564246 -0.446928,-0.409742 -1.042773,-0.614525 -1.78771,-0.614525 -0.819309,0 -1.452514,0.223463 -1.899441,0.670391 -0.446928,0.446927 -0.75419,0.940468 -0.921788,1.480447 l -3.324022,-1.368716 c 0.223463,-0.633206 0.595845,-1.266235 1.117318,-1.899442 0.521474,-0.633205 1.201117,-1.163931 2.039106,-1.592179 0.837989,-0.428247 1.843576,-0.642458 3.01676,-0.642458 1.22905,0 2.299756,0.223464 3.212291,0.670391 0.93104,0.446928 1.657297,1.061453 2.178771,1.843576 0.521473,0.763443 0.782123,1.629364 0.782123,2.597765 0,1.098639 -0.26065,2.001921 -0.782123,2.709498 -0.502794,0.707576 -1.0522,1.21037 -1.648045,1.508379 v 0.223464 c 0.875175,0.353876 1.610859,0.921788 2.206704,1.703911 0.614525,0.782123 0.921788,1.769029 0.921788,2.960894 0,1.098638 -0.27933,2.085719 -0.837989,2.960894 -0.558659,0.875174 -1.340782,1.564246 -2.346369,2.067039 C 46.260649,45.748603 45.087465,46 43.746683,46.000001 Z"
       fill="#2f353e"
       id="path12466"
       style="fill:#000000;fill-opacity:1;stroke-width:1" />
  </g>
</svg>
