<svg id="vector" xmlns="http://www.w3.org/2000/svg" width="72" height="72" viewBox="0 0 72 72"><path fill="#000" d="M51.158,71.981L5.684,71.981C2.549,71.971 0.009,69.433 -0,66.299L-0,5.701C0.009,2.567 2.549,0.029 5.684,0.019l60.632,0c3.135,0.009 5.675,2.547 5.684,5.681l0,45.449l-10.093,10.204z" fill-opacity="0.504532" id="path_0"/><path fill="#000" d="M51.158,71.981L51.158,56.831c-0.001,-3.137 2.543,-5.68 5.681,-5.681l15.161,0z" fill-opacity="0.495468" id="path_1"/><path fill="#000" d="m36,11.382c-9.417,-0.001 -17.051,7.628 -17.053,17.039 -0.001,6.089 3.25,11.717 8.526,14.761l0,13.649l3.789,0l0,3.787l10.421,0l0,-3.787l3.789,0L45.474,42.595c7.83,-5.229 9.937,-15.812 4.706,-23.638 -3.164,-4.733 -8.484,-7.575 -14.179,-7.575zM41.684,53.043l-10.421,0l0,-3.787l10.421,0zM41.684,40.398l0,5.07l-10.421,0l0,-4.663c-6.844,-2.613 -10.273,-10.277 -7.658,-17.117 2.615,-6.841 10.282,-10.267 17.127,-7.654 6.844,2.613 10.273,10.277 7.658,17.117 -1.219,3.188 -3.62,5.784 -6.706,7.247z" id="path_2"/></svg>