<svg id="vector" xmlns="http://www.w3.org/2000/svg" width="72" height="72" viewBox="0 0 72 72"><path fill="#000" d="m36,72c-19.836,0 -36,-16.17 -36,-36C0,16.17 16.164,-0 36,-0c19.836,0 36,14.543 36,32.399a21.619,21.619 0,0 1,-21.605 21.601h-6.367a1.775,1.775 0,0 0,-1.8 1.798,1.903 1.903,0 0,0 0.469,1.183 9.162,9.162 0,0 1,2.303 6.012A9.004,9.004 0,0 1,36 72ZM16.2,39.599a5.399,5.399 0,1 0,-5.399 -5.399,5.399 5.399,0 0,0 5.399,5.399zM27,25.204A5.401,5.401 0,1 0,21.605 19.8,5.399 5.399,0 0,0 27,25.2ZM45,25.204a5.401,5.401 0,1 0,-5.399 -5.399,5.399 5.399,0 0,0 5.399,5.395zM55.8,39.599a5.399,5.399 0,1 0,-5.405 -5.399,5.399 5.399,0 0,0 5.405,5.399z" stroke-width="0.197195" id="path_0"/></svg>