<?xml version="1.0" encoding="UTF-8" standalone="no"?>
<svg
   id="vector"
   width="72"
   height="72"
   viewBox="0 0 72 72"
   version="1.1"
   sodipodi:docname="google_calendar_28.svg"
   inkscape:version="1.2.1 (9c6d41e410, 2022-07-14)"
   xmlns:inkscape="http://www.inkscape.org/namespaces/inkscape"
   xmlns:sodipodi="http://sodipodi.sourceforge.net/DTD/sodipodi-0.dtd"
   xmlns="http://www.w3.org/2000/svg"
   xmlns:svg="http://www.w3.org/2000/svg">
  <defs
     id="defs14" />
  <sodipodi:namedview
     id="namedview12"
     pagecolor="#ffffff"
     bordercolor="#000000"
     borderopacity="0.25"
     inkscape:showpageshadow="2"
     inkscape:pageopacity="0.0"
     inkscape:pagecheckerboard="0"
     inkscape:deskcolor="#d1d1d1"
     showgrid="false"
     inkscape:zoom="8.1415489"
     inkscape:cx="-10.685927"
     inkscape:cy="39.30456"
     inkscape:window-width="1920"
     inkscape:window-height="1009"
     inkscape:window-x="-8"
     inkscape:window-y="-8"
     inkscape:window-maximized="1"
     inkscape:current-layer="g352" />
  <g
     id="g352">
    <path
       fill="#000"
       d="m54.948,72l17.052,-17.052 -8.526,-0 -8.526,0 -0,8.526z"
       fill-opacity="0.75"
       id="path_3" />
    <path
       fill="#000"
       d="M17.052,63.474L17.052,72L54.947,72L54.947,54.948L17.052,54.948Z"
       fill-opacity="0.5"
       id="path_4" />
    <path
       fill="#000"
       d="M5.684,-0C2.544,-0 -0,2.544 -0,5.684L-0,54.947L8.526,54.947 17.052,54.947L17.052,17.052l37.895,0l0,-8.526L54.948,-0Z"
       fill-opacity="0.75"
       id="path_5" />
    <path
       fill="#000"
       d="m-0,54.948l0,11.368c0,3.141 2.544,5.684 5.684,5.684l11.368,0l0,-17.052z"
       id="path_6" />
    <path
       fill="#000"
       d="M54.948,17.052L54.948,54.947L72,54.947L72,17.052l-8.895,0z"
       fill-opacity="0.5"
       id="path_7" />
    <path
       fill="#000"
       d="M72,17.052L72,5.684c0,-3.141 -2.544,-5.684 -5.684,-5.684l-11.368,0l0,17.052z"
       id="path_8" />
    <path
       d="M 21.479573,45.553072 V 42.22905 c 0.03718,-0.03718 0.26065,-0.260649 0.670392,-0.670391 0.409567,-0.409741 0.91236,-0.912535 1.508379,-1.50838 0.614526,-0.614525 1.238304,-1.238302 1.871509,-1.871508 0.651711,-0.651711 1.238303,-1.24773 1.759776,-1.787709 0.521299,-0.53998 0.903108,-0.931041 1.145252,-1.173185 0.651711,-0.707577 1.107891,-1.303596 1.368715,-1.787709 0.260649,-0.484114 0.391062,-1.042773 0.391062,-1.675978 0,-0.614525 -0.232891,-1.154504 -0.698325,-1.620112 -0.465607,-0.465607 -1.117318,-0.698324 -1.955307,-0.698324 -0.837988,0 -1.489874,0.242144 -1.955307,0.726257 -0.465607,0.484113 -0.791551,1.024267 -0.977654,1.620111 l -3.296089,-1.368715 c 0.204783,-0.68907 0.567912,-1.368715 1.089386,-2.039105 0.539978,-0.670391 1.238302,-1.22905 2.094971,-1.675978 C 25.371508,26.232717 26.405028,26 27.596892,26 c 1.303422,0 2.420741,0.251397 3.351956,0.75419 0.949721,0.502793 1.675977,1.173184 2.17877,2.011173 0.5213,0.837989 0.782123,1.778457 0.782123,2.82123 0,1.191864 -0.288757,2.290502 -0.865922,3.296089 -0.558659,1.005586 -1.275663,1.927374 -2.150837,2.765363 -0.335196,0.335195 -0.726258,0.717004 -1.173185,1.145251 -0.428422,0.428247 -0.865922,0.865922 -1.312849,1.312849 -0.428422,0.446927 -0.828736,0.856669 -1.201116,1.229051 -0.372556,0.353875 -0.661138,0.633205 -0.865922,0.837988 l 0.0838,0.167599 h 7.73743 v 3.212289 z M 43.760649,46 c -1.359462,0 -2.56058,-0.251397 -3.603352,-0.75419 -1.042947,-0.521473 -1.862255,-1.21037 -2.4581,-2.067039 -0.577339,-0.875174 -0.865922,-1.852828 -0.865922,-2.932961 0,-1.117318 0.297835,-2.067039 0.893854,-2.849162 0.595846,-0.800803 1.266237,-1.405901 2.011174,-1.815642 v -0.223464 c -0.59602,-0.409742 -1.126746,-0.949721 -1.592179,-1.620112 -0.446927,-0.689071 -0.670391,-1.471194 -0.670391,-2.346368 0,-1.024267 0.269902,-1.936628 0.810055,-2.73743 0.53998,-0.819309 1.284917,-1.461768 2.234638,-1.927375 C 41.470146,26.242144 42.550104,26 43.760649,26 c 1.21037,0 2.281075,0.242144 3.21229,0.726257 0.949721,0.465607 1.694484,1.108065 2.234638,1.927375 0.558659,0.800802 0.837988,1.713163 0.837988,2.73743 0,0.875174 -0.232891,1.657297 -0.698324,2.346368 -0.446926,0.670391 -0.977653,1.21037 -1.592178,1.620112 v 0.223464 c 0.763443,0.409741 1.443086,1.014839 2.039106,1.815642 0.595845,0.782123 0.893855,1.731844 0.893855,2.849162 0,1.080132 -0.29801,2.057787 -0.893855,2.932961 C 49.21683,44.03544 48.406774,44.724337 47.364002,45.24581 46.339735,45.748603 45.138617,46 43.760649,46 Z m 0,-12.011173 c 0.763443,0 1.405901,-0.214211 1.927375,-0.642459 0.539979,-0.446926 0.810055,-1.024266 0.810055,-1.731843 0,-0.726257 -0.270076,-1.294169 -0.810055,-1.703911 -0.521474,-0.428247 -1.163932,-0.642457 -1.927375,-0.642457 -0.782123,0 -1.443261,0.21421 -1.98324,0.642457 -0.521474,0.409742 -0.782123,0.977654 -0.782123,1.703911 0,0.707577 0.260649,1.284917 0.782123,1.731843 0.539979,0.428248 1.201117,0.642459 1.98324,0.642459 z m 0,8.631285 c 0.949721,0 1.722416,-0.251397 2.318436,-0.75419 0.614525,-0.502794 0.921788,-1.163932 0.921788,-1.98324 0,-0.782124 -0.307263,-1.424581 -0.921788,-1.927375 -0.614525,-0.502793 -1.387396,-0.75419 -2.318436,-0.75419 -0.931215,0 -1.713338,0.251397 -2.346369,0.75419 -0.614525,0.502794 -0.921787,1.145251 -0.921787,1.927375 0,0.819308 0.307262,1.480446 0.921787,1.98324 0.614526,0.502793 1.396648,0.75419 2.346369,0.75419 z"
       fill="#2f353e"
       id="path187"
       style="fill:#000000;fill-opacity:0.99234694;stroke-width:1.74581" />
  </g>
</svg>
