<?xml version="1.0" encoding="UTF-8" standalone="no"?>
<svg
   id="vector"
   width="72"
   height="72"
   viewBox="0 0 72 72"
   version="1.1"
   sodipodi:docname="google_calendar_30.svg"
   inkscape:version="1.2.1 (9c6d41e410, 2022-07-14)"
   xmlns:inkscape="http://www.inkscape.org/namespaces/inkscape"
   xmlns:sodipodi="http://sodipodi.sourceforge.net/DTD/sodipodi-0.dtd"
   xmlns="http://www.w3.org/2000/svg"
   xmlns:svg="http://www.w3.org/2000/svg">
  <defs
     id="defs14" />
  <sodipodi:namedview
     id="namedview12"
     pagecolor="#ffffff"
     bordercolor="#000000"
     borderopacity="0.25"
     inkscape:showpageshadow="2"
     inkscape:pageopacity="0.0"
     inkscape:pagecheckerboard="0"
     inkscape:deskcolor="#d1d1d1"
     showgrid="false"
     inkscape:zoom="8.1415489"
     inkscape:cx="2.2722949"
     inkscape:cy="39.30456"
     inkscape:window-width="1920"
     inkscape:window-height="1009"
     inkscape:window-x="-8"
     inkscape:window-y="-8"
     inkscape:window-maximized="1"
     inkscape:current-layer="g352" />
  <g
     id="g352">
    <path
       fill="#000"
       d="m54.948,72l17.052,-17.052 -8.526,-0 -8.526,0 -0,8.526z"
       fill-opacity="0.75"
       id="path_3" />
    <path
       fill="#000"
       d="M17.052,63.474L17.052,72L54.947,72L54.947,54.948L17.052,54.948Z"
       fill-opacity="0.5"
       id="path_4" />
    <path
       fill="#000"
       d="M5.684,-0C2.544,-0 -0,2.544 -0,5.684L-0,54.947L8.526,54.947 17.052,54.947L17.052,17.052l37.895,0l0,-8.526L54.948,-0Z"
       fill-opacity="0.75"
       id="path_5" />
    <path
       fill="#000"
       d="m-0,54.948l0,11.368c0,3.141 2.544,5.684 5.684,5.684l11.368,0l0,-17.052z"
       id="path_6" />
    <path
       fill="#000"
       d="M54.948,17.052L54.948,54.947L72,54.947L72,17.052l-8.895,0z"
       fill-opacity="0.5"
       id="path_7" />
    <path
       fill="#000"
       d="M72,17.052L72,5.684c0,-3.141 -2.544,-5.684 -5.684,-5.684l-11.368,0l0,17.052z"
       id="path_8" />
    <path
       d="m 26.721893,46 c -1.545741,0 -2.951642,-0.409742 -4.217877,-1.22905 -1.266412,-0.837989 -2.141587,-2.104225 -2.6257,-3.798883 l 3.463688,-1.368715 c 0.465433,1.899441 1.592179,2.849162 3.379889,2.849162 0.782123,0 1.471018,-0.232716 2.067039,-0.698324 0.595844,-0.484113 0.893855,-1.108066 0.893855,-1.871508 0,-0.819309 -0.31669,-1.461767 -0.949721,-1.927375 -0.633205,-0.465607 -1.471194,-0.698324 -2.513967,-0.698324 h -1.648044 v -3.324022 h 1.50838 c 0.763442,0 1.443086,-0.195531 2.039106,-0.586592 0.595845,-0.391062 0.893855,-0.996334 0.893855,-1.815643 0,-0.633205 -0.232891,-1.154504 -0.698324,-1.564246 -0.446928,-0.409741 -1.042947,-0.614525 -1.78771,-0.614525 -0.819483,0 -1.452514,0.223464 -1.899441,0.670391 -0.446928,0.446927 -0.75419,0.940468 -0.921788,1.480447 L 20.38111,30.134078 c 0.223464,-0.633205 0.595845,-1.266236 1.117319,-1.899441 0.521299,-0.633206 1.201117,-1.163932 2.039106,-1.592179 C 24.375524,26.214211 25.381111,26 26.554295,26 c 1.22905,0 2.299756,0.223463 3.212291,0.670391 0.93104,0.446927 1.657297,1.061452 2.178771,1.843575 0.521298,0.763443 0.782122,1.629365 0.782122,2.597766 0,1.098638 -0.260824,2.00192 -0.782122,2.709497 -0.502795,0.707577 -1.0522,1.21037 -1.648046,1.50838 v 0.223463 c 0.875174,0.353876 1.610684,0.921788 2.206705,1.703911 0.614525,0.782123 0.921787,1.76903 0.921787,2.960894 0,1.098638 -0.27933,2.085719 -0.837989,2.960894 -0.55866,0.875175 -1.340781,1.564246 -2.346369,2.067039 C 29.235858,45.748603 28.062674,46 26.721893,46 Z m 17.38303,0 C 42.466131,46 41.04155,45.562326 39.831181,44.687151 38.639316,43.811976 37.717528,42.620112 37.065818,41.111732 36.413932,39.603352 36.088163,37.899441 36.088163,36 c 0,-1.899442 0.325768,-3.603352 0.977655,-5.111732 0.65171,-1.50838 1.573498,-2.700245 2.765363,-3.575419 C 41.04155,26.437674 42.466132,26 44.104923,26 c 1.638617,0 3.053946,0.437674 4.24581,1.312849 1.21037,0.875174 2.141411,2.067039 2.793296,3.575419 0.651711,1.50838 0.977654,3.21229 0.977654,5.111732 0,1.899441 -0.325943,3.603352 -0.977654,5.111732 -0.651885,1.50838 -1.582926,2.700244 -2.793296,3.575419 C 47.158869,45.562326 45.74354,46 44.104923,46 Z m 0,-3.435754 c 0.91236,0 1.694483,-0.288583 2.346369,-0.865922 0.651711,-0.577339 1.145252,-1.359462 1.480447,-2.346369 C 48.28544,38.365049 48.462465,37.24773 48.462465,36 c 0,-1.266236 -0.177025,-2.392982 -0.530726,-3.379888 -0.335196,-0.986907 -0.828736,-1.759777 -1.480447,-2.318436 -0.651885,-0.57734 -1.434009,-0.865922 -2.346369,-0.865922 -0.893855,0 -1.666725,0.288582 -2.318436,0.865922 -0.651885,0.558659 -1.154679,1.331529 -1.50838,2.318436 -0.335195,0.986906 -0.502793,2.113652 -0.502793,3.379888 0,1.24773 0.167598,2.365049 0.502793,3.351955 0.353701,0.986907 0.856495,1.76903 1.50838,2.346369 0.651711,0.577339 1.424582,0.865922 2.318436,0.865922 z"
       fill="#2f353e"
       id="path16757"
       style="stroke-width:1;fill:#000000;fill-opacity:1" />
  </g>
</svg>
