<svg id="vector" xmlns="http://www.w3.org/2000/svg" width="72" height="72" viewBox="0 0 72 72"><path fill="#000" d="M21.205,50.278C18.717,47.717 16.595,44.863 14.327,42.156 10.082,37.106 5.838,32.057 1.594,27.008 -0.602,24.447 -0.529,23.276 1.813,20.715 8.619,13.104 17.107,8.494 27.133,6.518c2.927,-0.585 5.927,-0.951 9.001,-0.732 0,3.586 0,7.171 0,10.684 0,2.122 0,2.122 2.049,2.342 -7.391,-0.293 -14.27,1.244 -20.49,5.269 -0.951,0.585 -0.512,0.951 -0.073,1.464 2.195,2.634 4.464,5.196 6.659,7.903 1.829,2.269 3.878,4.317 5.488,6.732 -0.073,0 -0.293,0 -0.293,0.073 -2.415,3.147 -5.049,6.147 -7.684,9.147 -0.439,0.293 -0.585,0.585 -0.585,0.878z" fill-opacity="0.5" id="path_0"/><path fill="#000" d="M38.036,18.812C35.987,18.592 35.987,18.592 35.987,16.47c0,-3.586 0,-7.171 0,-10.684 3.513,-0.22 6.952,0.22 10.318,1.024 9.659,2.195 17.855,6.879 24.368,14.416 1.756,2.049 1.756,3.439 0.073,5.415 -1.903,2.269 -3.805,4.464 -5.708,6.659 -0.805,-1.171 -1.903,-2.122 -2.927,-3.147 -2.049,-2.049 -4.244,-3.952 -6.806,-5.415 -0.512,-0.366 -0.951,-0.732 -1.464,-1.098 -4.903,-2.927 -10.172,-4.464 -15.806,-4.83z" fill-opacity="0.25" id="path_1"/><path fill="#000" d="m55.233,24.813c2.561,1.464 4.757,3.366 6.806,5.415 1.024,1.024 2.122,1.976 2.927,3.147 -3,3.586 -6.001,7.245 -9.001,10.83 -3.805,4.537 -7.61,9.074 -11.416,13.538 -1.171,-0.878 -1.976,-2.122 -2.854,-3.293 -1.903,-2.269 -3.805,-4.61 -5.708,-6.879 1.829,-2.195 3.659,-4.391 5.561,-6.513 4.61,-5.415 9.147,-10.83 13.684,-16.245z" fill-opacity="0.75" id="path_2"/><path fill="#000" d="m36.06,47.571c1.903,2.269 3.805,4.61 5.708,6.879 0.951,1.098 1.683,2.342 2.854,3.293 -1.976,2.342 -3.952,4.757 -5.927,7.098 -1.61,1.829 -3.732,1.976 -5.269,0.073 -4.098,-4.83 -8.123,-9.659 -12.147,-14.489 -0.073,-0.073 -0.073,-0.146 -0.073,-0.22 0.073,-0.293 0.146,-0.585 0.366,-0.805 2.634,-3 5.269,-6.001 7.684,-9.147 0.073,-0.073 0.22,-0.073 0.293,-0.073 0.805,0.512 1.244,1.39 1.903,2.049 1.537,1.756 2.927,3.732 4.61,5.342z" id="path_3"/></svg>