<svg id="vector" xmlns="http://www.w3.org/2000/svg" width="72" height="72" viewBox="0 0 72 72"><path fill="#000" d="m51.972,10.014c5.462,0 10.014,4.469 10.014,10.014l0,8.028l10.014,0l0,-8.028c0,-11.007 -8.938,-20.028 -20.028,-20.028l-8.028,0l0,10.014z" fill-opacity="0.5" id="path_0"/><path fill="#000" d="m10.014,20.028c0,-5.462 4.469,-10.014 10.014,-10.014l8.028,0L28.055,0l-8.028,0c-11.007,0 -20.028,8.938 -20.028,20.028l0,8.028l10.014,0z" fill-opacity="0.75" id="path_1"/><path fill="#000" d="M20.028,61.986C14.566,61.986 10.014,57.517 10.014,51.972L10.014,43.945L0,43.945l0,8.028c0,11.007 8.938,20.028 20.028,20.028l8.028,0l0,-10.014z" id="path_2"/><path fill="#000" d="M36,36m-13.986,0a13.986,13.986 0,1 1,27.972 0a13.986,13.986 0,1 1,-27.972 0" fill-opacity="0.75" id="path_3"/><path fill="#000" d="M60,60m-8.028,0a8.028,8.028 0,1 1,16.055 0a8.028,8.028 0,1 1,-16.055 0" fill-opacity="0.25" id="path_4"/></svg>