<?xml version="1.0" encoding="UTF-8" standalone="no"?>
<svg
   id="vector"
   width="72"
   height="72"
   viewBox="0 0 72 72"
   version="1.1"
   sodipodi:docname="google_calendar_19.svg"
   inkscape:version="1.2.1 (9c6d41e410, 2022-07-14)"
   xmlns:inkscape="http://www.inkscape.org/namespaces/inkscape"
   xmlns:sodipodi="http://sodipodi.sourceforge.net/DTD/sodipodi-0.dtd"
   xmlns="http://www.w3.org/2000/svg"
   xmlns:svg="http://www.w3.org/2000/svg">
  <defs
     id="defs14" />
  <sodipodi:namedview
     id="namedview12"
     pagecolor="#ffffff"
     bordercolor="#000000"
     borderopacity="0.25"
     inkscape:showpageshadow="2"
     inkscape:pageopacity="0.0"
     inkscape:pagecheckerboard="0"
     inkscape:deskcolor="#d1d1d1"
     showgrid="false"
     inkscape:zoom="8.1415489"
     inkscape:cx="2.2722949"
     inkscape:cy="39.30456"
     inkscape:window-width="1920"
     inkscape:window-height="1009"
     inkscape:window-x="-8"
     inkscape:window-y="-8"
     inkscape:window-maximized="1"
     inkscape:current-layer="g352" />
  <g
     id="g352">
    <path
       fill="#000"
       d="m54.948,72l17.052,-17.052 -8.526,-0 -8.526,0 -0,8.526z"
       fill-opacity="0.75"
       id="path_3" />
    <path
       fill="#000"
       d="M17.052,63.474L17.052,72L54.947,72L54.947,54.948L17.052,54.948Z"
       fill-opacity="0.5"
       id="path_4" />
    <path
       fill="#000"
       d="M5.684,-0C2.544,-0 -0,2.544 -0,5.684L-0,54.947L8.526,54.947 17.052,54.947L17.052,17.052l37.895,0l0,-8.526L54.948,-0Z"
       fill-opacity="0.75"
       id="path_5" />
    <path
       fill="#000"
       d="m-0,54.948l0,11.368c0,3.141 2.544,5.684 5.684,5.684l11.368,0l0,-17.052z"
       id="path_6" />
    <path
       fill="#000"
       d="M54.948,17.052L54.948,54.947L72,54.947L72,17.052l-8.895,0z"
       fill-opacity="0.5"
       id="path_7" />
    <path
       fill="#000"
       d="M72,17.052L72,5.684c0,-3.141 -2.544,-5.684 -5.684,-5.684l-11.368,0l0,17.052z"
       id="path_8" />
    <path
       d="m 27.90842,45.444444 v -14.25 l -2.861111,2.083334 -1.833333,-2.805556 5.583333,-4.027778 h 2.75 v 19 z M 41.508246,46 38.674913,44.055555 c 0.64809,-0.925868 1.296354,-1.842534 1.944445,-2.75 0.666666,-0.925868 1.324132,-1.842534 1.972222,-2.75 l -0.166667,-0.166666 c -0.425868,0.185243 -0.907465,0.277777 -1.444444,0.277777 -0.963021,0 -1.879688,-0.259201 -2.75,-0.777777 C 37.360156,37.370312 36.647135,36.64809 36.09158,35.722222 35.536024,34.777777 35.258247,33.703646 35.258247,32.5 c 0,-1.277778 0.314756,-2.398091 0.944444,-3.361111 0.629687,-0.981424 1.453646,-1.75 2.472222,-2.305556 C 39.69349,26.277778 40.786024,26 41.952691,26 c 1.092535,0 2.074132,0.203646 2.944444,0.611111 0.888889,0.388889 1.629688,0.916667 2.222223,1.583333 0.536979,0.592535 0.944444,1.268577 1.222222,2.027778 0.296354,0.759201 0.444444,1.564757 0.444444,2.416667 0,1.277777 -0.259201,2.444444 -0.777778,3.5 -0.5,1.055555 -1.138888,2.14809 -1.916666,3.277777 -0.759202,1.092535 -1.527778,2.194445 -2.305556,3.305556 C 43.026823,43.814757 42.267448,44.907465 41.508246,46 Z m 0.527778,-10.361111 c 0.555556,0 1.074132,-0.129688 1.555556,-0.388889 0.481423,-0.277778 0.870312,-0.648091 1.166666,-1.111111 0.314757,-0.481424 0.472223,-1.03698 0.472223,-1.666667 0,-0.629688 -0.157466,-1.175868 -0.472223,-1.638889 C 44.461892,30.370312 44.073003,30.009201 43.59158,29.75 c -0.481424,-0.277778 -1,-0.416667 -1.555556,-0.416667 -0.555555,0 -1.083333,0.138889 -1.583333,0.416667 -0.481424,0.259201 -0.879688,0.620312 -1.194444,1.083333 -0.296355,0.463021 -0.444445,1.009201 -0.444445,1.638889 0,0.629687 0.14809,1.185243 0.444445,1.666667 0.314756,0.46302 0.71302,0.833333 1.194444,1.111111 0.5,0.259201 1.027778,0.388889 1.583333,0.388889 z"
       fill="#2f353e"
       id="path9986"
       style="stroke-width:1;fill:#000000;fill-opacity:1" />
  </g>
</svg>
