<?xml version="1.0" encoding="UTF-8" standalone="no"?>
<svg
   id="vector"
   width="72"
   height="72"
   viewBox="0 0 72 72"
   version="1.1"
   sodipodi:docname="google_calendar_8.svg"
   inkscape:version="1.2.1 (9c6d41e410, 2022-07-14)"
   xmlns:inkscape="http://www.inkscape.org/namespaces/inkscape"
   xmlns:sodipodi="http://sodipodi.sourceforge.net/DTD/sodipodi-0.dtd"
   xmlns="http://www.w3.org/2000/svg"
   xmlns:svg="http://www.w3.org/2000/svg">
  <defs
     id="defs14" />
  <sodipodi:namedview
     id="namedview12"
     pagecolor="#ffffff"
     bordercolor="#000000"
     borderopacity="0.25"
     inkscape:showpageshadow="2"
     inkscape:pageopacity="0.0"
     inkscape:pagecheckerboard="0"
     inkscape:deskcolor="#d1d1d1"
     showgrid="false"
     inkscape:zoom="8.1415489"
     inkscape:cx="-10.685927"
     inkscape:cy="39.30456"
     inkscape:window-width="1920"
     inkscape:window-height="1009"
     inkscape:window-x="-8"
     inkscape:window-y="-8"
     inkscape:window-maximized="1"
     inkscape:current-layer="g352" />
  <g
     id="g352">
    <path
       fill="#000"
       d="m54.948,72l17.052,-17.052 -8.526,-0 -8.526,0 -0,8.526z"
       fill-opacity="0.75"
       id="path_3" />
    <path
       fill="#000"
       d="M17.052,63.474L17.052,72L54.947,72L54.947,54.948L17.052,54.948Z"
       fill-opacity="0.5"
       id="path_4" />
    <path
       fill="#000"
       d="M5.684,-0C2.544,-0 -0,2.544 -0,5.684L-0,54.947L8.526,54.947 17.052,54.947L17.052,17.052l37.895,0l0,-8.526L54.948,-0Z"
       fill-opacity="0.75"
       id="path_5" />
    <path
       fill="#000"
       d="m-0,54.948l0,11.368c0,3.141 2.544,5.684 5.684,5.684l11.368,0l0,-17.052z"
       id="path_6" />
    <path
       fill="#000"
       d="M54.948,17.052L54.948,54.947L72,54.947L72,17.052l-8.895,0z"
       fill-opacity="0.5"
       id="path_7" />
    <path
       fill="#000"
       d="M72,17.052L72,5.684c0,-3.141 -2.544,-5.684 -5.684,-5.684l-11.368,0l0,17.052z"
       id="path_8" />
    <path
       d="m 36.000005,47.999998 c -1.63136,0 -3.0727,-0.30167 -4.32402,-0.90502 -1.25154,-0.62577 -2.23471,-1.45245 -2.94972,-2.48045 -0.69281,-1.05021 -1.03911,-2.223393 -1.03911,-3.519552 0,-1.340782 0.3574,-2.480446 1.07263,-3.418994 0.71501,-0.960963 1.51948,-1.68708 2.4134,-2.178776 v -0.268157 c -0.71522,-0.491689 -1.35209,-1.139664 -1.91061,-1.944133 -0.53631,-0.826885 -0.80447,-1.765433 -0.80447,-2.815642 0,-1.22912 0.32388,-2.323952 0.97207,-3.284915 0.64797,-0.98317 1.5419,-1.75412 2.68156,-2.312849 1.13966,-0.580935 2.43561,-0.871508 3.88827,-0.871508 1.45244,0 2.73729,0.290573 3.85474,0.871508 1.13967,0.558729 2.03338,1.329679 2.68157,2.312849 0.67039,0.960963 1.00558,2.055795 1.00558,3.284915 0,1.050209 -0.27946,1.988757 -0.83798,2.815642 -0.53632,0.804469 -1.17319,1.452444 -1.91062,1.944133 v 0.268157 c 0.91613,0.491696 1.73171,1.217813 2.44693,2.178776 0.71501,0.938548 1.07262,2.078212 1.07262,3.418994 0,1.296159 -0.35761,2.469342 -1.07262,3.519552 -0.69281,1.028 -1.66488,1.85468 -2.9162,2.48045 -1.22912,0.60335 -2.67046,0.90502 -4.32402,0.90502 z m 0,-14.413406 c 0.91613,0 1.68708,-0.257053 2.31285,-0.77095 0.64797,-0.536313 0.97206,-1.22912 0.97206,-2.078212 0,-0.871508 -0.32409,-1.553002 -0.97206,-2.044692 -0.62577,-0.513896 -1.39672,-0.770949 -2.31285,-0.770949 -0.93855,0 -1.73192,0.257053 -2.37989,0.770949 -0.62577,0.49169 -0.93855,1.173184 -0.93855,2.044692 0,0.849092 0.31278,1.541899 0.93855,2.078212 0.64797,0.513897 1.44134,0.77095 2.37989,0.77095 z m 0,10.357546 c 1.13966,0 2.0669,-0.30168 2.78212,-0.90503 0.73743,-0.60335 1.10614,-1.396716 1.10614,-2.379886 0,-0.938547 -0.36871,-1.709497 -1.10614,-2.312849 -0.73743,-0.603352 -1.66487,-0.905027 -2.78212,-0.905027 -1.11746,0 -2.05601,0.301675 -2.81564,0.905027 -0.73743,0.603352 -1.10615,1.374302 -1.10615,2.312849 0,0.98317 0.36872,1.776536 1.10615,2.379886 0.73743,0.60335 1.67597,0.90503 2.81564,0.90503 z"
       fill="#2f353e"
       id="path1218"
       style="fill:#000000;fill-opacity:1;stroke-width:2.09497" />
  </g>
</svg>
