<svg id="vector" xmlns="http://www.w3.org/2000/svg" width="72" height="72" viewBox="0 0 72 72"><path fill="#000" d="M62.676,9.734L20.098,9.734c-3.692,0 -6.704,3.012 -6.704,6.704l0,6.704l51.902,0c3.692,0 6.704,3.012 6.704,6.704L72,19.058c0,-5.191 -4.196,-9.324 -9.324,-9.324z" fill-opacity="0.75" id="path_0"/><path fill="#000" d="M9.324,9.734C4.196,9.734 0,13.93 0,19.058l0,23.11c0,3.692 3.012,6.704 6.704,6.704l6.704,0L13.407,16.438C13.407,12.746 16.419,9.734 20.111,9.734Z" id="path_1"/><path fill="#000" d="m9.324,62.266l42.578,0c3.692,0 6.704,-3.012 6.704,-6.704L58.606,48.859L6.704,48.859C3.012,48.872 0,45.86 0,42.168l0,10.837c0,5.065 4.133,9.261 9.324,9.261z" fill-opacity="0.5" id="path_2"/><path fill="#000" d="m62.676,62.266c5.128,0 9.324,-4.196 9.324,-9.324L72,29.832c0,-3.692 -3.012,-6.704 -6.704,-6.704L58.593,23.128l0,32.434c0,3.692 -2.999,6.704 -6.704,6.704z" fill-opacity="0.25" id="path_3"/></svg>