<?xml version="1.0" encoding="UTF-8" standalone="no"?>
<svg
   id="vector"
   width="72"
   height="72"
   viewBox="0 0 72 72"
   version="1.1"
   sodipodi:docname="google_calendar_29.svg"
   inkscape:version="1.2.1 (9c6d41e410, 2022-07-14)"
   xmlns:inkscape="http://www.inkscape.org/namespaces/inkscape"
   xmlns:sodipodi="http://sodipodi.sourceforge.net/DTD/sodipodi-0.dtd"
   xmlns="http://www.w3.org/2000/svg"
   xmlns:svg="http://www.w3.org/2000/svg">
  <defs
     id="defs14" />
  <sodipodi:namedview
     id="namedview12"
     pagecolor="#ffffff"
     bordercolor="#000000"
     borderopacity="0.25"
     inkscape:showpageshadow="2"
     inkscape:pageopacity="0.0"
     inkscape:pagecheckerboard="0"
     inkscape:deskcolor="#d1d1d1"
     showgrid="false"
     inkscape:zoom="8.1415489"
     inkscape:cx="2.2722949"
     inkscape:cy="39.30456"
     inkscape:window-width="1920"
     inkscape:window-height="1009"
     inkscape:window-x="-8"
     inkscape:window-y="-8"
     inkscape:window-maximized="1"
     inkscape:current-layer="g352" />
  <g
     id="g352">
    <path
       fill="#000"
       d="m54.948,72l17.052,-17.052 -8.526,-0 -8.526,0 -0,8.526z"
       fill-opacity="0.75"
       id="path_3" />
    <path
       fill="#000"
       d="M17.052,63.474L17.052,72L54.947,72L54.947,54.948L17.052,54.948Z"
       fill-opacity="0.5"
       id="path_4" />
    <path
       fill="#000"
       d="M5.684,-0C2.544,-0 -0,2.544 -0,5.684L-0,54.947L8.526,54.947 17.052,54.947L17.052,17.052l37.895,0l0,-8.526L54.948,-0Z"
       fill-opacity="0.75"
       id="path_5" />
    <path
       fill="#000"
       d="m-0,54.948l0,11.368c0,3.141 2.544,5.684 5.684,5.684l11.368,0l0,-17.052z"
       id="path_6" />
    <path
       fill="#000"
       d="M54.948,17.052L54.948,54.947L72,54.947L72,17.052l-8.895,0z"
       fill-opacity="0.5"
       id="path_7" />
    <path
       fill="#000"
       d="M72,17.052L72,5.684c0,-3.141 -2.544,-5.684 -5.684,-5.684l-11.368,0l0,17.052z"
       id="path_8" />
    <path
       d="m 21.685244,45.444445 v -3.305557 c 0.03698,-0.03698 0.259201,-0.2592 0.666667,-0.666666 0.407291,-0.407465 0.907291,-0.907465 1.5,-1.5 0.611111,-0.611111 1.231423,-1.231423 1.861111,-1.861111 0.64809,-0.648091 1.231423,-1.240799 1.75,-1.777777 0.518402,-0.53698 0.89809,-0.925869 1.138888,-1.166667 0.648091,-0.703646 1.101737,-1.296354 1.361112,-1.777778 0.2592,-0.481423 0.388888,-1.036979 0.388888,-1.666666 0,-0.611111 -0.231597,-1.14809 -0.694444,-1.611111 -0.463021,-0.463021 -1.111111,-0.694445 -1.944444,-0.694445 -0.833334,0 -1.481598,0.240799 -1.944445,0.722222 -0.463021,0.481424 -0.787153,1.018576 -0.972222,1.611112 l -3.277778,-1.361112 c 0.203646,-0.685243 0.564757,-1.361111 1.083334,-2.027777 0.536979,-0.666667 1.231423,-1.222222 2.083333,-1.666667 0.870312,-0.463021 1.89809,-0.694444 3.083333,-0.694444 1.296181,0 2.407292,0.25 3.333333,0.75 0.944445,0.5 1.666667,1.166666 2.166667,2 0.518403,0.833333 0.777778,1.768576 0.777778,2.805555 0,1.185243 -0.287153,2.277778 -0.861111,3.277778 -0.555556,1 -1.268577,1.916666 -2.138889,2.75 -0.333333,0.333333 -0.722222,0.71302 -1.166667,1.138888 -0.426041,0.425869 -0.861111,0.861112 -1.305555,1.305555 -0.426042,0.444445 -0.824132,0.85191 -1.194445,1.222223 -0.370486,0.351909 -0.657465,0.629687 -0.861111,0.833334 L 26.601907,42.25 h 7.694445 v 3.194444 z M 43.203645,46 40.370312,44.055556 c 0.64809,-0.925868 1.296181,-1.842535 1.944445,-2.75 0.666666,-0.925868 1.323958,-1.842535 1.972222,-2.75 l -0.166666,-0.166667 c -0.426042,0.185243 -0.907465,0.277778 -1.444444,0.277778 -0.963021,0 -1.879688,-0.259201 -2.75,-0.777778 -0.870486,-0.518576 -1.583334,-1.240798 -2.138889,-2.166666 -0.555556,-0.944445 -0.833333,-2.018577 -0.833333,-3.222222 0,-1.277778 0.314756,-2.398091 0.944444,-3.361112 0.629514,-0.981423 1.453645,-1.749999 2.472222,-2.305555 1.018403,-0.555556 2.111111,-0.833333 3.277778,-0.833333 1.092534,0 2.073957,0.203645 2.944443,0.611111 0.888889,0.388889 1.629514,0.916666 2.222223,1.583333 0.536979,0.592535 0.944444,1.268576 1.222222,2.027778 0.29618,0.759201 0.444444,1.564757 0.444444,2.416666 0,1.277778 -0.259375,2.444445 -0.777778,3.5 -0.5,1.055556 -1.138888,2.148091 -1.916666,3.277778 -0.759374,1.092535 -1.527777,2.194445 -2.305556,3.305556 C 44.722048,43.814757 43.962847,44.907466 43.203645,46 Z m 0.527778,-10.361112 c 0.555556,0 1.073959,-0.129686 1.555556,-0.388888 0.481423,-0.277778 0.870312,-0.648091 1.166666,-1.111112 0.314757,-0.481423 0.472223,-1.036979 0.472223,-1.666666 0,-0.629688 -0.157466,-1.175868 -0.472223,-1.638888 -0.296354,-0.463022 -0.685243,-0.824132 -1.166666,-1.083333 -0.481597,-0.277779 -1,-0.416667 -1.555556,-0.416667 -0.555555,0 -1.083333,0.138888 -1.583333,0.416667 -0.481597,0.259201 -0.879688,0.620311 -1.194444,1.083333 -0.296355,0.46302 -0.444445,1.0092 -0.444445,1.638888 0,0.629687 0.14809,1.185243 0.444445,1.666666 0.314756,0.463021 0.712847,0.833334 1.194444,1.111112 0.5,0.259201 1.027778,0.388888 1.583333,0.388888 z"
       fill="#2f353e"
       id="path16632"
       style="stroke-width:1;fill:#000000;fill-opacity:1" />
  </g>
</svg>
