<?xml version="1.0" encoding="UTF-8" standalone="no"?>
<svg
   id="vector"
   width="72"
   height="72"
   viewBox="0 0 72 72"
   version="1.1"
   sodipodi:docname="google_calendar_15.svg"
   inkscape:version="1.2.1 (9c6d41e410, 2022-07-14)"
   xmlns:inkscape="http://www.inkscape.org/namespaces/inkscape"
   xmlns:sodipodi="http://sodipodi.sourceforge.net/DTD/sodipodi-0.dtd"
   xmlns="http://www.w3.org/2000/svg"
   xmlns:svg="http://www.w3.org/2000/svg">
  <defs
     id="defs14" />
  <sodipodi:namedview
     id="namedview12"
     pagecolor="#ffffff"
     bordercolor="#000000"
     borderopacity="0.25"
     inkscape:showpageshadow="2"
     inkscape:pageopacity="0.0"
     inkscape:pagecheckerboard="0"
     inkscape:deskcolor="#d1d1d1"
     showgrid="false"
     inkscape:zoom="8.1415489"
     inkscape:cx="-25.547964"
     inkscape:cy="39.30456"
     inkscape:window-width="1920"
     inkscape:window-height="1009"
     inkscape:window-x="-8"
     inkscape:window-y="-8"
     inkscape:window-maximized="1"
     inkscape:current-layer="g352" />
  <g
     id="g352">
    <path
       fill="#000"
       d="m54.948,72l17.052,-17.052 -8.526,-0 -8.526,0 -0,8.526z"
       fill-opacity="0.75"
       id="path_3" />
    <path
       fill="#000"
       d="M17.052,63.474L17.052,72L54.947,72L54.947,54.948L17.052,54.948Z"
       fill-opacity="0.5"
       id="path_4" />
    <path
       fill="#000"
       d="M5.684,-0C2.544,-0 -0,2.544 -0,5.684L-0,54.947L8.526,54.947 17.052,54.947L17.052,17.052l37.895,0l0,-8.526L54.948,-0Z"
       fill-opacity="0.75"
       id="path_5" />
    <path
       fill="#000"
       d="m-0,54.948l0,11.368c0,3.141 2.544,5.684 5.684,5.684l11.368,0l0,-17.052z"
       id="path_6" />
    <path
       fill="#000"
       d="M54.948,17.052L54.948,54.947L72,54.947L72,17.052l-8.895,0z"
       fill-opacity="0.5"
       id="path_7" />
    <path
       fill="#000"
       d="M72,17.052L72,5.684c0,-3.141 -2.544,-5.684 -5.684,-5.684l-11.368,0l0,17.052z"
       id="path_8" />
    <path
       d="M 27.566251,45.542857 V 30.885714 L 24.623394,33.028572 22.73768,30.142857 28.480536,26 h 2.828571 V 45.542857 Z M 42.348036,46 c -0.971429,0 -1.942857,-0.190536 -2.914285,-0.571428 -0.9525,-0.380894 -1.790535,-0.961965 -2.514286,-1.742858 -0.723928,-0.780892 -1.228571,-1.771428 -1.514285,-2.971428 L 38.776607,39.4 c 0.209464,0.933392 0.618928,1.695178 1.228572,2.285714 0.609464,0.571428 1.380892,0.857143 2.314286,0.857143 0.895178,0 1.6475,-0.304821 2.257143,-0.914285 0.628571,-0.609465 0.942858,-1.380894 0.942858,-2.314286 0,-0.914286 -0.295359,-1.67625 -0.885715,-2.285714 C 44.043214,36.4 43.271785,36.085714 42.319465,36.085714 c -0.590536,0 -1.114286,0.12375 -1.57143,0.371428 -0.457143,0.24768 -0.847679,0.561965 -1.171429,0.942858 L 35.948036,35.771428 37.062322,26 h 11.028571 v 3.285714 h -7.914285 l -0.714286,4.571428 0.228571,0.05714 c 0.380893,-0.32375 0.847501,-0.6 1.4,-0.828572 0.571427,-0.228571 1.238036,-0.342856 2,-0.342856 1.085714,0 2.095177,0.27625 3.028571,0.828571 0.933215,0.552321 1.685716,1.32375 2.257142,2.314285 0.590359,0.971429 0.885715,2.114286 0.885715,3.428572 0,1.295178 -0.295356,2.447678 -0.885715,3.457143 -0.590536,1.009464 -1.409641,1.8 -2.457141,2.371429 -1.028572,0.571428 -2.219108,0.857142 -3.571429,0.857142 z"
       fill="#2f353e"
       id="path8613"
       style="fill:#000000;fill-opacity:1;stroke-width:2.14286" />
  </g>
</svg>
