<svg id="vector" xmlns="http://www.w3.org/2000/svg" width="72" height="72" viewBox="0 0 72 72"><path fill="#000" d="M29.383,13.907L4.935,13.907C2.243,13.907 -0,16.15 -0,18.841c0,0 0,0 0,0l0,25.57c0,-0.673 0.224,-1.346 0.673,-1.794z" fill-opacity="0.75" id="path_0"/><path fill="#000" d="M67.065,64.598L4.935,64.598C2.243,64.598 -0,62.355 -0,59.664l0,0 0,-15.252C-0,43.738 0.224,43.065 0.673,42.617L35.215,8.075C35.664,7.626 36.336,7.402 37.009,7.402l30.056,0c2.692,0 4.935,2.243 4.935,4.935l0,47.551c0,2.692 -2.243,4.71 -4.935,4.71 0,0 0,0 0,0z" fill-opacity="0.5" id="path_1"/><path fill="#000" d="M35.215,8.075L0.673,42.617C0.224,43.065 -0,43.738 -0,44.411l0,0.224c0,-0.673 0.449,-1.121 1.121,-1.121l29.832,0c2.692,0 4.935,-2.243 4.935,-4.935 0,0 0,0 0,0L35.888,8.748C35.888,8.075 36.336,7.626 37.009,7.402l-0.224,0c-0.449,0 -1.121,0.224 -1.57,0.673z" fill-opacity="0.5" id="path_2"/><path fill="#000" d="m-0,44.636c0,-0.897 0.673,-1.794 1.57,-2.019l21.757,-6.953c2.243,-0.673 4.037,-2.467 4.71,-4.71l6.953,-21.757c0.224,-0.897 1.121,-1.57 2.243,-1.57l-0.224,0c-0.673,0 -1.346,0.224 -1.794,0.673L0.673,42.617C0.224,43.065 -0,43.738 -0,44.636Z" fill-opacity="0.5" id="path_3"/></svg>