<svg id="vector" xmlns="http://www.w3.org/2000/svg" width="72" height="72" viewBox="0 0 72 72"><path fill="#000" d="m24.729,53.338c2.221,2.778 4.484,6.272 5.668,8.382 1.442,2.743 2.04,4.595 3.112,7.913 0.627,1.817 1.225,2.368 2.479,2.368 1.372,0 1.999,-0.926 2.479,-2.368 1.002,-3.112 1.776,-5.48 3.001,-7.737 4.724,-8.909 12.426,-15.239 16.763,-23.914 0,0 2.854,-5.299 2.854,-12.719 0,-6.916 -2.813,-11.723 -2.813,-11.723l-33.527,39.857z" id="path_0"/><path fill="#000" d="m13.358,37.043c2.702,6.154 7.854,11.547 11.371,16.294l18.639,-22.097c0,0 -2.632,3.446 -7.385,3.446 -5.299,0 -9.613,-4.22 -9.613,-9.554 0,-3.669 2.186,-6.213 2.186,-6.213 -7.296,8.781 -7.304,8.573 -15.239,18.111z" fill-opacity="0.25" id="path_1"/><path fill="#000" d="m43.602,1.155c6.213,1.999 11.488,6.213 14.653,12.367l-14.888,17.76c0,0 2.186,-2.556 2.186,-6.213 0,-5.445 -4.595,-9.554 -9.554,-9.554 -4.707,0 -7.385,3.405 -7.385,3.405 1.824,-2.194 13.68,-16.2 15.005,-17.76z" fill-opacity="0.25" id="path_2"/><path fill="#000" d="m16.757,8.968c3.704,-4.408 10.199,-8.968 19.166,-8.968 4.331,0 7.62,1.149 7.62,1.149l-14.946,17.76c-0.174,0.127 -9.977,-8.302 -11.84,-9.964z" fill-opacity="0.75" id="path_3"/><path fill="#000" d="m13.358,37.043c0,0 -2.444,-4.853 -2.444,-11.84 0,-6.623 2.591,-12.426 5.861,-16.177l11.84,9.964 -15.239,18.053z" fill-opacity="0.5" id="path_4"/></svg>