<?xml version="1.0" encoding="UTF-8" standalone="no"?>
<svg
   id="vector"
   width="72"
   height="72"
   viewBox="0 0 72 72"
   version="1.1"
   sodipodi:docname="google_calendar_2.svg"
   inkscape:version="1.2.1 (9c6d41e410, 2022-07-14)"
   xmlns:inkscape="http://www.inkscape.org/namespaces/inkscape"
   xmlns:sodipodi="http://sodipodi.sourceforge.net/DTD/sodipodi-0.dtd"
   xmlns="http://www.w3.org/2000/svg"
   xmlns:svg="http://www.w3.org/2000/svg">
  <defs
     id="defs14" />
  <sodipodi:namedview
     id="namedview12"
     pagecolor="#ffffff"
     bordercolor="#000000"
     borderopacity="0.25"
     inkscape:showpageshadow="2"
     inkscape:pageopacity="0.0"
     inkscape:pagecheckerboard="0"
     inkscape:deskcolor="#d1d1d1"
     showgrid="false"
     inkscape:zoom="8.1415489"
     inkscape:cx="2.2722949"
     inkscape:cy="39.30456"
     inkscape:window-width="1920"
     inkscape:window-height="1009"
     inkscape:window-x="-8"
     inkscape:window-y="-8"
     inkscape:window-maximized="1"
     inkscape:current-layer="g352" />
  <g
     id="g352">
    <path
       fill="#000"
       d="m54.948,72l17.052,-17.052 -8.526,-0 -8.526,0 -0,8.526z"
       fill-opacity="0.75"
       id="path_3" />
    <path
       fill="#000"
       d="M17.052,63.474L17.052,72L54.947,72L54.947,54.948L17.052,54.948Z"
       fill-opacity="0.5"
       id="path_4" />
    <path
       fill="#000"
       d="M5.684,-0C2.544,-0 -0,2.544 -0,5.684L-0,54.947L8.526,54.947 17.052,54.947L17.052,17.052l37.895,0l0,-8.526L54.948,-0Z"
       fill-opacity="0.75"
       id="path_5" />
    <path
       fill="#000"
       d="m-0,54.948l0,11.368c0,3.141 2.544,5.684 5.684,5.684l11.368,0l0,-17.052z"
       id="path_6" />
    <path
       fill="#000"
       d="M54.948,17.052L54.948,54.947L72,54.947L72,17.052l-8.895,0z"
       fill-opacity="0.5"
       id="path_7" />
    <path
       fill="#000"
       d="M72,17.052L72,5.684c0,-3.141 -2.544,-5.684 -5.684,-5.684l-11.368,0l0,17.052z"
       id="path_8" />
    <path
       d="m 28.319999,48 v -4.08 l 0.822857,-0.822857 c 0.502715,-0.502929 1.119858,-1.120072 1.851429,-1.851429 l 2.297143,-2.297143 c 0.799928,-0.799928 1.519928,-1.5315 2.16,-2.194285 0.639857,-0.662786 1.1085,-1.142786 1.405715,-1.44 0.799928,-0.8685 1.359856,-1.600072 1.68,-2.194286 0.319929,-0.594214 0.479999,-1.279929 0.479999,-2.057143 0,-0.754286 -0.285857,-1.417071 -0.857143,-1.988571 -0.5715,-0.5715 -1.371428,-0.857143 -2.4,-0.857143 -1.028571,0 -1.828713,0.297214 -2.4,0.891428 -0.5715,0.594215 -0.97157,1.257215 -1.2,1.988572 l -4.045714,-1.68 c 0.251357,-0.845786 0.697072,-1.68 1.337143,-2.502857 0.662786,-0.822857 1.519928,-1.508572 2.571428,-2.057143 C 33.097071,24.285643 34.365642,24 35.828571,24 c 1.599857,0 2.971285,0.308571 4.114285,0.925714 1.165715,0.617143 2.057143,1.44 2.674286,2.468572 0.639857,1.028571 0.96,2.182928 0.96,3.462857 0,1.462928 -0.354427,2.811428 -1.062857,4.045714 -0.685713,1.234286 -1.565786,2.365714 -2.64,3.394286 -0.411429,0.411428 -0.891429,0.880071 -1.439999,1.405714 -0.525858,0.525643 -1.062858,1.062857 -1.61143,1.611429 -0.525857,0.548571 -1.017214,1.0515 -1.474285,1.508571 -0.457286,0.434357 -0.8115,0.777214 -1.062857,1.028572 l 0.102857,0.205714 h 9.497143 V 48 Z"
       fill="#2f353e"
       id="path718-6"
       sodipodi:nodetypes="ccccscccscscccccsccscccccccccc"
       style="fill:#000000;fill-opacity:0.75;stroke-width:2.14286" />
  </g>
</svg>
