<svg id="vector" xmlns="http://www.w3.org/2000/svg" width="72" height="72" viewBox="0 0 72 72"><path fill="#000" d="m6.92,37.785l3.601,3.601 7.838,-7.768 -3.601,-3.601l0,0l-1.624,-1.624c-1.342,-1.342 -1.977,-3.037 -1.977,-4.873 0,-1.624 0.565,-3.107 1.483,-4.237l0,0 0,0 0,0 0,0c1.271,-1.624 3.248,-2.683 5.438,-2.683 1.836,0 3.601,0.706 4.943,2.048l1.624,1.554 3.601,3.672 7.768,-7.838 -3.672,-3.601 -1.624,-1.554C27.47,7.632 22.951,5.584 18.007,5.584 8.05,5.513 0,13.563 0,23.52c0,2.472 0.494,4.802 1.412,6.991 0.918,2.189 2.26,4.096 3.884,5.72l1.624,1.554" id="path_0"/><path fill="#000" d="M24.857,42.799l11.157,-11.157l-7.838,-7.838l-9.816,9.816l0,0l-7.838,7.768l4.237,4.237l3.601,3.601l3.743,-3.743" fill-opacity="0.25" id="path_1"/><path fill="#000" d="M36.015,66.526l0,0l7.838,-7.485l17.654,-17.654l-7.838,-7.768l-17.654,17.584l-9.816,-9.745l-7.838,7.768l9.816,9.816l0,0.071l7.838,7.415z" fill-opacity="0.5" id="path_2"/><path fill="#000" d="M66.733,36.161C70.405,32.489 72.524,26.91 71.888,21.19 71.041,12.575 63.908,6.149 55.222,5.513 49.785,5.16 44.771,7.208 41.24,10.739L28.176,23.803 36.015,31.641 49.149,18.577c1.554,-1.554 3.813,-2.26 6.002,-1.907 2.895,0.424 5.296,2.895 5.72,5.791 0.282,2.189 -0.424,4.308 -1.977,5.861l-5.226,5.226 7.838,7.838z" fill-opacity="0.75" id="path_3"/></svg>