<svg id="vector" xmlns="http://www.w3.org/2000/svg" width="72" height="72" viewBox="0 0 72 72"><path fill="#000" d="M44.584,-0L27.416,-0 15.429,-0c-2.861,0 -5.182,2.32 -5.182,5.104L10.247,54.831L27.416,54.831L27.416,17.091l17.169,0z" id="path_0"/><path fill="#000" d="M27.416,72l0,-17.169l17.169,0l0,17.169z" fill-opacity="0.5" id="path_1"/><path fill="#000" d="m27.416,54.831l0,17.169L15.429,72c-2.861,0 -5.182,-2.32 -5.182,-5.182L10.247,54.831Z" fill-opacity="0.75" id="path_2"/><path fill="#000" d="M44.584,54.831l0,-37.74l17.091,0l0,37.74z" fill-opacity="0.25" id="path_3"/><path fill="#000" d="m44.584,54.831l17.169,0l0,11.987c0,2.861 -2.32,5.182 -5.182,5.182L44.584,72Z" fill-opacity="0.75" id="path_4"/><path fill="#000" d="M61.676,17.091l-17.091,0l0,-17.091z" fill-opacity="0.5" id="path_5"/></svg>