<?xml version="1.0" encoding="UTF-8" standalone="no"?>
<svg
   id="vector"
   width="72"
   height="72"
   viewBox="0 0 72 72"
   version="1.1"
   sodipodi:docname="google_calendar_25.svg"
   inkscape:version="1.2.1 (9c6d41e410, 2022-07-14)"
   xmlns:inkscape="http://www.inkscape.org/namespaces/inkscape"
   xmlns:sodipodi="http://sodipodi.sourceforge.net/DTD/sodipodi-0.dtd"
   xmlns="http://www.w3.org/2000/svg"
   xmlns:svg="http://www.w3.org/2000/svg">
  <defs
     id="defs14" />
  <sodipodi:namedview
     id="namedview12"
     pagecolor="#ffffff"
     bordercolor="#000000"
     borderopacity="0.25"
     inkscape:showpageshadow="2"
     inkscape:pageopacity="0.0"
     inkscape:pagecheckerboard="0"
     inkscape:deskcolor="#d1d1d1"
     showgrid="false"
     inkscape:zoom="8.1415489"
     inkscape:cx="2.2722949"
     inkscape:cy="39.30456"
     inkscape:window-width="1920"
     inkscape:window-height="1009"
     inkscape:window-x="-8"
     inkscape:window-y="-8"
     inkscape:window-maximized="1"
     inkscape:current-layer="g352" />
  <g
     id="g352">
    <path
       fill="#000"
       d="m54.948,72l17.052,-17.052 -8.526,-0 -8.526,0 -0,8.526z"
       fill-opacity="0.75"
       id="path_3" />
    <path
       fill="#000"
       d="M17.052,63.474L17.052,72L54.947,72L54.947,54.948L17.052,54.948Z"
       fill-opacity="0.5"
       id="path_4" />
    <path
       fill="#000"
       d="M5.684,-0C2.544,-0 -0,2.544 -0,5.684L-0,54.947L8.526,54.947 17.052,54.947L17.052,17.052l37.895,0l0,-8.526L54.948,-0Z"
       fill-opacity="0.75"
       id="path_5" />
    <path
       fill="#000"
       d="m-0,54.948l0,11.368c0,3.141 2.544,5.684 5.684,5.684l11.368,0l0,-17.052z"
       id="path_6" />
    <path
       fill="#000"
       d="M54.948,17.052L54.948,54.947L72,54.947L72,17.052l-8.895,0z"
       fill-opacity="0.5"
       id="path_7" />
    <path
       fill="#000"
       d="M72,17.052L72,5.684c0,-3.141 -2.544,-5.684 -5.684,-5.684l-11.368,0l0,17.052z"
       id="path_8" />
    <path
       d="M 21.633204,45.553073 V 42.22905 c 0.03719,-0.03719 0.26065,-0.260649 0.670391,-0.670391 0.409567,-0.409741 0.912361,-0.912535 1.50838,-1.50838 0.614525,-0.614525 1.238303,-1.238303 1.871509,-1.871508 0.651711,-0.651711 1.238303,-1.24773 1.759776,-1.78771 0.521299,-0.539979 0.903108,-0.93104 1.145252,-1.173184 0.651711,-0.707577 1.107891,-1.303596 1.368715,-1.787709 0.260649,-0.484114 0.391061,-1.042773 0.391061,-1.675978 0,-0.614525 -0.232891,-1.154504 -0.698324,-1.620112 -0.465607,-0.465607 -1.117318,-0.698324 -1.955307,-0.698324 -0.837989,0 -1.489874,0.242144 -1.955307,0.726257 -0.465608,0.484113 -0.79155,1.024267 -0.977654,1.620112 l -3.296089,-1.368715 c 0.204783,-0.689072 0.567912,-1.368715 1.089385,-2.039107 0.539979,-0.670391 1.238303,-1.22905 2.094972,-1.675977 C 25.525139,26.232716 26.558658,26 27.750523,26 c 1.303422,0 2.42074,0.251396 3.351955,0.75419 0.949721,0.502793 1.675978,1.173184 2.178771,2.011173 0.521299,0.837989 0.782123,1.778457 0.782123,2.821229 0,1.191865 -0.288757,2.290503 -0.865922,3.29609 -0.558659,1.005586 -1.275663,1.927374 -2.150838,2.765363 -0.335195,0.335195 -0.726257,0.717004 -1.173184,1.145251 -0.428422,0.428247 -0.865922,0.865922 -1.312849,1.312849 -0.428422,0.446928 -0.828736,0.856669 -1.201118,1.229051 -0.372555,0.353875 -0.661138,0.633205 -0.865921,0.837989 l 0.0838,0.167597 h 7.73743 v 3.212291 z M 43.774616,46 c -0.949721,0 -1.899442,-0.186278 -2.849163,-0.558659 -0.93104,-0.372381 -1.750523,-0.940468 -2.4581,-1.703911 -0.707577,-0.763442 -1.201118,-1.731843 -1.480447,-2.905028 l 3.296089,-1.284916 c 0.204784,0.912535 0.605273,1.657298 1.201118,2.234637 0.595845,0.558659 1.350035,0.837989 2.26257,0.837989 0.875174,0 1.610859,-0.29801 2.206704,-0.893855 0.614525,-0.595845 0.921787,-1.350035 0.921787,-2.26257 0,-0.893855 -0.288581,-1.638792 -0.865921,-2.234637 -0.57734,-0.614525 -1.33153,-0.921787 -2.262569,-0.921787 -0.57734,0 -1.089386,0.120984 -1.536313,0.363128 -0.446928,0.242144 -0.828736,0.549407 -1.145252,0.921788 L 37.517633,36 38.607019,26.446927 h 10.782122 v 3.212291 H 41.65171 l -0.698324,4.469274 0.223464,0.05586 c 0.372381,-0.316515 0.828736,-0.586592 1.368716,-0.810055 0.558658,-0.223464 1.210369,-0.335196 1.955308,-0.335196 1.061452,0 2.048359,0.270077 2.960893,0.810056 0.912535,0.539979 1.648045,1.294169 2.206704,2.26257 0.57734,0.949721 0.865922,2.067039 0.865922,3.351955 0,1.266236 -0.288582,2.392982 -0.865922,3.379889 -0.577339,0.986906 -1.377968,1.759776 -2.402234,2.318435 -1.005587,0.55866 -2.169518,0.837989 -3.49162,0.837989 z"
       fill="#2f353e"
       id="path12716"
       style="stroke-width:1;fill:#000000;fill-opacity:1" />
  </g>
</svg>
