<?xml version="1.0" encoding="UTF-8" standalone="no"?>
<svg
   id="vector"
   width="72"
   height="72"
   viewBox="0 0 72 72"
   version="1.1"
   sodipodi:docname="google_calendar_12.svg"
   inkscape:version="1.2.1 (9c6d41e410, 2022-07-14)"
   xmlns:inkscape="http://www.inkscape.org/namespaces/inkscape"
   xmlns:sodipodi="http://sodipodi.sourceforge.net/DTD/sodipodi-0.dtd"
   xmlns="http://www.w3.org/2000/svg"
   xmlns:svg="http://www.w3.org/2000/svg">
  <defs
     id="defs14" />
  <sodipodi:namedview
     id="namedview12"
     pagecolor="#ffffff"
     bordercolor="#000000"
     borderopacity="0.25"
     inkscape:showpageshadow="2"
     inkscape:pageopacity="0.0"
     inkscape:pagecheckerboard="0"
     inkscape:deskcolor="#d1d1d1"
     showgrid="false"
     inkscape:zoom="8.1415489"
     inkscape:cx="2.2722949"
     inkscape:cy="39.30456"
     inkscape:window-width="1920"
     inkscape:window-height="1009"
     inkscape:window-x="-8"
     inkscape:window-y="-8"
     inkscape:window-maximized="1"
     inkscape:current-layer="g352" />
  <g
     id="g352">
    <path
       fill="#000"
       d="m54.948,72l17.052,-17.052 -8.526,-0 -8.526,0 -0,8.526z"
       fill-opacity="0.75"
       id="path_3" />
    <path
       fill="#000"
       d="M17.052,63.474L17.052,72L54.947,72L54.947,54.948L17.052,54.948Z"
       fill-opacity="0.5"
       id="path_4" />
    <path
       fill="#000"
       d="M5.684,-0C2.544,-0 -0,2.544 -0,5.684L-0,54.947L8.526,54.947 17.052,54.947L17.052,17.052l37.895,0l0,-8.526L54.948,-0Z"
       fill-opacity="0.75"
       id="path_5" />
    <path
       fill="#000"
       d="m-0,54.948l0,11.368c0,3.141 2.544,5.684 5.684,5.684l11.368,0l0,-17.052z"
       id="path_6" />
    <path
       fill="#000"
       d="M54.948,17.052L54.948,54.947L72,54.947L72,17.052l-8.895,0z"
       fill-opacity="0.5"
       id="path_7" />
    <path
       fill="#000"
       d="M72,17.052L72,5.684c0,-3.141 -2.544,-5.684 -5.684,-5.684l-11.368,0l0,17.052z"
       id="path_8" />
    <path
       d="M 26.308179,48 V 30.411429 L 22.77675,32.982857 20.513893,29.52 27.405322,24.548571 h 3.394285 V 48 Z m 9.612214,0 v -4.08 c 0.04586,-0.04564 0.320143,-0.319929 0.822857,-0.822857 0.502929,-0.502929 1.120072,-1.120072 1.851429,-1.851429 0.754285,-0.754285 1.520143,-1.519928 2.297143,-2.297143 0.800142,-0.799928 1.520142,-1.5315 2.16,-2.194285 0.640071,-0.662786 1.108714,-1.142786 1.405714,-1.44 0.800143,-0.8685 1.360071,-1.600072 1.68,-2.194286 0.320143,-0.594214 0.48,-1.279929 0.48,-2.057143 0,-0.754286 -0.285643,-1.417071 -0.857143,-1.988571 -0.571286,-0.5715 -1.371429,-0.857143 -2.4,-0.857143 -1.028571,0 -1.8285,0.297214 -2.4,0.891428 -0.571286,0.594215 -0.971357,1.257215 -1.2,1.988572 l -4.045714,-1.68 c 0.251571,-0.845786 0.697285,-1.68 1.337143,-2.502857 0.663,-0.822857 1.520142,-1.508572 2.571428,-2.057143 C 40.697679,24.285643 41.96625,24 43.428964,24 c 1.600072,0 2.9715,0.308571 4.114286,0.925714 1.165714,0.617143 2.057143,1.44 2.674286,2.468572 0.640071,1.028571 0.96,2.182928 0.96,3.462857 0,1.462928 -0.354214,2.811428 -1.062857,4.045714 -0.685715,1.234286 -1.565572,2.365714 -2.64,3.394286 -0.411429,0.411428 -0.891429,0.880071 -1.44,1.405714 -0.525643,0.525643 -1.062857,1.062857 -1.611429,1.611429 -0.525643,0.548571 -1.017,1.0515 -1.474286,1.508571 -0.457071,0.434357 -0.811285,0.777214 -1.062857,1.028572 l 0.102857,0.205714 h 9.497143 V 48 Z"
       fill="#2f353e"
       id="path8238"
       style="fill:#000000;fill-opacity:1;stroke-width:2.14286" />
  </g>
</svg>
