<svg id="vector" xmlns="http://www.w3.org/2000/svg" width="72" height="72" viewBox="0 0 72 72"><path fill="#000" d="m27.183,46.846c-0.5,0.126 -1.006,0.222 -1.518,0.288 -0.358,0.055 -0.7,-0.167 -0.797,-0.516l0.004,-3.283c0.019,-0.322 -0.111,-0.667 0.147,-0.952 0.123,-0.142 0.286,-0.242 0.468,-0.286 0.584,-0.107 1.148,-0.299 1.676,-0.571 0.928,-0.536 1.59,-1.436 1.825,-2.481 0.041,-0.17 0.081,-0.341 0.12,-0.512 -2.308,-0.004 -4.616,-0.008 -6.923,-0.012 -0.199,0.006 -0.398,-0.014 -0.591,-0.061 -0.597,-0.159 -1.019,-0.689 -1.039,-1.307 -0.004,-3.49 -0.003,-6.979 0.005,-10.469 -0.112,-0.541 0.066,-1.101 0.469,-1.479 0.237,-0.218 0.547,-0.341 0.869,-0.346 3.393,-0.001 6.787,-0.001 10.18,-0.002 0.779,0.003 1.409,0.637 1.406,1.417 -0.001,0.126 -0.018,0.251 -0.052,0.372 0.053,0.167 0.072,0.344 0.056,0.519 0.001,3.802 0.022,7.606 -0.007,11.409 0.005,2.432 -1.032,4.75 -2.849,6.366 -0.097,0.09 -0.19,0.183 -0.284,0.274 -0.938,0.747 -2.014,1.301 -3.167,1.63zM45.956,46.604L45.826,46.64 45.753,46.681c-0.655,0.19 -1.322,0.336 -1.997,0.439 -0.392,0.101 -0.79,-0.135 -0.891,-0.527 -0.018,-0.068 -0.025,-0.139 -0.023,-0.209 -0.005,-0.364 -0.008,-0.729 -0.011,-1.094l0.019,-1.958c-0.003,-0.144 -0.008,-0.287 -0.008,-0.43 0.001,-0.501 0.194,-0.713 0.817,-0.855 0.794,-0.136 1.536,-0.484 2.149,-1.007 0.697,-0.668 1.148,-1.552 1.28,-2.508l-6.395,-0.012c-0.232,-0 -0.464,0.003 -0.696,-0.001 -0.784,0.026 -1.441,-0.588 -1.468,-1.372 -0.001,-0.04 -0.001,-0.079 0.001,-0.119 0.001,-3.446 0.004,-6.893 0.008,-10.339l-0.006,-0.099c-0.112,-0.605 0.164,-1.215 0.691,-1.532 0.216,-0.134 0.467,-0.202 0.721,-0.198 3.371,-0.002 6.742,-0.003 10.112,-0.003 0.78,0.004 1.409,0.639 1.405,1.418 -0.001,0.126 -0.018,0.25 -0.052,0.371 0.053,0.167 0.072,0.344 0.056,0.519 0,3.809 -0,7.618 -0.001,11.427 -0.034,3.447 -2.106,6.546 -5.278,7.894 -0.079,0.034 -0.155,0.078 -0.232,0.117z" fill-opacity="0.5" id="path_0"/><path fill="#000" d="m64.636,25.621l0,0c-0.978,-5.511 -3.539,-10.617 -7.369,-14.698 -4.69,-5.033 -11.015,-8.238 -17.847,-9.044 -0.547,-0.03 -1.091,-0.091 -1.631,-0.184l-3.847,0c-0.042,0.097 -0.131,0.061 -0.202,0.068 -0.991,0.087 -1.977,0.2 -2.954,0.386 -6.948,1.23 -13.198,4.978 -17.555,10.529 -3.678,4.551 -5.856,10.129 -6.238,15.968 -0.216,2.874 -0.005,5.764 0.627,8.576 0.467,2.099 1.178,4.136 2.117,6.07 0.083,0.165 0.165,0.33 0.249,0.495 1.526,3.041 3.573,5.792 6.047,8.128 5.288,5.001 12.266,7.826 19.544,7.91 0.34,0.005 0.432,0.088 0.43,0.436 -0.016,2.963 -0.009,5.925 -0.008,8.888 0,0.115 0.009,0.23 0.016,0.373 0.096,-0.039 0.156,-0.061 0.214,-0.088 5.552,-2.57 10.685,-5.961 15.228,-10.058 0.906,-0.825 1.775,-1.687 2.607,-2.586 0.357,-0.384 0.711,-0.775 1.069,-1.159 0.553,-0.591 1.031,-1.252 1.552,-1.874 0.602,-0.718 1.142,-1.481 1.675,-2.249 1.184,-1.691 2.226,-3.477 3.115,-5.339 0.448,-0.946 0.873,-1.899 1.251,-2.874 0.014,-0.017 0.027,-0.035 0.037,-0.055 1.015,-2.663 1.699,-5.441 2.037,-8.271 0.122,-0.988 0.202,-1.982 0.252,-2.975 0.108,-2.132 -0.032,-4.27 -0.417,-6.37z" stroke-width="1" stroke="#000" id="path_1"/></svg>