<svg id="vector" xmlns="http://www.w3.org/2000/svg" width="72" height="72" viewBox="0 0 72 72"><path fill="#000" d="m55.662,40.351a1.437,1.437 0,0 0,-1.434 -1.431,1.41 1.41,0 0,0 -0.949,0.363 26.354,26.354 135,0 1,-17.264 6.16l-0.03,0a27.441,27.441 135,0 1,-17.264 -6.159,1.79 1.79,0 0,0 -0.979,-0.335 1.458,1.458 0,0 0,-1.403 1.585,3.355 3.355,0 0,0 0.818,1.73 23.201,23.201 0,0 0,18.765 8.667l0.156,0a23.202,23.202 0,0 0,18.765 -8.667,3.925 3.925,0 0,0 0.818,-1.912" fill-opacity="0.75" id="path_0"/><path fill="#000" d="m55.958,62.37a0.693,0.693 135,0 1,0.173 0.417c0,0.209 -0.197,0.352 -0.446,0.352a27.14,27.14 45,0 1,-10.285 -5.462,1.938 1.938,0 0,0 -1.756,-0.288 35.925,35.925 0,0 1,-7.641 0.817c-16.549,0 -29.966,-11.076 -29.966,-24.744 0,-13.661 13.416,-24.735 29.966,-24.735 16.547,0 29.963,11.075 29.963,24.735a23.638,23.638 135,0 1,-12.146 19.894,1.966 1.966,0 0,0 -1.017,1.576 16.802,16.802 135,0 0,3.157 7.438zM65.593,65.39A13.22,13.22 135,0 1,59.531 58.135,1.328 1.328,0 0,1 60.014,56.553 29.318,29.318 0,0 0,72 33.411C72,16.258 55.882,2.354 36.002,2.354 16.119,2.354 0,16.259 0,33.411c0,17.161 16.119,31.068 36.002,31.068a41.64,41.64 0,0 0,7.572 -0.689,2.034 2.034,0 0,1 1.486,0.275 38.727,38.727 45,0 0,18.698 5.559,2.532 2.532,0 0,0 2.87,-2.512 1.945,1.945 0,0 0,-1.034 -1.722z" id="path_1"/></svg>