<svg id="vector" xmlns="http://www.w3.org/2000/svg" width="72" height="72" viewBox="0 0 72 72"><path fill="#000" d="m54.196,31.139c0.031,0.418 -0.046,0.821 -0.248,1.192 -0.325,0.588 -0.65,1.192 -0.991,1.78 -0.31,0.526 -0.495,1.115 -0.573,1.719 -0.046,0.17 -0.015,0.356 0.046,0.526 0.449,-0.65 0.882,-1.285 1.362,-1.889 0.542,-0.712 1.177,-1.362 1.858,-1.951 0.372,-0.325 0.805,-0.573 1.27,-0.712 0.604,-0.201 1.27,0.046 1.564,0.604 0.31,0.511 0.403,1.084 0.418,1.657 0.077,2.121 -1.424,4.459 -3.391,5.295 -0.573,0.248 -1.208,0.325 -1.811,0.232 -0.201,-0.031 -0.263,0.015 -0.325,0.186 -0.852,2.059 -1.44,4.242 -1.734,6.456 -0.077,0.557 -0.356,0.697 -0.821,0.372 -0.712,-0.495 -1.146,-1.3 -1.161,-2.167 -0.046,-1.177 0.263,-2.307 0.619,-3.422 0.294,-0.898 0.635,-1.765 1.037,-2.616 0.077,-0.108 0.093,-0.248 0.031,-0.356 -0.557,-1.053 -0.526,-2.137 -0.186,-3.22 0.464,-1.44 1.316,-2.725 2.462,-3.731 0.062,-0.046 0.124,-0.093 0.201,-0.139 0.217,-0.093 0.356,-0.062 0.372,0.186zM5.784,22.082c3.607,0.093 6.936,1.223 10.094,2.864 2.121,1.084 4.041,2.524 5.666,4.273 0.852,0.913 1.548,1.951 2.075,3.096 0.852,1.92 0.619,3.731 -0.557,5.45 -0.96,1.393 -2.338,2.183 -3.886,2.694 -2.462,0.821 -4.954,0.867 -7.478,0.279 -0.232,-0.062 -0.279,0 -0.294,0.217 -0.046,0.697 -0.232,0.898 -0.79,0.96 -0.681,0.062 -1.084,-0.186 -1.239,-0.805 -0.077,-0.325 -0.139,-0.666 -0.155,-1.006 0,-0.186 -0.124,-0.356 -0.294,-0.418 -1.641,-0.759 -3.112,-1.811 -4.35,-3.127 -0.248,-0.263 -0.48,-0.573 -0.666,-0.882 -0.495,-0.836 -0.341,-1.595 0.418,-2.198 0.495,-0.387 1.053,-0.697 1.641,-0.898 0.96,-0.387 1.951,-0.65 2.973,-0.805 0.248,-0.031 0.341,-0.124 0.341,-0.372 0,-1.146 0.124,-2.276 0.356,-3.391 0.031,-0.139 0.077,-0.294 0.124,-0.433 0.108,-0.294 0.294,-0.341 0.557,-0.155 0.248,0.201 0.433,0.464 0.526,0.774 0.372,0.929 0.418,1.904 0.464,2.88 0.015,0.418 0.015,0.418 0.418,0.403 1.657,-0.046 3.313,0.217 4.877,0.774 0.619,0.201 1.161,0.588 1.564,1.099 0.526,0.697 0.526,1.455 -0.015,2.106 -0.666,0.79 -1.378,0.805 -2.152,0.526 -0.077,-0.031 -0.17,-0.077 -0.17,-0.186 -0.015,-0.108 0.077,-0.155 0.155,-0.201 0.232,-0.108 0.449,-0.248 0.65,-0.418 0.325,-0.31 0.294,-0.604 -0.124,-0.79 -0.557,-0.232 -1.146,-0.403 -1.749,-0.511 -1.037,-0.217 -2.09,-0.356 -3.143,-0.403 -0.217,0 -0.294,0.031 -0.279,0.263 0.046,1.672 0.077,3.344 0.108,5.001 0,0.124 -0.015,0.232 0.186,0.263 2.493,0.403 4.939,0.372 7.292,-0.619 0.944,-0.403 1.78,-0.96 2.322,-1.858 0.743,-1.254 0.712,-2.539 0.139,-3.84C20.584,30.891 19.268,29.498 17.72,28.336c-3.065,-2.307 -6.533,-3.7 -10.296,-4.35 -1.734,-0.325 -3.499,-0.387 -5.248,-0.186 -0.464,0.046 -0.929,0.17 -1.347,0.356 0.186,0.077 0.372,0.108 0.573,0.124 0.155,0 0.31,0.046 0.449,0.139 0.124,0.062 0.186,0.186 0.186,0.325 -0.031,0.124 -0.124,0.201 -0.248,0.217 -0.511,0.124 -1.053,0.077 -1.517,-0.139 -0.294,-0.139 -0.31,-0.403 -0.232,-0.666 0.217,-0.774 0.821,-1.362 1.595,-1.564 1.331,-0.356 2.74,-0.542 4.149,-0.511zM49.567,31.185c0.495,-0.015 0.96,0.217 1.223,0.619 0.124,0.17 0.248,0.356 0.341,0.557 0.201,0.387 0.093,0.588 -0.31,0.666 -0.712,0.124 -1.44,0.201 -2.167,0.248 -0.372,0.031 -0.759,0.046 -1.13,0.062 -0.139,0 -0.217,0.046 -0.248,0.186 -0.062,0.217 -0.124,0.418 -0.201,0.619 -0.062,0.186 -0.031,0.232 0.17,0.217 0.635,-0.046 1.285,-0.046 1.92,0 0.341,0.031 0.449,0.124 0.449,0.464 -0.015,0.898 -0.015,0.929 -0.836,0.975 -0.697,0.031 -1.393,0.077 -2.09,0.093 -0.17,-0.031 -0.325,0.093 -0.356,0.263 0,0.015 0,0.015 0,0.031 -0.077,0.356 -0.201,0.712 -0.31,1.068 -0.077,0.248 0,0.294 0.232,0.232 0.944,-0.201 1.904,-0.372 2.864,-0.48 0.279,-0.046 0.573,0.062 0.743,0.279 0.325,0.372 0.325,0.743 -0.031,1.068 -0.712,0.635 -1.564,1.13 -2.462,1.44 -0.325,0.108 -0.65,0.201 -0.975,0.263 -1.285,0.31 -2.508,-0.96 -2.338,-2.276 0.062,-0.511 0.17,-1.022 0.356,-1.517 0.093,-0.201 0.108,-0.418 0.015,-0.635 -0.062,-0.139 -0.093,-0.279 -0.093,-0.433 -0.046,-0.464 0.062,-0.619 0.542,-0.681 0.17,0 0.31,-0.124 0.372,-0.279 0.139,-0.325 0.31,-0.65 0.464,-0.975 0,-0.031 0.015,-0.046 0.015,-0.077 -0.542,-0.046 -0.991,-0.248 -1.285,-0.743 -0.248,-0.418 -0.201,-0.588 0.279,-0.697 0.991,-0.232 1.997,-0.387 3.019,-0.48 0.542,-0.046 1.177,-0.062 1.827,-0.077zM66.69,29.172c0.248,1.331 0.418,2.694 0.495,4.041 0.015,0.248 0.077,0.31 0.325,0.31 1.316,-0.015 2.616,0 3.932,-0.015 0.217,-0.015 0.418,0.062 0.557,0.232l0,1.208c-0.124,0.17 -0.341,0.248 -0.542,0.232 -1.3,0 -2.601,0 -3.901,-0.015 -0.232,0 -0.279,0.062 -0.279,0.279 0.015,1.27 -0.031,2.539 -0.155,3.809 -0.046,0.464 -0.124,0.542 -0.588,0.542 -0.201,0 -0.418,0 -0.635,0 -0.341,0 -0.464,-0.139 -0.433,-0.48 0.139,-1.285 0.186,-2.57 0.186,-3.855 0,-0.248 -0.077,-0.294 -0.294,-0.294 -1.27,0.015 -2.539,0 -3.809,0 -0.464,0 -0.557,-0.093 -0.557,-0.557 0,-0.201 0,-0.403 0,-0.604 0,-0.372 0.108,-0.48 0.48,-0.48 1.254,0 2.524,0 3.778,0 0.279,0 0.356,-0.062 0.325,-0.341 -0.093,-1.285 -0.263,-2.57 -0.511,-3.84 -0.077,-0.433 0,-0.557 0.433,-0.557 0.232,0 0.464,0.015 0.681,0 0.232,-0.046 0.449,0.108 0.495,0.341 0.015,0.015 0.015,0.031 0.015,0.046zM26.018,31.495c0.341,0.17 0.48,0.464 0.557,0.805 0.201,0.836 0.232,1.703 0.294,2.555 0.046,0.635 0.062,1.254 0.093,1.889 0.015,0.712 0.077,1.409 0.031,2.137 -0.031,0.542 -0.232,0.821 -0.604,0.867 -0.65,0.093 -1.084,-0.139 -1.254,-0.65 -0.108,-0.372 -0.155,-0.743 -0.155,-1.13 -0.077,-1.827 -0.062,-3.654 0.279,-5.465 0.046,-0.294 0.139,-0.588 0.263,-0.852 0.077,-0.17 0.263,-0.263 0.449,-0.186 0,0 0.031,0.015 0.046,0.031zM32.784,31.092c0.929,0 1.842,0.077 2.709,0.433 0.201,0.093 0.511,0.124 0.511,0.433 -0.015,0.294 -0.186,0.557 -0.464,0.681 -0.387,0.201 -0.836,0.201 -1.254,0.248 -1.13,0.077 -2.26,0.062 -3.391,0.186 -0.542,0.046 -1.068,0.139 -1.579,0.294 -0.108,0.031 -0.248,0.062 -0.248,0.17 0,0.155 0.155,0.17 0.263,0.186 0.759,0.155 1.517,0.201 2.291,0.294 0.836,0.093 1.672,0.232 2.508,0.418 1.982,0.48 2.059,3.034 1.037,4.025 -0.557,0.526 -1.254,0.882 -1.997,0.991 -1.517,0.31 -3.096,-0.046 -4.335,-0.975 -0.372,-0.248 -0.65,-0.604 -0.821,-1.006 -0.232,-0.635 0.015,-1.27 0.65,-1.626 0.464,-0.248 0.975,-0.372 1.502,-0.341 1.053,0 2.09,0.217 3.05,0.635 0.155,0.077 0.341,0.139 0.325,0.341 0,0.201 -0.155,0.294 -0.31,0.372 -0.712,0.356 -1.455,0.495 -2.214,0.17 -0.433,-0.217 -0.882,-0.387 -1.347,-0.495 -0.232,-0.046 -0.464,-0.031 -0.681,0.062 -0.186,0.062 -0.325,0.232 -0.341,0.418 0,0.17 0.108,0.341 0.279,0.403 0.325,0.186 0.681,0.294 1.053,0.325 1.285,0.077 2.539,-0.062 3.7,-0.65 0.093,-0.046 0.186,-0.108 0.279,-0.17 0.217,-0.139 0.464,-0.279 0.449,-0.588 -0.031,-0.31 -0.294,-0.418 -0.526,-0.526 -0.728,-0.325 -1.502,-0.418 -2.276,-0.495 -0.991,-0.124 -1.982,-0.139 -2.957,-0.294 -1.006,-0.17 -1.362,-0.774 -1.053,-1.749 0.17,-0.511 0.526,-0.929 0.991,-1.192 0.774,-0.495 1.657,-0.681 2.539,-0.836 0.542,-0.093 1.099,-0.139 1.657,-0.139zM41.191,30.07c0.279,0.17 0.526,0.387 0.759,0.635 0.79,0.882 1.223,1.92 1.44,3.081 0.263,1.393 0.263,2.771 -0.186,4.149 -0.077,0.217 -0.186,0.418 -0.341,0.588 -0.542,0.65 -1.331,0.697 -1.92,0.077 -0.588,-0.619 -1.006,-1.362 -1.409,-2.106 -0.294,-0.526 -0.573,-1.068 -0.867,-1.61 -0.046,-0.077 -0.077,-0.201 -0.186,-0.17 -0.108,0.015 -0.077,0.139 -0.093,0.232 -0.077,0.65 -0.108,1.316 -0.124,1.982 0.015,0.65 -0.046,1.3 -0.17,1.935 -0.093,0.433 -0.325,0.635 -0.697,0.666 -0.372,0.015 -0.712,-0.217 -0.821,-0.573 -0.217,-0.557 -0.17,-1.146 -0.186,-1.719 0.015,-1.409 0.217,-2.802 0.619,-4.165 0.077,-0.31 0.217,-0.604 0.387,-0.867 0.341,-0.511 0.728,-0.542 1.161,-0.108 0.728,0.743 1.27,1.61 1.827,2.477 0.356,0.573 0.712,1.13 1.068,1.703 0.062,0.093 0.124,0.232 0.263,0.201 0.139,-0.031 0.108,-0.201 0.108,-0.31 -0.031,-0.898 -0.248,-1.78 -0.449,-2.647 -0.201,-0.852 -0.433,-1.672 -0.65,-2.524 -0.077,-0.201 -0.093,-0.433 -0.062,-0.65 0.046,-0.387 0.232,-0.48 0.526,-0.279zM8.988,33.6c-0.65,0.046 -1.316,0.093 -1.966,0.217 -0.805,0.139 -1.61,0.263 -2.369,0.619 -0.526,0.248 -0.573,0.511 -0.201,0.96 0.077,0.093 0.155,0.17 0.248,0.263 0.759,0.79 1.657,1.362 2.601,1.904 0.588,0.325 1.208,0.604 1.842,0.805 0.015,-0.015 0.015,-0.031 0.015,-0.046 0,-1.533 0,-3.05 0,-4.583 0.031,-0.155 -0.046,-0.155 -0.17,-0.139zM57.075,33.74L55.728,35.381c-0.495,0.681 -0.944,1.378 -1.331,2.121 0.433,-0.046 0.852,-0.155 1.239,-0.341 1.3,-0.619 2.106,-1.61 2.245,-3.081 0.031,-0.232 0.077,-0.557 -0.201,-0.666 -0.279,-0.108 -0.433,0.17 -0.604,0.325zM27.892,23.661c0.604,-0.015 1.177,0.232 1.564,0.697 0.077,0.093 0.186,0.139 0.31,0.155 1.099,0.248 1.626,1.177 1.254,2.26 -0.093,0.31 -0.263,0.588 -0.464,0.836 -1.006,1.146 -2.198,1.997 -3.7,2.338 -0.588,0.139 -1.192,0.108 -1.78,-0.077 -0.155,-0.046 -0.232,-0.031 -0.294,0.124l-0.015,0.031c-0.124,0.232 -0.248,0.495 -0.557,0.464 -0.31,-0.031 -0.418,-0.31 -0.526,-0.557 -0.062,-0.108 -0.077,-0.232 -0.077,-0.341 0.046,-0.433 -0.139,-0.759 -0.356,-1.099 -0.186,-0.31 -0.263,-0.65 -0.263,-1.006 0,-0.48 0.139,-0.944 0.418,-1.331 1.068,-1.579 2.555,-2.462 4.49,-2.493zM29.084,25.581c-0.31,0.062 -0.588,0.17 -0.852,0.341 -0.65,0.418 -1.239,0.913 -1.765,1.471 -0.263,0.294 -0.495,0.588 -0.728,0.913 -0.093,0.124 -0.077,0.17 0.077,0.17l0.542,0c1.068,0.015 2.106,-0.341 2.926,-1.022 0.31,-0.217 0.557,-0.526 0.681,-0.898 0.201,-0.619 -0.248,-1.115 -0.882,-0.975zM26.375,25.426c-0.836,-0.031 -2.09,0.944 -2.26,1.719 -0.062,0.217 -0.015,0.464 0.139,0.635 0.573,-0.882 1.3,-1.672 2.121,-2.353z" fill-opacity="0.75" id="path_0"/><path fill="#00000000" stroke-width="1" d="m37.738,7.591c-0.821,0 -1.626,0.046 -2.446,0.155 -1.811,0.248 -3.592,0.495 -5.357,0.96 -1.796,0.48 -3.545,1.13 -5.217,1.935 -3.483,1.657 -6.595,3.979 -9.196,6.828 -1.037,1.161 -1.997,2.384 -2.88,3.669 -0.201,0.279 -0.108,0.511 0.201,0.635 0.201,0.062 0.403,0.139 0.588,0.201 0.356,0.124 0.48,0.077 0.697,-0.248 0.511,-0.712 1.006,-1.471 1.595,-2.121 0.65,-0.697 1.285,-1.409 1.92,-2.106 0.743,-0.697 1.517,-1.362 2.307,-1.997 10.915,-8.67 26.474,-8.298 36.971,0.882 2.756,2.415 5.016,5.341 6.657,8.623 0.186,0.372 0.387,0.759 0.557,1.146 0.433,0.96 0.263,0.944 1.146,0.944 0.093,0 0.217,0 0.341,0 0.31,0 0.542,-0.139 0.433,-0.48 -0.604,-1.734 -1.579,-3.406 -2.57,-4.954 -1.022,-1.579 -2.167,-3.05 -3.452,-4.412l-0.077,-0.077c-2.028,-2.152 -4.35,-3.994 -6.92,-5.465 -1.022,-0.604 -2.09,-1.146 -3.189,-1.579 -0.867,-0.403 -1.765,-0.743 -2.678,-1.022 -1.904,-0.619 -3.886,-1.053 -5.883,-1.27 -1.177,-0.139 -2.353,-0.217 -3.545,-0.217z" stroke="#00000000" fill-opacity="0.25" id="path_1"/><path fill="#000" d="m56.085,51.885c1.734,0 3.205,0.65 4.118,1.997l0.046,0l0,-1.672l2.229,0l0,11.89l-2.229,0l0,-1.842l-0.046,0c-0.836,1.424 -2.338,2.152 -4.041,2.152 -3.483,0 -6.317,-2.616 -6.317,-6.053 0.015,-3.809 2.74,-6.471 6.239,-6.471zM20.584,51.885c3.282,0 6.379,2.57 6.332,6.348 -0.046,3.236 -2.802,6.27 -6.735,6.162 -3.329,-0.108 -6.146,-2.957 -6.115,-6.286 0.062,-3.576 2.895,-6.224 6.518,-6.224zM38.574,51.885c1.982,0 3.592,1.378 3.654,3.483l-2.229,0c-0.108,-0.852 -0.604,-1.44 -1.517,-1.44 -0.852,0 -1.393,0.588 -1.393,1.27 0,1.006 1.037,1.316 2.214,1.672 1.672,0.511 3.22,1.517 3.22,3.731 0,2.291 -1.672,3.793 -3.994,3.793 -2.152,0 -4.211,-1.455 -4.211,-4.211l2.229,0c0.108,1.44 0.836,2.167 2.013,2.167 1.037,0 1.719,-0.666 1.719,-1.626 0,-0.821 -0.619,-1.347 -2.013,-1.796 -2.926,-0.929 -3.422,-2.183 -3.422,-3.545 0,-2.106 1.78,-3.499 3.731,-3.499zM1.464,48.215c1.239,0 2.229,1.006 2.229,2.229l0,0 0,3.019l0.046,0c0.712,-1.053 1.842,-1.595 3.329,-1.595 2.833,0 4.954,1.796 4.954,5.063l0,7.153l-2.229,0l0,-6.456c0,-2.555 -0.991,-3.716 -2.957,-3.716 -1.966,0 -3.127,1.424 -3.127,3.731l0,6.441L1.464,64.084ZM31.685,48.215l0,3.994l1.951,0l0,2.044l-1.951,0l0,9.847c-1.239,0 -2.229,-1.006 -2.229,-2.229l0,-7.617l-0.929,0l0,-2.044l0.929,0l0,-3.994zM47.198,48.215l0,3.994L49.149,52.21l0,2.044l-1.951,0l0,9.847c-1.239,0 -2.229,-1.006 -2.229,-2.229l0,-7.617l-0.929,0l0,-2.044l0.929,0L44.968,48.215ZM70.514,51.885l0,2.291c-1.935,0.062 -2.926,1.239 -2.926,3.236L67.588,61.855c0,1.239 -0.991,2.229 -2.229,2.229 0,0 0,0 0,0l0,-11.89l2.09,0l0,1.068l0.046,0c0.526,-0.774 1.455,-1.285 3.019,-1.378zM56.146,53.928c-2.353,0 -4.258,2.137 -4.041,4.645 0.186,2.075 1.873,3.747 3.948,3.793 2.353,0.046 4.227,-1.904 4.227,-4.18 0.015,-2.322 -1.657,-4.258 -4.134,-4.258zM20.476,53.928c-2.338,0.031 -4.196,1.951 -4.165,4.289 0,0.325 0.046,0.65 0.124,0.96 0.464,1.873 2.183,3.236 4.118,3.189 2.322,-0.062 4.165,-1.997 4.103,-4.335 -0.046,-2.276 -1.904,-4.087 -4.18,-4.103z" id="path_2"/></svg>