<svg id="vector" xmlns="http://www.w3.org/2000/svg" width="72" height="72" viewBox="0 0 72 72"><path fill="#000" d="M35.978,50.296l-0.004,0.004l8.86,-2.43l0.94,-10.328l-18.526,0l-0.158,-1.746l-0.364,-4.09l-0.187,-2.2l19.937,0l0.727,-8.032l-30.373,0l-0.158,-1.746l-0.36,-4.093l-0.191,-2.196l39.758,0l-0.191,2.218l-1.922,21.578l0.007,0.119l-0.007,0.266l0,-0.004l-1.368,15.091l-0.148,1.339l-16.276,4.5l0,0.004l-0.014,0.011l-16.243,-4.529l-1.102,-12.474l7.967,0l0.565,6.343z" fill-opacity="0.5" id="path_0"/><path fill="#000" d="M6,3L12.099,62.418 36,69 59.894,62.395 66,3Z" stroke-width="6" stroke="#000" id="path_1"/></svg>