<svg id="vector" xmlns="http://www.w3.org/2000/svg" width="72" height="72" viewBox="0 0 72 72"><path fill="#000" d="M21.574,15.639C38.015,-0.681 57.96,-4.916 65.942,6.207 73.924,17.331 66.909,39.815 50.468,56.135 34.027,72.576 14.081,76.805 5.979,65.561 -1.876,54.322 5.139,31.954 21.574,15.639" stroke-width="1.547" fill-rule="nonzero" stroke="#00000000" fill-opacity="0.25" id="path_0"/><path fill="#000" d="m32.456,6.933c-1.813,1.329 -3.625,2.9 -5.438,4.598 -14.387,14.26 -20.435,33.843 -13.299,43.637 7.372,9.788 25.021,6.163 39.77,-8.224 7.982,-7.734 13.299,-16.683 15.474,-25.021 0.604,-6.163 -0.242,-11.607 -3.021,-15.716 -6.284,-8.701 -19.825,-7.982 -33.486,0.725" stroke-width="1.547" fill-rule="nonzero" stroke="#00000000" fill-opacity="0.5" id="path_1"/><path fill="#000" d="m53.247,8.745l0,0.363c-0.121,2.054 -1.329,4.592 -3.505,6.767 -3.263,3.142 -7.613,4.35 -9.432,2.544 -2.054,-1.934 -0.84,-6.169 2.423,-9.553 3.384,-3.263 7.734,-4.35 9.547,-2.417 0.604,0.604 0.967,1.329 0.967,2.296M40.679,64.231c-5.188,3.888 -10.482,6.476 -15.74,7.396 -2.586,0.452 -5.164,0.501 -7.716,0.103m0,0C20.486,71.851 23.151,68.219 25.326,63.385 27.501,58.431 28.71,53.839 29.797,49.482 31.368,42.594 31.489,37.76 30.643,36.673 29.314,34.975 26.414,35.343 23.024,37.277 21.332,38.244 19.157,37.639 21.701,34.497 24.359,31.355 34.631,23.857 38.256,22.648 42.371,21.561 46.963,23.132 45.392,27.603 44.299,30.866 30.039,68.098 40.679,64.231" stroke-width="1.547" fill-rule="nonzero" stroke="#00000000" id="path_2"/></svg>