<svg id="vector" xmlns="http://www.w3.org/2000/svg" width="72" height="72" viewBox="0 0 72 72"><path fill="#000" d="m56.853,20.225c-0.899,-2.334 -2.744,-4.178 -5.077,-5.077 -1.591,-0.588 -3.271,-0.899 -4.967,-0.92 -2.822,-0.128 -3.67,-0.156 -10.809,-0.156 -7.14,0 -7.987,0.026 -10.806,0.156 -1.696,0.019 -3.377,0.33 -4.967,0.92 -2.334,0.899 -4.179,2.744 -5.078,5.077 -0.587,1.591 -0.899,3.271 -0.92,4.967 -0.128,2.822 -0.156,3.667 -0.156,10.81 0,7.143 0.026,7.99 0.156,10.809 0.019,1.696 0.33,3.377 0.92,4.967 0.9,2.333 2.745,4.176 5.078,5.075 1.591,0.589 3.271,0.901 4.967,0.92l0,0c2.819,0.13 3.663,0.156 10.806,0.156 7.143,0 7.99,-0.026 10.809,-0.156 1.696,-0.019 3.377,-0.331 4.967,-0.92 2.333,-0.899 4.177,-2.743 5.077,-5.075 0.588,-1.591 0.9,-3.271 0.92,-4.967 0.13,-2.822 0.156,-3.666 0.156,-10.809 0,-7.143 -0.026,-7.988 -0.156,-10.81 -0.019,-1.696 -0.331,-3.377 -0.92,-4.967zM35.998,49.735c-7.585,0 -13.735,-6.149 -13.735,-13.734 0,-0 0,-0 0,-0.001l0,0c0,-7.586 6.149,-13.735 13.735,-13.735 7.586,0 13.735,6.149 13.735,13.735 -0,7.586 -6.149,13.735 -13.735,13.735zM50.276,24.932c-1.773,-0.007 -3.205,-1.449 -3.198,-3.222 0.006,-1.764 1.435,-3.192 3.199,-3.198l0.001,0c1.773,-0.005 3.214,1.428 3.219,3.2 0.005,1.773 -1.428,3.214 -3.2,3.219 -0.007,0 -0.014,0 -0.022,0l0,0z" id="path_0"/><path fill="#000" d="m36,27.083c-4.925,-0 -8.917,3.992 -8.917,8.917 -0,4.925 3.992,8.917 8.917,8.917 4.925,0 8.917,-3.992 8.917,-8.917 0,0 0,-0 0,-0 0.001,-4.924 -3.991,-8.916 -8.915,-8.917 -0.001,0 -0.001,0 -0.002,0z" id="path_1"/><path fill="#000" d="m71.745,18.255c-0.031,-2.785 -0.542,-5.544 -1.511,-8.155 -0.704,-1.908 -1.826,-3.633 -3.285,-5.05 -1.417,-1.459 -3.142,-2.581 -5.05,-3.285 -2.612,-0.966 -5.37,-1.477 -8.155,-1.511 -4.633,-0.208 -6.019,-0.255 -17.746,-0.255 -11.722,0 -13.113,0.043 -17.744,0.255 -2.785,0.031 -5.544,0.542 -8.155,1.511 -1.908,0.702 -3.634,1.825 -5.05,3.285 -1.456,1.419 -2.578,3.145 -3.285,5.052 -0.966,2.612 -1.477,5.37 -1.511,8.155 -0.208,4.633 -0.255,6.019 -0.255,17.746 0,11.726 0.043,13.115 0.257,17.744 0.031,2.785 0.542,5.544 1.511,8.155 0.702,1.908 1.825,3.633 3.285,5.048 1.418,1.458 3.143,2.58 5.05,3.285 2.611,0.968 5.37,1.48 8.155,1.511C22.886,71.959 24.277,72 35.999,72c11.727,0 13.117,-0.043 17.746,-0.255 2.785,-0.031 5.544,-0.542 8.155,-1.511 3.83,-1.477 6.857,-4.503 8.335,-8.332 0.966,-2.612 1.477,-5.37 1.511,-8.155C71.957,49.114 72,47.723 72,36.001 72,24.275 71.957,22.888 71.745,18.255ZM62.587,47.028c-0.043,2.219 -0.463,4.415 -1.242,6.493 -1.39,3.593 -4.23,6.434 -7.824,7.824 -2.078,0.778 -4.274,1.198 -6.492,1.242 -2.852,0.132 -3.764,0.162 -11.028,0.162 -7.264,0 -8.174,-0.032 -11.028,-0.162C22.754,62.542 20.559,62.122 18.481,61.344c-3.593,-1.389 -6.434,-4.23 -7.824,-7.824 -0.778,-2.078 -1.198,-4.274 -1.242,-6.493 -0.132,-2.852 -0.162,-3.764 -0.162,-11.028 0,-7.264 0.03,-8.176 0.162,-11.028 0.044,-2.219 0.464,-4.414 1.242,-6.492 1.389,-3.594 4.23,-6.434 7.824,-7.824 2.078,-0.778 4.274,-1.199 6.492,-1.242l0.001,0c2.854,-0.132 3.767,-0.162 11.03,-0.162 7.263,0 8.174,0.032 11.027,0.162 2.219,0.043 4.414,0.464 6.493,1.242 3.592,1.39 6.432,4.231 7.821,7.824 0.778,2.078 1.199,4.274 1.242,6.492 0.13,2.852 0.16,3.764 0.16,11.028 0,7.264 -0.03,8.174 -0.16,11.028z" id="path_2"/></svg>