<svg id="vector" xmlns="http://www.w3.org/2000/svg" width="72" height="72" viewBox="0 0 72 72"><path fill="#000" d="m71.981,40.885c-0.02,1.806 -1.5,3.255 -3.307,3.235 -1.779,-0.019 -3.216,-1.457 -3.235,-3.235L65.439,11.468c0.02,-1.806 1.5,-3.255 3.307,-3.235 1.779,0.019 3.216,1.457 3.235,3.235zM70.84,61.359C60.747,68.704 48.475,72.438 36.002,71.959 23.528,72.438 11.257,68.704 1.164,61.358 -0.209,60.185 -0.371,58.12 0.803,56.747 1.976,55.373 4.041,55.211 5.414,56.385c8.943,6.256 19.681,9.427 30.588,9.032 10.909,0.442 21.658,-2.731 30.579,-9.025 1.372,-1.176 3.437,-1.017 4.613,0.354 1.176,1.372 1.017,3.437 -0.354,4.613zM0.022,11.468c0.02,-1.806 1.5,-3.255 3.307,-3.235 1.779,0.02 3.216,1.457 3.235,3.235v29.418c-0.02,1.806 -1.5,3.255 -3.307,3.235 -1.779,-0.02 -3.216,-1.457 -3.235,-3.235 0,0 0,-29.418 0,-29.418zM16.377,4.926c0.028,-1.806 1.515,-3.248 3.321,-3.22 1.767,0.027 3.193,1.453 3.22,3.22L22.918,48.623c-0.028,1.806 -1.515,3.248 -3.321,3.22 -1.767,-0.027 -3.193,-1.453 -3.22,-3.22zM32.731,3.271c-0,-1.806 1.464,-3.27 3.27,-3.271 0,0 0,0 0,0h0.001C37.808,-0 39.272,1.463 39.273,3.27v0,47.428c-0.02,1.806 -1.5,3.255 -3.307,3.235 -1.779,-0.02 -3.216,-1.457 -3.235,-3.235 0,0 0,-47.427 0,-47.427zM49.085,4.926c0.028,-1.806 1.515,-3.248 3.321,-3.22 1.767,0.027 3.193,1.453 3.22,3.22L55.627,48.623c-0.028,1.806 -1.515,3.248 -3.321,3.22 -1.767,-0.027 -3.193,-1.453 -3.22,-3.22z" stroke-width="4.90628" stroke="#00000000" fill-opacity="0.5" id="path_0"/></svg>