<svg id="vector" xmlns="http://www.w3.org/2000/svg" width="72" height="72" viewBox="0 0 99.97 100.56"><path fill="#000" d="m74.58,24.62c0.1,0.43 0.21,0.85 0.32,1.28 3.19,0.24 6.38,-0.13 9.57,-0.03 0.1,8.39 -0.54,16.79 -2.18,25.02 -2.06,10.49 -5.81,20.65 -11.08,29.95 0.88,-3.22 2.07,-6.35 2.86,-9.59 2.59,-10.05 3.7,-20.54 2.82,-30.89 -0.31,-4.81 -1.16,-9.57 -2.2,-14.28 -0.05,-0.49 -0.07,-0.97 -0.11,-1.45z" fill-opacity="0.5" id="path_0"/><path fill="#000" d="m41.89,28.19c6.72,-1.41 13.59,-2.33 20.46,-2.2 0.06,0.01 0.18,0.02 0.24,0.02 -4.92,1.04 -9.86,2.1 -14.62,3.74 -6.45,2.1 -12.68,4.9 -18.5,8.38 -5.79,3.27 -10.94,7.5 -15.96,11.83l-0.08,0.07C11.88,47.17 9.99,44.49 8.56,41.57 18.93,35.5 30.14,30.81 41.89,28.19Z" fill-opacity="0.5" id="path_1"/><path fill="#000" d="m19.51,61.1c0.02,-0.01 0.06,-0.02 0.08,-0.02l0.05,0.1z" fill-opacity="0.5" id="path_2"/><path fill="#000" d="m19.65,61.17c0.04,0.05 0.13,0.14 0.17,0.19 -0.05,-0.05 -0.13,-0.14 -0.17,-0.19z" fill-opacity="0.5" id="path_3"/><path fill="#000" d="m19.82,61.37c3.18,3.22 6.06,6.75 9.51,9.71 9.92,9.15 21.88,16.01 34.68,20.26 0.48,0.16 0.99,0.27 1.48,0.08 -0.05,0.12 -0.17,0.37 -0.22,0.49 -1.47,2.68 -3.02,5.31 -4.53,7.97 -0.2,0.5 -0.72,0.12 -1.03,-0.03C45.32,91.52 32.35,80.41 23.01,66.57 21.92,64.85 20.69,63.21 19.82,61.37Z" fill-opacity="0.5" id="path_4"/><path fill="#000" d="m71.08,81.06c0.03,-0.05 0.1,-0.16 0.13,-0.22l0.01,0.15z" fill-opacity="0.5" id="path_5"/><path fill="#000" d="m57.15,66.15l-5.72,-5.78 2.32,-1.07c2.67,-1.23 4.83,-3.14 5.97,-5.29 0.65,-1.23 0.73,-1.66 0.73,-4.24 0,-2.69 -0.05,-2.99 -0.88,-4.69 -0.61,-1.24 -1.41,-2.31 -2.55,-3.35l-1.66,-1.53l6.04,0 6.04,0l0,15.87 0,15.87l-2.28,0 -2.28,0z" id="path_6"/><path fill="#000" d="m35.68,56.03l0,-15.91l6.5,0.12c7.27,0.13 7.55,0.19 10.01,2.15 2.58,2.05 3.89,4.16 4.2,6.78 0.42,3.59 -1.75,5.92 -7.57,8.12 -2.95,1.12 -3.52,1.62 -2.99,2.66 0.17,0.34 2.85,3.17 5.96,6.3l5.65,5.68l-10.88,0 -10.88,0z" id="path_7"/><path fill="#000" d="M25.97,93.55C12.78,92.61 4.09,87.62 0.48,78.91 -0.28,77.06 -0.31,76.84 -0.29,72.62c0.02,-4.1 0.06,-4.5 0.77,-6.3 1.02,-2.62 2.67,-5.61 4.13,-7.5 2.19,-2.84 8.61,-8.7 9.01,-8.21 0.14,0.17 4.69,8.45 5.2,9.45 0.42,0.83 0.41,0.87 -0.41,1.64 -1.56,1.47 -4.08,4.82 -5.03,6.71 -1.34,2.65 -1.79,4.6 -1.77,7.63 0.03,7.39 3.94,12.78 11.13,15.36 0.89,0.32 3.22,0.98 5.17,1.47 3.92,0.99 3.67,1.07 -1.92,0.68z" id="path_8"/><path fill="#000" d="m76.95,94.54c-3.09,-0.22 -11.35,-2.31 -11.35,-2.88 0,-0.24 2.09,-4.14 4.06,-7.58l1.54,-2.69 1.23,0.15c3.27,0.4 8.97,0.5 10.48,0.18 2.62,-0.55 5.65,-2.24 7.8,-4.37 5.14,-5.09 6.08,-10.23 3.44,-18.85 -1.36,-4.44 -1.36,-4.45 -0.67,-3.61 1.05,1.27 4.11,7.78 5.21,11.08 1.45,4.36 1.82,7.52 1.41,11.81 -0.75,7.7 -5.07,13.05 -12.75,15.78 -2.52,0.9 -6.38,1.26 -10.4,0.98z" id="path_9"/><path fill="#000" d="M62.05,24.58C61.51,22.45 60.15,19.42 58.77,17.31 55.66,12.54 50.52,9.72 44.94,9.73c-2.69,0 -4.41,0.44 -6.9,1.75 -2.07,1.09 -6.04,4.4 -8.1,6.75 -0.71,0.81 -1.29,1.37 -1.29,1.25 0,-0.58 1.87,-3.63 3.81,-6.22 4.01,-5.34 9.15,-9.61 13.79,-11.47 2.51,-1 4.3,-1.37 6.73,-1.37 2.52,0 4.6,0.58 7.95,2.23 2.47,1.21 3.2,1.74 5.21,3.76 4.35,4.38 6.07,8.26 8.36,18.84l0.13,0.62l-6.13,0 -6.13,0z" id="path_10"/></svg>