<svg id="vector" xmlns="http://www.w3.org/2000/svg" width="512" height="512" viewBox="0 0 512 512"><path fill="#000" stroke-width="1" d="m271.5,354c60.24,-1.86 97.75,-51.23 99.5,-100 1.75,-48.77 -36.64,-99.01 -99.5,-100 -62.86,-0.99 -100.5,52.74 -100.5,100 0,47.26 40.26,101.86 100.5,100zM271.5,34c65.1,6.2 121.1,44.9 149.5,103.5 45.5,93.7 6,206.8 -87.6,250.6 -81.7,38.3 -180.2,11 -230.6,-64 -37.9,-56.5 -42.3,-128.1 -11.7,-189.2 33.5,-67 106.6,-107.8 180.4,-100.9z" stroke="#00000000" id="path_0"/><path fill="#000" stroke-width="1" d="m356.22,403.65c17,8.6 36.5,23.7 52.4,40.5 10.7,11.3 13.3,15.6 12.3,20.1 -0.7,3.3 -5.7,8 -8.4,8 -1,-0 -9.6,-2 -19.2,-4.4 -83.7,-21.3 -195.6,-20.5 -277.4,1.9 -10.8,3 -13.4,3.4 -16.1,2.5 -4.2,-1.4 -6.4,-4.9 -6.4,-10.1 0,-3.7 0.8,-5.1 7,-12.4 8,-9.6 20.5,-21.2 31.4,-29.4 9.7,-7.3 27.6,-18.1 29.9,-18.1 1,-0 4.1,1.2 6.9,2.6 26.7,13.5 66.3,20.9 99.2,18.4 25.3,-1.9 51.8,-8.7 72.1,-18.5 5,-2.4 9.1,-4.4 9.3,-4.4 0.1,-0.1 3.3,1.4 7,3.3z" stroke="#00000000" fill-opacity="0.75" id="path_1"/></svg>