<svg id="vector" xmlns="http://www.w3.org/2000/svg" width="72" height="72" viewBox="0 0 72 72"><path fill="#00000000" d="m57.14,40.807c-23.99,-1.118 -39.235,12.798 -44.495,18.439" stroke-linejoin="miter" stroke-width="5.145" fill-rule="evenodd" stroke="#000" fill-opacity="0.75" stroke-linecap="butt" id="path_0"/><path fill="#00000000" d="M31.242,14.891C31.911,42.32 16.593,54.706 12.581,59.35" stroke-linejoin="miter" stroke-width="5.224" fill-rule="evenodd" stroke="#000" fill-opacity="0.75" stroke-linecap="butt" id="path_1"/><path fill="#000" d="M56.507,40.676a7.747,7.747 90.043,1 0,15.493 0a7.747,7.747 90.043,1 0,-15.493 0z" stroke-linejoin="round" stroke-width="0.159" stroke="#00000000" fill-opacity="0.75" stroke-linecap="round" id="path_2"/><path fill="#000" d="M23.325,7.706a7.747,7.747 90.043,1 0,15.493 0a7.747,7.747 90.043,1 0,-15.493 0z" stroke-linejoin="round" stroke-width="0.159" stroke="#00000000" fill-opacity="0.75" stroke-linecap="round" id="path_3"/><path fill="#000" d="M-0,64.294a7.747,7.747 90.043,1 0,15.493 0a7.747,7.747 90.043,1 0,-15.493 0z" stroke-linejoin="round" stroke-width="0.159" stroke="#00000000" fill-opacity="0.75" stroke-linecap="round" id="path_4"/></svg>