<svg id="vector" xmlns="http://www.w3.org/2000/svg" width="72" height="72" viewBox="0 0 72 72"><path fill="#000" d="m66.625,46.29c-0.202,0.293 -0.425,0.572 -0.667,0.834l-0.021,0.023c-1.187,1.415 -2.497,2.722 -3.915,3.906 -9.955,9.202 -26.342,20.157 -28.504,18.467 -1.88,-1.469 3.096,-8.655 -2.645,-9.851 -0.401,-0.046 -0.8,-0.095 -1.196,-0.152l-0.007,-0l0,-0.001C12.806,57.12 0,45.325 0,31.133 -0,15.213 16.118,2.307 36,2.307c19.882,0 36,12.906 36,28.827 -0.046,5.511 -1.938,10.848 -5.375,15.157z" stroke-width="4.906" stroke="#00000000" fill-opacity="0.5" id="path_0"/><path fill="#000" d="m23.945,40.17l-4.407,0l0,-10.027c-0.002,-0.873 -0.71,-1.581 -1.583,-1.583l-0.132,0c-0.873,0.002 -1.581,0.71 -1.583,1.583l0,11.742c0.002,0.873 0.71,1.581 1.583,1.584l6.122,0c0.873,-0.003 1.581,-0.71 1.583,-1.584l0,-0.132c-0.003,-0.873 -0.71,-1.581 -1.583,-1.583zM42.861,28.56l-0.132,0c-0.873,0.003 -1.581,0.71 -1.583,1.583l0,6.893L35.424,29.361c-0.282,-0.494 -0.806,-0.799 -1.375,-0.8l-0.132,0c-0.873,0.002 -1.581,0.71 -1.584,1.583l0,11.742c0.002,0.874 0.71,1.581 1.584,1.584l0.132,0c0.873,-0.003 1.58,-0.71 1.583,-1.584l0,-7.022l5.764,7.872c0.036,0.055 0.074,0.108 0.116,0.159l0,0c0.156,0.209 0.371,0.367 0.616,0.455 0.19,0.079 0.395,0.119 0.601,0.119l0.132,0c0.258,0 0.512,-0.063 0.74,-0.185 0.148,-0.066 0.28,-0.164 0.386,-0.287l0.001,-0.001c0.293,-0.295 0.457,-0.695 0.458,-1.111L44.444,30.143c-0.002,-0.873 -0.71,-1.581 -1.583,-1.583zM28.389,28.56l0.132,0c0.875,0 1.584,0.709 1.584,1.584l0,11.742c0,0.875 -0.709,1.584 -1.584,1.584l-0.132,0c-0.874,0 -1.583,-0.709 -1.583,-1.583l0,-11.742c-0,-0.874 0.709,-1.583 1.583,-1.583 0,0 0,0 0,0zM54.177,28.588l-6.122,0c-0.873,0.002 -1.581,0.71 -1.583,1.583l0,11.742c0.003,0.873 0.71,1.581 1.583,1.583l6.122,0c0.873,-0.003 1.581,-0.71 1.584,-1.583l0,-0.132c-0.003,-0.873 -0.71,-1.581 -1.584,-1.583l-4.407,0l0,-2.507l4.407,0c0.873,-0.002 1.581,-0.709 1.584,-1.583l0,-0.132c-0.003,-0.873 -0.71,-1.581 -1.584,-1.583L49.77,34.393L49.77,31.886l4.407,0c0.873,-0.002 1.581,-0.71 1.584,-1.583l0,-0.132c-0.003,-0.873 -0.71,-1.581 -1.584,-1.583z" stroke-width="4.137" id="path_1"/></svg>