<svg id="vector" xmlns="http://www.w3.org/2000/svg" width="72" height="72" viewBox="0 0 72 72"><path fill="#000" d="M8.967,16.517L8.863,16.517A8.266,8.266 0,1 1,9.072 0.03,8.269 8.269,0 1,1 8.967,16.517Z" fill-opacity="0.75" id="path_0"/><path fill="#000" d="M1.623,27.613l14.796,0l0,44.387l-14.796,0z" id="path_1"/><path fill="#000" d="m55.255,27.613a16.543,16.543 0,0 0,-12.946 6.301L42.309,27.613l-14.796,0l0,44.387l14.796,0l0,-20.344a7.398,7.398 0,0 1,14.796 0L57.105,72l14.796,0l0,-27.742a16.645,16.645 0,0 0,-16.645 -16.645z" id="path_2"/></svg>