<svg id="vector" xmlns="http://www.w3.org/2000/svg" width="72" height="72" viewBox="0 0 72 72"><path fill="#000" d="m39.102,16.25c0.36,0.36 0.719,0.36 1.439,0.719 0.36,0 1.079,0.36 1.798,0.719 0,0 0,0 0.36,0 0.719,-1.079 1.079,-2.158 1.079,-3.237 0.36,-2.158 -1.439,-4.316 -3.597,-4.316 -2.158,0.36 -3.597,2.518 -3.597,4.676 0,0 0,0.36 0,0.36 0.719,0 1.798,0.36 2.518,1.079zM55.288,45.024C54.209,44.305 53.129,44.305 51.691,43.945 50.971,40.708 49.892,37.831 48.454,34.954 46.296,30.637 44.497,26.321 43.418,21.646 42.699,22.725 41.62,23.444 40.181,23.804 39.822,24.163 39.102,24.163 38.743,24.523 37.663,25.242 36.225,25.962 34.786,25.962c0,0 -0.36,0 -0.36,0C32.988,25.962 31.909,25.242 31.189,24.523 30.83,24.163 30.47,23.804 30.11,23.804 29.751,23.804 29.751,23.444 29.391,23.444 29.031,28.839 25.794,34.954 23.996,38.91 22.917,41.787 22.197,44.665 22.197,47.542 19.32,43.226 21.478,37.831 22.557,35.673 23.996,32.796 23.996,32.436 23.636,32.796c-2.518,3.956 -7.553,12.589 -0.36,17.264 7.553,4.676 7.913,9.352 3.597,8.992 0.36,0.719 1.079,1.439 1.439,1.798 4.316,3.597 10.431,3.956 15.106,1.079 0,-0.36 0.36,-1.079 0.36,-1.439l0,0c0.36,-1.079 0.719,-2.518 0.719,-3.597 0.36,-3.956 0.36,-7.913 3.237,-9.352 1.798,-0.719 4.316,-0.36 5.755,0.719 0.36,0.36 0.719,0.36 1.079,0.719 0.719,0.36 1.439,0.36 1.798,0.36 0.719,0 1.439,0 2.158,0 1.079,-1.439 -0.36,-2.877 -3.237,-4.316zM30.47,17.33L30.83,16.97c0.719,-1.079 1.798,-1.439 2.877,-1.798 0,-0.36 0,-0.36 0,-0.719C33.707,12.294 32.268,10.496 30.83,10.496 29.751,10.855 28.672,12.654 28.672,14.812c0,1.079 0.36,2.158 1.079,2.877 0.36,0 0.719,-0.36 0.719,-0.36z" fill-opacity="0.25" id="path_0"/><path fill="#000" d="m24.356,55.455c0,0 0,0.36 0,0C23.996,55.095 23.996,54.376 23.636,54.016c0.36,0.719 0.36,1.079 0.719,1.439z" fill-opacity="0.25" id="path_1"/><path fill="#000" d="m49.173,72c-0.36,0 -0.36,0 -0.719,0 -2.158,-0.36 -3.956,-1.439 -4.676,-3.597 -0.719,-2.518 -0.719,-5.395 0.719,-7.913 0.36,-1.079 0.719,-2.518 0.719,-3.597 0.36,-3.956 0.36,-7.913 3.237,-9.352 1.798,-0.719 4.316,-0.36 5.755,0.719 0.36,0.36 0.719,0.36 1.079,0.719 0.719,0.36 1.439,0.36 1.798,0.36 1.439,-0.36 2.877,0 3.956,1.079 1.079,1.079 1.439,2.158 1.798,3.597 0,0.719 0.36,1.798 0.719,2.158 1.798,1.798 2.518,3.597 2.158,4.676 -0.36,1.798 -2.158,2.518 -3.956,3.597 -1.798,0.719 -3.597,1.798 -5.035,3.237l0,0C54.928,70.202 52.05,71.64 49.173,72Z" fill-opacity="0.5" id="path_2"/><path fill="#000" d="m58.165,50.06c-1.439,1.798 -3.597,2.877 -5.755,2.877 -2.158,-0.36 -2.877,-3.237 -2.518,-5.395 0.36,-2.518 2.518,-2.518 5.395,-1.439 2.877,1.079 3.956,2.518 2.877,3.956zM39.102,16.61c0.36,0.36 1.079,0.36 1.439,0.719 0.719,-0.719 0.719,-1.439 0.719,-2.158 0,-1.439 -0.719,-2.518 -1.439,-2.518 -0.719,0 -1.798,1.079 -1.798,2.518 0,0.36 0,0.719 0,1.079 0.36,0.36 0.719,0.36 1.079,0.36zM31.189,17.33c0.36,-0.36 0.719,-0.719 1.079,-1.079 0,-0.36 0,-0.719 0,-1.079 0,-1.079 -0.719,-2.158 -1.439,-1.798 -0.719,0 -1.079,1.079 -1.079,2.158 0.36,1.079 1.079,1.798 1.439,1.798z" id="path_3"/><path fill="#000" d="m56.007,31.716c0,0 0,0 0,0 -2.877,-4.676 -7.193,-7.553 -7.193,-13.308C48.813,11.575 49.533,-1.014 36.944,0.065 24.356,1.144 27.952,14.452 27.593,19.128 27.593,23.084 25.794,27.041 22.917,30.278 22.557,30.637 22.197,31.357 21.838,31.716c-3.237,4.676 -6.834,10.79 -6.474,16.545 0.719,-0.36 1.439,-0.36 1.798,-0.36 2.877,0.36 4.316,3.237 6.114,6.474 0.36,0.36 0.36,1.079 0.719,1.439 0.719,1.079 1.439,2.158 2.158,3.237 0,0 0.36,0.36 0.36,0.36 4.316,0.36 4.316,-4.316 -3.597,-8.992 -7.193,-4.676 -2.158,-13.308 0.36,-17.264 0.36,-0.36 0.36,0 -1.079,2.877C21.118,38.191 18.96,43.586 21.838,47.542 21.838,44.665 22.557,41.787 23.636,38.91 25.435,35.313 28.672,28.839 29.031,23.444 28.672,22.725 27.952,21.646 27.952,20.567 27.952,19.847 28.312,19.128 29.031,18.409 29.391,18.409 29.751,18.049 30.11,17.689 29.391,16.97 28.672,15.891 28.672,14.812 28.672,12.654 29.751,10.855 31.189,10.855c1.439,0 2.518,1.439 2.877,3.956 0,0.36 0,0.36 0,0.719 0.719,-0.36 1.798,-0.36 2.518,0 0,0 0,-0.36 0,-0.36 -0.36,-2.158 1.079,-4.316 3.597,-4.676 2.158,0.36 3.956,2.158 3.597,4.316 0,1.079 -0.36,2.158 -1.079,3.237 1.079,0.36 1.798,1.439 1.798,2.518 0,0.719 -0.36,1.079 -0.719,1.798 1.439,4.676 2.877,8.992 5.035,13.308 1.439,2.877 2.518,5.755 3.237,8.992 1.079,0 2.518,0.36 3.597,1.079 0,0 0,0 0,0 1.079,0.719 2.158,1.079 2.877,1.798 0.36,0.36 0.36,0.719 0.719,0.719 0,0 0,0.36 0.36,0.36 0,0.36 0,0.719 0,1.079 0.36,0 1.079,0.36 1.439,0.719 1.798,-7.193 -1.798,-14.027 -5.035,-18.703z" id="path_4"/><path fill="#000" d="m34.786,23.444c-1.798,0 -3.597,-1.079 -5.035,-2.518 0,0 -0.36,-0.36 -0.36,-0.36 -0.36,0 -0.36,0 -0.36,-0.36 0,0 0,0 0,0 0,-0.36 0.36,-0.36 0.36,-0.36 0.36,0 0.36,0.36 1.079,0.719 1.079,1.439 2.518,2.158 4.316,2.158 1.798,-0.36 3.597,-0.719 5.035,-1.798 0.719,-0.36 1.439,-0.719 2.518,-1.079l0,0c0.36,0 0.36,0 0.36,0.36 0,0.36 0,0.36 -0.36,0.36 -0.719,0.36 -1.439,0.36 -2.158,1.079 -1.798,1.079 -3.597,1.798 -5.395,1.798z" fill-opacity="0.75" id="path_5"/><path fill="#000" d="M42.339,17.689C41.62,17.33 41.26,17.33 40.541,16.97 40.181,16.97 39.462,16.61 39.102,16.25 36.944,14.092 32.988,14.452 30.83,16.97L30.47,17.33C30.47,17.33 29.751,18.049 29.031,18.409 28.312,19.128 27.952,19.847 27.952,20.567c0.36,1.439 1.079,2.518 2.518,3.237 0.36,0.36 0.719,0.719 1.079,0.719 0.719,1.079 2.158,1.439 3.237,1.439 0,0 0.36,0 0.36,0 1.439,0 2.877,-0.36 3.956,-1.439C39.462,24.163 39.822,23.804 40.541,23.804 42.339,23.444 44.138,22.005 44.497,19.847 44.497,19.128 43.418,18.049 42.339,17.689ZM41.98,20.567C41.26,20.926 40.541,20.926 39.822,21.646c-1.439,1.079 -3.237,1.798 -5.395,2.158 -1.798,0 -3.597,-1.079 -5.035,-2.518 0,0 -0.36,-0.36 -0.36,-0.36 -0.36,0 -0.36,0 -0.36,-0.36 0,0 0,0 0,0 0,-0.36 0.36,-0.36 0.36,-0.36 0.36,0 0.36,0.36 1.079,0.719 1.079,1.439 2.518,2.158 4.316,2.158 1.798,-0.36 3.597,-0.719 5.035,-1.798 0.719,-0.36 1.439,-0.719 2.518,-1.079l0,0c0.36,-0.36 0.36,-0.36 0,0.36 0.36,-0.36 0.36,0 0,0zM23.996,71.281c-2.158,0 -4.316,-0.719 -6.114,-1.798l0,0C16.083,68.763 14.285,68.044 12.127,68.044 9.609,67.684 7.811,67.684 6.732,65.886c-0.719,-1.439 -0.719,-3.597 0,-5.035 0,-0.719 0,-1.439 0,-2.518C6.372,56.894 6.372,55.815 7.091,54.376 7.811,53.297 8.89,52.218 10.328,51.858 11.048,51.858 11.767,51.499 12.127,50.779 12.486,50.42 12.846,50.06 12.846,49.7 13.565,47.902 15.723,46.823 17.522,46.823c3.237,0.36 5.035,3.956 6.834,7.913 0.719,1.079 1.439,2.158 2.158,3.237 1.798,2.518 3.956,4.676 3.597,7.193 0,1.798 -1.079,3.597 -2.877,4.316 -0.719,1.439 -2.158,1.798 -3.237,1.798z" fill-opacity="0.5" id="path_6"/><path fill="#000" d="m43.418,62.648c-4.676,2.518 -10.79,2.158 -15.106,-1.439 0.36,0.719 0.719,1.079 1.079,1.798 0,0 0,0 0,0.36 0.36,1.079 0.719,1.798 0.719,2.877 0,0.719 -0.36,1.079 -0.36,1.798 0,0 0,0 0,0 1.798,0 3.956,-0.719 7.193,-1.079 1.798,0 3.956,0.36 6.474,0.719 -0.36,-1.798 -0.36,-3.597 0,-5.035z" id="path_7"/></svg>