<?xml version="1.0" encoding="UTF-8" standalone="no"?>
<!-- Created with Inkscape (http://www.inkscape.org/) -->

<svg
   width="72"
   height="72"
   id="svg3084"
   version="1.1"
   inkscape:version="1.2.1 (9c6d41e410, 2022-07-14)"
   sodipodi:docname="maadhar.svg"
   xmlns:inkscape="http://www.inkscape.org/namespaces/inkscape"
   xmlns:sodipodi="http://sodipodi.sourceforge.net/DTD/sodipodi-0.dtd"
   xmlns="http://www.w3.org/2000/svg"
   xmlns:svg="http://www.w3.org/2000/svg"
   xmlns:rdf="http://www.w3.org/1999/02/22-rdf-syntax-ns#"
   xmlns:cc="http://creativecommons.org/ns#"
   xmlns:dc="http://purl.org/dc/elements/1.1/">
  <defs
     id="defs3086" />
  <sodipodi:namedview
     id="base"
     pagecolor="#ffffff"
     bordercolor="#666666"
     borderopacity="1.0"
     inkscape:pageopacity="0.0"
     inkscape:pageshadow="2"
     inkscape:zoom="1.4"
     inkscape:cx="83.928571"
     inkscape:cy="129.28571"
     inkscape:document-units="px"
     inkscape:current-layer="svg3084"
     showgrid="false"
     fit-margin-top="0"
     fit-margin-left="0"
     fit-margin-right="0"
     fit-margin-bottom="0"
     inkscape:window-width="1920"
     inkscape:window-height="1009"
     inkscape:window-x="-8"
     inkscape:window-y="-8"
     inkscape:window-maximized="1"
     inkscape:showpageshadow="2"
     inkscape:pagecheckerboard="0"
     inkscape:deskcolor="#d1d1d1" />
  <metadata
     id="metadata3089">
    <rdf:RDF>
      <cc:Work
         rdf:about="">
        <dc:format>image/svg+xml</dc:format>
        <dc:type
           rdf:resource="http://purl.org/dc/dcmitype/StillImage" />
      </cc:Work>
    </rdf:RDF>
  </metadata>
  <g
     transform="matrix(0.2217767,0,0,0.2217767,-30.009063,-52.143486)"
     id="g10"
     style="stroke-width:4.10135">
    <g
       id="g12"
       style="fill:#000000;fill-opacity:0.5;stroke-width:4.10135">
      <path
         style="fill:#000000;fill-opacity:0.5;stroke:none;stroke-width:4.10135"
         d="m 438.218,397.427 -0.003,0.002 h 0.004 c -1.785,2.698 -2.433,5.946 -2.977,9.332 -0.667,4.123 -1.37,8.081 -2.828,11.961 -1.752,4.651 -4.694,9.833 -9.815,13.889 -5.322,-14.41 -13.069,-27.642 -22.74,-39.214 6.102,-2.439 12.091,-2.401 17.015,-1.589 4.09,0.677 7.869,2.047 11.775,3.531 3.202,1.223 6.34,2.286 9.569,2.088 z"
         id="path14"
         inkscape:connector-curvature="0" />
      <path
         style="fill:#000000;fill-opacity:0.5;stroke:none;stroke-width:4.10135"
         d="m 378.801,338.011 -0.002,0.003 0.004,-0.001 c -0.198,3.228 0.865,6.365 2.087,9.569 1.484,3.905 2.854,7.684 3.532,11.774 0.812,4.928 0.849,10.924 -1.596,17.031 -11.589,-9.657 -24.839,-17.386 -39.261,-22.688 4.065,-5.163 9.27,-8.124 13.942,-9.883 3.88,-1.458 7.838,-2.161 11.963,-2.829 3.384,-0.543 6.633,-1.19 9.331,-2.976 z"
         id="path16"
         inkscape:connector-curvature="0" />
      <path
         style="fill:#000000;fill-opacity:0.5;stroke:none;stroke-width:4.10135"
         d="m 428.856,455.936 c 6.458,0.955 11.597,3.967 15.437,7.117 3.202,2.632 5.79,5.708 8.431,8.947 2.161,2.658 4.347,5.148 7.241,6.591 h -29.157 c -0.009,-7.724 -0.681,-15.291 -1.952,-22.655 z"
         id="path18"
         inkscape:connector-curvature="0" />
      <path
         style="fill:#000000;fill-opacity:0.5;stroke:none;stroke-width:4.10135"
         d="m 216.471,338.013 0.002,0.002 v -0.003 c 2.698,1.785 5.947,2.432 9.332,2.977 4.123,0.667 8.081,1.37 11.961,2.827 4.672,1.759 9.878,4.721 13.942,9.884 -14.424,5.301 -27.672,13.031 -39.261,22.688 -2.445,-6.107 -2.409,-12.103 -1.595,-17.032 0.677,-4.089 2.047,-7.869 3.531,-11.775 1.222,-3.202 2.286,-6.34 2.088,-9.568 z"
         id="path20"
         inkscape:connector-curvature="0" />
      <path
         style="fill:#000000;fill-opacity:0.5;stroke:none;stroke-width:4.10135"
         d="m 157.055,397.43 0.003,10e-4 -0.001,-0.003 c 3.228,0.197 6.366,-0.866 9.569,-2.088 3.905,-1.484 7.684,-2.854 11.773,-3.532 4.925,-0.811 10.914,-0.848 17.015,1.59 -9.671,11.572 -17.415,24.805 -22.739,39.214 -5.121,-4.057 -8.063,-9.237 -9.815,-13.889 -1.458,-3.88 -2.161,-7.838 -2.828,-11.962 -0.544,-3.385 -1.192,-6.634 -2.977,-9.331 z"
         id="path22"
         inkscape:connector-curvature="0" />
      <path
         style="fill:#000000;fill-opacity:0.5;stroke:none;stroke-width:4.10135"
         d="m 135.31,478.591 c 2.894,-1.443 5.078,-3.932 7.242,-6.591 2.639,-3.238 5.227,-6.314 8.429,-8.945 3.841,-3.151 8.976,-6.164 15.436,-7.118 -1.271,7.363 -1.942,14.93 -1.95,22.654 z"
         id="path24"
         inkscape:connector-curvature="0" />
      <path
         style="fill:#000000;fill-opacity:0.5;stroke:none;stroke-width:4.10135"
         d="m 297.636,316.264 v 0.003 l 0.002,-0.003 c 1.443,2.895 3.933,5.08 6.592,7.244 3.238,2.639 6.315,5.227 8.946,8.429 3.17,3.865 6.202,9.041 7.136,15.558 -7.371,-1.265 -14.944,-1.931 -22.675,-1.931 -7.731,0 -15.305,0.666 -22.676,1.931 0.934,-6.516 3.966,-11.693 7.136,-15.557 2.632,-3.203 5.708,-5.791 8.946,-8.431 2.659,-2.162 5.149,-4.348 6.593,-7.243 z"
         id="path26"
         inkscape:connector-curvature="0" />
    </g>
    <g
       id="g28"
       style="display:inline;fill:#000000;fill-opacity:1;stroke-width:4.10135">
      <path
         style="fill:#000000;fill-opacity:1;stroke:none;stroke-width:4.10135"
         d="m 270.555,478.621 10.02,-0.029 c 1.316,-8.463 -1.258,-14.979 -9.819,-13.424 -7.214,1.31 -14.963,8.477 -19.646,13.424 l 13.211,-0.058 c 1.472,-0.968 4.353,-2.072 5.536,-1.25 0.443,0.308 0.674,0.745 0.698,1.337 z"
         id="path30"
         inkscape:connector-curvature="0" />
      <path
         style="fill:#000000;fill-opacity:1;stroke:none;stroke-width:4.10135"
         d="m 315.615,478.593 h 12.5 c 0.595,-14.762 -1.783,-30.006 -8.646,-43.195 -6.242,-12 -16.56,-20.157 -29.918,-22.128 -19.5,-2.877 -39.176,5.378 -55.811,17.188 -18.112,12.859 -33.062,30.323 -46.127,48.135 l 16.513,-0.024 c 14.866,-21.071 49.059,-53.06 74.212,-53.269 8.016,-0.066 16.166,1.815 22.192,7.191 4.366,3.896 9.659,11.461 9.4,17.601 -0.154,3.641 -3.385,4.757 -6.483,3.629 -2.407,-0.876 -4.107,-3.076 -5.791,-5.389 -5.473,-7.514 -14.01,-11.191 -23.374,-9.91 -11.168,1.527 -25.012,10.199 -33.941,18.086 -7.7,6.802 -14.769,14.246 -21.437,22.085 h 17.754 c 6.507,-7.856 13.378,-14.555 22.211,-20.057 2.795,-1.741 6.237,-3.582 9.855,-4.826 9.127,-3.137 18.21,-2.343 22.243,9.021 1.585,4.468 1.818,8.387 1.356,15.569 l -10e-4,0.293 h 12.072 l 0.031,-0.369 c 0.009,-3.933 -0.077,-6.583 0.278,-10.481 0.305,-3.359 1.349,-6.84 4.469,-7.254 6.631,-1.389 6.313,13.363 6.443,18.104 z"
         id="path32"
         inkscape:connector-curvature="0" />
      <path
         style="fill:#000000;fill-opacity:1;stroke:none;stroke-width:4.10135"
         d="m 341.259,478.593 h 12.604 c 0.61,-13.696 -0.564,-29.922 -4.995,-44.09 -0.875,-2.795 -1.874,-5.508 -3.009,-8.098 -2.683,-6.123 -6.293,-11.665 -10.597,-16.787 -4.784,-5.69 -10.484,-10.806 -16.91,-14.836 -1.896,-1.189 -3.862,-2.287 -5.892,-3.279 v -0.002 c -2.015,-0.985 -4.098,-1.866 -6.242,-2.627 l -0.008,-0.003 c -24.545,-8.715 -49.37,-2.517 -70.194,8.809 -4.06,2.209 -7.967,4.611 -11.687,7.134 -3.719,2.521 -7.26,5.17 -10.59,7.871 h -0.001 v 0 l -0.006,0.006 c -3.953,3.206 -8.899,7.593 -13.794,12.778 -0.964,1.021 -1.916,2.061 -2.842,3.112 -2.477,2.808 -6.294,6.745 -5.161,10.815 0.897,3.228 5.062,2.277 6.513,1.165 2.227,-1.195 4.673,-3.089 6.766,-4.86 2.834,-2.399 5.511,-4.982 8.317,-7.414 11.35,-9.839 23.18,-17.427 34.833,-22.562 2.54,-1.119 5.083,-2.126 7.617,-3.016 2.525,-0.887 5.037,-1.655 7.527,-2.302 l 0.012,-0.003 c 21.683,-5.63 45.245,-1.983 60.331,15.7 14.533,17.032 17.186,39.832 17.408,62.489 z M 184.871,459.338 c 1.354,-1.264 2.734,-2.913 4.172,-4.739 2.012,-2.552 2.214,-5.023 1.419,-6.807 -0.296,-0.666 -0.733,-1.239 -1.264,-1.683 -0.527,-0.44 -1.149,-0.754 -1.82,-0.908 -1.64,-0.375 -3.601,0.212 -5.266,2.238 -1.883,2.29 -4.483,6.208 -5.014,9.673 -0.099,0.649 -0.126,1.28 -0.059,1.872 0.065,0.576 0.219,1.124 0.478,1.624 l 0.002,0.005 0.001,-10e-4 c 0.424,0.814 1.139,1.243 2.093,1.279 0.199,0.007 0.414,-0.002 0.643,-0.027 0.223,-0.025 0.465,-0.069 0.722,-0.129 l 0.001,0.002 0.012,-0.003 c 1.284,-0.308 2.568,-1.172 3.88,-2.396 z"
         id="path34"
         inkscape:connector-curvature="0" />
      <path
         style="fill:#000000;fill-opacity:1;stroke:none;stroke-width:4.10135"
         d="m 372.787,478.597 0.09,-0.002 h 0.045 c 1.319,0.072 3.608,-0.535 4.928,-2.762 0.263,-0.445 0.489,-0.954 0.66,-1.532 0.175,-0.588 0.296,-1.255 0.347,-2.004 h 10e-4 l 0.009,-0.154 v 0 c 1.002,-35.006 -9.72,-63.985 -27.923,-83.673 -3.535,-3.823 -7.358,-7.301 -11.436,-10.406 -4.075,-3.103 -8.399,-5.83 -12.938,-8.156 l -10e-4,10e-4 -0.072,-0.036 -0.002,-0.002 c -15.3,-7.819 -32.652,-10.822 -49.684,-9.379 -3.323,0.281 -6.625,0.73 -9.888,1.343 -3.271,0.615 -6.515,1.396 -9.711,2.339 l -0.045,0.014 c -17.516,5.181 -33.816,15.466 -47.099,28.961 -2.587,2.629 -5.059,5.376 -7.397,8.227 -1.163,1.416 -2.295,2.86 -3.392,4.326 9.315,-8.037 19.309,-15.087 29.762,-20.688 2.354,-1.261 4.722,-2.446 7.097,-3.544 2.378,-1.101 4.786,-2.128 7.219,-3.074 l 0.007,-0.003 0.007,-0.003 c 9.235,-3.589 18.339,-5.878 27.445,-6.901 9.106,-1.023 18.218,-0.78 27.471,0.691 6.585,1.048 13.013,2.772 18.803,5.184 1.123,0.468 2.229,0.965 3.311,1.49 1.068,0.518 2.12,1.068 3.15,1.65 h 0.002 l 0.016,0.008 -0.001,10e-4 c 20.386,11.163 34.549,34.069 40.787,59.931 1.216,5.044 2.132,10.196 2.733,15.386 0.601,5.188 0.889,10.434 0.853,15.669 v 0.002 l -0.003,0.301 c 0.104,2.801 1.064,5.144 2.709,6.199 0.306,0.196 0.638,0.349 0.991,0.448 h 0.002 c 0.36,0.103 0.743,0.154 1.147,0.148 z"
         id="path36"
         inkscape:connector-curvature="0" />
      <path
         style="display:inline;fill:#000000;fill-opacity:0.75;stroke:none;stroke-width:4.10135"
         d="m 336.337,361.93 c 49.014,16.189 84.436,62.281 84.642,116.664 h -24.252 c 1.605,-47.505 -19.128,-90.385 -60.39,-116.664 z"
         id="path38"
         inkscape:connector-curvature="0" />
    </g>
  </g>
</svg>
