<svg id="vector" xmlns="http://www.w3.org/2000/svg" width="72" height="72" viewBox="0 0 72 72"><path fill="#000" d="M24.736,12.031a5.143,5.143 81.483,1 0,10.185 -1.434a5.143,5.143 81.483,1 0,-10.185 1.434z" stroke-linejoin="round" stroke-width="21.9212" stroke="#00000000" fill-opacity="0.5" stroke-linecap="square" id="path_0"/><path fill="#000" d="M49.422,36.717a5.143,5.143 81.483,1 0,10.185 -1.434a5.143,5.143 81.483,1 0,-10.185 1.434z" stroke-linejoin="round" stroke-width="21.9212" stroke="#00000000" fill-opacity="0.75" stroke-linecap="square" id="path_1"/><path fill="#000" d="M24.736,36.717a5.143,5.143 81.483,1 0,10.185 -1.434a5.143,5.143 81.483,1 0,-10.185 1.434z" stroke-linejoin="round" stroke-width="21.9212" stroke="#00000000" stroke-linecap="square" id="path_2"/><path fill="#000" d="M37.079,36.717a5.143,5.143 81.483,1 0,10.185 -1.434a5.143,5.143 81.483,1 0,-10.185 1.434z" stroke-linejoin="round" stroke-width="21.9212" stroke="#00000000" stroke-linecap="square" id="path_3"/><path fill="#000" d="M37.079,12.031a5.143,5.143 81.483,1 0,10.185 -1.434a5.143,5.143 81.483,1 0,-10.185 1.434z" stroke-linejoin="round" stroke-width="21.9212" stroke="#00000000" fill-opacity="0.5" stroke-linecap="square" id="path_4"/><path fill="#000" d="M37.079,24.374a5.143,5.143 81.483,1 0,10.185 -1.434a5.143,5.143 81.483,1 0,-10.185 1.434z" stroke-linejoin="round" stroke-width="21.9212" stroke="#00000000" fill-opacity="0.75" stroke-linecap="square" id="path_5"/><path fill="#000" d="M37.079,61.403a5.143,5.143 81.483,1 0,10.185 -1.434a5.143,5.143 81.483,1 0,-10.185 1.434z" stroke-linejoin="round" stroke-width="21.9212" stroke="#00000000" fill-opacity="0.5" stroke-linecap="square" id="path_6"/><path fill="#000" d="M37.079,49.06a5.143,5.143 81.483,1 0,10.185 -1.434a5.143,5.143 81.483,1 0,-10.185 1.434z" stroke-linejoin="round" stroke-width="21.9212" stroke="#00000000" fill-opacity="0.75" stroke-linecap="square" id="path_7"/><path fill="#000" d="M24.736,61.403a5.143,5.143 81.483,1 0,10.185 -1.434a5.143,5.143 81.483,1 0,-10.185 1.434z" stroke-linejoin="round" stroke-width="21.9212" stroke="#00000000" fill-opacity="0.5" stroke-linecap="square" id="path_8"/><path fill="#000" d="M24.736,49.06a5.143,5.143 81.483,1 0,10.185 -1.434a5.143,5.143 81.483,1 0,-10.185 1.434z" stroke-linejoin="round" stroke-width="21.9212" stroke="#00000000" fill-opacity="0.75" stroke-linecap="square" id="path_9"/><path fill="#000" d="M12.393,36.717a5.143,5.143 81.483,1 0,10.185 -1.434a5.143,5.143 81.483,1 0,-10.185 1.434z" stroke-linejoin="round" stroke-width="21.9212" stroke="#00000000" fill-opacity="0.75" stroke-linecap="square" id="path_10"/><path fill="#000" d="M0.05,36.717a5.143,5.143 81.483,1 0,10.185 -1.434a5.143,5.143 81.483,1 0,-10.185 1.434z" stroke-linejoin="round" stroke-width="21.9212" stroke="#00000000" fill-opacity="0.5" stroke-linecap="square" id="path_11"/><path fill="#000" d="M24.736,24.374a5.143,5.143 81.483,1 0,10.185 -1.434a5.143,5.143 81.483,1 0,-10.185 1.434z" stroke-linejoin="round" stroke-width="21.9212" stroke="#00000000" fill-opacity="0.75" stroke-linecap="square" id="path_12"/><path fill="#000" d="M61.765,36.717a5.143,5.143 81.483,1 0,10.185 -1.434a5.143,5.143 81.483,1 0,-10.185 1.434z" stroke-linejoin="round" stroke-width="21.9212" stroke="#00000000" fill-opacity="0.5" stroke-linecap="square" id="path_13"/></svg>