<svg id="vector" xmlns="http://www.w3.org/2000/svg" width="72" height="72" viewBox="0 0 72 72"><path fill="#000" d="m27.473,7.58l22.735,0c4.548,0 8.942,1.251 12.769,3.562C59.113,5.004 52.291,0.949 44.523,0.949L21.788,0.949C9.738,0.949 0,10.687 0,22.738c0,3.941 1.06,7.654 2.881,10.837 -0.039,-0.456 -0.039,-0.909 -0.039,-1.365 0,-13.565 11.065,-24.63 24.632,-24.63z" id="path_0"/><path fill="#000" d="M65.467,17.606C61.545,13.795 56.224,11.417 50.299,11.417L27.659,11.417c-12.001,0 -21.698,9.699 -21.698,21.698 0,2.077 0.301,4.114 0.866,6.076 1.019,3.434 2.869,6.641 5.473,9.208L34.262,70.851C34.714,71.34 35.205,71.793 36.147,71.793c0.908,0 1.887,-0.454 1.887,-1.66l0,-15.321l11.924,0c11.887,0 21.848,-9.433 22.038,-21.32 0.113,-6.226 -2.415,-11.848 -6.529,-15.886z" fill-opacity="0.75" id="path_1"/><path fill="#000" d="m59.506,6.396c-3.922,-3.811 -9.243,-6.189 -15.168,-6.189l-22.64,0c-12.001,0 -21.698,10.888 -21.698,22.887 -0.033,11.212 10.056,20.431 20.935,20.473 0,0 11.485,-0.356 11.138,0.035l11.924,0c11.887,0 21.848,-9.433 22.038,-21.32 0.113,-6.226 -2.415,-11.848 -6.529,-15.886z" fill-opacity="0.75" id="path_2"/></svg>