<svg id="vector" xmlns="http://www.w3.org/2000/svg" width="96" height="96" viewBox="0 0 48 48"><path fill="#000" d="M42,6H14c-1.105,0 -2,0.895 -2,2v7.003h32V8C44,6.895 43.105,6 42,6z" fill-opacity="0.25" id="path_0"/><path fill="#000" d="M12,33.054V40c0,1.105 0.895,2 2,2h28c1.105,0 2,-0.895 2,-2v-6.946H12z" fill-opacity="0.9" id="path_1"/><path fill="#000" d="M12,15.003h32v9.002H12V15.003z" fill-opacity="0.5" id="path_2"/><path fill="#000" d="M12,24.005h32v9.05H12V24.005z" fill-opacity="0.75" id="path_3"/><path fill="#000" d="M22,34H6c-1.105,0 -2,-0.895 -2,-2V16c0,-1.105 0.895,-2 2,-2h16c1.105,0 2,0.895 2,2v16C24,33.105 23.105,34 22,34z" fill-opacity="0.5" id="path_4"/><path fill="#000" d="M18.403,19l-1.546,7.264L15.144,19h-2.187l-1.767,7.489L9.597,19H7.641l2.344,10h2.352l1.713,-7.689L15.764,29h2.251l2.344,-10H18.403z" id="path_5"/></svg>