<svg id="vector" xmlns="http://www.w3.org/2000/svg" width="72" height="72" viewBox="0 0 36 36"><path fill="#000" d="M29.145,3.008C30.804,3.466 31.95,4.958 31.95,6.658l0,22.646c0,1.715 -1.171,3.213 -2.851,3.659L18.711,35.878 22.05,28.801L22.05,6.301L19.217,0.104Z" id="path_0"/><path fill="#000" d="m22.05,27.901l0,3.534c0,3.423 -3.442,5.624 -6.317,4.042L9.49,31.477C8.769,31.057 8.378,30.161 8.623,29.266 8.85,28.432 9.632,27.901 10.453,27.901Z" fill-opacity="0.5" id="path_1"/><path fill="#000" d="m9.86,25.406l-3.06,1.352C5.574,27.48 4.05,26.567 4.05,25.112L4.05,9.814c0,-1.382 0.73,-2.655 1.904,-3.322L16.601,0.474C19.052,-0.915 22.05,0.913 22.05,3.797l0,2.781L13.017,9.715C11.952,10.138 11.25,11.193 11.25,12.37l0,10.568c0,1.02 -0.531,1.962 -1.39,2.469z" fill-opacity="0.75" id="path_2"/></svg>