<svg id="vector" xmlns="http://www.w3.org/2000/svg" width="72" height="72" viewBox="0 0 0.93379 0.93735"><path fill="#000" d="M0.49619,0.17575m-0.13671,0a0.13671,0.13671 135,1 1,0.27341 0a0.13671,0.13671 45,1 1,-0.27341 0" fill-opacity="0.5" id="path_0"/><path fill="#000" d="M0.48644,0.20504L0.36262,0.20504l0.00062,0.00272 0.00006,0.00023 0.00064,0.00252A0.13682,0.13682 135,0 0,0.52548 0.3093L0.52548,0.24409A0.03916,0.03916 0,0 0,0.48644 0.20504Z" fill-opacity="0.1" id="path_1"/><path fill="#000" d="M0.45714,0.23434L0.37266,0.23434A0.13671,0.13671 135,0 0,0.49619 0.31246L0.49619,0.27338A0.03916,0.03916 135,0 0,0.45714 0.23434Z" fill-opacity="0.2" id="path_2"/><path fill="#000" d="M0.80376,0.21969m-0.10252,0a0.10252,0.10252 0,1 1,0.20504 0a0.10252,0.10252 0,1 1,-0.20504 0" fill-opacity="0.75" id="path_3"/><path fill="#000" d="m0.89163,0.35151l-0.23027,0a0.01875,0.01875 0,0 0,-0.01875 0.01875l0,0.23756A0.15,0.15 0,0 0,0.75882 0.75673,0.14664 0.14664,45 0,0 0.93557,0.61332L0.93557,0.39544A0.04394,0.04394 0,0 0,0.89163 0.35151Z" fill-opacity="0.75" id="path_4"/><path fill="#000" d="M0.73053,0.39544L0.73053,0.67372A0.23419,0.23419 135,0 1,0.29349 0.79089,0.21011 0.21011,135 0,1 0.27884,0.76159 0.24509,0.24509 0,0 1,0.26918 0.7323,0.24137 0.24137,0 0,1 0.26185,0.67372L0.26185,0.39544A0.04388,0.04388 0,0 1,0.30579 0.35151l0.3808,0a0.04388,0.04388 0,0 1,0.04394 0.04394z" fill-opacity="0.5" id="path_5"/><path fill="#000" d="M0.45714,0.23434L0.37266,0.23434A0.13671,0.13671 135,0 0,0.49619 0.31246L0.49619,0.27338A0.03916,0.03916 135,0 0,0.45714 0.23434Z" fill-opacity="0.2" id="path_6"/><path fill="#000" d="M0.52548,0.35151L0.52548,0.72264A0.03867,0.03867 0,0 1,0.49502 0.76042,0.0283 0.0283,45 0,1 0.48652,0.76159L0.27884,0.76159A0.24509,0.24509 0,0 1,0.26918 0.7323,0.24137 0.24137,0 0,1 0.26185,0.67372L0.26185,0.39544A0.04388,0.04388 0,0 1,0.30579 0.35151Z" fill-opacity="0.1" id="path_7"/><path fill="#000" d="M0.49619,0.35151L0.49619,0.75193A0.02833,0.02833 0,0 1,0.49502 0.76042,0.03867 0.03867,135 0,1 0.45723,0.79089L0.29349,0.79089A0.21011,0.21011 135,0 1,0.27884 0.76159,0.24509 0.24509,0 0,1 0.26918,0.7323 0.24137,0.24137 0,0 1,0.26185 0.67372L0.26185,0.39544A0.04388,0.04388 0,0 1,0.30579 0.35151Z" fill-opacity="0.2" id="path_8"/><path fill="#000" d="M0.49619,0.35151L0.49619,0.69334A0.03913,0.03913 0,0 1,0.45723 0.7323L0.26918,0.7323A0.24137,0.24137 0,0 1,0.26185 0.67372L0.26185,0.39544A0.04388,0.04388 0,0 1,0.30579 0.35151Z" fill-opacity="0.05" id="path_9"/><path fill="#000" d="M0.30579,0.35151A0.04388,0.04388 0,0 0,0.26185 0.39544L0.26185,0.67372a0.24137,0.24137 0,0 0,0.00732 0.05858l0.15876,0A0.03913,0.03913 0,0 0,0.4669 0.69334L0.4669,0.35151Z" fill-opacity="0.2" id="path_10"/><path fill="#000" d="M0.03727,0.23434L0.42785,0.23434C0.44942,0.23434 0.4669,0.25182 0.4669,0.27338L0.4669,0.66396C0.4669,0.68553 0.44942,0.70301 0.42785,0.70301L0.26285,0.70301 0.23727,0.70301 0.22128,0.70301 0.1941,0.70301 0.03727,0.70301C0.01571,0.70301 -0.00178,0.68553 -0.00178,0.66396L-0.00178,0.27338C-0.00178,0.25182 0.01571,0.23434 0.03727,0.23434Z" stroke-width="0.02929" fill-opacity="0.75" id="path_11"/></svg>