<svg id="vector" xmlns="http://www.w3.org/2000/svg" width="72" height="72" viewBox="0 0 14.743 14.76"><path fill="#000" d="m11.051,3.695c0,0.058 0,0.111 -0.004,0.169 -0.445,-0.096 -0.909,-0.173 -1.389,-0.234 -0.035,-1.239 -1.047,-2.233 -2.294,-2.233 -1.247,0 -2.264,0.994 -2.294,2.233 -0.48,0.061 -0.944,0.138 -1.389,0.234 -0.004,-0.058 -0.004,-0.115 -0.004,-0.173 0,-2.037 1.65,-3.691 3.691,-3.691 2.03,0.008 3.683,1.658 3.683,3.695zM7.379,14.76C13.894,12.021 12.9,5.045 12.9,5.045 11.381,4.478 9.462,4.14 7.371,4.14 5.28,4.14 3.362,4.478 1.842,5.045c0,0 -0.994,6.975 5.521,9.715z" fill-opacity="0.75" id="path_0"/><path fill="#000" d="m9.175,10.367c0,0.081 -0.004,0.157 -0.015,0.234l-3.58,0c-0.012,-0.077 -0.015,-0.153 -0.015,-0.234 0,-0.813 0.537,-1.5 1.278,-1.727 -0.499,-0.207 -0.852,-0.698 -0.852,-1.274 0,-0.764 0.618,-1.377 1.377,-1.377 0.76,0 1.377,0.618 1.377,1.377 0,0.576 -0.353,1.067 -0.852,1.274 0.744,0.223 1.282,0.913 1.282,1.727z" id="path_1"/></svg>