<svg id="vector" xmlns="http://www.w3.org/2000/svg" width="72" height="72" viewBox="0 0 11.153 4.268"><path fill="#000" d="m10.791,1.273a0.418,0.418 0,1 0,-0.418 0.419,0.418 0.418,0 0,0 0.418,-0.419zM8.829,-1.161L8.194,5.231c0.143,0.017 0.363,0 0.402,-0.225 0.061,-0.343 0.585,-5.695 0.585,-5.695 0,0 0.096,-0.252 -0.357,-0.472zM10.297,2.158c0,0 -0.363,0.106 -0.835,0.187l-0.295,2.842c0,0 -0.04,0.605 -0.485,0.605h-0.539l-0.006,0.062c0,0 -0.067,0.417 -0.43,0.471 -0.363,0.054 -7.391,0 -7.391,0 0,0 -0.297,-0.054 -0.31,-0.332 -0.013,-0.278 0,-6.004 0,-6.004a0.601,0.601 0,0 1,0.511 -0.422c0.162,-0.021 1.38,-0.221 2.814,-0.46l0.479,-0.908a0.545,0.545 0,0 1,0.937 -0.026,0.524 0.524,0 0,0 -0.341,-0.167h-0.049a0.533,0.533 0,0 0,-0.472 0.283l-3.531,6.706a0.533,0.533 0,0 0,0.942 0.497l2.542,-4.827v3.987a0.527,0.527 0,0 0,0.526 0.526c0.328,0 0.545,-0.409 0.563,-0.447l1.398,-2.697v2.333a0.526,0.526 0,0 0,1.051 0v-4.494a0.525,0.525 0,0 0,-1.013 -0.194l-0.008,0.013 -1.372,2.648 -0.337,0.708 0.243,-0.88v-3.32c1.809,-0.302 3.49,-0.585 3.49,-0.585 0,0 0.445,-0.108 0.472,0.363l-0.02,0.199c0.152,-0.033 0.871,-0.157 0.92,0.454l-0.101,1.452c0,0 0.123,0.091 0.66,-0.12 0,0 0.754,-0.3 0.835,0.448 0,0 0.146,0.766 -0.849,1.106zM10.606,1.276a0.233,0.233 0,1 1,-0.233 -0.233,0.233 0.233,0 0,1 0.233,0.231z" stroke-width="0.0697086" stroke="#00000000" id="path_0"/><path fill="#000" d="m0.054,-2.411l11.053,-0.136v0" stroke-linejoin="round" stroke-width="0.00015491" fill-rule="evenodd" stroke="#000" stroke-linecap="round" id="path_1"/><path fill="#000" d="m0.027,7.013l11.053,-0.081" stroke-linejoin="round" stroke-width="0.000154908" fill-rule="evenodd" stroke="#000" stroke-linecap="round" id="path_2"/></svg>