<svg id="vector" xmlns="http://www.w3.org/2000/svg" width="72" height="72" viewBox="0 0 72 72"><path fill="#000" d="M60.489,60.574L60.489,37.962c0,-4.726 -1.949,-7.09 -5.848,-7.091 -3.899,-0.001 -5.852,2.362 -5.861,7.091L48.78,60.574L37.262,60.574L37.262,37.962c0,-4.726 -1.919,-7.09 -5.758,-7.091 -3.906,0 -5.855,2.364 -5.848,7.091L25.655,60.574L14.134,60.574L14.134,36.628c0,-4.933 1.713,-8.667 5.138,-11.201 3.016,-2.263 7.093,-3.394 12.231,-3.394 5.209,0 9.047,1.336 11.513,4.008 2.125,-2.672 5.997,-4.008 11.617,-4.008 5.138,0 9.214,1.131 12.227,3.394 3.425,2.533 5.139,6.267 5.14,11.201l0,23.946z" fill-opacity="0.75" id="path_0"/><path fill="#000" d="m36.497,20.29l11.433,-8.355 -0.146,-0.51C27.152,13.955 17.77,15.747 -0,26.049l0.165,0.468 1.412,0.015c-0.129,1.422 -0.355,4.938 -0.067,10.224 -1.972,5.706 -0.05,9.583 1.754,13.8 0.286,-4.386 0.257,-9.19 -1.09,-13.971 -0.282,-5.251 -0.05,-8.703 0.077,-10.046l11.78,0.113a53.887,53.887 117.263,0 0,0.349 6.905c10.527,3.699 21.114,-0.013 26.735,-9.132 -1.56,-1.748 -4.618,-4.133 -4.618,-4.133z" id="path_1"/></svg>