<?xml version="1.0" encoding="UTF-8" standalone="no"?>
<svg
   height="72"
   width="72"
   viewBox="-76.8 -128 39.936 69.12"
   version="1.1"
   id="svg6"
   sodipodi:docname="musically.svg"
   inkscape:version="1.2.1 (9c6d41e410, 2022-07-14)"
   xmlns:inkscape="http://www.inkscape.org/namespaces/inkscape"
   xmlns:sodipodi="http://sodipodi.sourceforge.net/DTD/sodipodi-0.dtd"
   xmlns="http://www.w3.org/2000/svg"
   xmlns:svg="http://www.w3.org/2000/svg">
  <defs
     id="defs10" />
  <sodipodi:namedview
     id="namedview8"
     pagecolor="#ffffff"
     bordercolor="#000000"
     borderopacity="0.25"
     inkscape:showpageshadow="2"
     inkscape:pageopacity="0.0"
     inkscape:pagecheckerboard="0"
     inkscape:deskcolor="#d1d1d1"
     showgrid="false"
     inkscape:zoom="2.8519973"
     inkscape:cx="162.16705"
     inkscape:cy="71.178187"
     inkscape:window-width="1920"
     inkscape:window-height="1009"
     inkscape:window-x="-8"
     inkscape:window-y="-8"
     inkscape:window-maximized="1"
     inkscape:current-layer="svg6" />
  <path
     fill="#fff"
     d="m -22.272,-82.02578 -0.36082,0.15624 v 0.17567 h -13.77551 c -4.55077,-0.006 -8.23823,-3.69329 -8.24357,-8.24382 v -9.23858 a 1.9511284,1.9511284 0 0 0 -1.95138,-1.95113 1.9511284,1.9511284 0 0 0 -1.95112,1.95113 v 22.60393 c 0,4.55345 -3.69087,8.24358 -8.24383,8.24358 -4.55271,0 -8.24357,-3.69038 -8.24357,-8.24358 v -33.73532 a 1.9511284,1.9511284 0 0 0 -1.95113,-1.95113 1.9511284,1.9511284 0 0 0 -1.95113,1.95113 v 20.37993 c -0.0109,4.54664 -3.69694,8.22827 -8.24382,8.23386 H -91.04089 L -91.392,-82.0355 v -5.58999 l 0.35111,-0.34139 h 13.80441 a 1.9511284,1.9511284 0 0 0 1.95137,-1.95113 v -20.38965 c 0,-4.55296 3.69087,-8.24358 8.24358,-8.24358 4.55296,0 8.24382,3.69086 8.24382,8.24358 v 33.74528 a 1.95113,1.95113 0 1 0 3.90226,0 v -22.61413 c 0,-4.55272 3.69086,-8.24334 8.24406,-8.24334 4.55272,0 8.24334,3.69062 8.24334,8.24358 v 9.24854 a 1.9516144,1.9516144 0 0 0 1.95113,1.95113 h 13.7755 v 0.15624 l 0.36082,0.17567 z"
     id="path4"
     style="fill:#000000;fill-opacity:1;stroke-width:1" />
</svg>
