<svg id="vector" xmlns="http://www.w3.org/2000/svg" width="72" height="72" viewBox="0 0 72 72"><path fill="#000" stroke-width="1" d="m39.868,0.06c-0.138,0.039 -0.464,0.079 -0.72,0.089 -1.026,0.02 -4.342,0.859 -5.546,1.391 -0.109,0.049 -0.414,0.178 -0.691,0.286 -0.72,0.276 -2.625,1.184 -2.921,1.401 -0.138,0.089 -0.365,0.207 -0.513,0.237 -0.148,0.039 -0.266,0.109 -0.266,0.148 0,0.039 -0.079,0.099 -0.168,0.138 -0.099,0.03 -0.306,0.148 -0.474,0.257 -0.158,0.109 -0.395,0.237 -0.523,0.296 -0.128,0.049 -0.375,0.207 -0.553,0.345 -0.178,0.138 -0.355,0.247 -0.385,0.247 -0.227,-0 -3.405,2.309 -4.303,3.118 -0.73,0.661 -2.082,2.102 -2.082,2.22 0,0.03 -0.089,0.168 -0.207,0.296 -0.296,0.336 -1.184,1.737 -1.441,2.26 -0.109,0.247 -0.326,0.681 -0.464,0.977 -0.484,0.987 -0.681,2.062 -0.632,3.316 0.059,1.234 0.336,1.875 1.174,2.724 0.878,0.878 1.816,1.263 3.296,1.342 1.016,0.049 1.747,-0.03 2.763,-0.316 0.326,-0.089 0.76,-0.197 0.967,-0.257 0.207,-0.049 0.444,-0.128 0.543,-0.187 0.227,-0.118 1.5,-0.691 1.559,-0.691 0.178,-0 2.26,-1.273 4.184,-2.556 1.273,-0.849 2.388,-1.589 2.487,-1.638 0.089,-0.059 0.691,-0.414 1.332,-0.799 0.641,-0.375 1.431,-0.829 1.757,-0.997 0.326,-0.168 0.789,-0.414 1.036,-0.543 0.247,-0.118 0.711,-0.336 1.036,-0.454 0.326,-0.128 0.73,-0.296 0.888,-0.365 0.168,-0.069 0.405,-0.178 0.543,-0.237 0.385,-0.158 1.253,-0.316 2.102,-0.375 1.835,-0.118 3.118,0.691 3.78,2.388 0.158,0.405 0.187,0.74 0.187,1.924 0,1.441 -0.128,2.23 -0.513,3.158 -0.079,0.187 -0.187,0.454 -0.247,0.592 -0.493,1.184 -1.51,2.882 -2.674,4.421 -1.105,1.48 -3.483,3.937 -5.053,5.23 -0.543,0.454 -1.145,0.947 -1.332,1.105 -0.414,0.345 -0.898,0.691 -1.431,1.046 -0.217,0.138 -0.572,0.375 -0.789,0.533 -0.612,0.414 -2.24,1.283 -3.158,1.678 -0.266,0.118 -0.632,0.276 -0.809,0.355 -0.168,0.079 -0.395,0.138 -0.503,0.138 -0.099,-0 -0.326,0.049 -0.503,0.109 -0.641,0.227 -1.293,-0.207 -1.293,-0.868 0,-0.809 0.385,-1.322 2.812,-3.73 2.625,-2.605 2.911,-2.99 2.911,-3.977 0,-1.016 -0.484,-1.707 -1.569,-2.26 -0.474,-0.247 -0.651,-0.276 -1.48,-0.276 -0.967,-0 -1.53,0.138 -2.23,0.562 -0.158,0.099 -0.405,0.227 -0.543,0.296 -0.138,0.069 -0.266,0.148 -0.296,0.178 -0.03,0.03 -0.227,0.178 -0.444,0.345 -0.523,0.395 -1.441,1.332 -1.964,2.013 -0.365,0.474 -0.632,0.918 -1.253,2.082 -0.513,0.967 -0.977,2.763 -0.977,3.809 0,2.122 1.105,3.819 2.812,4.303 0.513,0.148 2.605,0.148 3.326,0.01 0.711,-0.148 2.566,-0.72 2.684,-0.829 0.059,-0.049 0.158,-0.089 0.237,-0.089 0.257,-0 3.187,-1.49 4.194,-2.141 0.227,-0.148 0.484,-0.316 0.582,-0.375 0.089,-0.049 0.553,-0.336 1.036,-0.632 0.474,-0.296 0.888,-0.572 0.918,-0.602 0.03,-0.039 0.365,-0.286 0.74,-0.543 0.385,-0.266 0.829,-0.572 0.987,-0.681 0.168,-0.118 0.632,-0.474 1.036,-0.799 2.566,-2.043 4.835,-4.224 6.158,-5.921 0.217,-0.266 0.414,-0.513 0.444,-0.543 0.079,-0.059 0.75,-1.026 1.214,-1.757 0.207,-0.306 0.523,-0.849 0.701,-1.204 0.187,-0.355 0.444,-0.839 0.572,-1.086 0.128,-0.247 0.405,-0.888 0.622,-1.431 0.207,-0.543 0.414,-1.076 0.454,-1.184 0.276,-0.701 0.701,-2.507 0.888,-3.799 0.207,-1.46 0.049,-3.858 -0.355,-5.181 -0.168,-0.543 -0.207,-0.641 -0.572,-1.431 -0.789,-1.697 -2.053,-3.237 -3.503,-4.243 -0.197,-0.138 -0.444,-0.326 -0.553,-0.434 -0.355,-0.316 -2.161,-1.125 -3.217,-1.431 -0.562,-0.168 -1.401,-0.345 -1.865,-0.414 -1.066,-0.138 -3.622,-0.207 -3.947,-0.089z" stroke="#00000000" fill-opacity="0.75" id="path_0"/><path fill="#000" stroke-width="1" d="m68.476,48.859c-0.03,0.02 -0.484,0.109 -1.026,0.197 -0.543,0.079 -1.431,0.227 -1.974,0.326l-0.987,0.168l0,9.079c0,9.858 -0.02,9.444 0.562,10.677 0.197,0.424 0.474,0.789 0.898,1.174 1.046,0.957 2.023,1.253 4.105,1.263 1.776,-0 1.707,0.069 1.668,-1.569l-0.03,-1.184 -0.76,-0.069c-1.352,-0.118 -2.003,-0.661 -2.151,-1.786 -0.039,-0.336 -0.069,-4.559 -0.059,-9.375 0.01,-8.339 -0.01,-9.138 -0.247,-8.901z" stroke="#00000000" id="path_1"/><path fill="#000" stroke-width="1" d="m41.151,49.056c-2.191,0.326 -2.921,0.464 -3.01,0.572 -0.069,0.079 -0.079,3.227 -0.049,9.247 0.049,8.408 0.069,9.168 0.227,9.572 0.375,0.957 0.572,1.293 1.076,1.796 1.036,1.036 2.359,1.46 4.53,1.46 1.204,-0 1.372,-0.02 1.451,-0.178 0.099,-0.187 0.148,-1.905 0.069,-2.299 -0.059,-0.247 -0.099,-0.257 -0.839,-0.316 -0.937,-0.059 -1.49,-0.375 -1.875,-1.056l-0.247,-0.444 -0.03,-5.112c-0.02,-3.809 0,-5.151 0.089,-5.26 0.089,-0.109 0.424,-0.138 1.48,-0.138 1.628,-0 1.49,0.158 1.451,-1.727l-0.03,-1.283 -1.382,-0.049c-0.76,-0.03 -1.441,-0.089 -1.5,-0.128 -0.099,-0.059 -0.128,-0.661 -0.128,-2.447l0,-2.359l-0.217,0.01c-0.128,0.01 -0.602,0.069 -1.066,0.138z" stroke="#00000000" id="path_2"/><path fill="#000" stroke-width="1" d="m6.957,53.507c-0.74,0.069 -2.516,0.493 -3.059,0.73 -0.109,0.049 -0.306,0.118 -0.444,0.158 -0.434,0.118 -1.875,0.839 -1.875,0.937 0,0.049 0.089,0.276 0.187,0.513 0.651,1.431 0.898,1.944 0.947,1.944 0.03,-0 0.128,-0.039 0.227,-0.089 0.503,-0.257 1.115,-0.503 1.599,-0.651 0.296,-0.089 0.651,-0.207 0.789,-0.257 0.553,-0.197 2.023,-0.296 2.704,-0.187 1.342,0.217 1.835,0.839 1.914,2.428 0.039,0.878 0.039,0.898 -0.187,0.957 -0.128,0.039 -1.036,0.069 -2.013,0.069 -2.349,-0 -3.069,0.138 -4.589,0.878 -1.303,0.632 -2.27,1.826 -2.734,3.365 -0.237,0.819 -0.207,2.349 0.059,3.158 0.888,2.684 3,4.253 5.941,4.411 2.674,0.148 5.428,-0.651 7.194,-2.072l0.641,-0.523 0.03,-5.22c0.03,-6.049 0.02,-6.256 -0.711,-7.737 -0.326,-0.671 -1.421,-1.737 -2.102,-2.033 -0.316,-0.148 -0.661,-0.296 -0.77,-0.345 -0.74,-0.326 -2.615,-0.543 -3.75,-0.434zM9.868,63.02c0.059,0.079 0.099,1.253 0.099,2.674 0,2.803 0.039,2.625 -0.691,3.01 -0.276,0.148 -0.582,0.178 -1.539,0.187l-1.194,-0l-0.493,-0.336c-0.266,-0.178 -0.582,-0.474 -0.691,-0.641 -0.73,-1.066 -0.681,-2.97 0.089,-3.908 0.227,-0.286 1.095,-0.888 1.253,-0.888 0.099,-0 0.207,-0.039 0.266,-0.089 0.138,-0.148 0.592,-0.187 1.747,-0.168 0.829,0.01 1.086,0.039 1.155,0.158z" stroke="#00000000" id="path_3"/><path fill="#000" stroke-width="1" d="m31.579,53.744c-1.964,0.464 -3.533,1.303 -5.112,2.743l-0.414,0.375l0,7.204c0,3.957 0,7.273 0,7.372 0,0.158 0.148,0.168 2.151,0.148l2.141,-0.03 0.03,-6.878 0.02,-6.868 0.375,-0.296c0.444,-0.355 0.661,-0.464 1.234,-0.661 0.681,-0.227 1.747,-0.336 2.546,-0.247 0.395,0.039 0.77,0.059 0.829,0.03 0.069,-0.02 0.247,-0.355 0.405,-0.75 0.148,-0.395 0.385,-0.908 0.503,-1.145 0.326,-0.622 0.296,-0.78 -0.138,-0.878 -0.207,-0.049 -0.582,-0.138 -0.849,-0.197 -0.701,-0.178 -2.842,-0.128 -3.72,0.079z" stroke="#00000000" id="path_4"/><path fill="#000" stroke-width="1" d="m53.042,53.763c-0.326,0.049 -0.632,0.138 -0.681,0.187 -0.059,0.049 -0.158,0.089 -0.237,0.089 -0.079,-0 -0.434,0.138 -0.78,0.316 -0.76,0.375 -1.924,1.451 -2.418,2.25 -0.434,0.701 -0.937,1.747 -1.016,2.122 -0.039,0.158 -0.099,0.385 -0.148,0.493 -0.039,0.109 -0.158,0.533 -0.257,0.937 -0.266,1.066 -0.266,4.48 -0.01,5.477 0.237,0.918 0.77,2.319 0.868,2.319 0.049,-0 0.089,0.049 0.089,0.109 0,0.375 1.174,1.865 2.003,2.536 0.365,0.296 1.184,0.72 1.796,0.928 0.661,0.227 2.122,0.474 2.773,0.474 1.401,-0 3.928,-0.602 4.766,-1.135 0.197,-0.118 0.464,-0.257 0.602,-0.296 0.296,-0.089 0.947,-0.493 1.026,-0.632 0.089,-0.138 -1.016,-2.378 -1.164,-2.378 -0.069,-0 -0.247,0.089 -0.385,0.197 -0.138,0.109 -0.306,0.197 -0.385,0.197 -0.069,-0 -0.217,0.059 -0.326,0.138 -0.109,0.069 -0.622,0.276 -1.135,0.454 -0.878,0.306 -1.026,0.326 -2.319,0.336 -1.224,-0 -1.431,-0.02 -1.826,-0.207 -1.382,-0.661 -2.171,-2.329 -2.171,-4.579 0,-0.484 0.01,-0.888 0.03,-0.898 0.01,-0.02 2.201,-0.049 4.855,-0.079l4.835,-0.049 -0.03,-0.987c-0.059,-1.934 -0.572,-4.539 -1.016,-5.131 -0.039,-0.059 -0.178,-0.306 -0.306,-0.553 -0.533,-1.056 -1.658,-1.964 -2.99,-2.408 -0.977,-0.336 -2.763,-0.434 -4.046,-0.227zM55.164,56.902c0.414,0.109 1.283,0.809 1.283,1.026 0,0.059 0.069,0.237 0.148,0.385 0.227,0.444 0.405,1.905 0.247,2.092 -0.099,0.128 -0.484,0.148 -2.477,0.148l-2.359,-0l-0.059,-0.247c-0.128,-0.503 0.217,-1.855 0.612,-2.378 0.434,-0.582 0.819,-0.878 1.391,-1.046 0.316,-0.089 0.622,-0.148 0.691,-0.128 0.059,0.02 0.296,0.089 0.523,0.148z" stroke="#00000000" id="path_5"/><path fill="#000" stroke-width="1" d="m19.046,46.816c-0.75,0.385 -0.977,0.572 -1.303,1.056 -0.316,0.484 -0.326,0.523 -0.326,1.53l0,1.046l0.375,0.513c0.444,0.602 0.74,0.819 1.391,1.046 0.878,0.286 1.638,0.178 2.516,-0.375 1.056,-0.671 1.421,-2.388 0.78,-3.651 -0.227,-0.444 -0.424,-0.651 -1.016,-1.026 -0.533,-0.345 -1.885,-0.424 -2.418,-0.138z" stroke="#00000000" id="path_6"/><path fill="#000" stroke-width="1" d="m21.464,53.941c-0.158,0.049 -0.602,0.138 -0.987,0.187 -0.375,0.049 -1.066,0.148 -1.53,0.217 -0.464,0.059 -0.868,0.148 -0.918,0.178 -0.089,0.079 -0.099,16.845 -0.02,16.993 0.039,0.049 0.918,0.089 2.072,0.089 2.013,-0 2.023,-0 2.072,-0.227 0.03,-0.118 0.039,-4.105 0.03,-8.852 -0.03,-8.556 -0.03,-8.635 -0.227,-8.654 -0.109,-0.01 -0.326,0.02 -0.493,0.069z" stroke="#00000000" id="path_7"/></svg>