<svg id="vector" xmlns="http://www.w3.org/2000/svg" width="72" height="72" viewBox="0 0 72 72"><path fill="#000" d="m57.31,48.286c-3.47,0 -5.846,-2.546 -5.846,-6.185 0,-3.583 2.433,-6.129 5.846,-6.129 3.413,0 5.865,2.546 5.865,6.185 0,3.526 -2.508,6.129 -5.865,6.129zM57.423,28.051c-8.901,0 -14.822,5.639 -14.822,14.049 0,8.618 5.695,14.162 14.653,14.162 8.901,0 14.747,-5.544 14.747,-14.106 0.019,-8.467 -5.789,-14.106 -14.577,-14.106zM34.491,15.737c-3.357,0 -5.488,1.905 -5.488,4.884 0,3.036 2.169,4.941 5.639,4.941 3.376,0 5.488,-1.905 5.488,-4.941 0,-3.036 -2.169,-4.884 -5.639,-4.884zM35.095,28.315h-1.094c-2.659,0 -4.658,1.245 -4.658,5.054v17.368c0,3.847 1.942,5.054 4.771,5.054h1.075c2.659,0 4.564,-1.301 4.564,-5.054L39.753,33.369c0,-3.904 -1.848,-5.054 -4.658,-5.054zM20.895,20.131h-1.565c-2.98,0 -4.62,1.697 -4.62,5.054v16.218c0,4.168 -1.414,5.639 -4.714,5.639 -2.602,0 -4.715,-1.131 -6.412,-3.206C3.413,43.628 0,45.25 0,49.267c0,4.337 4.073,6.996 11.617,6.996 9.165,0 13.993,-4.601 13.993,-14.709L25.609,25.147c0,-3.338 -1.622,-5.016 -4.714,-5.016z" stroke-width="0.18858" id="path_0"/></svg>