<?xml version="1.0" encoding="UTF-8" standalone="no"?>
<!-- Generator: Adobe Illustrator 25.4.1, SVG Export Plug-In . SVG Version: 6.00 Build 0)  -->

<svg
   version="1.1"
   id="Layer_1"
   x="0px"
   y="0px"
   viewBox="0 0 72.000002 72"
   xml:space="preserve"
   sodipodi:docname="myntra.svg"
   width="72"
   height="72"
   inkscape:version="1.2.1 (9c6d41e410, 2022-07-14)"
   xmlns:inkscape="http://www.inkscape.org/namespaces/inkscape"
   xmlns:sodipodi="http://sodipodi.sourceforge.net/DTD/sodipodi-0.dtd"
   xmlns="http://www.w3.org/2000/svg"
   xmlns:svg="http://www.w3.org/2000/svg"><defs
   id="defs35" /><sodipodi:namedview
   id="namedview33"
   pagecolor="#ffffff"
   bordercolor="#000000"
   borderopacity="0.25"
   inkscape:showpageshadow="2"
   inkscape:pageopacity="0.0"
   inkscape:pagecheckerboard="0"
   inkscape:deskcolor="#d1d1d1"
   showgrid="false"
   inkscape:zoom="3.7791485"
   inkscape:cx="93.539589"
   inkscape:cy="51.863534"
   inkscape:window-width="1920"
   inkscape:window-height="1009"
   inkscape:window-x="-8"
   inkscape:window-y="-8"
   inkscape:window-maximized="1"
   inkscape:current-layer="g30" />
<style
   type="text/css"
   id="style2">
	.st0{fill:#231F20;}
	.st1{fill:#FEFEFE;}
	.st2{fill:#9E242E;}
	.st3{fill:#FF912E;}
	.st4{fill:#F41CB2;}
	.st5{fill:#F25511;}
</style>
<g
   id="g30"><g
   id="g2431"
   transform="matrix(0.21494137,0,0,0.21494137,-2.1865488,9.7508064)"
   style="stroke-width:4.65243"><path
     class="st2"
     d="m 81.7,28.8 c 5.7,-6.9 11.6,-14.3 19.9,-18.1 3.9,-2 8.3,0 11.6,2.4 7.7,5.5 13.6,13.2 19.3,20.6 16.6,22.7 29.8,47.7 41.6,73.2 1.4,2.9 2.4,6 3.3,9.1 C 162,89.9 148,62.8 128.8,39.2 123.2,32.6 117.3,25.6 109.2,22.1 104.6,20.1 99.9,22.7 96.1,25.2 82.3,36.8 72.1,51.9 62.5,66.9 39.9,102.9 22.9,142.4 11.7,183.4 17,151.7 29.3,121.6 43.1,92.7 54,70.4 66.3,48.4 81.7,28.8"
     id="path18"
     style="display:inline;fill:#000000;fill-opacity:0.1;stroke-width:4.65243" /><path
     class="st2"
     d="m 245.1,11.4 c 5.2,-3.6 11.3,-0.1 15.4,3.5 11.6,10.1 20.2,23 28.5,35.9 17.9,28.8 32.7,59.5 43.8,91.5 5.6,16.6 10.7,33.5 11.9,51.1 -1.9,-12.2 -5.1,-24.2 -9.2,-35.8 -10.6,-31.9 -25.3,-62.5 -43.1,-91 -7.8,-12.2 -16.1,-24.3 -26.1,-34.7 -4,-4 -8.3,-8.2 -13.8,-10 -4.3,-1.3 -8.2,1.7 -11.7,3.8 -9.3,7.3 -16.5,16.7 -23.4,26.2 -12.2,17.3 -23.1,35.5 -32.9,54.2 -1.6,3 -3.6,5.8 -5.8,8.3 11.5,-27.3 25.5,-53.6 42.5,-77.8 7,-9.3 14,-19.1 23.9,-25.2"
     id="path20"
     style="display:inline;fill:#000000;fill-opacity:0.1;stroke-width:4.65243" /><path
     class="st3"
     d="m 96.1,25.2 c 3.8,-2.5 8.5,-5.1 13.1,-3.1 8.1,3.5 14,10.5 19.6,17.1 19.2,23.6 33.2,50.7 48.5,76.8 -9.6,27.3 -21,54.7 -21.7,84 -0.5,9.4 2,18.6 5.5,27.3 C 151,219.9 144.4,208.8 138.3,198.1 122.8,169.2 112.9,137.7 105.1,105.9 99.5,79.5 94.3,52.5 96.1,25.2"
     id="path22"
     style="display:inline;fill:#000000;fill-opacity:0.75;stroke-width:4.65243" /><path
     class="st4"
     d="m 240.9,25.6 c 3.5,-2.1 7.4,-5.1 11.7,-3.8 5.5,1.8 9.8,6 13.8,10 10,10.5 18.3,22.5 26.1,34.7 17.8,28.5 32.5,59.1 43.1,91 4.2,11.6 7.3,23.6 9.2,35.8 0.9,10.8 0.4,22.6 -5.5,32.1 -4.9,8 -15.6,11 -24.2,7.5 C 303,228 294.9,216.9 288,206.3 269.6,176 258.9,141.7 250.3,107.4 244.5,80.7 239.1,53.3 240.9,25.6"
     id="path24"
     style="fill:#000000;fill-opacity:1;stroke-width:4.65243" /><path
     class="st4"
     d="m 62.5,66.9 c 9.6,-15 19.8,-30.1 33.6,-41.7 -1.8,27.2 3.4,54.3 9.1,80.7 -7.3,31 -17.1,61.6 -31.8,89.9 -6.9,12.7 -14.9,25.5 -26.9,33.9 -6.7,4.8 -16.2,6.5 -23.6,2.2 -7.7,-4.3 -11,-13.4 -12.1,-21.7 -1,-8.9 -0.9,-18 1,-26.8 11,-41 28.1,-80.5 50.7,-116.5"
     id="path26"
     style="fill:#000000;fill-opacity:1;stroke-width:4.65243" /><path
     class="st5"
     d="m 217.5,51.8 c 6.9,-9.5 14.1,-18.9 23.4,-26.2 -1.8,27.6 3.6,55.1 9.5,81.9 -6.9,28.3 -15.8,56.2 -28.5,82.4 -6,11.9 -12.8,23.6 -22.1,33.2 -5.4,5.3 -12,10.3 -19.8,11.1 -7,0.8 -13.7,-2.4 -18.8,-7 -3.5,-8.7 -6,-17.9 -5.5,-27.3 0.7,-29.3 12.1,-56.8 21.7,-84 0.3,-0.4 1.1,-1.2 1.4,-1.6 2.2,-2.6 4.2,-5.3 5.8,-8.3 9.9,-18.7 20.7,-36.9 32.9,-54.2"
     id="path28"
     style="fill:#000000;fill-opacity:0.75;stroke-width:4.65243" /></g>
	
	
	
	
	
	
	
	
	
	
	
	
	
</g>
</svg>
