<?xml version="1.0" encoding="UTF-8" standalone="no"?>
<svg
   id="svg2"
   viewBox="0 0 6.3930586 6.3936"
   width="72"
   height="72"
   version="1.1"
   sodipodi:docname="netflix.svg"
   inkscape:version="1.2.1 (9c6d41e410, 2022-07-14)"
   xmlns:inkscape="http://www.inkscape.org/namespaces/inkscape"
   xmlns:sodipodi="http://sodipodi.sourceforge.net/DTD/sodipodi-0.dtd"
   xmlns="http://www.w3.org/2000/svg"
   xmlns:svg="http://www.w3.org/2000/svg">
  <defs
     id="defs21" />
  <sodipodi:namedview
     id="namedview19"
     pagecolor="#ffffff"
     bordercolor="#000000"
     borderopacity="0.25"
     inkscape:showpageshadow="2"
     inkscape:pageopacity="0.0"
     inkscape:pagecheckerboard="0"
     inkscape:deskcolor="#d1d1d1"
     showgrid="false"
     inkscape:zoom="11.313709"
     inkscape:cx="46.624853"
     inkscape:cy="46.934212"
     inkscape:window-width="1920"
     inkscape:window-height="1009"
     inkscape:window-x="-8"
     inkscape:window-y="-8"
     inkscape:window-maximized="1"
     inkscape:current-layer="g1693" />
  <style
     id="style2">.st0{fill:#b1060f;stroke:#000}.st1{fill:url(#path5719_1_)}.st2{fill:#e50914}</style>
  <g
     id="g4182"
     transform="translate(12.495,6.756)">
    <g
       id="g1693"
       transform="matrix(0.02892598,0,0,0.02892598,-10.712915,-6.5744734)"
       style="stroke-width:34.571">
      <path
         id="path4155"
         class="st0"
         d="m -52.5,-412.3 -0.3,168 -0.3,168 c -1.110163,244.61833 2.384502,175.630995 1.968887,415.00519 C -14.531113,340.50519 46.5,341.8 81,346.1 c 8,1 14.8,1.5 15.3,1.1 0.5,-0.4 0.6,-171.4 0.5,-380.1 l -0.3,-379.4 z"
         style="display:inline;fill:#000000;fill-opacity:0.75;stroke:none;stroke-width:34.571"
         transform="matrix(0.29074,0,0,0.29074,81.630997,113.771)"
         sodipodi:nodetypes="cccccsccc" />
      <path
         id="path4157"
         class="st0"
         d="M -322,-412.8 V -33 c 0,208.9 0.2,380 0.5,380.3 0.3,0.3 13.2,-1 28.8,-2.7 15.6,-1.7 37.1,-3.9 47.8,-4.8 16.4,-1.4 65.6,-4.5 71.2,-4.6 1.7,0 1.8,-8.5 2,-160.9 l 0.3,-160.9 c -1.30972,-153.01665 -3.40403,-259.83696 0.4,-423.5 l -1,-2.8 h -150 z"
         style="display:inline;fill:#000000;fill-opacity:0.75;stroke:none;stroke-width:34.571"
         transform="matrix(0.29074,0,0,0.29074,81.630997,113.771)"
         sodipodi:nodetypes="cssscccccccc" />
      <path
         id="path5721"
         class="st2"
         d="m -322,-412.8 150.5,426.5 v -0.2 l 11.9,33.6 c 66.1,187.1 108.45122,291.14634 108.53964,291.41123 0.09387,0.28122 1.805556,0.16057 13.905556,0.76057 C -0.55480391,341.0718 46.4,341.8 80.9,346.1 c 7.9,1 14.8,1.5 15.2,1.1 L -53.1,-76.4 v 0.1 l -13.8,-39 c -13.5,-38.1 -22.5,-63.6 -76.8,-217 -14.6,-41.3 -27,-76.2 -27.5,-77.8 l -1,-2.8 h -74.9 z"
         style="display:inline;fill:#000000;fill-opacity:1;stroke:none;stroke-width:34.571"
         transform="matrix(0.29074,0,0,0.29074,81.630997,113.771)"
         sodipodi:nodetypes="ccccsccccccccccc" />
    </g>
  </g>
</svg>
