<svg id="vector" xmlns="http://www.w3.org/2000/svg" width="72" height="72" viewBox="0 0 72 72"><path fill="#000" stroke-width="1" d="M58.5,43.768l0,-0.697l-6.429,0l0,7.66l-0.643,0.697l6.429,2.571l14.143,-11.571l-5.734,-7.073z" stroke="#00000000" fill-opacity="0.75" id="path_0"/><path fill="#000" stroke-width="1" d="M16.714,19.929l-2.571,-0.643l-12.857,10.286l3.857,6.429l11.196,-12.214l3.59,0l0,-3.857z" stroke="#00000000" fill-opacity="0.75" id="path_1"/><path fill="#000" stroke-width="1" d="M57.214,46.286l12.857,-16.714l-12.857,-10.286l-6.429,1.286l0,27z" stroke="#00000000" fill-opacity="0.75" id="path_2"/><path fill="#000" stroke-width="1" d="M19.286,51.107l0,-27.964l-3.857,1.286l-15.429,18l12.857,10.286z" stroke="#00000000" fill-opacity="0.75" id="path_3"/><path fill="#000" stroke-width="1" d="M51.429,14.143l0,43.714l-16.714,12.857l-15.429,-12.857l0,-43.714l15.429,-12.857z" stroke="#00000000" fill-opacity="0.75" id="path_4"/><path fill="#000" stroke-width="1" d="M41.786,37.286H40.5c-0.355,0 -0.643,0.288 -0.643,0.643v5.786l-9,-0.001v-5.785c0,-0.355 -0.288,-0.643 -0.643,-0.643h-1.286c-0.354,0 -0.642,0.288 -0.642,0.643v7.714c0,0.355 0.288,0.643 0.643,0.643h12.857c0.355,0 0.643,-0.288 0.643,-0.643v-7.714c0,-0.355 -0.288,-0.643 -0.643,-0.643z" stroke="#00000000" id="path_5"/><path fill="#000" stroke-width="1" d="m45.939,35.121 l-3.51,-3.744V27c0,-0.355 -0.288,-0.643 -0.643,-0.643H40.5c-0.355,0 -0.643,0.288 -0.643,0.643v1.634l-4.031,-4.299c-0.122,-0.13 -0.291,-0.203 -0.469,-0.203 -0.177,0 -0.347,0.073 -0.469,0.203L24.776,35.122c-0.117,0.125 -0.179,0.291 -0.174,0.46 0.005,0.171 0.078,0.332 0.203,0.449l0.939,0.879c0.123,0.116 0.282,0.174 0.44,0.174 0.171,0 0.342,-0.068 0.469,-0.203l8.704,-9.284 4.653,4.964c0.014,0.017 0.028,0.032 0.044,0.048l4.006,4.274c0.126,0.135 0.297,0.203 0.469,0.203 0.157,0 0.315,-0.058 0.44,-0.174l0.939,-0.879c0.125,-0.117 0.198,-0.278 0.203,-0.449 0.006,-0.172 -0.055,-0.338 -0.172,-0.463z" stroke="#00000000" id="path_6"/></svg>