<svg id="vector" xmlns="http://www.w3.org/2000/svg" width="72" height="72" viewBox="0 0 72 72"><path fill="#000" d="m30.3,0.841c4.482,-0.765 9.112,-0.701 13.594,0.191 2.209,0.382 4.248,1.444 6.16,2.549 2.167,1.296 4.376,2.485 6.606,3.632 5.374,3.568 9.771,8.666 12.277,14.656 1.423,3.314 2.273,6.861 2.634,10.45 0.85,4.715 0.382,9.601 -1.168,14.125 -1.232,4.482 -4.057,8.22 -6.33,12.192 -0.319,0.531 -0.765,0.998 -1.168,1.487C59.973,63.649 56.511,66.835 52.221,68.598c0.191,-0.255 0.297,-0.531 0.34,-0.828 -0.489,0.106 -0.977,0.234 -1.466,0.383 0.276,-0.361 0.701,-0.553 1.083,-0.808 1.402,-0.913 2.74,-1.912 4.014,-2.995 0.212,-0.191 0.51,-0.297 0.595,-0.595 -0.51,0.212 -0.828,0.701 -1.296,0.998 -6.733,4.864 -15.166,7.54 -23.492,6.818 -8.581,-0.701 -16.759,-4.864 -22.494,-11.279 -3.972,-4.397 -6.861,-9.771 -8.326,-15.506 -1.742,-6.585 -1.551,-13.679 0.658,-20.136 1.274,-3.738 3.144,-7.286 5.65,-10.344 3.93,-4.907 8.964,-9.027 14.762,-11.512 2.676,-0.701 5.31,-1.508 8.05,-1.954m0.425,2.018c-6.096,1.083 -11.831,3.972 -16.483,8.05 -4.992,4.354 -8.772,10.089 -10.769,16.398 -0.722,3.59 -1.487,7.243 -1.444,10.918 0.765,5.459 2.421,10.896 5.523,15.506 2.124,3.186 4.949,5.884 8.135,7.965 0.17,0.106 0.361,0.191 0.531,0.255 -1.869,-1.317 -3.462,-2.952 -5.098,-4.545 -5.31,-5.374 -8.284,-12.914 -8.263,-20.455 -0.042,-6.457 1.997,-12.893 5.608,-18.246 1.551,-1.593 2.591,-3.59 4.078,-5.268 4.907,-4.694 11.151,-7.901 17.715,-9.558 7.158,-1.062 14.614,0.149 21.134,3.271 6.16,2.931 11.512,7.625 14.953,13.53 2.634,4.461 4.078,9.601 4.206,14.762 0.085,-1.89 0.255,-3.845 -0.297,-5.692 -0.68,-2.804 -1.317,-5.671 -2.634,-8.241C65.262,17.557 62.841,13.521 59.379,10.442 56.745,8.105 53.665,6.3 50.394,5.004 47.548,4.239 44.68,3.56 41.813,2.837 38.159,2.179 34.378,2.221 30.725,2.859m0.85,5.013c-5.565,1.359 -10.684,4.227 -15.06,7.859 -1.253,1.189 -2.443,2.485 -3.122,4.099 -0.149,0.361 -0.234,0.765 -0.467,1.105 0.064,0 0.17,-0.021 0.234,-0.042 1.211,-1.678 2.485,-3.314 4.014,-4.715 4.312,-4.014 10.047,-6.351 15.867,-6.839 6.563,-0.595 13.275,1.041 18.84,4.503 1.912,1.083 3.696,2.379 5.225,3.972 2.719,2.804 4.673,6.351 5.799,10.089 1.189,3.441 2.167,7.094 1.699,10.769 -0.616,3.887 -0.701,7.944 -2.294,11.619 -1.359,2.103 -2.613,4.27 -4.014,6.33 -4.567,5.183 -10.429,9.431 -17.184,11.088 -0.637,0.064 -1.211,0.425 -1.869,0.361 0.658,0.149 1.253,-0.234 1.912,-0.234 6.542,-1.211 12.638,-4.588 17.184,-9.431 4.248,-4.524 7.116,-10.408 7.88,-16.589 0.021,-2.549 0,-5.076 0,-7.625 0.085,-1.444 -0.319,-2.846 -0.658,-4.248 -1.763,-6.691 -6.011,-12.596 -11.512,-16.738 -1.614,-1.189 -3.271,-2.358 -5.14,-3.122 -5.416,-2.358 -11.491,-2.91 -17.332,-2.209m-8.624,18.352c-2.613,3.292 -3.866,7.647 -3.314,11.81 0.319,2.507 1.296,4.864 2.613,6.988 -0.17,-0.127 -0.51,-0.404 -0.68,-0.531 -0.404,-0.149 -0.404,0.319 -0.212,0.531 1.02,1.997 2.698,3.568 4.482,4.907 1.551,0.85 3.016,1.87 4.673,2.528 1.975,0.701 4.057,1.168 6.16,0.998 2.421,-0.234 4.885,-0.659 7.073,-1.784 2.273,-1.105 4.184,-2.867 5.862,-4.737 1.189,-1.211 1.317,-2.995 2.209,-4.376 0.998,-1.678 1.189,-3.696 1.211,-5.608 0.042,-2.06 -0.382,-4.099 -0.977,-6.054 -0.297,-1.359 -1.062,-2.549 -1.805,-3.696 -2.4,-3.377 -5.884,-6.075 -9.962,-7.031 -6.308,-1.614 -13.36,0.935 -17.332,6.054z" stroke-width="0.02" stroke="#000" id="path_0"/><path fill="#000" d="m22.951,26.223c3.972,-5.119 11.024,-7.668 17.332,-6.054 4.078,0.956 7.562,3.653 9.962,7.031 0.743,1.147 1.508,2.336 1.805,3.696 0.595,1.954 1.02,3.993 0.977,6.054 -0.021,1.912 -0.212,3.93 -1.211,5.608 -0.892,1.381 -1.02,3.164 -2.209,4.376 -1.678,1.869 -3.59,3.632 -5.862,4.737 -2.188,1.126 -4.652,1.551 -7.073,1.784 -2.103,0.17 -4.184,-0.297 -6.16,-0.998 -1.657,-0.658 -3.122,-1.678 -4.673,-2.528 -1.784,-1.338 -3.462,-2.91 -4.482,-4.907 -0.191,-0.212 -0.191,-0.68 0.212,-0.531 0.17,0.127 0.51,0.404 0.68,0.531 -1.317,-2.124 -2.294,-4.482 -2.613,-6.988 -0.552,-4.163 0.701,-8.517 3.314,-11.81m7.753,-4.333c-0.212,0.085 -0.446,0.191 -0.616,0.361 4.652,-1.997 10.259,-1.487 14.465,1.317 1.105,1.02 2.549,1.678 3.335,2.995 1.551,2.124 2.91,4.439 3.568,6.988 1.041,5.99 -1.593,12.426 -6.521,15.973 -1.317,1.04 -2.889,1.678 -4.439,2.294 -1.147,0.425 -2.421,0.361 -3.59,0.722 0.765,0.021 1.551,0.382 2.315,0.148 1.359,-0.361 2.761,-0.679 4.036,-1.338 2.273,-1.381 4.588,-2.889 6.075,-5.161 0.234,-0.403 0.616,-0.765 0.658,-1.253l0.106,-0.191c0.021,-0.021 0.064,-0.085 0.085,-0.128 0.892,-1.253 1.02,-2.825 1.402,-4.29 0.892,-3.186 0.51,-6.648 -0.786,-9.664 -1.678,-3.845 -4.864,-6.967 -8.687,-8.666 -2.103,-0.977 -4.439,-1.232 -6.712,-1.338 -1.636,0.085 -3.186,0.637 -4.694,1.232m11.555,3.42c1.232,1.083 2.379,2.23 3.377,3.505 1.89,2.4 3.335,5.416 2.974,8.539 -0.191,2.336 -1.508,4.354 -2.74,6.266 -1.105,1.657 -2.336,3.292 -3.93,4.545 -0.786,0.637 -1.805,0.892 -2.719,1.338 -0.85,0.404 -1.636,0.935 -2.549,1.168 1.338,0.277 2.655,-0.234 3.887,-0.658 3.314,-1.296 6.032,-3.866 7.71,-6.967 1.274,-2.677 1.551,-5.735 1.189,-8.645 -0.658,-2.634 -2.039,-5.034 -3.802,-7.094 -0.722,-0.722 -1.529,-1.487 -2.591,-1.572 -0.297,-0.106 -0.531,-0.297 -0.807,-0.424m-20.646,14.805c1.466,5.884 6.988,10.599 13.105,10.748 -1.572,-0.51 -3.08,-1.168 -4.567,-1.869 -1.466,-0.998 -3.122,-1.763 -4.397,-3.059 -1.933,-1.89 -3.675,-4.163 -4.291,-6.839 -0.085,0.34 0.042,0.68 0.149,1.02z" stroke-width="0.02" stroke="#000" fill-opacity="0.5" id="path_1"/></svg>