<?xml version="1.0" encoding="UTF-8" standalone="no"?>
<svg
   width="72"
   height="72"
   viewBox="0 0 72 72"
   version="1.1"
   id="svg4"
   sodipodi:docname="olx.svg"
   inkscape:version="1.2.1 (9c6d41e410, 2022-07-14)"
   xmlns:inkscape="http://www.inkscape.org/namespaces/inkscape"
   xmlns:sodipodi="http://sodipodi.sourceforge.net/DTD/sodipodi-0.dtd"
   xmlns="http://www.w3.org/2000/svg"
   xmlns:svg="http://www.w3.org/2000/svg">
  <defs
     id="defs8" />
  <sodipodi:namedview
     id="namedview6"
     pagecolor="#ffffff"
     bordercolor="#000000"
     borderopacity="0.25"
     inkscape:showpageshadow="2"
     inkscape:pageopacity="0.0"
     inkscape:pagecheckerboard="0"
     inkscape:deskcolor="#d1d1d1"
     showgrid="false"
     inkscape:zoom="4.3653021"
     inkscape:cx="30.811155"
     inkscape:cy="33.216487"
     inkscape:window-width="1920"
     inkscape:window-height="1009"
     inkscape:window-x="-8"
     inkscape:window-y="-8"
     inkscape:window-maximized="1"
     inkscape:current-layer="svg4" />
  <g
     id="g3047"
     transform="matrix(0.94736839,0,0,0.94736839,1.3694737e-6,1.894738)"
     style="stroke-width:1.05556">
    <path
       fill="#002F34"
       fill-rule="evenodd"
       d="M 47.203466,56.600016 H 37.444208 V 15.399984 h 9.759258 z M 33.959127,36.050028 c 0,9.378157 -7.604349,16.967056 -16.972942,16.967056 C 7.616856,53.017084 0,45.415678 0,36.050028 0,26.684378 7.6043489,19.082236 16.972942,19.082236 c 9.369329,0 16.986185,7.5889 16.986185,16.967792 z m -11.850895,0 a 5.1213112,5.1213112 0 0 0 -5.128669,-5.125726 5.1213112,5.1213112 0 0 0 -5.128668,5.125726 5.1213112,5.1213112 0 0 0 5.127933,5.12499 5.1213112,5.1213112 0 0 0 5.129404,-5.12499 z M 71.974986,25.750021 h -6.486063 l -3.80806,3.80291 -3.80806,-3.803646 h -6.487534 v 6.592005 l 3.757296,3.752145 -3.757296,3.752882 v 6.50372 h 6.588327 l 3.719039,-3.714625 3.719038,3.714625 H 72 v -6.50372 L 68.242704,36.094172 72,32.342026 v -6.592005 h -0.02575 z"
       id="path2"
       style="fill:#000000;fill-opacity:1;stroke-width:1.05555" />
    <path
       fill="#002F34"
       fill-rule="evenodd"
       d="M 49.825881,57.744462 H 39.524441 V 14.255538 h 10.30144 z M 35.845745,36.052807 c 0,9.899166 -8.026813,17.909671 -17.915884,17.909671 -9.8898477,0 -17.9298624,-8.023706 -17.9298624,-17.909671 0,-9.885964 8.0268129,-17.910448 17.9158834,-17.910448 9.889848,0 17.929863,8.010506 17.929863,17.910448 z m -12.509279,0 a 5.4058287,5.4058287 0 0 0 -5.413595,-5.410489 5.4058287,5.4058287 0 0 0 -5.413594,5.410489 5.4058287,5.4058287 0 0 0 5.412818,5.409712 5.4058287,5.4058287 0 0 0 5.414371,-5.409712 z M 75.973598,25.180577 H 69.127197 L 65.107578,29.19476 61.087959,25.1798 h -6.847953 v 6.958228 l 3.966035,3.960598 -3.966035,3.961375 v 6.865038 h 6.954346 l 3.925652,-3.920993 3.925652,3.920993 h 6.954345 v -6.865038 l -3.966035,-3.960597 3.966035,-3.960599 v -6.958228 h -0.02718 z"
       id="path2-4"
       style="fill:#000000;fill-opacity:0.25;stroke-width:1.05555" />
  </g>
</svg>
