<svg id="vector" xmlns="http://www.w3.org/2000/svg" width="72" height="72" viewBox="0 0 72 72"><path fill="#000" d="M11.176,52.823l10.548,0l0,19.177l-10.548,0z" id="path_0"/><path fill="#000" d="M50.897,3.515C45.235,0.502 41.309,0 32.041,0L11.176,0l0,43.647l20.774,0c8.264,0 14.427,-0.502 19.86,-4.109A20.768,20.768 135,0 0,60.804 21.55,19.755 19.755,0 0,0 50.897,3.515ZM34.369,34.516l-12.647,0l0,-25.157l11.916,-0.091c10.866,-0.137 16.299,3.698 16.299,12.373 0,9.314 -6.711,12.875 -15.569,12.875z" id="path_1"/></svg>