<svg id="vector" xmlns="http://www.w3.org/2000/svg" width="72" height="72" viewBox="0 0 24 24"><path fill="#000" d="M8.576,20.662C8.492,21.192 8.035,21.582 7.499,21.582L3.319,21.582c-0.924,0.002 -1.674,-0.745 -1.676,-1.669 -0,-0.093 0.007,-0.186 0.023,-0.278L4.491,1.737C4.651,0.738 5.512,0.003 6.523,0h6.779c2.793,0 4.809,0.676 5.991,2.01 1.142,1.315 1.58,3.1 1.178,4.795 -0.023,0.147 -0.047,0.295 -0.082,0.456 -0.898,4.601 -3.988,7.044 -8.93,7.044L9.585,14.305ZM3.821,19.976L3.818,19.984zM6.647,2.069L6.646,2.071z" stroke-width="1.09091" fill-opacity="0.5" id="path_0"/><path fill="#000" d="m11.222,6.091c0.062,-0.088 1.645,-0.031 9.346,0.009 0.031,-0.126 -0.137,1.072 -0.172,1.233 -0.898,4.601 -4.125,6.976 -9.052,6.976l-1.793,0zM3.827,20.049l-0.002,0.007z" stroke-width="1.09091" fill-opacity="0.5" id="path_1"/><path fill="#000" d="M21.181,6.659C21,6.457 20.801,6.271 20.587,6.105c-0.024,0.234 -0.06,0.468 -0.115,0.7 -0.023,0.147 -0.047,0.295 -0.082,0.456 -0.898,4.601 -3.988,7.044 -8.93,7.044H9.585l-1.009,6.356c-0.084,0.53 -0.541,0.92 -1.077,0.92H6.225l-0.089,0.568c-0.013,0.083 -0.02,0.166 -0.02,0.25 -0,0.884 0.716,1.6 1.6,1.601H11.244c0.944,0.008 1.754,-0.672 1.91,-1.603l0.699,-4.398 0.012,-0.06h0.326c4.399,0 7.146,-2.174 7.947,-6.287 0.496,-1.722 0.14,-3.577 -0.957,-4.993z" stroke-width="1.09091" id="path_2"/></svg>