<svg id="vector" xmlns="http://www.w3.org/2000/svg" width="72" height="72" viewBox="0 0 1.3126 0.712"><path fill="#000" d="M1.3082,0.2717C1.2963,0.2376 1.2638,0.2131 1.2257,0.2131l-0.0008,0c-0.0248,0 -0.0471,0.0103 -0.063,0.0269C1.1459,0.2235 1.1235,0.2131 1.0988,0.2131L1.098,0.2131c-0.0218,0 -0.0417,0.008 -0.057,0.0212L1.041,0.2276c-0.0005,-0.0067 -0.006,-0.0119 -0.0128,-0.0119l-0.0585,0c-0.0072,0 -0.0129,0.0058 -0.0129,0.013l0,0.3177c0,0.0072 0.0058,0.013 0.0129,0.013l0.0585,0c0.0065,0 0.0119,-0.0049 0.0127,-0.0112L1.0409,0.32a0.0205,0.0205 0,0 1,0.0001 -0.0023c0.0009,-0.0102 0.0084,-0.0185 0.0202,-0.0196l0.0108,0c0.0049,0.0004 0.0091,0.0022 0.0124,0.0048 0.0051,0.004 0.0079,0.0103 0.0079,0.0171l0.0002,0.2269c0,0.0072 0.0058,0.013 0.0129,0.013l0.0585,0c0.0069,0 0.0125,-0.0055 0.0129,-0.0124l-0,-0.2279c-0,-0.0075 0.0034,-0.0143 0.0095,-0.0183 0.003,-0.0019 0.0066,-0.0032 0.0108,-0.0036l0.0108,0c0.0127,0.0011 0.0203,0.0107 0.0203,0.0219l0.0002,0.2266c0,0.0072 0.0058,0.013 0.0129,0.013l0.0585,0c0.0071,0 0.0129,-0.0058 0.0129,-0.013L1.3126,0.3026c0,-0.0166 -0.0019,-0.0237 -0.0044,-0.031M0.9121,0.2165L0.8787,0.2165L0.8787,0.1621C0.8787,0.1556 0.8734,0.1503 0.8669,0.1503 0.8661,0.1503 0.8654,0.1504 0.8646,0.1506 0.8275,0.1607 0.835,0.2121 0.7673,0.2165L0.7607,0.2165c-0.001,0 -0.0019,0.0001 -0.0028,0.0003l-0.0001,0l0.0001,0C0.7521,0.2181 0.7477,0.2233 0.7477,0.2294l0,0.0585c0,0.0071 0.0058,0.0129 0.013,0.0129l0.0353,0l-0.0001,0.2481c0,0.0071 0.0057,0.0128 0.0128,0.0128l0.0578,0c0.007,0 0.0128,-0.0057 0.0128,-0.0128l0,-0.2481l0.0328,0c0.0071,0 0.0129,-0.0058 0.0129,-0.0129l0,-0.0585c0,-0.0071 -0.0058,-0.0129 -0.0129,-0.0129" fill-opacity="0.5" id="path_0"/><path fill="#000" d="m0.7017,0.2165l-0.0585,0c-0.0071,0 -0.0129,0.0058 -0.0129,0.0129L0.6302,0.3504C0.6301,0.3579 0.6241,0.3639 0.6165,0.3639L0.5921,0.3639C0.5845,0.3639 0.5783,0.3578 0.5783,0.3502L0.5781,0.2294c0,-0.0071 -0.0058,-0.0129 -0.0129,-0.0129L0.5067,0.2165c-0.0072,0 -0.0129,0.0058 -0.0129,0.0129l0,0.1326c0,0.0504 0.0359,0.0863 0.0863,0.0863 0,0 0.0378,0 0.039,0.0002 0.0068,0.0008 0.0121,0.0065 0.0121,0.0135 0,0.007 -0.0052,0.0127 -0.0119,0.0135 -0.0003,0.0001 -0.0006,0.0001 -0.001,0.0002L0.5326,0.476c-0.0072,0 -0.0129,0.0058 -0.0129,0.0129l0,0.0585c0,0.0072 0.0058,0.0129 0.0129,0.0129l0.0956,0c0.0504,0 0.0863,-0.0359 0.0863,-0.0863l0,-0.2447c0,-0.0071 -0.0058,-0.0129 -0.0129,-0.0129M0.1354,0.3237l0,0.0361c0,0.0076 -0.0061,0.0137 -0.0137,0.0137l-0.0371,0L0.0846,0.3012l0.0371,0c0.0076,0 0.0137,0.0061 0.0137,0.0137zM0.1405,0.2165L0.0127,0.2165C0.0057,0.2165 -0,0.2222 -0,0.2292L-0,0.2865C-0,0.2866 0,0.2867 0,0.2868 0,0.2871 -0,0.2874 -0,0.2876l0,0.2594c0,0.007 0.0053,0.0128 0.0118,0.013l0.0596,0c0.0071,0 0.0129,-0.0058 0.0129,-0.0129L0.0846,0.4582L0.1405,0.4582C0.1874,0.4582 0.22,0.4257 0.22,0.3786L0.22,0.2961C0.22,0.2491 0.1874,0.2165 0.1405,0.2165ZM0.3781,0.461l0,0.0091c0,0.0007 -0.0001,0.0015 -0.0002,0.0021A0.0136,0.0136 0,0 1,0.3774 0.4742C0.3755,0.4793 0.3704,0.483 0.3643,0.483l-0.0244,0c-0.0076,0 -0.0138,-0.0058 -0.0138,-0.0129L0.3262,0.4591c0,-0.0001 -0,-0.0003 -0,-0.0004L0.3262,0.4294L0.3262,0.4202L0.3262,0.4201C0.3263,0.413 0.3324,0.4073 0.34,0.4073l0.0244,0c0.0076,0 0.0138,0.0058 0.0138,0.0129zM0.3688,0.2168l-0.0812,0c-0.0072,0 -0.013,0.0054 -0.013,0.0121l0,0.0228c0,0.0001 0,0.0003 0,0.0004 0,0.0002 -0,0.0003 -0,0.0005l0,0.0312c0,0.0071 0.0062,0.0129 0.0138,0.0129l0.0773,0c0.0061,0.001 0.011,0.0054 0.0116,0.0124l0,0.0075c-0.0007,0.0066 -0.0055,0.0115 -0.0113,0.012l-0.0383,0c-0.0509,0 -0.0872,0.0338 -0.0872,0.0813l0,0.068c0,0.0472 0.0312,0.0808 0.0817,0.0808l0.1061,0c0.019,0 0.0345,-0.0144 0.0345,-0.0322L0.4629,0.3046c0,-0.0538 -0.0277,-0.0878 -0.0941,-0.0878z" id="path_1"/></svg>