<?xml version="1.0" encoding="UTF-8" standalone="no"?>
<svg
   width="72"
   height="72"
   viewBox="0 0 72 72"
   fill="none"
   version="1.1"
   id="svg1707"
   sodipodi:docname="rapido.svg"
   inkscape:version="1.2.1 (9c6d41e410, 2022-07-14)"
   xmlns:inkscape="http://www.inkscape.org/namespaces/inkscape"
   xmlns:sodipodi="http://sodipodi.sourceforge.net/DTD/sodipodi-0.dtd"
   xmlns="http://www.w3.org/2000/svg"
   xmlns:svg="http://www.w3.org/2000/svg">
  <defs
     id="defs1711" />
  <sodipodi:namedview
     id="namedview1709"
     pagecolor="#ffffff"
     bordercolor="#000000"
     borderopacity="0.25"
     inkscape:showpageshadow="2"
     inkscape:pageopacity="0.0"
     inkscape:pagecheckerboard="0"
     inkscape:deskcolor="#d1d1d1"
     showgrid="false"
     inkscape:zoom="5.5266667"
     inkscape:cx="24.879373"
     inkscape:cy="45.054282"
     inkscape:window-width="1920"
     inkscape:window-height="1009"
     inkscape:window-x="-8"
     inkscape:window-y="-8"
     inkscape:window-maximized="1"
     inkscape:current-layer="g1835" />
  <g
     id="g1835"
     transform="matrix(1.8107449,0,0,1.8107449,-62.52278,-27.041439)"
     style="stroke-width:0.552259">
    <path
       d="m 56.8828,51.9675 c -0.0107,1.5573 -1.0881,2.7252 -2.4956,2.729 -1.3921,0.0051 -2.5003,-1.0974 -2.5063,-2.6319 -0.013,-3.3993 0.0179,-6.7985 0.0666,-10.1978 0.019,-1.3455 1.1723,-2.4404 2.473,-2.4505 1.3279,-0.0101 2.4658,1.0861 2.4979,2.4934 0.0392,1.7109 0.0095,3.4232 0.0095,5.1354"
       fill="#000000"
       id="path1673"
       style="stroke-width:0.30499" />
    <path
       d="m 47.9232,22.4528 c -1.1818,-1.0835 -2.2069,-2.0221 -3.2296,-2.9645 -0.2447,-0.2255 -0.4834,-0.0731 -0.7305,-0.0151 -1.1308,0.2658 -2.302,-0.2092 -2.8246,-1.1415 -0.5333,-0.9525 -0.3468,-2.0398 0.4787,-2.7794 0.8671,-0.7773 2.3578,-0.829 3.2878,-0.1146 0.9455,0.727 1.2128,1.881 0.5892,2.9129 -0.2352,0.3893 -0.1449,0.5518 0.1401,0.8076 1.1296,1.0117 2.2402,2.0448 3.3568,3.0704 0.177,0.1625 0.3884,0.2507 0.6081,0.3452 0.5607,0.2406 0.8422,0.6942 0.7507,1.3103 -0.0903,0.6098 -0.4787,1.0432 -1.0809,1.0545 -1.9385,0.0366 -3.8794,0.0315 -5.8178,-0.0151 -0.7187,-0.0176 -1.1879,-0.6136 -1.1665,-1.2838 0.0226,-0.6917 0.5393,-1.202 1.3161,-1.2133 1.1106,-0.0164 2.2224,0.0151 3.3342,0.0252 0.2577,0.0038 0.5155,0.0012 0.9882,0.0012 z"
       fill="#ffca20"
       id="path1675"
       style="stroke-width:0.30499;fill:#000000;fill-opacity:0.75" />
    <path
       d="m 60.8133,22.5612 c 1.48,0 2.8745,-0.0037 4.2678,0.0013 0.9086,0.0025 1.4907,0.504 1.4812,1.2599 -0.0084,0.7295 -0.5726,1.236 -1.442,1.2272 -1.7972,-0.0189 -3.5943,0.0642 -5.3915,-0.0504 -0.664,-0.0429 -1.0821,-0.3453 -1.2199,-0.9765 -0.1401,-0.6413 0.1509,-1.1087 0.7317,-1.3834 0.2198,-0.1033 0.3991,-0.2456 0.5678,-0.4157 1.0524,-1.0621 2.1,-2.1293 3.1667,-3.1763 0.2684,-0.2633 0.3516,-0.4699 0.2007,-0.8554 -0.4228,-1.0861 -0.0594,-2.1217 0.8861,-2.7328 0.9681,-0.6249 2.3935,-0.4926 3.2249,0.2986 0.7448,0.7081 0.9075,1.7714 0.4098,2.6798 -0.5155,0.9412 -1.7817,1.5699 -2.7937,1.1352 -0.8564,-0.3679 -1.2662,-0.0239 -1.7698,0.5216 -0.708,0.7673 -1.4646,1.488 -2.1987,2.2313 -0.0285,0.0303 -0.0404,0.0781 -0.1211,0.2356 z"
       fill="#ffca20"
       id="path1677"
       style="stroke-width:0.30499;fill:#000000;fill-opacity:0.75" />
    <path
       d="m 57.637,22.2815 c -0.0119,1.7009 -1.5168,3.0919 -3.3437,3.0919 -1.8066,0 -3.3377,-1.4212 -3.346,-3.1057 -0.0083,-1.7059 1.5798,-3.1725 3.3924,-3.1309 1.847,0.0416 3.3092,1.4363 3.2973,3.1447 z"
       fill="#ffca20"
       id="path1679"
       style="stroke-width:0.30499;fill:#000000;fill-opacity:0.75" />
    <path
       d="m 62.1258,38.3983 c -0.10708,3.939732 0.0058,0.746605 -0.04609,5.184214 -0.107171,2.811343 -2.04025,3.901247 -3.241366,3.905506 0.0036,-1.1642 -0.169041,-4.40662 -0.171441,-5.56952 -0.0059,-2.6206 -1.3837,-3.9964 -3.9933,-4.1111 -1.4741,-0.0655 -2.776,0.1802 -3.7108,1.4426 -0.5095,0.6879 -0.7542,1.459 -0.753,2.3246 0.0024,1.6605 -0.202341,4.227004 -0.0345,6.245686 -1.303386,-3.02e-4 -3.513877,-1.617773 -3.517454,-4.084548 0.172663,-2.207963 0.174397,-2.375918 0.05248,-4.729115 0.0166,-2.6407 0.12607,-5.824323 0.13797,-8.465123 0.0107,-2.264 1.6582,-3.9914 3.9102,-4.0153 2.4837,-0.0252 4.9686,-0.0164 7.4523,0.0201 2.3079,0.0341 3.9756,1.8408 3.9447,4.1439 -0.0356,2.5689 -0.0213,5.1392 -0.0297,7.7081 z"
       fill="#ffca20"
       id="path1687"
       sodipodi:nodetypes="ccccccccccccccc"
       style="stroke-width:0.30499;fill:#000000;fill-opacity:0.5" />
  </g>
</svg>
