<svg id="vector" xmlns="http://www.w3.org/2000/svg" width="72" height="72" viewBox="0 0 72 72"><path fill="#000" d="M61.587,37.352Q60.954,36.628 60.251,35.901 60.742,35.385 61.202,34.87c5.781,-6.495 8.221,-13.009 5.96,-16.925 -2.168,-3.755 -8.616,-4.874 -16.689,-3.304q-1.193,0.233 -2.372,0.526 -0.226,-0.778 -0.48,-1.548C44.881,5.365 40.457,-0.003 35.935,0 31.599,0.002 27.409,5.03 24.736,12.807q-0.395,1.151 -0.73,2.321 -0.789,-0.193 -1.584,-0.357C13.904,13.022 7.044,14.173 4.787,18.092 2.624,21.849 4.886,27.991 10.29,34.191q0.804,0.92 1.653,1.799c-0.668,0.688 -1.3,1.375 -1.889,2.058 -5.273,6.113 -7.406,12.154 -5.246,15.895 2.231,3.865 8.995,5.128 17.227,3.508q1.001,-0.198 1.991,-0.446 0.363,1.266 0.795,2.509c2.662,7.621 6.829,12.487 11.149,12.485 4.462,-0.003 8.935,-5.23 11.645,-13.171 0.214,-0.628 0.417,-1.279 0.609,-1.95q1.278,0.318 2.573,0.564c7.932,1.501 14.229,0.32 16.385,-3.424 2.227,-3.867 -0.069,-10.354 -5.596,-16.667zM7.453,19.627C8.842,17.215 14.448,16.274 21.803,17.783q0.705,0.145 1.434,0.324a73.67,73.67 0,0 0,-1.517 9.64,75.191 75.191,0 0,0 -7.574,6.097Q13.356,33.027 12.608,32.17l0,0C7.979,26.858 6.149,21.891 7.453,19.627ZM21.445,40.248c-1.838,-1.392 -3.546,-2.818 -5.097,-4.252 1.549,-1.425 3.259,-2.846 5.093,-4.234q-0.099,2.121 -0.098,4.245 0.002,2.121 0.102,4.241zM21.442,54.434A26.052,26.052 0,0 1,11.939 54.769,6.358 6.358,0 0,1 7.472,52.406C6.161,50.136 7.874,45.286 12.383,40.058q0.85,-0.983 1.756,-1.914a73.765,73.765 0,0 0,7.586 6.12,74.888 74.888,0 0,0 1.534,9.763q-0.904,0.226 -1.817,0.407zM47.006,25.492q-1.811,-1.141 -3.667,-2.209 -1.826,-1.051 -3.696,-2.023c2.135,-0.898 4.233,-1.664 6.259,-2.289a65.584,65.584 0,0 1,1.104 6.521zM27.644,13.807C29.935,7.143 33.324,3.077 35.937,3.076c2.783,-0.001 6.399,4.386 8.764,11.511q0.23,0.697 0.436,1.401a73.721,73.721 0,0 0,-9.098 3.496,72.221 72.221,0 0,0 -9.068,-3.535q0.311,-1.08 0.674,-2.143zM26.203,18.932a65.906,65.906 0,0 1,6.227 2.311q-3.783,1.952 -7.37,4.253c0.289,-2.297 0.673,-4.497 1.144,-6.564zM25.065,46.511q1.789,1.145 3.63,2.206 1.878,1.081 3.807,2.072a65.505,65.505 0,0 1,-6.28 2.394C25.746,51.087 25.357,48.847 25.065,46.511ZM44.705,57.835a26.048,26.048 0,0 1,-4.457 8.4l-0,0a6.357,6.357 0,0 1,-4.278 2.689c-2.622,0.002 -5.968,-3.906 -8.244,-10.424Q27.324,57.344 26.986,56.167a72.391,72.391 0,0 0,9.105 -3.635,74.879 74.879,0 0,0 9.17,3.523q-0.256,0.896 -0.556,1.78zM46.009,53.067c-2.049,-0.634 -4.178,-1.413 -6.344,-2.324q1.831,-0.964 3.689,-2.036 1.906,-1.101 3.716,-2.257a65.348,65.348 0,0 1,-1.061 6.616zM47.616,35.994q0.004,3.279 -0.205,6.554c-1.774,1.2 -3.646,2.372 -5.594,3.497 -1.94,1.12 -3.863,2.15 -5.748,3.081q-2.977,-1.426 -5.838,-3.074 -2.846,-1.638 -5.561,-3.488 -0.248,-3.273 -0.25,-6.558l0,0.001q-0.002,-3.283 0.245,-6.559c1.773,-1.211 3.632,-2.382 5.554,-3.492 1.931,-1.115 3.877,-2.14 5.813,-3.069q2.94,1.429 5.774,3.062 2.844,1.634 5.576,3.451 0.235,3.292 0.235,6.594zM51.06,17.66c6.917,-1.345 12.132,-0.44 13.438,1.822 1.392,2.411 -0.603,7.735 -5.594,13.343l-0,0q-0.414,0.464 -0.858,0.932a72.22,72.22 0,0 0,-7.718 -6.076,72.146 72.146,0 0,0 -1.46,-9.536q1.117,-0.275 2.192,-0.485zM50.592,31.644a65.392,65.392 0,0 1,5.261 4.276,65.229 65.229,0 0,1 -5.244,4.35q0.084,-2.138 0.082,-4.278 -0.001,-2.174 -0.099,-4.348zM64.517,52.484c-1.308,2.272 -6.364,3.22 -13.148,1.936q-1.166,-0.22 -2.393,-0.524a72.248,72.248 0,0 0,1.395 -9.654,71.781 71.781,0 0,0 7.693,-6.177q0.635,0.66 1.208,1.314v-0a26.044,26.044 0,0 1,5.051 8.056,6.356 6.356,0 0,1 0.193,5.05zM32.771,30.376a6.429,6.429 0,1 0,8.782 2.353,6.43 6.43,0 0,0 -8.782,-2.353z" stroke-width="3.59999" id="path_0"/></svg>