<?xml version="1.0" encoding="UTF-8" standalone="no"?>
<!-- Generator: Adobe Illustrator 19.0.0, SVG Export Plug-In . SVG Version: 6.00 Build 0)  -->

<svg
   version="1.1"
   id="Layer_1"
   x="0px"
   y="0px"
   viewBox="-493 34.5 304.1 201.1"
   style="enable-background:new -493 34.5 304.1 201.1;"
   xml:space="preserve"
   sodipodi:docname="redbus.svg"
   inkscape:version="1.2.1 (9c6d41e410, 2022-07-14)"
   xmlns:inkscape="http://www.inkscape.org/namespaces/inkscape"
   xmlns:sodipodi="http://sodipodi.sourceforge.net/DTD/sodipodi-0.dtd"
   xmlns="http://www.w3.org/2000/svg"
   xmlns:svg="http://www.w3.org/2000/svg"><defs
   id="defs27" /><sodipodi:namedview
   id="namedview25"
   pagecolor="#ffffff"
   bordercolor="#000000"
   borderopacity="0.25"
   inkscape:showpageshadow="2"
   inkscape:pageopacity="0.0"
   inkscape:pagecheckerboard="0"
   inkscape:deskcolor="#d1d1d1"
   showgrid="false"
   inkscape:zoom="1.9894771"
   inkscape:cx="151.04471"
   inkscape:cy="124.15323"
   inkscape:window-width="1920"
   inkscape:window-height="1009"
   inkscape:window-x="-8"
   inkscape:window-y="-8"
   inkscape:window-maximized="1"
   inkscape:current-layer="g22" />
<style
   type="text/css"
   id="style2">
	.st0{fill:#FFFFFF;}
	.st1{fill:#C9323E;}
</style>
<g
   id="g22"
   style="fill:#000000;fill-opacity:1">
	
	<g
   id="g20"
   style="fill:#000000;fill-opacity:1">
		<path
   class="st1"
   d="M-375.6,192.2c2.2,20.5-11.5,35-28.2,36.9c-8.7,0.9-16.7-1.9-23.6-7.4s-10.2-13-11.2-22    c-5,0.6-9.9,0.9-14.6,1.5c-4.3,0.6-8.7,0.9-13,1.5c-3.1,0.6-4-0.6-4.6-3.4c-3.7-15.5-7.7-30.7-11.2-46.5c-3.1-14.9-5-29.7-5-44.6    c0-5.6,0.9-11.5,2.2-17c1.5-8.4,6.8-14.6,14.3-18.6c10.5-5.9,21.7-9.9,33.2-12.7c17.4-4.3,35-8.4,52.7-11.2    c16.4-2.8,33.2-4.3,49.9-5.9c16.1-1.2,32.2-2.2,48.3-2.2c17.4,0,34.4,1.2,51.8,2.2c6.2,0.3,11.2,4,15.5,8.7    c8.4,9,13,19.8,16.7,31.6c5.9,18.6,8.4,38.1,7.1,57.6c-0.6,10.2-2.2,20.5-6.5,30.1c-0.6,1.5-1.5,2.2-3.4,2.5    c-8.7,0.9-17.4,1.9-26,2.8c-1.2,0.3-2.8,0.3-4.3,0.6c3.4,11.2,2.2,21.7-5.3,30.7c-5.3,6.8-12.4,10.5-20.8,11.5    c-18,2.2-36.9-11.8-35.3-35.6C-323.2,186.3-349.2,189.4-375.6,192.2z M-479.7,109.8c1.2,11.5,1.9,21.7,3.7,31.9    c3.1,16.7,7.4,32.8,11.2,49.6c0.6,3.4,2.2,3.4,5,3.1c5.9-0.9,12.1-1.5,18-2.2c2.5-0.3,3.7-0.9,4-3.4c2.8-12.1,14.6-22.3,26.7-23.2    c14.6-1.2,25.1,5,32.2,17.4c0.9,1.5,1.5,2.2,3.4,1.9c6.2-0.6,12.4-1.2,18.6-2.2c9.6-1.2,18.9-2.2,28.5-3.4    c10.2-1.2,20.5-2.5,31-3.4c1.9-0.3,2.5-0.9,3.4-2.5c10.2-21.4,38.4-24.5,53.3-5.9c1.2,1.5,2.2,1.9,4,1.9c9-0.9,17.7-2.2,26.7-3.1    c1.9-0.3,3.1-0.9,3.4-2.8c1.5-7.7,3.7-15.2,4-23.2c1.2-19.8-1.5-39-7.7-57.6c-3.1-9-6.8-17.4-13.3-24.5c-3.4-3.7-7.1-6.8-12.1-7.4    c-12.7-0.9-25.4-2.2-38.1-2.2c-19.8,0-39.7,0.9-59.2,2.2c-15.5,0.9-31,2.8-46.2,5c-21.4,3.1-42.8,7.4-63.2,13.9    c-9,2.8-18.3,6.2-26.3,11.5c-3.7,2.5-6.5,5.3-7.4,9.6C-477.8,97.1-478.7,103.9-479.7,109.8z M-265.2,211.4    c13.3,0,23.9-10.5,23.9-23.6c0-13.3-10.8-23.9-24.2-23.9c-13.3,0-23.6,10.5-23.6,23.9C-289.1,200.9-278.6,211.4-265.2,211.4z     M-383,198.1c0-12.7-8.4-23.6-22-24.5c-13-0.9-24.8,9.3-25.4,22c-0.6,13.6,9.3,24.8,22.6,25.7C-394.8,222.3-383,211.4-383,198.1z"
   id="path6"
   style="fill:#000000;fill-opacity:1" />
		
		
		
		
		
		
	</g>
<g
   id="g316"
   style="enable-background:new -493 34.5 304.1 201.1;fill:#000000;fill-opacity:0.75"><path
     class="st1"
     d="M-340.5,82.2c9.9,0,19.5-0.9,29.1,0.3c11.5,1.5,12.7,14.3,9,21.1c-1.5,2.5-4.6,4-6.5,5.9    c1.2,0.6,2.8,1.2,4.3,2.2c5.3,3.4,7.7,8.4,6.2,15.5c-1.2,6.5-5.3,11.5-11.8,12.4c-9.9,1.2-20.1,0.9-30.1,1.2    C-340.5,120.3-340.5,101.1-340.5,82.2z M-328.1,130.5c3.4,0,6.8,0.3,10.2,0c4.6-0.6,6.8-3.4,6.8-8.4s-2.2-8.7-6.5-9.3    c-3.4-0.3-7.1,0-10.5,0C-328.1,118.8-328.1,124.3-328.1,130.5z M-328.1,91.2c0,5.6,0,10.5,0,16.1c2.8,0,5.3,0,8.1,0    c4.3,0,6.5-2.8,6.8-6.8c0.3-5.3-2.2-8.7-6.2-9C-322.6,90.9-325,91.2-328.1,91.2z"
     id="path8"
     style="fill:#000000;fill-opacity:0.75" /><path
     class="st1"
     d="M-350.8,139.8c-4-0.3-8.7,2.2-10.8-3.7c-1.5,0.6-2.5,1.2-3.7,1.9c-9.3,5-19.2,1.9-23.2-7.7    c-3.4-7.7-3.4-15.5,0.6-22.9c5-8.7,13.9-10.5,23.2-8.7c0.9,0.3,1.5,0.6,3.1,0.9c0-3.4,0-6.2,0-9s0-5.6,0-8.7c3.7,0,7.4,0,10.8,0    C-350.8,101.1-350.8,120.3-350.8,139.8z M-361.9,118.5c0-2.5,0-5,0-7.1c0-0.9-0.3-1.9-0.6-2.5c-4.3-3.7-14.3-3.7-15.8,3.7    c-0.6,2.8-0.9,5.9-0.6,9c0.6,8.1,7.4,11.8,14.6,8.1c1.9-0.9,3.1-2.2,2.8-4.3C-362.2,122.8-361.9,120.6-361.9,118.5z"
     id="path10"
     style="fill:#000000;fill-opacity:0.75" /><path
     class="st1"
     d="M-395.1,121.6c-10.5,0-20.5,0-30.1,0c0.3,5.3,4,9.6,9.6,9.3c5-0.3,9.9-1.2,15.2-2.2c0,2.2,0,4.6,0,7.4    c0,0.6-0.6,1.5-0.9,1.9c-9,4.3-25.7,5-32.8-7.1c-4.3-7.7-3.7-19.2,1.5-26c5.6-7.1,14.9-9.9,23.9-7.1c6.8,2.2,10.5,7.4,12.4,14.3    C-395.7,115.1-395.7,117.8-395.1,121.6z M-406.5,116c0.6-4.6-4-9.6-9-9.6c-5.9-0.3-9.9,3.4-9.9,9.6    C-419.2,116-412.7,116-406.5,116z"
     id="path12"
     style="fill:#000000;fill-opacity:0.75" /><path
     class="st1"
     d="M-263.7,140.2c-0.3-1.5-0.3-2.8-0.3-4.3c-1.5,0.9-3.1,1.5-4.3,2.2c-3.7,1.9-7.7,3.4-12.1,2.5    c-5.9-1.2-9.6-4.6-9.9-10.8c-0.3-9.9,0-19.8,0-30.1c3.4,0,6.8,0,10.8,0c0,0.9,0,1.9,0,3.1c0,6.8,0,13.3,0,20.1    c0,5.9,3.4,8.7,9.3,7.4c5-0.9,6.5-3.1,6.5-8.4c0-7.4,0-14.6,0-22.3c3.7,0,7.1,0,10.8,0c0,0.9,0.3,2.2,0.3,3.1    c0,11.5,0,22.9,0,34.1c0,2.5-0.6,3.4-3.4,3.4C-258.7,139.8-261.2,140.2-263.7,140.2z"
     id="path14"
     style="fill:#000000;fill-opacity:0.75" /><path
     class="st1"
     d="M-244.8,138.3c0-4,0-7.1,0-9.6c5,0.9,9.9,1.9,14.9,2.5c1.2,0.3,2.8,0,3.7-0.6c1.2-0.9,3.1-2.5,3.4-3.7    c0-1.2-1.5-3.4-3.1-3.7c-3.1-0.9-6.5-1.2-9.6-1.9c-8.7-1.9-11.8-12.4-5.9-18.9c3.4-4,7.7-5.6,13-5.6c3.7,0,7.4,0.6,11.2,1.2    c0.6,0,1.5,1.2,1.5,1.9c0.3,2.8,0,5.3,0,8.1c-4-0.6-8.1-1.2-12.1-1.9c-1.2,0-2.5,0-3.4,0.6c-1.2,0.6-2.8,2.2-2.5,3.1    c0,0.9,1.5,2.8,2.8,3.1c2.5,0.9,5.3,0.9,8.1,1.5c5.3,0.9,9,3.4,10.5,8.7c1.5,5.3-0.9,11.2-5.3,14.6c-4.3,3.4-9.6,3.7-14.9,3.1    C-236.7,140.2-240.7,138.9-244.8,138.3z"
     id="path16"
     style="fill:#000000;fill-opacity:0.75" /><path
     class="st1"
     d="M-467.3,99.2c3.7-0.3,7.4-0.6,11.2-0.9c0,1.2,0.3,2.2,0.3,3.7c1.5-0.9,2.8-1.2,3.7-2.2    c3.4-2.2,6.8-2.8,10.8-2.2c0.9,0,1.9,1.2,1.9,2.2c0.3,3.4,0,6.8,0,9.6c-3.7-0.3-7.4-0.9-11.2-0.3c-4.6,0.6-5.9,2.5-5.9,7.1    c0,7.7,0,15.2,0,23.6c-3.4,0-6.5,0-9.6,0c-0.6,0-1.5-1.9-1.5-2.5c0-10.8,0-21.4,0-32.2C-467.3,103.3-467.3,101.4-467.3,99.2z"
     id="path18"
     style="fill:#000000;fill-opacity:0.75" /></g></g>
</svg>
