<svg id="vector" xmlns="http://www.w3.org/2000/svg" width="72" height="72" viewBox="0 0 72 72"><path fill="#000" d="m59.211,19.637c-5.44,-0.026 -9.833,-4.451 -9.818,-9.892 0.041,-5.423 4.469,-9.786 9.892,-9.745 5.337,0.04 9.664,4.335 9.744,9.671l0,0.074c0.015,5.44 -4.378,9.866 -9.818,9.892zM35.998,72c-20.186,0 -36,-10.064 -36,-22.909 0,-12.845 15.814,-22.909 36,-22.909 20.186,0 36,10.064 36,22.909 0,12.845 -15.814,22.909 -36,22.909z" fill-opacity="0.5" id="path_0"/><path fill="#000" d="M64.468,23.866C59.115,21.591 53.081,23.405 49.75,27.867c9.661,2.476 17.097,7.511 20.383,13.859 0.326,-0.528 0.636,-1.067 0.88,-1.64 2.671,-6.286 -0.259,-13.548 -6.545,-16.219z" fill-opacity="0.25" id="path_1"/><path fill="#000" d="m35.998,26.182c1.28,0 2.541,0.042 3.783,0.121l2.801,-18.671 6.831,2.323C49.412,9.884 49.393,9.817 49.393,9.745 49.41,7.476 50.227,5.418 51.532,3.765L40.981,0.177C40.794,0.113 40.601,0.066 40.405,0.036 38.619,-0.23 36.955,1.002 36.689,2.788L33.166,26.271C34.103,26.226 35.041,26.182 35.998,26.182Z" fill-opacity="0.25" id="path_2"/><path fill="#000" d="M22.228,27.871C21.94,27.487 21.665,27.093 21.333,26.745 16.623,21.802 8.798,21.612 3.855,26.321 -0.447,30.42 -1.141,36.876 1.855,41.741 5.135,35.389 12.568,30.35 22.228,27.871Z" fill-opacity="0.25" id="path_3"/><path fill="#000" d="M36.136,60.546C31.642,60.94 27.18,59.503 23.761,56.56 22.483,55.281 22.484,53.207 23.764,51.929c1.28,-1.278 3.353,-1.277 4.631,0.003 2.23,1.636 4.992,2.374 7.741,2.068 2.752,0.305 5.518,-0.434 7.75,-2.071 1.277,-1.281 3.35,-1.284 4.631,-0.007 1.281,1.277 1.284,3.35 0.007,4.631 -0.003,0.003 -0.007,0.007 -0.01,0.01C45.092,59.503 40.63,60.938 36.136,60.546ZM30.108,42.553C30.109,40.745 28.644,39.279 26.837,39.279 25.029,39.278 23.563,40.743 23.563,42.551c-0.001,1.807 1.464,3.273 3.272,3.274 0.001,0 0.001,0 0.002,0C28.642,45.822 30.105,44.358 30.108,42.553ZM49.744,42.553c0.001,-1.807 -1.464,-3.273 -3.272,-3.274 -1.807,-0.001 -3.273,1.464 -3.274,3.272 -0.001,1.807 1.464,3.273 3.272,3.274 0.001,0 0.001,0 0.002,0 1.806,-0.003 3.269,-1.466 3.272,-3.272z" id="path_4"/></svg>