<svg id="vector" xmlns="http://www.w3.org/2000/svg" width="72" height="72" viewBox="0 0 72 72"><path fill="#000" d="m54.899,19.801l-0.046,-0.073C29.078,19.635 50.076,19.225 17.368,19.618l-0.267,0.183H1.802l4.124,38.445C6.752,66.066 13.347,72 21.211,72h29.579c7.864,0 14.459,-5.934 15.284,-13.753l4.124,-38.446z" stroke-width="2.64474" fill-rule="evenodd" id="path_0"/><path fill="#000" d="M54.899,19.801L54.632,18.628C54.632,8.356 46.273,0 36,0 25.726,0 17.588,8.906 17.588,19.178L17.101,19.801c30.586,-0.511 7.912,-0.622 37.798,0zM25.201,19.801L27.057,19.873c0,-5.788 3.154,-11.742 8.942,-11.742 5.79,0 10.811,5.798 10.811,11.586l-0.011,0.084z" stroke-width="2.64474" fill-rule="evenodd" fill-opacity="0.75" id="path_1"/></svg>