<svg id="vector" xmlns="http://www.w3.org/2000/svg" width="72" height="72" viewBox="0 0 72 72"><path fill="#000" d="m0,23.094h15v4.597L4.939,27.692v5.939h10.061v4.596L4.939,38.227L4.939,48.905L0,48.905ZM26.168,36.605c1.03,0 1.894,-0.128 2.593,-0.375 0.698,-0.247 1.263,-0.59 1.693,-1.026 0.429,-0.436 0.736,-0.936 0.92,-1.502 0.183,-0.566 0.276,-1.167 0.276,-1.803 0,-1.32 -0.436,-2.369 -1.307,-3.146C29.472,27.974 28.081,27.586 26.168,27.586L23.004,27.586L23.004,48.905h-5.005v-25.811h8.61c1.593,0 3.01,0.219 4.248,0.653 1.239,0.437 2.288,1.05 3.146,1.839 0.859,0.791 1.515,1.732 1.97,2.828 0.452,1.096 0.679,2.316 0.679,3.66 0,1.555 -0.386,3.012 -1.159,4.366 -0.773,1.356 -1.895,2.41 -3.366,3.165 3.565,8.02 9.946,9.299 -0.331,9.299L25.208,36.605Z" stroke-width="1.35847" fill-rule="evenodd" stroke="#00000000" id="path_0"/><path fill="#000" d="m39,23.094h15v4.555H39m0,6.074H54v4.554H39m0,6.074H54V48.905H39" stroke-width="1.35847" fill-rule="evenodd" stroke="#00000000" fill-opacity="0.75" id="path_1"/><path fill="#000" d="M57,23.094H72v4.555H57m0,6.074H72v4.554H57m0,6.074H72V48.905H57" stroke-width="1.35847" fill-rule="evenodd" stroke="#00000000" fill-opacity="0.75" id="path_2"/></svg>