<svg id="vector" xmlns="http://www.w3.org/2000/svg" width="72" height="72" viewBox="0 0 72 72"><path fill="#000" d="m63.582,40.955a55.224,55.224 0,0 0,-17.91 -4.955,55.224 55.224,0 0,0 17.91,-4.955A9.552,9.552 45,0 0,67.045 18.09,9.493 9.493,135 0,0 53.91,14.627a54.985,54.985 135,0 0,-13.134 12.776,53.731 53.731,0 0,0 4.537,-17.91 9.493,9.493 0,0 0,-18.985 0,53.731 53.731,0 0,0 4.537,17.91A54.985,54.985 45,0 0,18.09 14.627,9.493 9.493,45 0,0 4.955,18.09a9.552,9.552 0,0 0,3.463 12.955,55.224 55.224,0 0,0 17.91,4.955 55.224,55.224 0,0 0,-17.91 4.955A9.552,9.552 0,0 0,4.955 53.91,9.493 9.493,0 0,0 18.09,57.373a54.985,54.985 0,0 0,13.134 -12.776,53.731 53.731,72.238 0,0 -4.537,17.91 9.493,9.493 0,0 0,18.985 0,53.731 53.731,62.503 0,0 -4.537,-17.91A54.985,54.985 135,0 0,53.91 57.373,9.493 9.493,135 0,0 67.045,53.91 9.552,9.552 45,0 0,63.582 40.955ZM36,42.328A6.328,6.328 0,1 1,42.328 36,6.388 6.388,0 0,1 36,42.328Z" fill-rule="evenodd" id="path_0"/></svg>