<svg id="vector" xmlns="http://www.w3.org/2000/svg" width="72" height="72" viewBox="0 0 72 72"><path fill="#000" d="m9,9l0,54c0,4.964 4.036,9 9,9l36,0c4.964,0 9,-4.036 9,-9L63,18L45,0L18,0C13.036,0 9,4.036 9,9ZM40.5,36l-9,0l0,-9l9,0zM54,36l-9,0l0,-9l4.5,0c2.489,0 4.5,2.011 4.5,4.5zM45,54l9,0l0,4.5c0,2.489 -2.011,4.5 -4.5,4.5l-4.5,0zM31.5,54l9,0l0,9l-9,0zM18,54l9,0l0,9L22.5,63C20.011,63 18,60.989 18,58.5ZM18,40.5l36,0l0,9L18,49.5ZM18,31.5c0,-2.489 2.011,-4.5 4.5,-4.5l4.5,0l0,9L18,36Z" id="path_0"/><path fill="#000" d="m17.036,25.48l38.043,0.624 -0.92,36.968 -36.202,-0.156z" stroke-linejoin="round" stroke-width="0" fill-opacity="0.5" stroke-linecap="round" id="path_1"/></svg>