<svg id="vector" xmlns="http://www.w3.org/2000/svg" width="72" height="72" viewBox="0 0 72 72"><path fill="#000" d="m56.306,18.245l7.066,-7.219 -1.512,-1.543c-12.377,-12.644 -32.499,-12.644 -44.874,0 -11.839,12.099 -12.329,31.514 -1.463,44.259l-7.112,7.169 1.509,1.543c12.377,12.644 32.499,12.644 44.874,0 11.89,-12.099 12.377,-31.514 1.512,-44.209zM20.008,12.621c10.133,-10.405 26.405,-10.903 37.126,-1.545l-4.041,4.133c-8.576,-7.171 -21.195,-6.671 -29.185,1.493 -7.99,8.164 -8.478,21.109 -1.463,29.821l-3.945,4.033c-9.161,-11.003 -8.674,-27.58 1.509,-37.935zM51.725,59.318c-10.181,10.405 -26.407,10.903 -37.176,1.493l4.047,-4.131c8.574,7.169 21.193,6.669 29.185,-1.495 7.99,-8.164 8.478,-21.107 1.461,-29.821l3.945,-4.031c9.209,11.051 8.722,27.63 -1.461,37.985z" id="path_0"/><path fill="#000" d="m56.481,18.308l7.066,-7.219 -1.512,-1.543c-12.377,-12.644 -32.499,-12.644 -44.874,0 -11.839,12.099 -12.329,31.514 -1.463,44.259l-7.112,7.169 1.509,1.543c12.377,12.644 32.499,12.644 44.874,0 11.89,-12.099 12.377,-31.514 1.512,-44.209zM18.674,50.619c-9.161,-11.003 -8.674,-27.58 1.509,-37.935 10.133,-10.405 26.405,-10.903 37.126,-1.545l-4.041,4.133m0.096,6.124c9.209,11.051 8.722,27.63 -1.461,37.985l-0.002,0c-10.181,10.405 -26.407,10.903 -37.176,1.493l4.047,-4.131" id="path_1"/></svg>