<svg id="vector" xmlns="http://www.w3.org/2000/svg" width="72" height="72" viewBox="0 0 72 72"><path fill="#000" d="m51.981,50.373c-1.49,1.997 -3.519,3.527 -5.849,4.409 -2.883,1.148 -5.97,1.695 -9.072,1.609 -3.603,0.117 -7.182,-0.639 -10.431,-2.202C24.729,53.177 23.1,51.723 21.879,49.95 20.795,48.467 20.176,46.696 20.101,44.862 20.083,43.918 20.488,43.016 21.204,42.4 21.966,41.708 22.97,41.342 23.999,41.383c0.832,-0.035 1.648,0.238 2.293,0.766 0.707,0.66 1.257,1.47 1.609,2.371 0.435,1.129 1.036,2.188 1.782,3.141 0.683,0.896 1.588,1.597 2.626,2.033 1.421,0.599 2.953,0.888 4.495,0.848 2.181,0.119 4.344,-0.443 6.191,-1.609 1.45,-0.847 2.351,-2.392 2.375,-4.071 0.049,-1.18 -0.414,-2.324 -1.272,-3.137C43.165,40.841 42.028,40.199 40.789,39.856 39.435,39.432 37.566,39.008 35.277,38.502 32.649,37.946 30.07,37.181 27.563,36.213 25.637,35.442 23.943,34.185 22.644,32.567 21.416,30.934 20.787,28.928 20.862,26.886 20.86,24.801 21.546,22.774 22.813,21.119 24.25,19.329 26.159,17.977 28.325,17.217c2.749,-0.969 5.652,-1.428 8.566,-1.354 2.295,-0.029 4.581,0.284 6.784,0.93 1.713,0.496 3.322,1.301 4.746,2.375 1.135,0.846 2.087,1.913 2.799,3.137 0.544,0.957 0.836,2.036 0.848,3.137 0.003,0.965 -0.397,1.887 -1.103,2.544 -0.705,0.739 -1.692,1.141 -2.713,1.103C47.433,29.137 46.623,28.896 45.963,28.409 45.282,27.772 44.709,27.028 44.267,26.207 43.593,24.862 42.638,23.676 41.468,22.729 39.9,21.747 38.055,21.301 36.212,21.457 34.308,21.368 32.42,21.84 30.782,22.815 29.586,23.459 28.815,24.682 28.749,26.038c0.005,0.733 0.242,1.445 0.679,2.033 0.525,0.63 1.195,1.124 1.951,1.441 0.773,0.422 1.6,0.736 2.457,0.934 0.848,0.255 2.207,0.593 4.153,1.017 2.375,0.51 4.582,1.103 6.533,1.696 1.767,0.523 3.451,1.294 5.001,2.289 1.321,0.868 2.423,2.029 3.223,3.392 0.817,1.539 1.225,3.263 1.186,5.005 0.101,2.333 -0.586,4.633 -1.951,6.528z" fill-opacity="0.5" id="path_0"/><path fill="#000" d="m69.961,43.759c0.512,-2.397 0.767,-4.843 0.762,-7.294 -0.107,-18.839 -15.466,-34.025 -34.306,-33.918 -0.012,0 -0.024,0 -0.036,0 -1.961,-0.005 -3.919,0.166 -5.849,0.51C21.213,-2.798 8.913,0.009 3.058,9.328 1.107,12.432 0.051,16.013 0.005,19.679c0.002,3.49 0.939,6.915 2.713,9.92 -0.44,2.235 -0.667,4.506 -0.679,6.784 0.157,18.565 15.334,33.489 33.9,33.332 0.148,-0.001 0.295,-0.003 0.442,-0.006 2.106,0.016 4.208,-0.184 6.273,-0.597 2.85,1.728 6.085,2.72 9.414,2.886 10.799,0.204 19.719,-8.384 19.924,-19.184 0.059,-3.137 -0.637,-6.243 -2.03,-9.054zM51.981,50.373c-1.49,1.997 -3.519,3.527 -5.849,4.409 -2.883,1.148 -5.97,1.695 -9.072,1.609C33.456,56.508 29.878,55.753 26.629,54.189 24.729,53.177 23.1,51.723 21.879,49.95 20.795,48.467 20.176,46.697 20.101,44.862 20.083,43.918 20.488,43.016 21.204,42.4 21.966,41.708 22.97,41.342 23.999,41.383c0.832,-0.034 1.648,0.238 2.293,0.766 0.707,0.66 1.257,1.47 1.609,2.371 0.435,1.129 1.036,2.188 1.782,3.141 0.683,0.896 1.588,1.597 2.626,2.033 1.421,0.599 2.954,0.888 4.495,0.848 2.181,0.119 4.344,-0.443 6.191,-1.609 1.45,-0.847 2.351,-2.392 2.375,-4.071 0.049,-1.18 -0.414,-2.324 -1.272,-3.137 -0.934,-0.884 -2.07,-1.526 -3.31,-1.869C39.435,39.432 37.566,39.008 35.277,38.502 32.649,37.946 30.07,37.181 27.564,36.213 25.637,35.442 23.943,34.185 22.645,32.567 21.416,30.933 20.787,28.928 20.862,26.886 20.86,24.801 21.546,22.774 22.813,21.119 24.25,19.329 26.159,17.977 28.325,17.217 31.074,16.248 33.977,15.789 36.891,15.863c2.295,-0.029 4.581,0.284 6.784,0.93 1.713,0.496 3.322,1.301 4.746,2.375 1.135,0.846 2.087,1.913 2.799,3.137 0.544,0.957 0.836,2.036 0.848,3.137 0.003,0.964 -0.397,1.886 -1.103,2.544 -0.705,0.739 -1.692,1.14 -2.713,1.103C47.433,29.137 46.623,28.896 45.963,28.409 45.282,27.772 44.709,27.028 44.267,26.207 43.593,24.862 42.638,23.676 41.468,22.729 39.9,21.747 38.055,21.301 36.212,21.457 34.308,21.368 32.42,21.84 30.782,22.815 29.586,23.459 28.814,24.682 28.749,26.038c0.005,0.733 0.242,1.445 0.679,2.033 0.525,0.63 1.195,1.124 1.951,1.441 0.773,0.422 1.599,0.736 2.457,0.934 0.848,0.255 2.207,0.593 4.153,1.017 2.375,0.51 4.582,1.103 6.533,1.696 1.767,0.523 3.451,1.294 5.001,2.289 1.321,0.868 2.423,2.029 3.223,3.392 0.817,1.539 1.225,3.263 1.186,5.005 0.101,2.333 -0.586,4.633 -1.951,6.528z" id="path_1"/></svg>