<svg id="vector" xmlns="http://www.w3.org/2000/svg" width="72" height="72" viewBox="0 0 72 72"><path fill="#000" d="m26.424,0a7.2,7.2 0,0 0,0 14.4l7.2,0L33.624,7.2a7.2,7.2 0,0 0,-7.2 -7.2m0,19.188L7.2,19.188a7.2,7.2 0,1 0,0 14.4l19.224,0a7.2,7.2 0,0 0,0 -14.4" fill-opacity="0.25" id="path_0"/><path fill="#000" d="m72,26.388a7.2,7.2 0,1 0,-14.4 0l0,7.2l7.2,0a7.2,7.2 0,0 0,7.2 -7.2m-19.152,0L52.848,7.2a7.2,7.2 0,1 0,-14.4 0l0,19.188a7.2,7.2 0,1 0,14.4 0" fill-opacity="0.5" id="path_1"/><path fill="#000" d="m45.576,72a7.2,7.2 0,0 0,0 -14.4l-7.2,0l0,7.2a7.2,7.2 0,0 0,7.2 7.2m0,-19.188L64.8,52.812a7.2,7.2 0,0 0,0 -14.4l-19.224,0a7.2,7.2 0,0 0,0 14.4" fill-opacity="0.75" id="path_2"/><path fill="#000" d="m0,45.612a7.2,7.2 0,1 0,14.4 0l0,-7.2L7.2,38.412a7.2,7.2 0,0 0,-7.2 7.2m19.152,0L19.152,64.8a7.2,7.2 0,1 0,14.4 0l0,-19.188a7.2,7.2 0,1 0,-14.4 0" id="path_3"/></svg>