<svg id="vector" xmlns="http://www.w3.org/2000/svg" width="72" height="72" viewBox="0 0 72 72"><path fill="#000" d="M71.277,53.955C60.959,52.255 56.334,41.709 56.143,41.261l-0.019,-0.042a3.854,3.854 0,0 1,-0.368 -3.231c0.693,-1.633 2.986,-2.361 4.505,-2.843 0.379,-0.12 0.738,-0.234 1.019,-0.346 2.746,-1.085 3.304,-2.207 3.291,-2.959a2.384,2.384 0,0 0,-1.805 -1.957l-0.021,-0.008a3.406,3.406 0,0 0,-1.283 -0.246,2.717 2.717,0 0,0 -1.126,0.223 9.144,9.144 0,0 1,-3.439 0.958,2.957 2.957,0 0,1 -1.906,-0.638c0.033,-0.612 0.072,-1.243 0.114,-1.91l0.014,-0.235A36.368,36.368 0,0 0,54.252 13.505,18.894 18.894,0 0,0 36.709,2.203q-0.724,0.008 -1.449,0.014A18.863,18.863 0,0 0,17.748 13.511,36.324 36.324,0 0,0 16.88,28.023q0.07,1.075 0.13,2.152a3.054,3.054 0,0 1,-2.102 0.642,8.832 8.832,0 0,1 -3.65,-0.964 2.071,2.071 0,0 0,-0.883 -0.176,3.002 3.002,0 0,0 -2.918,1.918c-0.295,1.55 1.918,2.673 3.264,3.205 0.284,0.113 0.642,0.226 1.019,0.346 1.518,0.482 3.813,1.21 4.505,2.843a3.858,3.858 0,0 1,-0.368 3.232l-0.019,0.042a25.302,25.302 0,0 1,-3.849 5.984,18.774 18.774,0 0,1 -11.285,6.71 0.863,0.863 0,0 0,-0.722 0.9,1.37 1.37,0 0,0 0.112,0.467c0.633,1.48 3.81,2.702 9.187,3.532 0.503,0.078 0.715,0.897 1.009,2.24 0.117,0.537 0.239,1.095 0.408,1.671a1.053,1.053 0,0 0,1.149 0.824,8.947 8.947,0 0,0 1.53,-0.219 19.905,19.905 0,0 1,4.033 -0.456,17.833 17.833,0 0,1 2.908,0.246 13.958,13.958 0,0 1,5.526 2.823,15.995 15.995,0 0,0 9.683,3.816c0.122,0 0.243,-0.004 0.36,-0.014 0.148,0.007 0.343,0.014 0.547,0.014a16.013,16.013 0,0 0,9.688 -3.819,13.942 13.942,0 0,1 5.521,-2.82 17.902,17.902 0,0 1,2.909 -0.246,20.133 20.133,0 0,1 4.033,0.427 8.609,8.609 0,0 0,1.53 0.193h0.084a1.004,1.004 0,0 0,1.064 -0.796c0.167,-0.568 0.29,-1.109 0.41,-1.661 0.291,-1.336 0.504,-2.151 1.008,-2.229 5.378,-0.831 8.555,-2.051 9.184,-3.523A1.386,1.386 0,0 0,71.999 54.855,0.864 0.864,0 0,0 71.277,53.955Z" stroke-width="3.60002" id="path_0"/></svg>