<svg id="vector" xmlns="http://www.w3.org/2000/svg" width="72" height="72" viewBox="0 0 9.4438 9.4377"><path fill="#000" stroke-width="1" d="m4.4815,5.0799l-0.1048,0.5235c-0.0461,0.2122 -0.174,0.3539 -0.4351,0.3539 -0.2998,0 -0.3789,-0.1859 -0.3131,-0.4475 0.0931,-0.3711 0.3958,-0.4816 0.8531,-0.4299M4.9536,4.3315L4.6349,4.3518 4.5341,4.8644c-0.1218,-0.0043 -0.1602,-0.0082 -0.3034,-0.0082 -0.4485,0 -0.8399,0.1885 -0.9433,0.6307 -0.0932,0.3987 0.1333,0.7081 0.6272,0.7081 0.5059,0 0.7261,-0.2639 0.8052,-0.6351z" fill-rule="nonzero" stroke="#00000000" id="path_0"/><path fill="#000" stroke-width="1" d="M1.4963,5.1023C1.029,5.0597 0.627,5.0985 0.6204,5.2572 0.6103,5.4954 1.3906,5.2875 1.3756,5.7258 1.3536,6.3697 0.2686,6.2216 0.0001,6.1396l0.0487,-0.1911c0.4629,0.0735 0.9513,0.0796 0.962,-0.1758 0.0115,-0.2714 -0.7721,-0.0274 -0.7537,-0.4669 0.0137,-0.3274 0.5034,-0.5039 1.305,-0.3861z" fill-rule="nonzero" stroke="#00000000" id="path_1"/><path fill="#000" stroke-width="1" d="m2.7563,5.5403c-0.0675,0.2688 -0.2806,0.4376 -0.5344,0.4376 -0.2654,0 -0.3848,-0.1538 -0.3137,-0.4376 0.0676,-0.2688 0.2832,-0.4492 0.5369,-0.4492 0.2535,0 0.3786,0.1804 0.3112,0.4492m-0.2703,-0.6692c-0.4647,0 -0.8383,0.2689 -0.9301,0.6692 -0.0921,0.4007 0.1581,0.6694 0.6227,0.6694 0.4645,0 0.8382,-0.2688 0.9301,-0.6694 0.0921,-0.4004 -0.158,-0.6692 -0.6227,-0.6692" fill-rule="nonzero" stroke="#00000000" id="path_2"/><path fill="#000" stroke-width="1" d="m7.8554,6.2029l-0.404,0c-0.2449,-0.2303 -0.7136,-0.7596 -1.0586,-1.3196L6.6893,4.8833c0.3276,0.4521 1.1661,1.3196 1.1661,1.3196" fill-rule="nonzero" stroke="#00000000" id="path_3"/><path fill="#000" stroke-width="1" d="M8.2787,3.5819L8.4646,3.1944l0.053,0.3939 0.379,-0.1326 -0.2648,0.3396 0.2872,0.2225 -0.3834,0.0297 -0.0211,0.4096 -0.2131,-0.3027 -0.3133,0.2888 0.1175,-0.407 -0.3695,-0.0501 0.3596,-0.2049 -0.1476,-0.3506z" fill-rule="nonzero" stroke="#00000000" fill-opacity="0.75" id="path_4"/><path fill="#000" stroke-width="1" d="m9.0665,5.5443c-0.0685,0.273 -0.285,0.4445 -0.5427,0.4445 -0.2695,0 -0.391,-0.1562 -0.3186,-0.4445 0.0685,-0.273 0.2875,-0.4563 0.5452,-0.4563 0.2578,0 0.3848,0.1833 0.3162,0.4563m-0.2746,-0.68c-0.4719,0 -0.8513,0.2732 -0.9448,0.68 -0.0934,0.4069 0.1607,0.68 0.6326,0.68 0.472,0 0.8515,-0.2731 0.9448,-0.68 0.0935,-0.4068 -0.1606,-0.68 -0.6326,-0.68" fill-rule="nonzero" stroke="#00000000" id="path_5"/><path fill="#000" stroke-width="1" d="m6.0867,6.0904c0.763,-0.4238 1.4257,-1.075 1.8958,-1.638 -0.3379,1.0577 -1.1514,1.627 -1.8958,1.638" fill-rule="nonzero" stroke="#00000000" fill-opacity="0.5" id="path_6"/><path fill="#000" stroke-width="1" d="m5.7847,5.0673c0.1461,0 0.2257,0.053 0.2257,0.1544 0,0.269 -0.5244,0.2512 -0.7556,0.2041 0.0813,-0.2013 0.265,-0.3585 0.5299,-0.3585m0.54,0.1397c0,-0.195 -0.1554,-0.3384 -0.5082,-0.3384 -0.572,0 -0.9438,0.3714 -0.9438,0.8311 0,0.2969 0.2465,0.5436 0.6967,0.5436 0.3102,0 0.5173,-0.1528 0.5173,-0.1528 -0.3947,0.0423 -0.8795,0 -0.8795,-0.4223 0,-0.0168 0.0009,-0.0335 0.0022,-0.0503 0.5386,0.1118 1.1152,-0.0235 1.1152,-0.4109" fill-rule="nonzero" stroke="#00000000" id="path_7"/></svg>