<?xml version="1.0" encoding="UTF-8" standalone="no"?>
<svg
   height="72"
   width="72"
   viewBox="-33.4974 -55.829 17.418648 30.14766"
   version="1.1"
   id="svg4"
   sodipodi:docname="spotify.svg"
   inkscape:version="1.2.1 (9c6d41e410, 2022-07-14)"
   xmlns:inkscape="http://www.inkscape.org/namespaces/inkscape"
   xmlns:sodipodi="http://sodipodi.sourceforge.net/DTD/sodipodi-0.dtd"
   xmlns="http://www.w3.org/2000/svg"
   xmlns:svg="http://www.w3.org/2000/svg">
  <defs
     id="defs8" />
  <sodipodi:namedview
     id="namedview6"
     pagecolor="#ffffff"
     bordercolor="#000000"
     borderopacity="0.25"
     inkscape:showpageshadow="2"
     inkscape:pageopacity="0.0"
     inkscape:pagecheckerboard="0"
     inkscape:deskcolor="#d1d1d1"
     showgrid="false"
     inkscape:zoom="5.7039947"
     inkscape:cx="62.324742"
     inkscape:cy="46.984616"
     inkscape:window-width="1920"
     inkscape:window-height="1009"
     inkscape:window-x="-8"
     inkscape:window-y="-8"
     inkscape:window-maximized="1"
     inkscape:current-layer="svg4" />
  <path
     d="m -12.705601,-43.171324 c -6.825728,-4.053677 -18.084615,-4.426331 -24.600652,-2.448706 -1.046654,0.317467 -2.153047,-0.273089 -2.469945,-1.319554 -0.317088,-1.047034 0.2729,-2.152858 1.319934,-2.470894 7.480195,-2.270439 19.914316,-1.831978 27.772286,2.832548 0.9414024,0.558886 1.2497664,1.774325 0.6920184,2.71383 -0.5583174,0.941212 -1.7748954,1.251662 -2.7138304,0.692776 m -0.223403,6.003804 c -0.478856,0.777168 -1.494977,1.020863 -2.271007,0.543714 -5.69032,-3.497825 -14.367939,-4.511292 -21.100361,-2.46767 -0.87294,0.263608 -1.795187,-0.228333 -2.060311,-1.099945 -0.263156,-0.872389 0.229237,-1.79322 1.100893,-2.058794 7.690702,-2.33397 17.251691,-1.203681 23.787641,2.813015 0.77603,0.477907 1.020294,1.494408 0.543145,2.26968 m -2.591129,5.765988 c -0.37932,0.623111 -1.192447,0.819914 -1.81472,0.439219 -4.972511,-3.039072 -11.231388,-3.7254 -18.602348,-2.041725 -0.710308,0.162433 -1.417764,-0.281859 -1.579938,-0.992227 -0.163343,-0.710653 0.281367,-1.418893 0.992416,-1.580507 8.066201,-1.843736 14.985235,-1.050258 20.566698,2.360331 0.622271,0.38011 0.818435,1.192786 0.438081,1.814909"
     fill="#191414"
     id="path2"
     style="fill:#000000;fill-opacity:1;stroke-width:1"
     sodipodi:nodetypes="ccccccccccccccccccccc" />
</svg>
