<?xml version="1.0" encoding="UTF-8" standalone="no"?>
<!-- Generator: Adobe Illustrator 19.2.1, SVG Export Plug-In . SVG Version: 6.00 Build 0)  -->

<svg
   version="1.1"
   id="layer"
   x="0px"
   y="0px"
   viewBox="0 0 72 72"
   xml:space="preserve"
   sodipodi:docname="sun-direct-vector-logo.svg"
   inkscape:version="1.2.1 (9c6d41e410, 2022-07-14)"
   width="72"
   height="72"
   xmlns:inkscape="http://www.inkscape.org/namespaces/inkscape"
   xmlns:sodipodi="http://sodipodi.sourceforge.net/DTD/sodipodi-0.dtd"
   xmlns="http://www.w3.org/2000/svg"
   xmlns:svg="http://www.w3.org/2000/svg"><g
   id="g1226"
   transform="matrix(0.12716355,0,0,0.12716355,-5.4553173,-3.4221046)"
   style="stroke-width:7.86389"><g
     id="g1719"
     transform="translate(6,-20)"
     style="fill:#000000;fill-opacity:0.75;stroke-width:7.86389"><path
       class="st7"
       d="m 351.4,394.9 h -16 c -10.1,1.2 -16.4,6.9 -20.2,14.7 -6.7,11.4 -5,23.2 5.6,23 l 16,0.2 2.5,-7.1 -14,0.2 c -5.6,0 -7.4,-3.5 -4.8,-9.3 l 22.1,0.2 2.9,-6.6 H 323 c 1.5,-4.2 2.9,-7.2 11.3,-8.9 l 14.6,0.4 z"
       id="path128"
       style="display:inline;fill:#000000;fill-opacity:0.75;stroke-width:7.86389" /><path
       class="st7"
       d="m 442.4,395 h -16 c -10.1,1.2 -16.4,6.9 -20.2,14.7 -6.7,11.4 -5,23.2 5.6,23 l 16,0.2 2.5,-7.1 -14,0.2 c -5.6,0 -7.4,-3.5 -4.8,-9.3 l 2.5,-6.4 c 1.5,-4.2 2.9,-7.2 11.3,-8.9 l 14.6,0.4 z"
       id="path130"
       style="fill:#000000;fill-opacity:0.75;stroke-width:7.86389" /><path
       class="st7"
       d="m 493.1,394.9 c -1.7,5 -2.7,6.8 -2.7,6.8 l 12.1,0.2 -11.9,30.5 8.5,0.2 11.5,-30.9 12.9,-0.4 2.5,-6.6 z"
       id="path132"
       style="fill:#000000;fill-opacity:0.75;stroke-width:7.86389" /><path
       class="st7"
       d="m 255.4,394.7 -24,-0.4 -14.6,38.4 h 8.5 l 5.4,-15.1 9.8,0.4 2.3,14.9 h 8.8 l -3.1,-16 c 7,-2.6 9.9,-5.7 11.7,-11.6 1.7,-5.8 0.5,-9.6 -4.8,-10.6 m -2.7,11 c -1,3.1 -2.8,4.4 -5.4,5 l -13.8,0.2 3.5,-9.5 12.1,0.2 c 2.9,0.5 4.3,1.7 3.6,4.1"
       id="path134"
       style="fill:#000000;fill-opacity:0.75;stroke-width:7.86389" /><path
       class="st7"
       d="m 86.4,395.1 h -20 l -15,37.8 H 76 c 9.1,-1.5 15.1,-8.3 18.3,-17.4 3.6,-12.6 1.8,-20.2 -7.9,-20.4 m 0,19 c -1.9,5.9 -4.7,10.8 -10.7,11.2 l -12.6,0.4 8.7,-24.3 h 11.6 c 5.7,2.7 5.1,4.7 3,12.7"
       id="path136"
       style="fill:#000000;fill-opacity:0.75;stroke-width:7.86389" /><polygon
       class="st7"
       points="169.1,394.9 154.7,432.7 146.1,433 160.9,394.9 "
       id="polygon126"
       style="fill:#000000;fill-opacity:0.75;stroke-width:7.86389" /></g><g
     id="g647"
     transform="translate(105.78287)"
     style="fill:#000000;fill-opacity:1;stroke-width:7.86389"><g
       clip-path="url(#_clippath_0)"
       id="g4"
       transform="translate(-116.98287,6.8220831)"
       style="fill:#000000;fill-opacity:1;stroke-width:7.86389"><path
         d="M 227.3,201.2 240.8,381.3 454.9,365.4 441.4,185.3 Z"
         fill="url(#_linear_gradient_0)"
         stroke="#000000"
         id="path2"
         style="fill:#000000;fill-opacity:1;stroke-width:61.8407" /></g><g
       clip-path="url(#_clippath_1)"
       id="g8"
       transform="translate(-116.98287,6.8220831)"
       style="fill:#000000;fill-opacity:1;stroke-width:7.86389"><path
         d="m 620.3,198.8 1,161.7 -218.8,1.5 -1.1,-161.8 z"
         fill="url(#_linear_gradient_1)"
         stroke="#000000"
         id="path6"
         style="fill:#000000;fill-opacity:1;stroke-width:61.8407" /></g><g
       clip-path="url(#_clippath_2)"
       id="g12"
       transform="translate(-116.98287,6.8220831)"
       style="fill:#000000;fill-opacity:1;stroke-width:7.86389"><path
         d="m 54.2,194.9 -4.4,165.1 215.6,5.7 4.4,-165.1 z"
         fill="url(#_linear_gradient_2)"
         stroke="#000000"
         id="path10"
         style="fill:#000000;fill-opacity:1;stroke-width:61.8407" /></g></g></g><defs
   id="defs143">
	
	
	
	
	
<clipPath
   id="_clippath_2"><path
     d="m 157.1,201.1 c -51.2,3.2 -65.7,31 -72.3,52.8 -6,26.4 -0.6,45 36.2,50.4 l 55.9,0.5 c -0.5,3.6 -8.8,5.8 -12,5.8 L 71,309.8 54.1,359 l 101.8,1.2 c 33.4,-2.8 58.9,-6.8 76.5,-44.4 13.2,-32.2 8.4,-55.4 -36.2,-58.8 h -52 c 0.4,-2.3 5.7,-8 10.4,-7.8 l 94,0.6 16.9,-49.2 h -0.1 z"
     id="path32" /></clipPath><linearGradient
   gradientUnits="userSpaceOnUse"
   id="_linear_gradient_2"
   x1="159.5"
   x2="160.83"
   y1="292"
   y2="242.28999"
   gradientTransform="translate(11.2,-6.8220831)"><stop
     offset="0"
     stop-color="#EE322E"
     stop-opacity="1.0"
     id="stop53" /><stop
     offset="0.33"
     stop-color="#F1512C"
     stop-opacity="1.0"
     id="stop55" /><stop
     offset="0.77"
     stop-color="#F4752B"
     stop-opacity="1.0"
     id="stop57" /><stop
     offset="1"
     stop-color="#F5832A"
     stop-opacity="1.0"
     id="stop59" /></linearGradient><clipPath
   id="_clippath_0"><path
     d="m 249.5,298.3 c -9.8,46.7 7.7,68 69.8,62.8 34.7,-0.1 73,-16.1 84.6,-51.4 l 38.7,-108.5 -57.3,-0.5 -37.7,104.7 c -1.8,4.1 -7.6,8.9 -11.9,9 l -22.9,0.5 c -5.8,-1.2 -7.4,-4.6 -6.2,-8.6 L 343.8,200.7 287,200.2 Z"
     id="path26" /></clipPath><linearGradient
   gradientUnits="userSpaceOnUse"
   id="_linear_gradient_0"
   x1="342.67001"
   x2="338.17001"
   y1="304.59"
   y2="244.7"
   gradientTransform="translate(11.2,-6.8220831)"><stop
     offset="0"
     stop-color="#EE322E"
     stop-opacity="1.0"
     id="stop35" /><stop
     offset="0.33"
     stop-color="#F1512C"
     stop-opacity="1.0"
     id="stop37" /><stop
     offset="0.77"
     stop-color="#F4752B"
     stop-opacity="1.0"
     id="stop39" /><stop
     offset="1"
     stop-color="#F5832A"
     stop-opacity="1.0"
     id="stop41" /></linearGradient><clipPath
   id="_clippath_1"><path
     d="m 462.4,360.4 h -59.9 v 0 l 57.5,-158.1 60.6,-0.7 16.5,60.7 25.5,-62.1 57.7,1.2 -57.6,159 -55.4,0.1 -22,-63.8 z"
     id="path29" /></clipPath><linearGradient
   gradientUnits="userSpaceOnUse"
   id="_linear_gradient_1"
   x1="511.54001"
   x2="511.14001"
   y1="301.48001"
   y2="241.84"
   gradientTransform="translate(11.2,-6.8220831)"><stop
     offset="0"
     stop-color="#EE322E"
     stop-opacity="1.0"
     id="stop44" /><stop
     offset="0.33"
     stop-color="#F1512C"
     stop-opacity="1.0"
     id="stop46" /><stop
     offset="0.77"
     stop-color="#F4752B"
     stop-opacity="1.0"
     id="stop48" /><stop
     offset="1"
     stop-color="#F5832A"
     stop-opacity="1.0"
     id="stop50" /></linearGradient></defs><sodipodi:namedview
   id="namedview141"
   pagecolor="#ffffff"
   bordercolor="#000000"
   borderopacity="0.25"
   inkscape:showpageshadow="2"
   inkscape:pageopacity="0.0"
   inkscape:pagecheckerboard="0"
   inkscape:deskcolor="#d1d1d1"
   showgrid="false"
   inkscape:zoom="0.6357362"
   inkscape:cx="-44.829915"
   inkscape:cy="468.74789"
   inkscape:window-width="1920"
   inkscape:window-height="1009"
   inkscape:window-x="-8"
   inkscape:window-y="-8"
   inkscape:window-maximized="1"
   inkscape:current-layer="layer" />
<style
   type="text/css"
   id="style2">
	.st0{fill:#4A5159;}
	.st1{clip-path:url(#SVGID_2_);fill:url(#SVGID_3_);}
	.st2{fill:url(#SVGID_4_);}
	.st3{clip-path:url(#SVGID_6_);fill:url(#SVGID_7_);}
	.st4{fill:url(#SVGID_8_);}
	.st5{clip-path:url(#SVGID_10_);fill:url(#SVGID_11_);}
	.st6{fill:url(#SVGID_12_);}
	.st7{fill:#FFFFFF;}
</style>









</svg>
