<svg id="vector" xmlns="http://www.w3.org/2000/svg" width="72" height="72" viewBox="0 0 72 72"><path fill="#000" d="m28.956,45.693c-2.354,0 -4.708,-0.044 -7.06,0.013A4.832,4.832 0,0 1,17.108 43.015,40.281 40.281,0 0,1 11.615,23.149 22.582,22.582 0,0 1,18.265 7.723,24.186 24.186,0 0,1 27.962,1.417 23.791,23.791 0,0 1,41.098 0.542,24.594 24.594,0 0,1 60.335,21.103 1.826,1.826 0,0 1,59.095 23.272,17.823 17.823,0 0,1 53.432,24.618 53.398,53.398 0,0 1,42.098 24.783c-1.512,-0.188 -1.786,-0.488 -1.798,-2.049 -0.016,-2.133 -0.005,-4.266 -0.008,-6.399 -0,-0.331 -0.006,-0.662 -0.013,-0.993a1.069,1.069 0,0 0,-1.13 -1.206c-0.844,-0.029 -1.219,0.449 -1.222,1.226 -0.013,3.641 -0.008,7.281 -0.007,10.922 0.001,1.034 0.656,1.287 1.537,1.287 3.273,-0.003 6.546,-0.015 9.819,0.009a25.003,25.003 0,0 1,6.014 0.582,4.332 4.332,0 0,1 3.642,5.886 51.019,51.019 0,0 1,-5.381 13.939,123.232 123.232,0 0,1 -12.876,18.937c-1.242,1.546 -2.561,3.03 -3.816,4.565 -0.569,0.695 -0.998,0.68 -1.552,-0.038A157.932,157.932 0,0 1,22.973 53.609c-0.455,-0.794 -0.814,-1.644 -1.2,-2.477 -0.37,-0.8 -0.067,-1.323 0.696,-1.682a9.347,9.347 0,0 1,2.882 -0.701,27.737 27.737,0 0,1 8.454,0.072c1.619,0.296 1.886,0.677 1.884,2.301 -0.001,1.25 -0.021,2.501 -0.002,3.751 0.012,0.794 0.237,1.554 1.187,1.546 0.946,-0.007 1.17,-0.77 1.174,-1.563 0.015,-2.611 -0.004,-5.222 0.012,-7.833 0.007,-1.124 -0.703,-1.338 -1.601,-1.34q-3.751,-0.008 -7.502,-0.002z" stroke-width="3.60034" id="path_0"/></svg>