<svg id="vector" xmlns="http://www.w3.org/2000/svg" width="72" height="72" viewBox="0 0 72 72"><path fill="#000" d="M54.618,68.885A6.608,6.608 45,0 1,50.556 67.488L37.365,57.27 28.521,67.031A3.273,3.273 45,0 1,22.962 65.778l-6.613,-21.869 -11.865,-4.126A6.683,6.683 135,0 1,4.146 27.288L62.798,3.607A6.685,6.685 45,0 1,71.869 11.118l-10.679,52.422a6.723,6.723 45,0 1,-6.572 5.344z" fill-opacity="0.5" id="path_0"/><path fill="#000" d="m26.095,68.105a3.272,3.272 45,0 1,-3.132 -2.324l-7.096,-23.432A3.269,3.269 0,0 1,17.487 38.498L52.074,20.49a3.272,3.272 0,0 1,3.826 5.216l-23.183,23.183 -3.417,16.601a3.271,3.271 135,0 1,-3.056 2.611c-0.051,0.003 -0.102,0.003 -0.15,0.003z" id="path_1"/></svg>