<svg id="vector" xmlns="http://www.w3.org/2000/svg" width="72" height="72" viewBox="0 0 24 24"><path fill="#000" d="m22.142,6.966c0.012,0.222 0.012,0.444 0.012,0.654A14.258,14.258 0,0 1,21.562 11.654,14.07 14.07,0 0,1 7.759,22.028 14.277,14.277 0,0 1,-0 19.746,9.779 9.779,0 0,0 1.209,19.82 10.137,10.137 0,0 0,7.488 17.649,5.067 5.067,0 0,1 2.763,14.145a6.046,6.046 0,0 0,0.95 0.086,4.846 4.846,0 0,0 1.345,-0.185 5.038,5.038 0,0 1,-4.046 -4.576,1.991 1.991,0 0,1 -0.025,-0.382V9.026A4.999,4.999 0,0 0,3.281 9.655,5.041 5.041,0 0,1 1.036,5.449 5.125,5.125 0,0 1,1.715 2.895,14.357 14.357,0 0,0 12.15,8.187 5.061,5.061 0,0 1,20.773 3.574,10.128 10.128,0 0,0 23.993,2.34 5.972,5.972 0,0 1,22.142 6.966Z" stroke-width="1.19963" id="path_0"/></svg>