<?xml version="1.0" encoding="UTF-8" standalone="no"?>
<!-- Generator: Adobe Illustrator 16.0.3, SVG Export Plug-In . SVG Version: 6.00 Build 0)  -->

<svg
   version="1.1"
   id="1234"
   x="0px"
   y="0px"
   width="72"
   height="72"
   viewBox="0 0 72 71.999998"
   enable-background="new 0 0 926.906 321.777"
   xml:space="preserve"
   inkscape:version="1.2.1 (9c6d41e410, 2022-07-14)"
   xmlns:inkscape="http://www.inkscape.org/namespaces/inkscape"
   xmlns:sodipodi="http://sodipodi.sourceforge.net/DTD/sodipodi-0.dtd"
   xmlns="http://www.w3.org/2000/svg"
   xmlns:svg="http://www.w3.org/2000/svg">
<g
   id="g10"
   style="fill:#000000;fill-opacity:1"
   transform="matrix(0.07767786,0,0,0.07767786,1.58835e-6,23.502526)">
	<path
   fill="#010202"
   d="m 53.328,229.809 c 3.917,10.395 9.34,19.283 16.27,26.664 6.93,7.382 15.14,13.031 24.63,16.948 9.491,3.917 19.81,5.875 30.958,5.875 10.847,0 21.015,-2.034 30.506,-6.102 9.491,-4.068 17.776,-9.792 24.856,-17.173 7.08,-7.382 12.579,-16.194 16.496,-26.438 3.917,-10.244 5.875,-21.692 5.875,-34.347 V 0 h 47.453 v 316.354 h -47.001 v -29.376 c -10.545,11.147 -22.974,19.734 -37.285,25.761 -14.312,6.025 -29.752,9.038 -46.323,9.038 -16.873,0 -32.615,-2.938 -47.228,-8.813 C 57.923,307.089 45.268,298.729 34.573,287.882 23.878,277.035 15.441,264.006 9.265,248.79 3.088,233.575 0,216.628 0,197.947 V 0 h 47.453 v 195.236 c 0,12.655 1.958,24.178 5.875,34.573 z"
   id="path2"
   style="fill:#000000;fill-opacity:1" />
	<path
   fill="#010202"
   d="m 332.168,0 v 115.243 c 10.545,-10.545 22.748,-18.905 36.607,-25.082 13.859,-6.177 28.924,-9.265 45.193,-9.265 16.873,0 32.689,3.163 47.453,9.49 14.763,6.327 27.567,14.914 38.414,25.761 10.847,10.847 19.434,23.651 25.761,38.414 6.327,14.764 9.49,30.431 9.49,47.002 0,16.57 -3.163,32.162 -9.49,46.774 -6.327,14.613 -14.914,27.343 -25.761,38.188 -10.847,10.847 -23.651,19.434 -38.414,25.761 -14.764,6.327 -30.581,9.49 -47.453,9.49 -16.27,0 -31.409,-3.088 -45.419,-9.265 -14.01,-6.176 -26.288,-14.537 -36.833,-25.082 v 28.924 H 286.523 V 0 Z m 5.197,232.746 c 4.067,9.642 9.717,18.078 16.948,25.309 7.231,7.231 15.667,12.956 25.308,17.174 9.642,4.218 20.036,6.327 31.184,6.327 10.847,0 21.09,-2.109 30.731,-6.327 9.641,-4.218 18.001,-9.942 25.083,-17.174 7.08,-7.23 12.729,-15.667 16.947,-25.309 4.218,-9.641 6.327,-20.035 6.327,-31.183 0,-11.148 -2.109,-21.618 -6.327,-31.41 -4.218,-9.792 -9.867,-18.303 -16.947,-25.534 -7.081,-7.23 -15.441,-12.88 -25.083,-16.947 -9.642,-4.067 -19.885,-6.102 -30.731,-6.102 -10.846,0 -21.09,2.034 -30.731,6.102 -9.641,4.068 -18.077,9.717 -25.309,16.947 -7.23,7.231 -12.955,15.742 -17.173,25.534 -4.218,9.792 -6.327,20.262 -6.327,31.41 -10e-4,11.148 2.033,21.542 6.1,31.183 z"
   id="path4"
   style="fill:#000000;fill-opacity:1" />
	<path
   fill="#010202"
   d="m 560.842,155.014 c 6.025,-14.462 14.312,-27.191 24.856,-38.188 10.544,-10.997 23.049,-19.659 37.511,-25.986 14.462,-6.327 30.129,-9.49 47.001,-9.49 16.571,0 31.937,3.013 46.098,9.038 14.16,6.026 26.362,14.387 36.606,25.083 10.244,10.695 18.229,23.35 23.952,37.962 5.725,14.613 8.587,30.506 8.587,47.68 v 14.914 H 597.901 c 1.507,9.34 4.52,18.002 9.039,25.985 4.52,7.984 10.168,14.914 16.947,20.789 6.779,5.876 14.462,10.471 23.049,13.784 8.587,3.314 17.7,4.972 27.342,4.972 27.418,0 49.563,-11.299 66.435,-33.896 l 32.991,24.404 c -11.449,15.366 -25.609,27.418 -42.481,36.155 -16.873,8.737 -35.854,13.106 -56.944,13.106 -17.174,0 -33.217,-3.014 -48.131,-9.039 -14.914,-6.025 -27.869,-14.462 -38.866,-25.309 -10.997,-10.847 -19.659,-23.576 -25.986,-38.188 -6.327,-14.612 -9.491,-30.506 -9.491,-47.679 -0.002,-16.269 3.012,-31.635 9.037,-46.097 z m 63.497,-17.852 c -12.805,10.696 -21.316,24.932 -25.534,42.708 h 140.552 c -3.917,-17.776 -12.278,-32.012 -25.083,-42.708 -12.805,-10.695 -27.794,-16.043 -44.967,-16.043 -17.174,0 -32.163,5.348 -44.968,16.043 z"
   id="path6"
   style="fill:#000000;fill-opacity:1" />
	<path
   fill="#010202"
   d="m 870.866,142.359 c -9.641,10.545 -14.462,24.856 -14.462,42.934 V 316.355 H 810.758 V 85.868 h 45.193 v 28.472 c 5.725,-9.34 13.182,-16.722 22.371,-22.145 9.189,-5.424 20.111,-8.136 32.766,-8.136 h 15.817 v 42.482 h -18.981 c -15.064,0.001 -27.417,5.273 -37.058,15.818 z"
   id="path8"
   style="fill:#000000;fill-opacity:1" />
</g>
</svg>
