<?xml version="1.0" encoding="UTF-8" standalone="no"?>
<svg
   viewBox="0 0 72 72"
   fill="none"
   version="1.1"
   id="svg6"
   sodipodi:docname="udemy.svg"
   width="72"
   height="72"
   inkscape:version="1.2.1 (9c6d41e410, 2022-07-14)"
   xmlns:inkscape="http://www.inkscape.org/namespaces/inkscape"
   xmlns:sodipodi="http://sodipodi.sourceforge.net/DTD/sodipodi-0.dtd"
   xmlns="http://www.w3.org/2000/svg"
   xmlns:svg="http://www.w3.org/2000/svg">
  <defs
     id="defs10" />
  <sodipodi:namedview
     id="namedview8"
     pagecolor="#ffffff"
     bordercolor="#000000"
     borderopacity="0.25"
     inkscape:showpageshadow="2"
     inkscape:pageopacity="0.0"
     inkscape:pagecheckerboard="0"
     inkscape:deskcolor="#d1d1d1"
     showgrid="false"
     inkscape:zoom="4.7010945"
     inkscape:cx="44.351374"
     inkscape:cy="17.655463"
     inkscape:window-width="1920"
     inkscape:window-height="1009"
     inkscape:window-x="-8"
     inkscape:window-y="-8"
     inkscape:window-maximized="1"
     inkscape:current-layer="g342" />
  <g
     id="g342"
     transform="matrix(2.6430748,0,0,2.6430748,17.431078,-3.1340001e-7)"
     style="stroke-width:0.378347">
    <path
       d="M 14.05,8.112 7.024,4.056 0,8.112 V 4.056 L 7.025,0 14.051,4.056 v 4.056 z"
       fill="#a435f0"
       id="path2"
       style="stroke-width:0.143147;fill:#000000;fill-opacity:0.75" />
    <path
       d="m 0,11.518 h 3.68 v 8.941 c 0,2.31 1.725,3.436 3.345,3.436 1.634,0 3.346,-1.156 3.346,-3.467 v -8.91 h 3.68 v 9.154 c 0,2.128 -0.669,3.77 -2.007,4.896 -1.339,1.125 -3.011,1.673 -5.05,1.673 -2.037,0 -3.71,-0.547 -5.017,-1.673 C 0.669,24.443 0,22.862 0,20.763 Z"
       fill="#000000"
       id="path4"
       sodipodi:nodetypes="ccsssccscscsc"
       style="stroke-width:0.143147" />
  </g>
</svg>
