<svg id="vector" xmlns="http://www.w3.org/2000/svg" width="72" height="72" viewBox="0 0 72 72"><path fill="#000" d="m66.003,66.024c-1.682,0.002 -3.288,-0.704 -4.424,-1.945L51.691,53.298C49.07,50.445 45.72,48.36 42.003,47.269l-0.003,12.756c0.001,3.313 -2.684,5.999 -5.997,6 -0.001,0 -0.002,0 -0.003,0l0,0c-3.313,0.001 -5.999,-2.684 -6,-5.997 0,-0.001 0,-0.002 0,-0.003L30,40.402c-0.001,-3.313 2.684,-5.999 5.997,-6 0.001,0 0.002,0 0.003,0 9.327,0.009 18.224,3.92 24.536,10.787l9.885,10.781c2.24,2.44 2.078,6.235 -0.362,8.475 -1.106,1.016 -2.554,1.579 -4.055,1.579z" stroke-width="6" id="path_0"/><path fill="#000" d="m36,66.024c-1.262,-0.001 -2.492,-0.399 -3.516,-1.137 -17.241,-12.315 -28.893,-30.966 -32.399,-51.861 -0.553,-3.267 1.646,-6.364 4.913,-6.917 3.267,-0.553 6.364,1.646 6.917,4.913 2.256,13.531 8.562,26.061 18.085,35.935l0,-34.933c0,-3.314 2.686,-6 6,-6 3.314,0 6,2.686 6,6l0,48c0.002,3.312 -2.682,5.998 -5.994,6 -0.002,0 -0.004,0 -0.005,0z" stroke-width="6" id="path_1"/><path fill="#000" d="m35.973,53.773c-3.313,0.001 -5.999,-2.684 -6,-5.997 0,-0.001 0,-0.002 0,-0.003L29.974,12.253c0,-3.314 2.686,-6 6,-6 3.314,0 6,2.686 6,6l0,35.52c0.001,3.313 -2.684,5.999 -5.997,6 -0.001,0 -0.002,0 -0.003,0z" stroke-width="6" id="path_2"/><path fill="#000" d="m41.496,46.993c-3.314,0.001 -6.002,-2.686 -6.003,-6 -0,-2.436 1.472,-4.631 3.726,-5.555 10.581,-4.359 18.379,-13.594 20.903,-24.756 0.715,-3.236 3.917,-5.279 7.153,-4.565 3.236,0.715 5.279,3.917 4.565,7.153 -0.005,0.024 -0.011,0.048 -0.016,0.072 -3.394,14.974 -13.86,27.36 -28.057,33.205 -0.721,0.295 -1.492,0.446 -2.27,0.445zM36,18.025l-0.017,0l-3.926,-0.012c-3.313,-0.012 -5.99,-2.705 -5.982,-6.018 0.102,-3.274 2.743,-5.899 6.018,-5.982l3.926,0.012c3.314,0.005 5.996,2.695 5.991,6.009 -0.005,3.314 -2.695,5.996 -6.009,5.991l0,0z" stroke-width="6" id="path_3"/></svg>