<svg id="vector" xmlns="http://www.w3.org/2000/svg" width="72" height="72" viewBox="0 0 72 72"><path fill="#000" d="m19.558,7.97l11.933,0.004 4.528,6.401 4.498,-6.401 11.923,-0.002 -16.362,27.512z" id="path_0"/><path fill="#000" d="m44.508,4.687c-1.066,-0 -2.065,0.519 -2.678,1.391L36,14.374 30.138,6.072C29.525,5.203 28.528,4.687 27.465,4.687L17.608,4.687l11.618,19.374 6.873,11.454 6.774,-11.454 11.52,-19.374z" id="path_1"/><path fill="#000" d="M68.73,4.715L54.383,4.703l-11.51,19.357 -6.774,11.454 -6.873,-11.454L17.621,4.709 3.256,4.788C2.68,4.791 2.114,4.946 1.617,5.238 0.058,6.153 -0.464,8.157 0.45,9.716l32.79,55.98c0.588,1.002 1.662,1.617 2.824,1.617l0.003,0c1.163,-0.001 2.239,-0.619 2.825,-1.624L71.555,9.636C71.846,9.137 71.999,8.57 72,7.992 72.002,6.184 70.538,4.717 68.73,4.715Z" fill-opacity="0.5" id="path_2"/></svg>