<svg id="vector" xmlns="http://www.w3.org/2000/svg" width="72" height="72" viewBox="0 0 72 72"><path fill="#000" stroke-width="1" d="m36.121,71.383l-0.014,0C30.165,71.383 24.318,69.894 19.1,67.053L0.234,72 5.283,53.564C-12.901,22.014 22.408,-13.226 53.921,4.982 85.434,23.191 72.536,71.381 36.121,71.383Z" stroke="#00000000" fill-opacity="0.25" id="path_0"/><path fill="#000" d="m36.133,6.213a29.584,29.584 45,0 0,-25.069 45.305L11.767,52.636 8.779,63.548 19.974,60.612 21.054,61.253a29.541,29.541 0,0 0,15.055 4.122l0.012,0A29.581,29.581 0,0 0,36.133 6.213ZM53.531,48.494a9.157,9.157 0,0 1,-6.002 4.227,12.193 12.193,45 0,1 -5.601,-0.352 51.294,51.294 0,0 1,-5.069 -1.873,39.635 39.635,0 0,1 -15.19,-13.423 17.289,17.289 135,0 1,-3.631 -9.196,9.969 9.969,0 0,1 3.112,-7.416 3.268,3.268 0,0 1,2.371 -1.112c0.593,0 1.186,0.005 1.704,0.031 0.546,0.027 1.279,-0.207 2.001,1.526 0.741,1.78 2.519,6.155 2.741,6.6a1.637,1.637 0,0 1,0.074 1.557,6.068 6.068,0 0,1 -0.889,1.483c-0.445,0.519 -0.934,1.159 -1.334,1.557 -0.445,0.443 -0.909,0.924 -0.39,1.814a26.785,26.785 0,0 0,4.947 6.158,24.276 24.276,45 0,0 7.151,4.412c0.889,0.445 1.408,0.371 1.926,-0.222 0.519,-0.593 2.223,-2.596 2.815,-3.486 0.592,-0.89 1.186,-0.742 2,-0.445 0.815,0.297 5.187,2.447 6.077,2.892 0.889,0.445 1.482,0.668 1.704,1.038a7.427,7.427 0,0 1,-0.518 4.227z" fill-opacity="0.75" id="path_1"/></svg>