<svg id="vector" xmlns="http://www.w3.org/2000/svg" width="72" height="72" viewBox="0 0 72 72"><path fill="#000" d="M36,0A36,36 0,1 0,72 36,36 36,0 0,0 36,0Z" fill-opacity="0.25" id="path_0"/><path fill="#000" d="m36.561,38.79l-9.577,27.824a31.928,31.928 135,0 0,19.615 -0.509,2.85 2.85,0 0,1 -0.229,-0.44zM4.085,35.999a31.916,31.916 0,0 0,17.988 28.722L6.848,23.011a31.788,31.788 0,0 0,-2.763 12.988z" id="path_1"/><path fill="#000" d="m57.545,34.389a16.809,16.809 135,0 0,-2.631 -8.801,14.947 14.947,45 0,1 -3.135,-7.485 5.526,5.526 0,0 1,5.359 -5.664c0.142,0 0.276,0.017 0.413,0.026A31.907,31.907 135,0 0,9.335 18.469c0.749,0.024 1.455,0.039 2.054,0.039 3.338,0 8.506,-0.406 8.506,-0.406A1.319,1.319 45,0 1,20.098 20.732c0,0 -1.73,0.202 -3.652,0.303l11.621,34.57 6.986,-20.946 -4.972,-13.623c-1.72,-0.101 -3.347,-0.303 -3.347,-0.303a1.319,1.319 0,0 1,0.203 -2.63c0,0 5.269,0.406 8.405,0.406 3.338,0 8.507,-0.406 8.507,-0.406a1.319,1.319 135,0 1,0.203 2.63c0,0 -1.731,0.202 -3.652,0.303l11.533,34.306 3.292,-10.433a36.781,36.781 135,0 0,2.32 -10.52z" id="path_2"/><path fill="#000" d="m64.221,23.97a30.122,30.122 0,0 1,-2.428 11.431L52.046,63.584A31.919,31.919 45,0 0,64.006 20.689,24.44 24.44,0 0,1 64.221,23.97Z" id="path_3"/></svg>