<svg id="vector" xmlns="http://www.w3.org/2000/svg" width="72" height="72" viewBox="0 0 72 72"><path fill="#000" d="m53.897,9.477l0.032,0c3.05,0.059 5.437,0.471 8.364,2.704 2.29,1.748 3.526,4.616 4.105,6.194 0.901,2.436 2.779,18.117 2.824,21.43 0.032,2.521 0.405,7.3 -1.531,10.928 -1.641,3.077 -5.591,6.606 -13.517,6.606 -0.019,0 -0.039,0 -0.058,0 -0.122,0 -0.238,0 -0.36,0 -23.644,0 -27.994,5.186 -37.085,5.186 -0.894,0 -1.834,-0.052 -2.837,-0.157C10.128,61.96 7.882,59.158 6.66,55.505 5.553,52.198 3.34,36.216 2.89,31.397 2.394,26.081 2.993,23.056 6.087,19.946 7.985,18.034 10.411,16.548 13.505,15.395 17.61,13.85 51.484,9.477 53.897,9.477ZM53.897,6.694c-1.531,0 -11.542,1.244 -19.926,2.403C25.582,10.256 15.062,11.84 12.553,12.777 9.092,14.073 6.345,15.769 4.164,17.962 0.149,21.995 -0.34,26.192 0.162,31.659 0.554,35.895 2.787,52.584 4.067,56.402 5.791,61.554 9.15,64.651 13.531,65.129c1.081,0.118 2.11,0.177 3.133,0.177 3.841,0 6.884,-0.832 10.41,-1.794 5.546,-1.512 12.443,-3.392 26.681,-3.392l0.354,0 0.064,0c3.487,0 12.025,-0.786 15.911,-8.06 2.078,-3.889 1.956,-8.61 1.885,-11.432 -0.006,-0.314 -0.013,-0.602 -0.019,-0.864C71.905,36.399 70.014,20.28 68.952,17.392 67.723,14.06 66.031,11.559 63.927,9.955 60.498,7.336 57.584,6.766 53.987,6.694l-0.026,0z" id="path_0"/><path fill="#000" stroke-width="1" d="m70.818,39.987c-0.045,-3.47 -2.014,-19.904 -2.96,-22.457 -0.611,-1.65 -1.904,-4.655 -4.304,-6.488C60.485,8.697 57.982,8.272 54.791,8.206 52.565,8.161 16.748,12.783 12.412,14.407c-3.236,1.211 -5.778,2.77 -7.772,4.773C1.397,22.44 0.773,25.609 1.288,31.181 1.757,36.229 4.08,52.984 5.238,56.447 6.518,60.278 8.873,63.217 12.759,63.636c11.858,1.296 14.656,-5.33 42.225,-5.271 8.351,0.02 12.501,-3.693 14.232,-6.927 2.02,-3.804 1.634,-8.806 1.602,-11.451z" stroke="#00000000" fill-opacity="0.5" id="path_1"/><path fill="#000" d="m46.723,35.483c-0.09,0.052 -0.18,0.111 -0.264,0.164C45.765,36.118 45.076,36.596 44.388,37.074 42.792,38.18 33.502,44.61 33.502,44.61 32.71,45.219 31.224,46.175 30.658,45.873 30.092,45.566 29.892,43.49 29.757,42.482l-0.032,-0.223C29.558,41.048 28.22,29.512 28.065,28.241 28.02,27.881 27.801,26.565 28.207,26.264c0.431,-0.321 1.525,0.046 1.892,0.164 2.142,0.687 12.874,4.491 16.213,6.2 0.097,0.052 0.206,0.098 0.315,0.144 0.476,0.203 1.132,0.485 1.145,1.296 0.006,0.773 -0.579,1.126 -1.049,1.414z" fill-opacity="0.25" id="path_2"/><path fill="#000" d="m29.564,27.966c3.725,1.277 12.347,4.387 16.406,6.22 -0.489,0.334 -0.978,0.674 -1.467,1.015 -1.892,1.309 -12.887,8.924 -12.887,8.924l-0.058,0.039 -0.051,0.039c0,0 -0.006,0 -0.006,0.007 -0.013,-0.092 -0.019,-0.17 -0.032,-0.242L31.411,43.523 31.372,43.248C31.231,42.227 30.343,34.645 29.815,30.114 29.719,29.289 29.635,28.549 29.564,27.966ZM27.48,24.542c-0.238,0 -0.45,0.039 -0.598,0.151 -0.483,0.354 -0.219,1.918 -0.167,2.344C26.894,28.536 28.483,42.207 28.676,43.641l0.032,0.262c0.161,1.198 0.392,3.66 1.068,4.02 0.09,0.046 0.199,0.072 0.322,0.072 0.804,0 2.239,-0.936 3.05,-1.565 0,0 11.002,-7.615 12.893,-8.924 0.817,-0.57 1.634,-1.133 2.458,-1.689 0.103,-0.065 0.206,-0.131 0.315,-0.196 0.56,-0.34 1.248,-0.766 1.235,-1.676 -0.019,-0.956 -0.792,-1.29 -1.358,-1.532 -0.129,-0.052 -0.251,-0.111 -0.367,-0.17 -3.95,-2.023 -16.664,-6.528 -19.199,-7.346 -0.322,-0.105 -1.062,-0.354 -1.647,-0.354z" fill-opacity="0.75" id="path_3"/></svg>