<svg id="vector" xmlns="http://www.w3.org/2000/svg" width="72" height="72" viewBox="0 0 72 72"><path fill="#000" d="m47.991,35.282c-6.602,-3.528 -12.923,-6.799 -19.384,-10.186l0,20.259c6.799,-3.696 13.968,-7.083 19.412,-10.102 0,0 -0.028,0.028 -0.028,0.028z" fill-opacity="0.5" id="path_0"/><path fill="#000" d="M71.916,28.538C72.068,23.853 71.04,19.206 68.926,15.022 67.513,13.277 65.521,12.096 63.312,11.693 54.239,10.906 45.132,10.585 36.026,10.734 26.921,10.585 17.814,10.905 8.742,11.693 6.945,12.029 5.281,12.87 3.945,14.119 1.017,16.834 0.803,21.486 0.363,25.406c-0.483,7.064 -0.483,14.154 0,21.218 0.08,2.212 0.411,4.408 0.987,6.546 0.39,1.655 1.185,3.187 2.314,4.459 1.336,1.316 3.036,2.201 4.881,2.538 7.056,0.874 14.166,1.233 21.274,1.073l0,0c11.436,0.183 21.512,-0.011 33.378,-0.903 1.896,-0.325 3.648,-1.221 5.023,-2.567 0.893,-0.888 1.569,-1.969 1.976,-3.161 1.183,-3.585 1.765,-7.341 1.721,-11.115 0.112,-1.948 0.112,-13.007 0,-14.955zM47.99,35.281c-0.004,-0.002 -0.008,-0.004 -0.012,-0.007 -2.714,1.503 -5.851,3.097 -9.158,4.775 -3.323,1.686 -6.814,3.456 -10.214,5.305l0,-20.259 0,-0c3.231,1.693 6.426,3.358 9.639,5.04 3.209,1.68 6.436,3.378 9.732,5.139 0.012,-0.007 0.028,-0.014 0.04,-0.021z" stroke-width="3.273" id="path_1"/></svg>