<svg id="vector" xmlns="http://www.w3.org/2000/svg" width="72" height="72" viewBox="0 0 72 72"><defs><clipPath id="clip_path_0"><path d="M0.001,24.275l72.301,0l0,23.449l-72.301,0z"/></clipPath></defs><g id="g_0"><path fill="#000000" d="m45.538,29.561c-0.001,-0.188 0.034,-0.374 0.106,-0.547 0.071,-0.174 0.177,-0.331 0.31,-0.464 0.133,-0.132 0.291,-0.237 0.465,-0.308 0.174,-0.071 0.361,-0.106 0.549,-0.104l1.006,0L47.974,26.045c-0.032,-0.22 -0.015,-0.444 0.047,-0.657 0.063,-0.213 0.171,-0.41 0.317,-0.578 0.145,-0.168 0.326,-0.302 0.528,-0.394 0.203,-0.092 0.423,-0.14 0.645,-0.14 0.223,0 0.443,0.048 0.646,0.14 0.202,0.092 0.383,0.227 0.528,0.394 0.146,0.168 0.254,0.365 0.317,0.578 0.062,0.213 0.079,0.437 0.047,0.657l0,2.093l3.272,0c0.188,-0.002 0.375,0.033 0.549,0.104 0.174,0.071 0.333,0.175 0.465,0.308 0.133,0.132 0.239,0.29 0.31,0.464 0.072,0.174 0.107,0.36 0.106,0.547 -0.002,0.377 -0.154,0.739 -0.422,1.005 -0.267,0.266 -0.63,0.417 -1.009,0.418L51.051,30.983L51.051,36.023c0,2.458 1.372,3.714 3.272,3.714 0.383,0 0.75,0.152 1.02,0.421 0.27,0.27 0.422,0.636 0.422,1.017 0,0.381 -0.152,0.747 -0.422,1.017 -0.27,0.27 -0.637,0.421 -1.02,0.421 -3.61,0 -6.349,-2.539 -6.349,-6.59L47.974,30.983l-1.006,0c-0.378,-0.001 -0.741,-0.151 -1.009,-0.418 -0.268,-0.267 -0.419,-0.628 -0.422,-1.005zM13.882,35.224c0.012,-1.408 0.422,-2.785 1.183,-3.969 0.761,-1.184 1.842,-2.127 3.118,-2.719 1.275,-0.592 2.692,-0.81 4.085,-0.627 1.393,0.183 2.707,0.759 3.787,1.661 0.167,0.145 0.302,0.323 0.398,0.522 0.096,0.2 0.15,0.417 0.158,0.638 0.002,0.417 -0.158,0.818 -0.448,1.118L21.886,36.949c-0.124,0.162 -0.285,0.291 -0.469,0.379 -0.184,0.087 -0.386,0.13 -0.589,0.124 -0.187,0.01 -0.375,-0.019 -0.551,-0.084 -0.176,-0.066 -0.337,-0.167 -0.472,-0.297 -0.135,-0.131 -0.242,-0.288 -0.315,-0.462 -0.072,-0.174 -0.108,-0.361 -0.105,-0.549 -0.009,-0.168 0.016,-0.336 0.073,-0.494 0.057,-0.158 0.145,-0.303 0.259,-0.426L23.082,31.186c-0.551,-0.338 -1.186,-0.513 -1.833,-0.503 -2.389,0 -4.28,2.007 -4.28,4.541 0,2.533 1.864,4.54 4.28,4.54 0.551,0.005 1.097,-0.103 1.603,-0.32 0.507,-0.216 0.964,-0.535 1.341,-0.937 0.059,-0.048 0.115,-0.095 0.17,-0.141 0.36,-0.301 0.66,-0.551 1.165,-0.551 0.197,-0.008 0.393,0.024 0.577,0.094 0.184,0.071 0.351,0.178 0.492,0.316 0.141,0.138 0.252,0.304 0.326,0.487 0.074,0.183 0.11,0.379 0.106,0.576 -0.028,0.376 -0.187,0.73 -0.448,1.002 -0.667,0.752 -1.49,1.349 -2.411,1.75 -0.921,0.401 -1.919,0.595 -2.922,0.57 -0.972,0.015 -1.937,-0.166 -2.838,-0.531 -0.901,-0.366 -1.719,-0.91 -2.406,-1.599 -0.687,-0.689 -1.229,-1.51 -1.594,-2.413C14.046,37.165 13.866,36.198 13.882,35.224ZM7.923,30.944L1.751,30.944C1.373,30.941 1.013,30.79 0.746,30.523 0.479,30.256 0.329,29.894 0.327,29.516 0.325,29.328 0.36,29.142 0.431,28.968 0.502,28.794 0.606,28.635 0.739,28.502 0.872,28.369 1.029,28.264 1.203,28.193 1.377,28.122 1.563,28.087 1.751,28.089l9.245,0c0.188,-0.002 0.374,0.033 0.547,0.104 0.174,0.071 0.331,0.176 0.464,0.309 0.133,0.133 0.237,0.291 0.308,0.465 0.071,0.174 0.106,0.361 0.104,0.549 -0.014,0.381 -0.174,0.741 -0.446,1.007l-7.515,8.991l6.537,0c0.188,-0.002 0.374,0.033 0.547,0.104 0.174,0.071 0.331,0.176 0.464,0.309 0.133,0.133 0.237,0.291 0.308,0.465 0.071,0.174 0.106,0.361 0.104,0.549 -0.002,0.378 -0.153,0.74 -0.419,1.007 -0.267,0.267 -0.628,0.418 -1.005,0.42L1.425,42.369c-0.381,-0.004 -0.745,-0.159 -1.012,-0.432 -0.267,-0.273 -0.415,-0.64 -0.412,-1.022 0.01,-0.377 0.159,-0.738 0.419,-1.011zM32.943,46.392l0,-5.473c1.281,1.125 2.93,1.741 4.635,1.73 4.022,0 7.067,-3.266 7.067,-7.401 0,-4.135 -3.045,-7.401 -7.067,-7.401 -1.71,-0.015 -3.365,0.612 -4.635,1.757l0,-0.194c-0.053,-0.37 -0.237,-0.708 -0.519,-0.953 -0.282,-0.245 -0.643,-0.38 -1.017,-0.38 -0.374,0 -0.734,0.135 -1.016,0.38 -0.283,0.245 -0.467,0.583 -0.52,0.953L29.871,46.392c0.053,0.37 0.237,0.709 0.52,0.953 0.282,0.245 0.643,0.38 1.016,0.38 0.374,0 0.735,-0.135 1.017,-0.38 0.282,-0.244 0.466,-0.583 0.519,-0.953zM37.244,30.693c2.401,0 4.302,1.955 4.302,4.554 0,2.599 -1.901,4.554 -4.302,4.554 -2.4,0 -4.301,-1.955 -4.301,-4.554L32.943,35.049C33.029,32.567 34.844,30.693 37.244,30.693ZM58.472,31.127c-0.811,1.214 -1.244,2.642 -1.244,4.102 -0.018,0.974 0.162,1.942 0.527,2.846 0.365,0.904 0.908,1.724 1.598,2.413 0.689,0.689 1.51,1.232 2.414,1.597 0.904,0.365 1.872,0.544 2.847,0.527 1.461,0 2.889,-0.433 4.103,-1.244 1.215,-0.811 2.161,-1.964 2.721,-3.313 0.559,-1.349 0.705,-2.834 0.42,-4.266 -0.285,-1.432 -0.988,-2.748 -2.022,-3.78 -1.032,-1.033 -2.348,-1.736 -3.781,-2.021 -1.433,-0.285 -2.918,-0.139 -4.268,0.42 -1.349,0.559 -2.503,1.505 -3.315,2.719zM64.613,30.686c2.45,0 4.293,2.035 4.293,4.543 0,2.48 -1.838,4.543 -4.293,4.543 -2.454,0 -4.293,-2.035 -4.293,-4.543 0,-2.507 1.843,-4.543 4.293,-4.543z" fill-rule="evenodd" clip-path="url(#clip_path_0)"/></g></svg>