<svg id="vector" xmlns="http://www.w3.org/2000/svg" width="72" height="72" viewBox="0 0 72 72.023"><path fill="#000" d="m10.966,32.291l-0.065,2.084 -5.434,5.907c2.27,0 3.709,-0.022 4.539,-0.068 -0.24,1.121 -0.436,2.037 -0.633,3.411 -1.091,-0.092 -2.793,-0.115 -4.496,-0.115 -1.898,0 -3.557,0.023 -4.888,0.115l0.044,-2.107 5.434,-5.883c-2.379,0 -3.252,0.023 -4.233,0.045 0.218,-1.053 0.371,-2.22 0.523,-3.388 1.724,0.069 2.4,0.091 4.648,0.091 2.073,0 3.251,-0.023 4.561,-0.091zM17.142,31.672c-3.536,0 -6.241,3.16 -6.241,6.939 0,2.839 1.636,5.014 4.822,5.014 3.557,0 6.242,-3.16 6.242,-6.961 0,-2.815 -1.594,-4.991 -4.823,-4.991zM16.072,40.587c-0.786,0 -1.244,-0.711 -1.244,-2.107 0,-2.084 0.851,-3.755 1.899,-3.755 0.763,0 1.222,0.688 1.222,2.106 -0,2.061 -0.829,3.756 -1.877,3.756zM67.125,31.515c-3.582,0 -6.323,3.201 -6.323,7.028 0,2.877 1.658,5.081 4.886,5.081 3.604,0 6.323,-3.202 6.323,-7.052 0,-2.853 -1.613,-5.057 -4.886,-5.057zM65.974,40.575c-0.786,0 -1.244,-0.711 -1.244,-2.107 0,-2.084 0.851,-3.754 1.899,-3.754 0.763,0 1.222,0.687 1.222,2.106 -0,2.061 -0.83,3.756 -1.877,3.756zM40.317,35.793c0.284,-1.946 0.131,-3.709 -2.029,-3.709 -1.572,0 -3.274,1.328 -4.474,3.549 0.262,-1.832 0.109,-3.549 -2.03,-3.549 -1.615,0 -3.361,1.396 -4.561,3.709 0.306,-1.511 0.24,-3.229 0.153,-3.595 -1.244,0.206 -2.334,0.32 -3.863,0.366 0.044,1.054 -0.022,2.426 -0.218,3.732l-0.502,3.434c-0.197,1.351 -0.415,2.908 -0.633,3.893h4.059c0.022,-0.596 0.175,-1.534 0.284,-2.358l0.349,-2.358c0.284,-1.535 1.505,-3.343 2.444,-3.343 0.546,0 0.524,0.526 0.371,1.511l-0.393,2.655c-0.197,1.351 -0.414,2.908 -0.633,3.893h4.103c0.022,-0.596 0.153,-1.534 0.262,-2.358l0.349,-2.358c0.284,-1.535 1.507,-3.343 2.444,-3.343 0.546,0 0.525,0.503 0.437,1.19l-0.98,6.868h3.744zM59.922,40.029L59.485,42.731c-0.677,0.366 -1.943,0.893 -3.405,0.893 -2.488,0 -2.989,-1.328 -2.597,-4.144l0.633,-4.534h-1.224l0.346,-2.935 1.337,-0.064 0.502,-2.129 3.774,-1.42 -0.48,3.549h2.597c-0.087,0.366 -0.393,2.382 -0.479,2.999h-2.533l-0.567,4.19c-0.153,1.076 -0.065,1.465 0.676,1.465 0.547,-0 1.354,-0.321 1.856,-0.573zM45.603,41.489c1.374,-0.17 2.319,-1.495 2.547,-2.816l0.038,-0.354c-0.59,-0.132 -1.444,-0.233 -2.271,-0.131 -0.788,0.096 -1.444,0.423 -1.796,0.898 -0.266,0.341 -0.399,0.748 -0.34,1.234 0.09,0.728 0.894,1.283 1.822,1.17zM44.433,43.581c-1.939,0.238 -3.216,-0.531 -3.6,-2.282 -0.24,-1.102 0.093,-2.357 0.677,-3.105 0.782,-0.979 2.057,-1.608 3.612,-1.798 1.252,-0.155 2.306,-0.079 3.293,0.108l0.041,-0.169c0.028,-0.27 0.057,-0.54 0.017,-0.864 -0.102,-0.83 -0.757,-1.324 -2.373,-1.126 -1.09,0.134 -2.128,0.528 -2.933,0.976l-0.784,-2.368c1.092,-0.627 2.468,-1.104 4.043,-1.297 3.008,-0.369 5.122,0.59 5.393,2.796 0.072,0.587 0.08,1.208 0.006,1.772 -0.386,2.727 -0.634,4.779 -0.742,6.155 -0.018,0.213 -0.016,0.579 0.003,1.097l-3.734,-0.003c0.079,-0.215 0.151,-0.506 0.214,-0.872 0.042,-0.24 0.072,-0.544 0.091,-0.911 -0.789,1.083 -1.873,1.726 -3.225,1.892z" stroke-width="0.0375075" id="path_0"/></svg>